<svg xmlns="http://www.w3.org/2000/svg" version="1.1" xmlns:xlink="http://www.w3.org/1999/xlink" width="218" height="283"><svg width="218" height="283" viewBox="0 0 218 283" fill="none" xmlns="http://www.w3.org/2000/svg">
<rect x="0.350586" y="0.25" width="216.5" height="43.5" fill="#119CE2" stroke="#004C92" stroke-width="0.5"></rect>
<path d="M130.101 44H173.101V167.443L130.101 193V44Z" fill="#119CE2" stroke="#004C92" stroke-width="0.5" stroke-linejoin="round"></path>
<rect x="130.351" y="41.4883" width="42.501" height="4.83936" fill="#119CE2"></rect>
<path d="M0.352539 81.2557V43.7651H41.8525V62.2651C42.0192 63.2651 42.3525 66.7651 45.3525 69.7651C49.1768 73.5894 90.3525 94.7651 98.3525 101.765C104.753 107.365 107.019 115.765 107.353 119.265V209.265L67.3525 187.265V136.265C67.3525 127.265 25.3525 107.265 14.8525 101.765C6.45254 97.3651 0.352539 86.2557 0.352539 81.2557Z" fill="#119CE2" stroke="#004C92" stroke-width="0.5" stroke-linejoin="round"></path>
<rect x="0.600586" y="41.6221" width="41" height="3.41357" fill="#119CE2"></rect>
<path d="M0.333008 221.228V149H41.516V175.899V202.798L90.2324 231.689L173.101 181.378V222.5C173.101 226.087 173.601 228 169.101 231.5L94.2503 281.004C93.5806 281.336 91.5382 282 88.7257 282C85.9132 282 83.536 281.004 82.6989 280.506C59.7637 265.23 12.6879 233.881 7.86648 230.693C3.04506 227.505 0.835239 223.055 0.333008 221.228Z" fill="#004C92" stroke="black" stroke-width="0.5"></path>
</svg><style>@media (prefers-color-scheme: light) { :root { filter: none; } }
@media (prefers-color-scheme: dark) { :root { filter: none; } }
</style></svg>