<svg xmlns="http://www.w3.org/2000/svg" version="1.1" xmlns:xlink="http://www.w3.org/1999/xlink" xmlns:svgjs="http://svgjs.dev/svgjs" width="1000" height="1000"><g clip-path="url(#SvgjsClipPath1184)"><rect width="1000" height="1000" fill="#119ce2"></rect><g transform="matrix(2.5593120569191,0,0,2.5593120569191,0,300.1945077163259)"><svg xmlns="http://www.w3.org/2000/svg" version="1.1" xmlns:xlink="http://www.w3.org/1999/xlink" xmlns:svgjs="http://svgjs.dev/svgjs" width="390.73" height="156.14"><svg xmlns="http://www.w3.org/2000/svg" viewBox="0 0 390.73 156.14"><defs><style>.cls-1{fill:#fff;}</style><clipPath id="SvgjsClipPath1184"><rect width="1000" height="1000" x="0" y="0" rx="250" ry="250"></rect></clipPath></defs><g id="Layer_2" data-name="Layer 2"><g id="Layer_2-2" data-name="Layer 2"><polygon class="cls-1" points="390.74 156.14 306.75 78.07 289.96 83.41 211.57 0 134.37 78.56 123.76 74.68 113.15 78.56 91.94 60.13 0 156.14 78.38 91.81 82.39 100.74 73.56 111.3 84.86 125.43 71.31 139.66 81.33 139.66 114.92 111.85 121.01 113.97 207.29 26.15 219.24 78.07 187.85 104.74 171.5 135.78 157.35 148.38 170.62 148.38 199.79 116.38 267.86 113.47 278.46 140.63 293.49 148.38 312.94 112.5 390.74 156.14"></polygon></g></g></svg></svg></g></g></svg>