<svg xmlns="http://www.w3.org/2000/svg" version="1.1" xmlns:xlink="http://www.w3.org/1999/xlink" width="1000" height="1000"><g clip-path="url(#SvgjsClipPath1106)"><rect width="1000" height="1000" fill="#ffffff"></rect><g transform="matrix(3.1372549019607843,0,0,3.1372549019607843,139.21568627450984,100)"><svg xmlns="http://www.w3.org/2000/svg" version="1.1" xmlns:xlink="http://www.w3.org/1999/xlink" width="230" height="255"><svg width="230" height="255" viewBox="0 0 230 255" fill="none" xmlns="http://www.w3.org/2000/svg">
<path d="M0 76.2194C0 62.9646 10.7452 52.2194 24 52.2194V202.219C10.7452 202.219 0 191.474 0 178.219V76.2194Z" fill="#119CE2"></path>
<path d="M102.12 3.21939C113.599 -3.40801 128.277 0.524987 134.904 12.004L135.446 12.9421L5.54226 87.9424L5.00065 87.0044C-1.62678 75.525 2.30624 60.8468 13.7853 54.2194L102.12 3.21939Z" fill="#119CE2"></path>
<path d="M216.661 54.2194C228.14 60.8468 232.073 75.525 225.445 87.0044L224.531 88.5884L94.627 13.588L95.542 12.004C102.169 0.524987 116.847 -3.40801 128.326 3.21939L216.661 54.2194Z" fill="#119CE2"></path>
<path d="M229.827 178.219C229.827 191.474 219.082 202.219 205.827 202.219H203.998V52.2194H205.827C219.082 52.2194 229.827 62.9646 229.827 76.2194V178.219Z" fill="#119CE2"></path>
<path d="M127.699 251.588C116.22 258.215 101.541 254.282 94.914 242.803L94 241.219L223.903 166.219L224.818 167.803C231.445 179.282 227.512 193.96 216.033 200.588L127.699 251.588Z" fill="#119CE2"></path>
<path d="M13.7852 200.588C2.30624 193.96 -1.62677 179.282 5.00065 167.803L5.91515 166.219L135.819 241.219L134.905 242.803C128.277 254.282 113.599 258.215 102.12 251.588L13.7852 200.588Z" fill="#119CE2"></path>
<path d="M80 153.219C94.3594 153.219 106 141.579 106 127.219C106 112.86 94.3594 101.219 80 101.219C65.6406 101.219 54 112.86 54 127.219C54 141.579 65.6406 153.219 80 153.219Z" fill="#119CE2"></path>
<path d="M152 184.219C163.598 184.219 173 174.817 173 163.219C173 151.621 163.598 142.219 152 142.219C140.402 142.219 131 151.621 131 163.219C131 174.817 140.402 184.219 152 184.219Z" fill="#119CE2"></path>
<path d="M144 101.219C155.598 101.219 165 91.8173 165 80.2194C165 68.6214 155.598 59.2194 144 59.2194C132.402 59.2194 123 68.6214 123 80.2194C123 91.8173 132.402 101.219 144 101.219Z" fill="#119CE2"></path>
<path d="M90 150.219H71V221.219H90V150.219Z" fill="#119CE2"></path>
<path d="M147.184 178.963L135.744 162.624L77.5843 203.348L89.0246 219.687L147.184 178.963Z" fill="#119CE2"></path>
<path d="M149.665 88.9381L138.107 73.2465L80.9408 115.353L92.4986 131.045L149.665 88.9381Z" fill="#119CE2"></path>
<path d="M69.9663 132.342L80.6543 114.434L19.6878 78.0464L8.99978 95.9537L69.9663 132.342Z" fill="#119CE2"></path>
</svg></svg></g></g><defs><clipPath id="SvgjsClipPath1106"><rect width="1000" height="1000" x="0" y="0" rx="200" ry="200"></rect></clipPath></defs></svg>