<?xml version="1.0" standalone="no"?>
<!DOCTYPE svg PUBLIC "-//W3C//DTD SVG 20010904//EN"
 "http://www.w3.org/TR/2001/REC-SVG-20010904/DTD/svg10.dtd">
<svg version="1.0" xmlns="http://www.w3.org/2000/svg"
 width="1564.000000pt" height="1564.000000pt" viewBox="0 0 1564.000000 1564.000000"
 preserveAspectRatio="xMidYMid meet">
<metadata>
Created by potrace 1.14, written by Peter Selinger 2001-2017
</metadata>
<g transform="translate(0.000000,1564.000000) scale(0.100000,-0.100000)"
fill="#000000" stroke="none">
<path d="M8143 9782 c-108 -110 -769 -782 -1053 -1072 -84 -85 -319 -324 -522
-532 l-370 -376 -82 30 c-44 16 -92 33 -106 38 -14 4 -40 15 -59 23 -30 13
-38 12 -85 -6 -189 -72 -235 -86 -248 -74 -41 37 -236 208 -266 232 -13 11
-42 36 -63 55 -20 19 -59 53 -85 75 -26 22 -66 57 -88 77 -23 21 -44 38 -47
38 -3 0 -20 -15 -37 -32 -17 -18 -80 -85 -140 -148 -143 -149 -205 -214 -383
-401 -81 -85 -175 -184 -210 -220 -35 -37 -134 -139 -219 -229 -178 -187 -222
-233 -443 -464 -89 -93 -209 -218 -267 -279 -58 -60 -132 -138 -165 -172 -33
-34 -132 -138 -220 -231 -88 -92 -199 -207 -246 -256 -47 -48 -83 -88 -80 -88
4 0 65 48 137 108 72 59 148 121 170 139 93 75 195 160 214 176 15 13 166 137
204 167 10 8 29 25 42 38 13 12 27 22 33 22 5 0 11 3 13 8 2 4 59 53 128 110
69 56 132 108 140 115 8 6 53 44 100 82 47 39 92 76 100 83 29 24 65 54 93 75
16 12 36 29 45 37 10 9 42 36 72 60 30 24 62 51 72 60 9 8 31 26 49 40 18 14
37 30 43 35 6 6 31 26 56 45 24 19 52 42 60 50 9 9 33 29 55 45 22 17 46 37
55 45 8 8 38 33 65 55 27 22 59 48 69 58 11 9 23 17 28 17 7 0 39 -54 38 -65
0 -3 16 -36 35 -75 19 -38 35 -75 35 -81 0 -7 -17 -33 -37 -58 -21 -25 -45
-54 -53 -65 -8 -10 -25 -29 -37 -42 -13 -13 -23 -25 -23 -28 0 -3 -14 -20 -31
-38 -52 -56 -52 -57 9 -134 32 -39 68 -85 82 -103 14 -18 35 -44 48 -59 13
-15 37 -46 54 -69 17 -24 35 -43 39 -43 4 0 9 -7 11 -16 2 -10 -39 -61 -103
-128 -210 -219 -239 -250 -239 -256 0 -3 58 -5 129 -5 l129 1 79 64 c43 36 83
69 89 75 6 6 40 33 74 60 34 28 74 61 89 75 15 14 61 52 102 85 40 32 79 64
85 70 6 5 28 24 48 40 39 31 61 49 106 88 14 12 61 51 105 87 44 36 83 70 88
77 9 15 76 9 120 -11 18 -7 40 -16 50 -20 13 -4 79 57 270 250 138 141 338
343 442 449 188 190 804 816 1332 1353 245 249 272 274 277 252 3 -14 21 -93
40 -177 20 -84 38 -167 41 -184 3 -18 8 -35 10 -39 2 -4 7 -20 9 -36 3 -16 8
-40 12 -54 3 -14 9 -41 14 -60 7 -33 47 -203 56 -245 3 -11 7 -31 10 -45 10
-50 55 -246 65 -285 6 -22 13 -51 15 -65 3 -14 11 -51 19 -83 8 -32 15 -66 14
-75 0 -9 -70 -75 -155 -147 -85 -71 -167 -140 -182 -153 -15 -13 -49 -42 -76
-65 -28 -23 -57 -49 -66 -57 -8 -8 -35 -31 -60 -50 -24 -19 -59 -48 -76 -65
-18 -16 -46 -41 -64 -55 -17 -14 -41 -34 -54 -45 -12 -11 -38 -33 -58 -50 -35
-30 -51 -56 -138 -225 -24 -47 -47 -87 -50 -90 -3 -3 -24 -43 -48 -90 -23 -47
-61 -121 -85 -165 -24 -44 -67 -125 -96 -180 -54 -101 -68 -118 -211 -245 -41
-36 -87 -78 -104 -93 -17 -16 -48 -43 -68 -60 -21 -17 -38 -34 -38 -37 0 -3
77 -6 170 -6 l171 1 62 66 c34 37 98 106 142 155 44 48 91 99 104 113 13 15
51 57 85 95 33 37 77 85 96 106 19 20 69 75 110 120 41 46 98 107 126 137 28
29 49 55 47 56 -2 2 16 4 39 4 24 1 99 4 168 7 69 3 181 8 250 11 69 3 190 8
270 11 80 4 193 7 252 8 60 0 108 3 108 6 0 3 35 5 78 6 42 0 154 4 247 8 94
4 224 9 289 9 l119 2 28 -70 c16 -38 51 -131 80 -205 28 -74 72 -187 97 -250
24 -63 51 -133 59 -155 14 -39 20 -43 213 -140 109 -55 201 -97 204 -94 5 5
23 37 82 149 16 30 32 57 35 60 3 3 11 20 18 38 8 17 17 32 22 32 5 0 9 7 9
14 0 8 15 41 33 73 19 32 52 92 74 133 22 41 49 91 60 110 11 20 37 68 58 108
20 40 41 74 45 77 5 3 11 19 15 35 4 17 10 30 14 30 4 0 15 18 25 40 10 22 21
40 26 40 9 0 19 -5 151 -80 39 -22 75 -40 80 -40 5 0 9 -3 9 -8 0 -4 15 -14
33 -21 17 -8 55 -28 82 -44 28 -16 79 -45 115 -65 36 -19 67 -38 70 -41 3 -3
25 -16 50 -28 25 -13 68 -36 95 -53 28 -17 57 -33 65 -37 8 -4 80 -43 160 -88
80 -45 165 -93 190 -107 25 -14 171 -96 325 -183 154 -87 303 -170 330 -185
28 -15 73 -40 100 -55 28 -16 59 -33 70 -39 11 -6 22 -14 25 -17 3 -3 20 -11
38 -18 17 -8 32 -17 32 -22 0 -5 8 -9 17 -9 12 0 5 11 -23 36 -21 19 -86 80
-144 133 -58 54 -121 113 -140 131 -19 18 -82 76 -140 130 -58 54 -121 112
-140 130 -19 18 -82 77 -140 130 -58 54 -118 111 -135 126 -16 15 -86 79 -155
144 -69 64 -154 143 -189 176 -35 32 -81 75 -101 94 -20 19 -78 73 -129 120
-51 47 -126 117 -166 155 -40 39 -110 104 -155 145 -146 134 -367 340 -413
384 l-30 28 -51 -15 c-28 -8 -130 -40 -227 -69 l-175 -55 -37 41 c-20 23 -67
73 -104 112 -37 39 -120 126 -183 194 -63 67 -137 146 -165 175 -27 29 -99
105 -160 170 -60 64 -125 134 -145 154 -19 20 -89 95 -155 165 -66 71 -140
150 -165 176 -25 26 -97 103 -160 170 -63 68 -128 137 -145 155 -16 17 -82 86
-145 154 -63 67 -146 155 -185 196 -107 113 -277 294 -307 327 l-26 29 -109
-109z"/>
</g>
</svg>
