<?xml version="1.0" standalone="no"?>
<!DOCTYPE svg PUBLIC "-//W3C//DTD SVG 20010904//EN"
 "http://www.w3.org/TR/2001/REC-SVG-20010904/DTD/svg10.dtd">
<svg version="1.0" xmlns="http://www.w3.org/2000/svg"
 width="201.000000pt" height="201.000000pt" viewBox="0 0 201.000000 201.000000"
 preserveAspectRatio="xMidYMid meet">
<metadata>
Created by potrace 1.14, written by Peter Selinger 2001-2017
</metadata>
<g transform="translate(0.000000,201.000000) scale(0.100000,-0.100000)"
fill="#000000" stroke="none">
<path d="M1080 1614 c0 -7 -253 -407 -300 -474 -5 -8 -25 -39 -44 -68 -44 -69
-41 -67 -75 -53 -24 11 -33 10 -53 -3 -23 -15 -24 -14 -73 54 -28 38 -53 69
-57 69 -4 1 -20 -18 -35 -41 -171 -271 -431 -688 -428 -688 2 0 91 109 197
242 l193 241 9 -32 c7 -25 5 -41 -13 -77 l-23 -44 30 -53 29 -52 -33 -53 c-19
-29 -34 -54 -34 -57 0 -3 11 -5 25 -5 19 0 43 23 112 109 61 76 91 107 99 100
17 -14 0 -38 329 473 l130 201 6 -39 c9 -48 13 -77 34 -224 9 -63 19 -118 21
-122 2 -3 -34 -55 -80 -116 -77 -100 -88 -119 -122 -223 -20 -63 -51 -134 -68
-159 -51 -72 -51 -70 -12 -68 33 1 39 7 78 72 59 96 65 106 84 144 10 17 22
32 28 33 6 1 22 2 36 4 21 2 116 8 280 18 24 2 27 -4 52 -102 24 -93 31 -108
65 -137 26 -22 40 -29 44 -21 4 7 26 66 49 132 24 66 46 123 49 126 3 4 91
-67 196 -156 104 -90 191 -162 193 -160 2 1 -23 39 -55 83 -58 80 -142 201
-284 404 -41 59 -80 107 -87 107 -7 1 -27 -6 -44 -15 -25 -13 -33 -14 -43 -2
-11 11 -166 259 -323 518 -52 86 -82 127 -82 114z"/>
</g>
</svg>
