<?xml version="1.0" encoding="UTF-8"?>
<svg xmlns="http://www.w3.org/2000/svg" version="1.1" xmlns:xlink="http://www.w3.org/1999/xlink" viewBox="0 0 450 450">
  <defs>
    <style>
      .cls-1 {
        stroke: #535354;
      }

      .cls-1, .cls-2, .cls-3, .cls-4, .cls-5, .cls-6, .cls-7, .cls-8, .cls-9, .cls-10, .cls-11, .cls-12, .cls-13, .cls-14, .cls-15, .cls-16, .cls-17, .cls-18, .cls-19, .cls-20, .cls-21, .cls-22, .cls-23, .cls-24, .cls-25, .cls-26, .cls-27, .cls-28, .cls-29, .cls-30, .cls-31, .cls-32, .cls-33, .cls-34, .cls-35, .cls-36, .cls-37, .cls-38, .cls-39, .cls-40, .cls-41, .cls-42, .cls-43, .cls-44, .cls-45, .cls-46, .cls-47, .cls-48, .cls-49, .cls-50, .cls-51, .cls-52, .cls-53, .cls-54, .cls-55, .cls-56, .cls-57, .cls-58, .cls-59, .cls-60, .cls-61, .cls-62, .cls-63, .cls-64 {
        fill: none;
      }

      .cls-1, .cls-2, .cls-3, .cls-4, .cls-5, .cls-6, .cls-7, .cls-8, .cls-9, .cls-10, .cls-11, .cls-12, .cls-13, .cls-14, .cls-15, .cls-16, .cls-17, .cls-18, .cls-19, .cls-20, .cls-21, .cls-22, .cls-23, .cls-24, .cls-26, .cls-27, .cls-28, .cls-29, .cls-30, .cls-31, .cls-32, .cls-33, .cls-34, .cls-35, .cls-36, .cls-37, .cls-38, .cls-39, .cls-40, .cls-41, .cls-42, .cls-43, .cls-44, .cls-45, .cls-46, .cls-47, .cls-48, .cls-49, .cls-50, .cls-51, .cls-52, .cls-53, .cls-54, .cls-55, .cls-56, .cls-57, .cls-58, .cls-59, .cls-60, .cls-61, .cls-62, .cls-63, .cls-64 {
        stroke-miterlimit: 10;
      }

      .cls-1, .cls-43 {
        opacity: .9;
      }

      .cls-65 {
        fill: #ccc;
      }

      .cls-65, .cls-66, .cls-25, .cls-67, .cls-68, .cls-69 {
        stroke-width: 0px;
      }

      .cls-2 {
        stroke: #4d4d4e;
      }

      .cls-2, .cls-8 {
        opacity: .9;
      }

      .cls-3 {
        stroke: #bbbbbc;
      }

      .cls-3, .cls-57 {
        opacity: .4;
      }

      .cls-4 {
        stroke: #afafb0;
      }

      .cls-4, .cls-62 {
        opacity: .4;
      }

      .cls-5 {
        stroke: #9d9d9d;
      }

      .cls-5, .cls-60 {
        opacity: .5;
      }

      .cls-6 {
        stroke: #d4d4d5;
      }

      .cls-6, .cls-36 {
        opacity: .3;
      }

      .cls-7 {
        stroke: #bebfc0;
      }

      .cls-7, .cls-16 {
        opacity: .4;
      }

      .cls-8 {
        stroke: #636466;
      }

      .cls-9 {
        stroke: #78797b;
      }

      .cls-9, .cls-35 {
        opacity: .8;
      }

      .cls-10 {
        stroke: #727173;
      }

      .cls-10, .cls-61 {
        opacity: .7;
      }

      .cls-11 {
        stroke: #7e7e7f;
      }

      .cls-11, .cls-15 {
        opacity: .7;
      }

      .cls-12 {
        stroke: #efefef;
      }

      .cls-12, .cls-30 {
        opacity: 0;
      }

      .cls-13 {
        stroke: #59595a;
      }

      .cls-13, .cls-37 {
        opacity: .9;
      }

      .cls-14 {
        stroke: #f3f3f3;
      }

      .cls-14, .cls-17 {
        opacity: 0;
      }

      .cls-15 {
        stroke: #8e8e90;
      }

      .cls-16 {
        stroke: #b5b5b6;
      }

      .cls-17 {
        stroke: #f4f4f4;
      }

      .cls-18 {
        stroke: #787879;
      }

      .cls-18, .cls-34 {
        opacity: .7;
      }

      .cls-19 {
        stroke: #5d5e60;
      }

      .cls-19, .cls-52 {
        opacity: 1;
      }

      .cls-20 {
        stroke: #e0e0e1;
      }

      .cls-20, .cls-58 {
        opacity: .2;
      }

      .cls-70 {
        isolation: isolate;
      }

      .cls-66 {
        fill: #b5b5b5;
      }

      .cls-21 {
        stroke: #979697;
      }

      .cls-21, .cls-56 {
        opacity: .5;
      }

      .cls-22 {
        stroke: #aeafb0;
      }

      .cls-22, .cls-27 {
        opacity: .5;
      }

      .cls-23 {
        stroke: #848485;
      }

      .cls-23, .cls-63 {
        opacity: .6;
      }

      .cls-24 {
        stroke: #7e7e80;
      }

      .cls-24, .cls-28 {
        opacity: .8;
      }

      .cls-26 {
        stroke: #99999b;
      }

      .cls-26, .cls-33 {
        opacity: .6;
      }

      .cls-27 {
        stroke: #a3a3a4;
      }

      .cls-71 {
        clip-path: url(#clippath-1);
      }

      .cls-28 {
        stroke: #6c6b6d;
      }

      .cls-29 {
        stroke: #5f5f60;
      }

      .cls-29, .cls-50 {
        opacity: .8;
      }

      .cls-30 {
        stroke: #ededed;
      }

      .cls-67 {
        fill: #666;
      }

      .cls-31 {
        stroke: #e6e6e7;
      }

      .cls-31, .cls-44 {
        opacity: .1;
      }

      .cls-32 {
        stroke: #d9d9da;
      }

      .cls-32, .cls-38 {
        opacity: .2;
      }

      .cls-33 {
        stroke: #8a8a8b;
      }

      .cls-34 {
        stroke: #89898b;
      }

      .cls-35 {
        stroke: #656567;
      }

      .cls-36 {
        stroke: #cecece;
      }

      .cls-37 {
        stroke: #6e6e70;
      }

      .cls-38 {
        stroke: #d4d4d4;
      }

      .cls-39 {
        stroke: #fafafa;
      }

      .cls-39, .cls-64 {
        opacity: 0;
      }

      .cls-40 {
        opacity: 0;
        stroke: #fff;
      }

      .cls-41 {
        stroke: #cfcfcf;
      }

      .cls-41, .cls-47 {
        opacity: .3;
      }

      .cls-68 {
        fill: #e6e6e6;
      }

      .cls-42 {
        stroke: #1a1a1a;
      }

      .cls-43 {
        stroke: #68696b;
      }

      .cls-72 {
        clip-path: url(#clippath);
      }

      .cls-44 {
        stroke: #e9eaea;
      }

      .cls-69 {
        fill: #707070;
      }

      .cls-45 {
        stroke: #9e9fa0;
      }

      .cls-45, .cls-54 {
        opacity: .6;
      }

      .cls-46 {
        stroke: #b4b4b5;
      }

      .cls-46, .cls-55 {
        opacity: .5;
      }

      .cls-47 {
        stroke: #c8c8c8;
      }

      .cls-48 {
        stroke: #333;
      }

      .cls-49 {
        stroke: #dfdfdf;
      }

      .cls-49, .cls-59 {
        opacity: .2;
      }

      .cls-50 {
        stroke: #737476;
      }

      .cls-51 {
        stroke: #c9c9ca;
      }

      .cls-51, .cls-53 {
        opacity: .3;
      }

      .cls-52 {
        stroke: #474648;
      }

      .cls-53 {
        stroke: #c2c1c2;
      }

      .cls-54 {
        stroke: #909091;
      }

      .cls-55, .cls-60 {
        stroke: #a9a9aa;
      }

      .cls-56 {
        stroke: #a3a4a5;
      }

      .cls-57 {
        stroke: #c4c4c5;
      }

      .cls-73 {
        mix-blend-mode: multiply;
      }

      .cls-58 {
        stroke: #e4e4e5;
      }

      .cls-59 {
        stroke: #dadada;
      }

      .cls-61 {
        stroke: #838485;
      }

      .cls-62 {
        stroke: #b9b9ba;
      }

      .cls-63 {
        stroke: #939495;
      }

      .cls-64 {
        stroke: #f9f9f9;
      }
    </style>
    <clipPath id="clippath">
      <rect class="cls-25" width="450" height="450"/>
    </clipPath>
    <clipPath id="clippath-1">
      <rect class="cls-25" width="450" height="450"/>
    </clipPath>
  </defs>
  <g class="cls-70">
    <g id="Layer_1" data-name="Layer 1">
      <g class="cls-72">
        <g>
          <rect class="cls-65" x="-6" y="-4" width="3.8" height="1.8"/>
          <rect class="cls-65" x="17.5" y="-4" width="19.6" height="1.8"/>
          <rect class="cls-65" x="56.7" y="-4" width="19.6" height="1.8"/>
          <rect class="cls-65" x="95.9" y="-4" width="19.6" height="1.8"/>
          <rect class="cls-65" x="135.1" y="-4" width="19.6" height="1.8"/>
          <rect class="cls-65" x="174.4" y="-4" width="19.6" height="1.8"/>
          <rect class="cls-65" x="213.6" y="-4" width="19.6" height="1.8"/>
          <rect class="cls-65" x="252.8" y="-4" width="19.6" height="1.8"/>
          <rect class="cls-65" x="292" y="-4" width="19.6" height="1.8"/>
          <rect class="cls-65" x="331.3" y="-4" width="19.6" height="1.8"/>
          <rect class="cls-65" x="370.5" y="-4" width="19.6" height="1.8"/>
          <rect class="cls-65" x="409.7" y="-4" width="19.6" height="1.8"/>
          <rect class="cls-65" x="449" y="-4" width="5" height="1.8"/>
          <rect class="cls-65" x="-2.2" y="-2.2" width="19.6" height="19.6"/>
          <rect class="cls-65" x="37.1" y="-2.2" width="19.6" height="19.6"/>
          <rect class="cls-65" x="76.3" y="-2.2" width="19.6" height="19.6"/>
          <rect class="cls-65" x="115.5" y="-2.2" width="19.6" height="19.6"/>
          <rect class="cls-65" x="154.7" y="-2.2" width="19.6" height="19.6"/>
          <rect class="cls-65" x="194" y="-2.2" width="19.6" height="19.6"/>
          <rect class="cls-65" x="233.2" y="-2.2" width="19.6" height="19.6"/>
          <rect class="cls-65" x="272.4" y="-2.2" width="19.6" height="19.6"/>
          <rect class="cls-65" x="311.7" y="-2.2" width="19.6" height="19.6"/>
          <rect class="cls-65" x="350.9" y="-2.2" width="19.6" height="19.6"/>
          <rect class="cls-65" x="390.1" y="-2.2" width="19.6" height="19.6"/>
          <rect class="cls-65" x="429.3" y="-2.2" width="19.6" height="19.6"/>
          <rect class="cls-65" x="-6" y="17.5" width="3.8" height="19.6"/>
          <rect class="cls-65" x="17.5" y="17.5" width="19.6" height="19.6"/>
          <rect class="cls-65" x="56.7" y="17.5" width="19.6" height="19.6"/>
          <rect class="cls-65" x="95.9" y="17.5" width="19.6" height="19.6"/>
          <rect class="cls-65" x="135.1" y="17.5" width="19.6" height="19.6"/>
          <rect class="cls-65" x="174.4" y="17.5" width="19.6" height="19.6"/>
          <rect class="cls-65" x="213.6" y="17.5" width="19.6" height="19.6"/>
          <rect class="cls-65" x="252.8" y="17.5" width="19.6" height="19.6"/>
          <rect class="cls-65" x="292" y="17.5" width="19.6" height="19.6"/>
          <rect class="cls-65" x="331.3" y="17.5" width="19.6" height="19.6"/>
          <rect class="cls-65" x="370.5" y="17.5" width="19.6" height="19.6"/>
          <rect class="cls-65" x="409.7" y="17.5" width="19.6" height="19.6"/>
          <rect class="cls-65" x="449" y="17.5" width="5" height="19.6"/>
          <rect class="cls-65" x="-2.2" y="37.1" width="19.6" height="19.6"/>
          <rect class="cls-65" x="37.1" y="37.1" width="19.6" height="19.6"/>
          <rect class="cls-65" x="76.3" y="37.1" width="19.6" height="19.6"/>
          <rect class="cls-65" x="115.5" y="37.1" width="19.6" height="19.6"/>
          <rect class="cls-65" x="154.7" y="37.1" width="19.6" height="19.6"/>
          <rect class="cls-65" x="194" y="37.1" width="19.6" height="19.6"/>
          <rect class="cls-65" x="233.2" y="37.1" width="19.6" height="19.6"/>
          <rect class="cls-65" x="272.4" y="37.1" width="19.6" height="19.6"/>
          <rect class="cls-65" x="311.7" y="37.1" width="19.6" height="19.6"/>
          <rect class="cls-65" x="350.9" y="37.1" width="19.6" height="19.6"/>
          <rect class="cls-65" x="390.1" y="37.1" width="19.6" height="19.6"/>
          <rect class="cls-65" x="429.3" y="37.1" width="19.6" height="19.6"/>
          <rect class="cls-65" x="-6" y="56.7" width="3.8" height="19.6"/>
          <rect class="cls-65" x="17.5" y="56.7" width="19.6" height="19.6"/>
          <rect class="cls-65" x="56.7" y="56.7" width="19.6" height="19.6"/>
          <rect class="cls-65" x="95.9" y="56.7" width="19.6" height="19.6"/>
          <rect class="cls-65" x="135.1" y="56.7" width="19.6" height="19.6"/>
          <rect class="cls-65" x="174.4" y="56.7" width="19.6" height="19.6"/>
          <rect class="cls-65" x="213.6" y="56.7" width="19.6" height="19.6"/>
          <rect class="cls-65" x="252.8" y="56.7" width="19.6" height="19.6"/>
          <rect class="cls-65" x="292" y="56.7" width="19.6" height="19.6"/>
          <rect class="cls-65" x="331.3" y="56.7" width="19.6" height="19.6"/>
          <rect class="cls-65" x="370.5" y="56.7" width="19.6" height="19.6"/>
          <rect class="cls-65" x="409.7" y="56.7" width="19.6" height="19.6"/>
          <rect class="cls-65" x="449" y="56.7" width="5" height="19.6"/>
          <rect class="cls-65" x="-2.2" y="76.3" width="19.6" height="19.6"/>
          <rect class="cls-65" x="37.1" y="76.3" width="19.6" height="19.6"/>
          <rect class="cls-65" x="76.3" y="76.3" width="19.6" height="19.6"/>
          <rect class="cls-65" x="115.5" y="76.3" width="19.6" height="19.6"/>
          <rect class="cls-65" x="154.7" y="76.3" width="19.6" height="19.6"/>
          <rect class="cls-65" x="194" y="76.3" width="19.6" height="19.6"/>
          <rect class="cls-65" x="233.2" y="76.3" width="19.6" height="19.6"/>
          <rect class="cls-65" x="272.4" y="76.3" width="19.6" height="19.6"/>
          <rect class="cls-65" x="311.7" y="76.3" width="19.6" height="19.6"/>
          <rect class="cls-65" x="350.9" y="76.3" width="19.6" height="19.6"/>
          <rect class="cls-65" x="390.1" y="76.3" width="19.6" height="19.6"/>
          <rect class="cls-65" x="429.3" y="76.3" width="19.6" height="19.6"/>
          <rect class="cls-65" x="-6" y="95.9" width="3.8" height="19.6"/>
          <rect class="cls-65" x="17.5" y="95.9" width="19.6" height="19.6"/>
          <rect class="cls-65" x="56.7" y="95.9" width="19.6" height="19.6"/>
          <rect class="cls-65" x="95.9" y="95.9" width="19.6" height="19.6"/>
          <rect class="cls-65" x="135.1" y="95.9" width="19.6" height="19.6"/>
          <rect class="cls-65" x="174.4" y="95.9" width="19.6" height="19.6"/>
          <rect class="cls-65" x="213.6" y="95.9" width="19.6" height="19.6"/>
          <rect class="cls-65" x="252.8" y="95.9" width="19.6" height="19.6"/>
          <rect class="cls-65" x="292" y="95.9" width="19.6" height="19.6"/>
          <rect class="cls-65" x="331.3" y="95.9" width="19.6" height="19.6"/>
          <rect class="cls-65" x="370.5" y="95.9" width="19.6" height="19.6"/>
          <rect class="cls-65" x="409.7" y="95.9" width="19.6" height="19.6"/>
          <rect class="cls-65" x="449" y="95.9" width="5" height="19.6"/>
          <rect class="cls-65" x="-2.2" y="115.5" width="19.6" height="19.6"/>
          <rect class="cls-65" x="37.1" y="115.5" width="19.6" height="19.6"/>
          <rect class="cls-65" x="76.3" y="115.5" width="19.6" height="19.6"/>
          <rect class="cls-65" x="115.5" y="115.5" width="19.6" height="19.6"/>
          <rect class="cls-65" x="154.7" y="115.5" width="19.6" height="19.6"/>
          <rect class="cls-65" x="194" y="115.5" width="19.6" height="19.6"/>
          <rect class="cls-65" x="233.2" y="115.5" width="19.6" height="19.6"/>
          <rect class="cls-65" x="272.4" y="115.5" width="19.6" height="19.6"/>
          <rect class="cls-65" x="311.7" y="115.5" width="19.6" height="19.6"/>
          <rect class="cls-65" x="350.9" y="115.5" width="19.6" height="19.6"/>
          <rect class="cls-65" x="390.1" y="115.5" width="19.6" height="19.6"/>
          <rect class="cls-65" x="429.3" y="115.5" width="19.6" height="19.6"/>
          <rect class="cls-65" x="-6" y="135.1" width="3.8" height="19.6"/>
          <rect class="cls-65" x="17.5" y="135.1" width="19.6" height="19.6"/>
          <rect class="cls-65" x="56.7" y="135.1" width="19.6" height="19.6"/>
          <rect class="cls-65" x="95.9" y="135.1" width="19.6" height="19.6"/>
          <rect class="cls-65" x="135.1" y="135.1" width="19.6" height="19.6"/>
          <rect class="cls-65" x="174.4" y="135.1" width="19.6" height="19.6"/>
          <rect class="cls-65" x="213.6" y="135.1" width="19.6" height="19.6"/>
          <rect class="cls-65" x="252.8" y="135.1" width="19.6" height="19.6"/>
          <rect class="cls-65" x="292" y="135.1" width="19.6" height="19.6"/>
          <rect class="cls-65" x="331.3" y="135.1" width="19.6" height="19.6"/>
          <rect class="cls-65" x="370.5" y="135.1" width="19.6" height="19.6"/>
          <rect class="cls-65" x="409.7" y="135.1" width="19.6" height="19.6"/>
          <rect class="cls-65" x="449" y="135.1" width="5" height="19.6"/>
          <rect class="cls-65" x="-2.2" y="154.7" width="19.6" height="19.6"/>
          <rect class="cls-65" x="37.1" y="154.7" width="19.6" height="19.6"/>
          <rect class="cls-65" x="76.3" y="154.7" width="19.6" height="19.6"/>
          <rect class="cls-65" x="115.5" y="154.7" width="19.6" height="19.6"/>
          <rect class="cls-65" x="154.7" y="154.7" width="19.6" height="19.6"/>
          <rect class="cls-65" x="194" y="154.7" width="19.6" height="19.6"/>
          <rect class="cls-65" x="233.2" y="154.7" width="19.6" height="19.6"/>
          <rect class="cls-65" x="272.4" y="154.7" width="19.6" height="19.6"/>
          <rect class="cls-65" x="311.7" y="154.7" width="19.6" height="19.6"/>
          <rect class="cls-65" x="350.9" y="154.7" width="19.6" height="19.6"/>
          <rect class="cls-65" x="390.1" y="154.7" width="19.6" height="19.6"/>
          <rect class="cls-65" x="429.3" y="154.7" width="19.6" height="19.6"/>
          <rect class="cls-65" x="-6" y="174.4" width="3.8" height="19.6"/>
          <rect class="cls-65" x="17.5" y="174.4" width="19.6" height="19.6"/>
          <rect class="cls-65" x="56.7" y="174.4" width="19.6" height="19.6"/>
          <rect class="cls-65" x="95.9" y="174.4" width="19.6" height="19.6"/>
          <rect class="cls-65" x="135.1" y="174.4" width="19.6" height="19.6"/>
          <rect class="cls-65" x="174.4" y="174.4" width="19.6" height="19.6"/>
          <rect class="cls-65" x="213.6" y="174.4" width="19.6" height="19.6"/>
          <rect class="cls-65" x="252.8" y="174.4" width="19.6" height="19.6"/>
          <rect class="cls-65" x="292" y="174.4" width="19.6" height="19.6"/>
          <rect class="cls-65" x="331.3" y="174.4" width="19.6" height="19.6"/>
          <rect class="cls-65" x="370.5" y="174.4" width="19.6" height="19.6"/>
          <rect class="cls-65" x="409.7" y="174.4" width="19.6" height="19.6"/>
          <rect class="cls-65" x="449" y="174.4" width="5" height="19.6"/>
          <rect class="cls-65" x="-2.2" y="194" width="19.6" height="19.6"/>
          <rect class="cls-65" x="37.1" y="194" width="19.6" height="19.6"/>
          <rect class="cls-65" x="76.3" y="194" width="19.6" height="19.6"/>
          <rect class="cls-65" x="115.5" y="194" width="19.6" height="19.6"/>
          <rect class="cls-65" x="154.7" y="194" width="19.6" height="19.6"/>
          <rect class="cls-65" x="194" y="194" width="19.6" height="19.6"/>
          <rect class="cls-65" x="233.2" y="194" width="19.6" height="19.6"/>
          <rect class="cls-65" x="272.4" y="194" width="19.6" height="19.6"/>
          <rect class="cls-65" x="311.7" y="194" width="19.6" height="19.6"/>
          <rect class="cls-65" x="350.9" y="194" width="19.6" height="19.6"/>
          <rect class="cls-65" x="390.1" y="194" width="19.6" height="19.6"/>
          <rect class="cls-65" x="429.3" y="194" width="19.6" height="19.6"/>
          <rect class="cls-65" x="-6" y="213.6" width="3.8" height="19.6"/>
          <rect class="cls-65" x="17.5" y="213.6" width="19.6" height="19.6"/>
          <rect class="cls-65" x="56.7" y="213.6" width="19.6" height="19.6"/>
          <rect class="cls-65" x="95.9" y="213.6" width="19.6" height="19.6"/>
          <rect class="cls-65" x="135.1" y="213.6" width="19.6" height="19.6"/>
          <rect class="cls-65" x="174.4" y="213.6" width="19.6" height="19.6"/>
          <rect class="cls-65" x="213.6" y="213.6" width="19.6" height="19.6"/>
          <rect class="cls-65" x="252.8" y="213.6" width="19.6" height="19.6"/>
          <rect class="cls-65" x="292" y="213.6" width="19.6" height="19.6"/>
          <rect class="cls-65" x="331.3" y="213.6" width="19.6" height="19.6"/>
          <rect class="cls-65" x="370.5" y="213.6" width="19.6" height="19.6"/>
          <rect class="cls-65" x="409.7" y="213.6" width="19.6" height="19.6"/>
          <rect class="cls-65" x="449" y="213.6" width="5" height="19.6"/>
          <rect class="cls-65" x="-2.2" y="233.2" width="19.6" height="19.6"/>
          <rect class="cls-65" x="37.1" y="233.2" width="19.6" height="19.6"/>
          <rect class="cls-65" x="76.3" y="233.2" width="19.6" height="19.6"/>
          <rect class="cls-65" x="115.5" y="233.2" width="19.6" height="19.6"/>
          <rect class="cls-65" x="154.7" y="233.2" width="19.6" height="19.6"/>
          <rect class="cls-65" x="194" y="233.2" width="19.6" height="19.6"/>
          <rect class="cls-65" x="233.2" y="233.2" width="19.6" height="19.6"/>
          <rect class="cls-65" x="272.4" y="233.2" width="19.6" height="19.6"/>
          <rect class="cls-65" x="311.7" y="233.2" width="19.6" height="19.6"/>
          <rect class="cls-65" x="350.9" y="233.2" width="19.6" height="19.6"/>
          <rect class="cls-65" x="390.1" y="233.2" width="19.6" height="19.6"/>
          <rect class="cls-65" x="429.3" y="233.2" width="19.6" height="19.6"/>
          <rect class="cls-65" x="-6" y="252.8" width="3.8" height="19.6"/>
          <rect class="cls-65" x="17.5" y="252.8" width="19.6" height="19.6"/>
          <rect class="cls-65" x="56.7" y="252.8" width="19.6" height="19.6"/>
          <rect class="cls-65" x="95.9" y="252.8" width="19.6" height="19.6"/>
          <rect class="cls-65" x="135.1" y="252.8" width="19.6" height="19.6"/>
          <rect class="cls-65" x="174.4" y="252.8" width="19.6" height="19.6"/>
          <rect class="cls-65" x="213.6" y="252.8" width="19.6" height="19.6"/>
          <rect class="cls-65" x="252.8" y="252.8" width="19.6" height="19.6"/>
          <rect class="cls-65" x="292" y="252.8" width="19.6" height="19.6"/>
          <rect class="cls-65" x="331.3" y="252.8" width="19.6" height="19.6"/>
          <rect class="cls-65" x="370.5" y="252.8" width="19.6" height="19.6"/>
          <rect class="cls-65" x="409.7" y="252.8" width="19.6" height="19.6"/>
          <rect class="cls-65" x="449" y="252.8" width="5" height="19.6"/>
          <rect class="cls-65" x="-2.2" y="272.4" width="19.6" height="19.6"/>
          <rect class="cls-65" x="37.1" y="272.4" width="19.6" height="19.6"/>
          <rect class="cls-65" x="76.3" y="272.4" width="19.6" height="19.6"/>
          <rect class="cls-65" x="115.5" y="272.4" width="19.6" height="19.6"/>
          <rect class="cls-65" x="154.7" y="272.4" width="19.6" height="19.6"/>
          <rect class="cls-65" x="194" y="272.4" width="19.6" height="19.6"/>
          <rect class="cls-65" x="233.2" y="272.4" width="19.6" height="19.6"/>
          <rect class="cls-65" x="272.4" y="272.4" width="19.6" height="19.6"/>
          <rect class="cls-65" x="311.7" y="272.4" width="19.6" height="19.6"/>
          <rect class="cls-65" x="350.9" y="272.4" width="19.6" height="19.6"/>
          <rect class="cls-65" x="390.1" y="272.4" width="19.6" height="19.6"/>
          <rect class="cls-65" x="429.3" y="272.4" width="19.6" height="19.6"/>
          <rect class="cls-65" x="-6" y="292" width="3.8" height="19.6"/>
          <rect class="cls-65" x="17.5" y="292" width="19.6" height="19.6"/>
          <rect class="cls-65" x="56.7" y="292" width="19.6" height="19.6"/>
          <rect class="cls-65" x="95.9" y="292" width="19.6" height="19.6"/>
          <rect class="cls-65" x="135.1" y="292" width="19.6" height="19.6"/>
          <rect class="cls-65" x="174.4" y="292" width="19.6" height="19.6"/>
          <rect class="cls-65" x="213.6" y="292" width="19.6" height="19.6"/>
          <rect class="cls-65" x="252.8" y="292" width="19.6" height="19.6"/>
          <rect class="cls-65" x="292" y="292" width="19.6" height="19.6"/>
          <rect class="cls-65" x="331.3" y="292" width="19.6" height="19.6"/>
          <rect class="cls-65" x="370.5" y="292" width="19.6" height="19.6"/>
          <rect class="cls-65" x="409.7" y="292" width="19.6" height="19.6"/>
          <rect class="cls-65" x="449" y="292" width="5" height="19.6"/>
          <rect class="cls-65" x="-2.2" y="311.7" width="19.6" height="19.6"/>
          <rect class="cls-65" x="37.1" y="311.7" width="19.6" height="19.6"/>
          <rect class="cls-65" x="76.3" y="311.7" width="19.6" height="19.6"/>
          <rect class="cls-65" x="115.5" y="311.7" width="19.6" height="19.6"/>
          <rect class="cls-65" x="154.7" y="311.7" width="19.6" height="19.6"/>
          <rect class="cls-65" x="194" y="311.7" width="19.6" height="19.6"/>
          <rect class="cls-65" x="233.2" y="311.7" width="19.6" height="19.6"/>
          <rect class="cls-65" x="272.4" y="311.7" width="19.6" height="19.6"/>
          <rect class="cls-65" x="311.7" y="311.7" width="19.6" height="19.6"/>
          <rect class="cls-65" x="350.9" y="311.7" width="19.6" height="19.6"/>
          <rect class="cls-65" x="390.1" y="311.7" width="19.6" height="19.6"/>
          <rect class="cls-65" x="429.3" y="311.7" width="19.6" height="19.6"/>
          <rect class="cls-65" x="-6" y="331.3" width="3.8" height="19.6"/>
          <rect class="cls-65" x="17.5" y="331.3" width="19.6" height="19.6"/>
          <rect class="cls-65" x="56.7" y="331.3" width="19.6" height="19.6"/>
          <rect class="cls-65" x="95.9" y="331.3" width="19.6" height="19.6"/>
          <rect class="cls-65" x="135.1" y="331.3" width="19.6" height="19.6"/>
          <rect class="cls-65" x="174.4" y="331.3" width="19.6" height="19.6"/>
          <rect class="cls-65" x="213.6" y="331.3" width="19.6" height="19.6"/>
          <rect class="cls-65" x="252.8" y="331.3" width="19.6" height="19.6"/>
          <rect class="cls-65" x="292" y="331.3" width="19.6" height="19.6"/>
          <rect class="cls-65" x="331.3" y="331.3" width="19.6" height="19.6"/>
          <rect class="cls-65" x="370.5" y="331.3" width="19.6" height="19.6"/>
          <rect class="cls-65" x="409.7" y="331.3" width="19.6" height="19.6"/>
          <rect class="cls-65" x="449" y="331.3" width="5" height="19.6"/>
          <rect class="cls-65" x="-2.2" y="350.9" width="19.6" height="19.6"/>
          <rect class="cls-65" x="37.1" y="350.9" width="19.6" height="19.6"/>
          <rect class="cls-65" x="76.3" y="350.9" width="19.6" height="19.6"/>
          <rect class="cls-65" x="115.5" y="350.9" width="19.6" height="19.6"/>
          <rect class="cls-65" x="154.7" y="350.9" width="19.6" height="19.6"/>
          <rect class="cls-65" x="194" y="350.9" width="19.6" height="19.6"/>
          <rect class="cls-65" x="233.2" y="350.9" width="19.6" height="19.6"/>
          <rect class="cls-65" x="272.4" y="350.9" width="19.6" height="19.6"/>
          <rect class="cls-65" x="311.7" y="350.9" width="19.6" height="19.6"/>
          <rect class="cls-65" x="350.9" y="350.9" width="19.6" height="19.6"/>
          <rect class="cls-65" x="390.1" y="350.9" width="19.6" height="19.6"/>
          <rect class="cls-65" x="429.3" y="350.9" width="19.6" height="19.6"/>
          <rect class="cls-65" x="-6" y="370.5" width="3.8" height="19.6"/>
          <rect class="cls-65" x="17.5" y="370.5" width="19.6" height="19.6"/>
          <rect class="cls-65" x="56.7" y="370.5" width="19.6" height="19.6"/>
          <rect class="cls-65" x="95.9" y="370.5" width="19.6" height="19.6"/>
          <rect class="cls-65" x="135.1" y="370.5" width="19.6" height="19.6"/>
          <rect class="cls-65" x="174.4" y="370.5" width="19.6" height="19.6"/>
          <rect class="cls-65" x="213.6" y="370.5" width="19.6" height="19.6"/>
          <rect class="cls-65" x="252.8" y="370.5" width="19.6" height="19.6"/>
          <rect class="cls-65" x="292" y="370.5" width="19.6" height="19.6"/>
          <rect class="cls-65" x="331.3" y="370.5" width="19.6" height="19.6"/>
          <rect class="cls-65" x="370.5" y="370.5" width="19.6" height="19.6"/>
          <rect class="cls-65" x="409.7" y="370.5" width="19.6" height="19.6"/>
          <rect class="cls-65" x="449" y="370.5" width="5" height="19.6"/>
          <rect class="cls-65" x="-2.2" y="390.1" width="19.6" height="19.6"/>
          <rect class="cls-65" x="37.1" y="390.1" width="19.6" height="19.6"/>
          <rect class="cls-65" x="76.3" y="390.1" width="19.6" height="19.6"/>
          <rect class="cls-65" x="115.5" y="390.1" width="19.6" height="19.6"/>
          <rect class="cls-65" x="154.7" y="390.1" width="19.6" height="19.6"/>
          <rect class="cls-65" x="194" y="390.1" width="19.6" height="19.6"/>
          <rect class="cls-65" x="233.2" y="390.1" width="19.6" height="19.6"/>
          <rect class="cls-65" x="272.4" y="390.1" width="19.6" height="19.6"/>
          <rect class="cls-65" x="311.7" y="390.1" width="19.6" height="19.6"/>
          <rect class="cls-65" x="350.9" y="390.1" width="19.6" height="19.6"/>
          <rect class="cls-65" x="390.1" y="390.1" width="19.6" height="19.6"/>
          <rect class="cls-65" x="429.3" y="390.1" width="19.6" height="19.6"/>
          <rect class="cls-65" x="-6" y="409.7" width="3.8" height="19.6"/>
          <rect class="cls-65" x="17.5" y="409.7" width="19.6" height="19.6"/>
          <rect class="cls-65" x="56.7" y="409.7" width="19.6" height="19.6"/>
          <rect class="cls-65" x="95.9" y="409.7" width="19.6" height="19.6"/>
          <rect class="cls-65" x="135.1" y="409.7" width="19.6" height="19.6"/>
          <rect class="cls-65" x="174.4" y="409.7" width="19.6" height="19.6"/>
          <rect class="cls-65" x="213.6" y="409.7" width="19.6" height="19.6"/>
          <rect class="cls-65" x="252.8" y="409.7" width="19.6" height="19.6"/>
          <rect class="cls-65" x="292" y="409.7" width="19.6" height="19.6"/>
          <rect class="cls-65" x="331.3" y="409.7" width="19.6" height="19.6"/>
          <rect class="cls-65" x="370.5" y="409.7" width="19.6" height="19.6"/>
          <rect class="cls-65" x="409.7" y="409.7" width="19.6" height="19.6"/>
          <rect class="cls-65" x="449" y="409.7" width="5" height="19.6"/>
          <rect class="cls-65" x="-2.2" y="429.3" width="19.6" height="19.6"/>
          <rect class="cls-65" x="37.1" y="429.3" width="19.6" height="19.6"/>
          <rect class="cls-65" x="76.3" y="429.3" width="19.6" height="19.6"/>
          <rect class="cls-65" x="115.5" y="429.3" width="19.6" height="19.6"/>
          <rect class="cls-65" x="154.7" y="429.3" width="19.6" height="19.6"/>
          <rect class="cls-65" x="194" y="429.3" width="19.6" height="19.6"/>
          <rect class="cls-65" x="233.2" y="429.3" width="19.6" height="19.6"/>
          <rect class="cls-65" x="272.4" y="429.3" width="19.6" height="19.6"/>
          <rect class="cls-65" x="311.7" y="429.3" width="19.6" height="19.6"/>
          <rect class="cls-65" x="350.9" y="429.3" width="19.6" height="19.6"/>
          <rect class="cls-65" x="390.1" y="429.3" width="19.6" height="19.6"/>
          <rect class="cls-65" x="429.3" y="429.3" width="19.6" height="19.6"/>
          <rect class="cls-65" x="-6" y="449" width="3.8" height="11"/>
          <rect class="cls-65" x="17.5" y="449" width="19.6" height="11"/>
          <rect class="cls-65" x="56.7" y="449" width="19.6" height="11"/>
          <rect class="cls-65" x="95.9" y="449" width="19.6" height="11"/>
          <rect class="cls-65" x="135.1" y="449" width="19.6" height="11"/>
          <rect class="cls-65" x="174.4" y="449" width="19.6" height="11"/>
          <rect class="cls-65" x="213.6" y="449" width="19.6" height="11"/>
          <rect class="cls-65" x="252.8" y="449" width="19.6" height="11"/>
          <rect class="cls-65" x="292" y="449" width="19.6" height="11"/>
          <rect class="cls-65" x="331.3" y="449" width="19.6" height="11"/>
          <rect class="cls-65" x="370.5" y="449" width="19.6" height="11"/>
          <rect class="cls-65" x="409.7" y="449" width="19.6" height="11"/>
          <rect class="cls-65" x="449" y="449" width="5" height="11"/>
        </g>
      </g>
      <g class="cls-71">
        <path class="cls-69" d="M265.1-1c-11.7,3.4-20.3,7.1-.2,24.2,20.2,17.1,1.2,22.2-36.1,42.4-37.3,20.2,18.1,59.9,123.4,127.1,95.8,61.2,28.2,180.6-127.1,260.3H80.2c155.3-79.7,318.9-192.7,212-257.2-106.9-64.6-125.9-113.3-96.3-130.1,36.9-21,72-25.2,51.8-42.4-20.2-17.1-11.7-20.8,0-24.2h17.4Z"/>
        <g class="cls-73">
          <path class="cls-42" d="M261.1-3l4.3,2c-4.9,1.4-13.9,5.1-14.5,7.8-.4,2,1.2,6.3,11.3,14.9,6.6,5.6,9.4,10.1,8.8,14.6-.9,7.9-11.9,13.6-30.1,23-4.6,2.4-9.8,5.1-15.3,8-6.9,3.7-10.4,8.1-10.6,13.3-.8,22.4,57.6,61.5,134.1,110.4,31,19.8,46.6,46.9,45.1,78.3-2.9,61.4-60.3,132.6-163.7,185.7"/>
          <path class="cls-52" d="M261.4-3l4.3,2c-4.9,1.4-13.9,5.1-14.5,7.8-.4,2,1.2,6.3,11.3,14.9,6.6,5.6,9.3,10.2,8.8,14.7-.9,7.9-11.8,13.6-30,23-4.6,2.4-9.8,5.1-15.3,8-6.9,3.7-10.4,8.1-10.6,13.3-.8,22.4,57.8,61.5,134.3,110.3,31,19.8,46.5,46.9,45.1,78.3-2.9,61.4-59.5,132.6-162.9,185.7"/>
          <path class="cls-2" d="M261.8-3l4.2,2c-4.9,1.4-13.9,5.1-14.5,7.8-.4,2,1.2,6.3,11.3,14.9,6.6,5.6,9.3,10.2,8.8,14.7-.9,7.9-11.7,13.6-29.8,23-4.6,2.4-9.8,5.1-15.3,8-6.9,3.7-10.4,8.1-10.6,13.3-.8,22.4,58,61.4,134.4,110.3,31,19.8,46.5,47,45,78.4-2.9,61.4-58.7,132.6-162.2,185.7"/>
          <path class="cls-1" d="M262.2-3l4.1,2c-4.9,1.4-13.9,5.1-14.5,7.8-.4,2,1.2,6.2,11.3,14.9,6.6,5.6,9.2,10.2,8.7,14.7-.9,7.9-11.6,13.6-29.7,23-4.6,2.4-9.8,5.1-15.3,8-6.9,3.7-10.4,8.1-10.6,13.3-.8,22.4,58.1,61.4,134.6,110.2,31,19.8,46.4,47,45,78.4-2.9,61.4-58,132.6-161.4,185.7"/>
          <path class="cls-13" d="M262.5-3l4.1,2c-4.9,1.4-13.9,5.1-14.5,7.8-.4,2,1.2,6.2,11.4,14.9,6.6,5.6,9.2,10.2,8.7,14.7-.9,7.9-11.5,13.5-29.6,23-4.6,2.4-9.8,5.1-15.3,8-6.9,3.7-10.4,8.1-10.6,13.3-.8,22.4,58.3,61.3,134.8,110.2,31,19.8,46.4,47.1,44.9,78.5-2.9,61.4-57.2,132.6-160.7,185.7"/>
          <path class="cls-29" d="M262.9-3l4,2c-4.9,1.4-13.9,5.1-14.5,7.8-.4,2,1.2,6.2,11.4,14.9,6.6,5.6,9.2,10.2,8.6,14.7-.9,7.9-11.4,13.5-29.5,23-4.6,2.4-9.8,5.1-15.3,8-6.9,3.7-10.4,8.1-10.6,13.3-.8,22.4,58.5,61.3,134.9,110.1,31,19.8,46.3,47.1,44.9,78.6-2.9,61.3-56.5,132.6-159.9,185.7"/>
          <path class="cls-35" d="M263.2-3l3.9,2c-4.9,1.4-13.9,5.1-14.5,7.8-.4,2,1.2,6.2,11.4,14.9,6.6,5.6,9.1,10.2,8.6,14.7-.9,7.9-11.3,13.5-29.4,22.9-4.6,2.4-9.8,5.1-15.3,8-6.9,3.7-10.4,8.1-10.6,13.3-.8,22.4,58.6,61.2,135.1,110,31,19.8,46.3,47.2,44.8,78.6-2.9,61.4-55.7,132.6-159.1,185.7"/>
          <path class="cls-28" d="M263.6-3l3.9,2c-4.9,1.4-13.9,5.1-14.5,7.8-.4,2,1.2,6.2,11.4,14.8,6.6,5.6,9.1,10.3,8.6,14.8-.9,7.9-11.1,13.5-29.3,22.9-4.6,2.4-9.8,5.1-15.3,8-6.9,3.7-10.4,8.1-10.6,13.3-.8,22.4,58.8,61.2,135.3,110,31,19.8,46.2,47.3,44.8,78.7-2.9,61.4-55,132.6-158.4,185.7"/>
          <path class="cls-10" d="M264-3l3.8,2c-4.9,1.4-13.9,5.1-14.5,7.8-.4,2,1.2,6.2,11.4,14.8,6.6,5.6,9,10.3,8.5,14.8-.9,7.9-11,13.5-29.2,22.9-4.6,2.4-9.8,5.1-15.3,8-6.9,3.7-10.4,8.1-10.6,13.3-.8,22.4,59,61.1,135.4,109.9,31,19.8,46.2,47.3,44.7,78.7-2.9,61.4-54.2,132.6-157.6,185.7"/>
          <path class="cls-18" d="M264.3-3l3.7,2c-4.9,1.4-13.9,5.1-14.5,7.8-.4,2,1.2,6.2,11.4,14.8,6.6,5.6,9,10.3,8.5,14.8-.9,7.9-10.9,13.5-29.1,22.9-4.6,2.4-9.8,5.1-15.3,8-6.9,3.7-10.4,8.1-10.6,13.3-.8,22.4,59.1,61,135.6,109.9,31,19.8,46.1,47.4,44.7,78.8-2.9,61.4-53.4,132.6-156.9,185.7"/>
          <path class="cls-11" d="M264.7-3l3.7,2c-4.9,1.4-14,5.1-14.5,7.8-.4,2,1.2,6.2,11.4,14.8,6.6,5.6,8.9,10.3,8.4,14.8-.9,7.9-10.8,13.5-29,22.9-4.6,2.4-9.8,5.1-15.3,8-6.9,3.7-10.4,8.1-10.6,13.3-.8,22.4,59.3,61,135.8,109.8,31,19.8,46.1,47.4,44.6,78.8-2.9,61.3-52.7,132.6-156.1,185.7"/>
          <path class="cls-23" d="M265.1-3l3.6,2c-4.9,1.4-14,5.1-14.5,7.8-.4,2,1.3,6.2,11.4,14.8,6.6,5.6,8.9,10.3,8.4,14.8-.9,7.9-10.7,13.5-28.9,22.9-4.6,2.4-9.8,5.1-15.3,8-6.9,3.7-10.4,8.1-10.6,13.3-.8,22.4,59.5,60.9,135.9,109.8,31,19.8,46,47.5,44.6,78.9-2.9,61.4-51.9,132.6-155.4,185.7"/>
          <path class="cls-33" d="M265.4-3l3.5,2c-4.9,1.4-14,5.1-14.5,7.8-.4,2,1.3,6.2,11.4,14.8,6.6,5.6,8.9,10.3,8.3,14.8-.9,7.9-10.6,13.5-28.8,22.9-4.6,2.4-9.8,5.1-15.3,8-6.9,3.7-10.4,8.1-10.6,13.3-.8,22.4,59.6,60.9,136.1,109.7,31,19.8,46,47.5,44.5,79-2.9,61.3-51.2,132.6-154.6,185.7"/>
          <path class="cls-54" d="M265.8-3l3.4,2c-4.9,1.4-14,5.1-14.5,7.8-.4,2,1.3,6.2,11.4,14.8,6.6,5.6,8.8,10.4,8.3,14.8-.9,7.9-10.5,13.5-28.7,22.9-4.6,2.4-9.8,5.1-15.3,8-6.9,3.7-10.4,8.1-10.6,13.3-.8,22.4,59.8,60.8,136.3,109.7,31,19.8,45.9,47.6,44.5,79-2.9,61.4-50.4,132.6-153.8,185.7"/>
          <path class="cls-21" d="M266.1-3l3.4,2c-4.9,1.4-14,5.1-14.5,7.8-.4,2,1.3,6.2,11.4,14.8,6.6,5.6,8.8,10.4,8.3,14.9-.9,7.9-10.4,13.5-28.6,22.9-4.6,2.4-9.8,5.1-15.3,8-6.9,3.7-10.4,8.1-10.6,13.3-.8,22.4,60,60.8,136.4,109.6,31,19.8,45.9,47.7,44.4,79.1-2.9,61.3-49.7,132.6-153.1,185.7"/>
          <path class="cls-5" d="M266.5-3l3.3,2c-4.9,1.4-14,5.1-14.6,7.8-.4,2,1.3,6.2,11.4,14.8,6.6,5.6,8.7,10.4,8.2,14.9-.9,7.9-10.3,13.4-28.5,22.9-4.6,2.4-9.8,5.1-15.3,8-6.9,3.7-10.4,8.1-10.6,13.3-.8,22.4,60.1,60.7,136.6,109.6,31,19.8,45.8,47.7,44.4,79.1-2.9,61.3-48.9,132.6-152.3,185.7"/>
          <path class="cls-27" d="M266.9-3l3.2,2c-4.9,1.4-14,5.1-14.6,7.8-.4,2,1.3,6.1,11.5,14.8,6.6,5.6,8.7,10.4,8.2,14.9-.9,7.9-10.2,13.4-28.4,22.9-4.6,2.4-9.8,5.1-15.3,8-6.9,3.7-10.4,8.1-10.6,13.3-.8,22.4,60.3,60.7,136.8,109.5,31,19.8,45.8,47.8,44.3,79.2-2.9,61.3-48.1,132.6-151.6,185.7"/>
          <path class="cls-55" d="M267.2-3l3.2,2c-4.9,1.4-14,5.1-14.6,7.8-.4,2,1.3,6.1,11.5,14.8,6.6,5.6,8.7,10.4,8.1,14.9-.9,7.9-10.1,13.4-28.3,22.9-4.6,2.4-9.8,5.1-15.3,8-6.9,3.7-10.4,8.1-10.6,13.3-.8,22.4,60.5,60.6,137,109.5,31,19.8,45.7,47.8,44.3,79.2-2.9,61.4-47.4,132.6-150.8,185.7"/>
          <path class="cls-4" d="M267.6-3l3.1,2c-4.9,1.4-14,5.1-14.6,7.8-.4,2,1.3,6.1,11.5,14.8,6.6,5.6,8.6,10.4,8.1,14.9-.9,7.9-10,13.4-28.2,22.8-4.6,2.4-9.8,5.1-15.3,8-6.9,3.7-10.4,8.1-10.6,13.3-.8,22.4,60.6,60.6,137.1,109.4,31,19.8,45.7,47.9,44.2,79.3-2.9,61.4-46.6,132.6-150.1,185.7"/>
          <path class="cls-16" d="M267.9-3l3,2c-4.9,1.4-14,5.1-14.6,7.8-.4,2,1.3,6.1,11.5,14.8,6.6,5.6,8.6,10.5,8.1,14.9-.9,7.9-9.9,13.4-28.1,22.8-4.6,2.4-9.8,5.1-15.3,8-6.9,3.7-10.4,8.1-10.6,13.3-.8,22.4,60.8,60.5,137.3,109.3,31,19.8,45.6,47.9,44.2,79.3-2.9,61.4-45.9,132.6-149.3,185.6"/>
          <path class="cls-3" d="M268.3-3l3,2c-4.9,1.4-14,5.1-14.6,7.8-.4,2,1.3,6.1,11.5,14.7,6.6,5.6,8.5,10.5,8,15-.9,7.9-9.8,13.4-28,22.8-4.6,2.4-9.8,5.1-15.3,8-6.9,3.7-10.4,8.1-10.6,13.3-.8,22.4,61,60.5,137.5,109.3,31,19.8,45.6,48,44.1,79.4-2.9,61.3-45.1,132.6-148.5,185.6"/>
          <path class="cls-53" d="M268.7-3l2.9,2c-4.9,1.4-14,5.1-14.6,7.8-.4,2,1.3,6.1,11.5,14.7,6.6,5.6,8.5,10.5,8,15-.9,7.9-9.7,13.4-27.9,22.8-4.6,2.4-9.8,5.1-15.3,8-6.9,3.7-10.4,8.1-10.6,13.3-.8,22.4,61.1,60.4,137.6,109.2,31,19.8,45.5,48.1,44.1,79.5-2.9,61.3-44.4,132.6-147.8,185.6"/>
          <path class="cls-47" d="M269-3l2.8,2c-4.9,1.4-14,5.1-14.6,7.8-.4,2,1.3,6.1,11.5,14.7,6.6,5.6,8.4,10.5,7.9,15-.9,7.9-9.6,13.4-27.8,22.8-4.6,2.4-9.8,5.1-15.3,8-6.9,3.7-10.4,8.1-10.6,13.3-.8,22.4,61.3,60.3,137.8,109.2,31,19.8,45.5,48.1,44,79.5-2.9,61.3-43.6,132.6-147,185.6"/>
          <path class="cls-36" d="M269.4-3l2.8,2c-4.9,1.4-14,5.1-14.6,7.8-.4,2,1.4,6.1,11.5,14.7,6.6,5.6,8.4,10.5,7.9,15-.9,7.9-9.5,13.4-27.7,22.8-4.6,2.4-9.8,5.1-15.3,8-6.9,3.7-10.4,8.1-10.6,13.3-.8,22.4,61.5,60.3,138,109.1,31,19.8,45.4,48.2,44,79.6-2.9,61.3-42.8,132.6-146.3,185.6"/>
          <path class="cls-38" d="M269.8-3l2.7,2c-4.9,1.4-14,5.1-14.6,7.8-.4,2,1.4,6.1,11.5,14.7,6.6,5.6,8.4,10.5,7.9,15-.9,7.9-9.4,13.4-27.6,22.8-4.6,2.4-9.8,5.1-15.3,8-6.9,3.7-10.4,8.1-10.6,13.3-.8,22.4,61.6,60.2,138.1,109.1,31,19.8,45.4,48.2,43.9,79.6-2.9,61.3-42.1,132.6-145.5,185.6"/>
          <path class="cls-59" d="M270.1-3l2.6,2c-4.9,1.4-14,5.1-14.6,7.8-.4,2,1.4,6.1,11.5,14.7,6.6,5.6,8.3,10.5,7.8,15-.9,7.9-9.3,13.4-27.5,22.8-4.6,2.4-9.8,5.1-15.3,8-6.9,3.7-10.4,8.1-10.6,13.3-.8,22.4,61.8,60.2,138.3,109,31,19.8,45.3,48.3,43.8,79.7-2.9,61.3-41.3,132.6-144.8,185.6"/>
          <path class="cls-20" d="M270.5-3l2.6,2c-4.9,1.4-14,5.1-14.6,7.8-.4,2,1.4,6.1,11.5,14.7,6.6,5.6,8.3,10.6,7.8,15.1-.9,7.9-9.2,13.4-27.4,22.8-4.6,2.4-9.8,5.1-15.3,8-6.9,3.7-10.4,8.1-10.6,13.3-.8,22.4,62,60.1,138.5,109,31,19.8,45.3,48.3,43.8,79.7-2.9,61.3-40.6,132.6-144,185.6"/>
          <path class="cls-31" d="M270.8-3l2.5,2c-4.9,1.4-14,5.1-14.6,7.8-.4,2,1.4,6.1,11.5,14.7,6.6,5.6,8.2,10.6,7.7,15.1-.9,7.9-9.1,13.3-27.3,22.8-4.6,2.4-9.8,5.1-15.3,8-6.9,3.7-10.4,8.1-10.6,13.3-.8,22.4,62.1,60.1,138.6,108.9,31,19.8,45.2,48.4,43.7,79.8-2.9,61.4-39.8,132.6-143.2,185.6"/>
          <path class="cls-30" d="M271.2-3l2.4,2c-4.9,1.4-14,5.1-14.6,7.8-.4,2,1.4,6.1,11.5,14.7,6.6,5.6,8.2,10.6,7.7,15.1-.9,7.9-9,13.3-27.2,22.8-4.6,2.4-9.8,5.1-15.3,8-6.9,3.7-10.4,8.1-10.6,13.3-.8,22.4,62.3,60,138.8,108.9,31,19.8,45.2,48.4,43.7,79.9-2.9,61.3-39.1,132.6-142.5,185.6"/>
          <path class="cls-14" d="M271.6-3l2.4,2c-4.9,1.4-14,5.1-14.6,7.8-.4,2,1.4,6.1,11.6,14.7,6.6,5.6,8.2,10.6,7.6,15.1-.9,7.9-8.9,13.3-27.1,22.8-4.6,2.4-9.8,5.1-15.3,8-6.9,3.7-10.4,8.1-10.6,13.3-.8,22.4,62.5,60,139,108.8,31,19.8,45.1,48.5,43.6,79.9-2.9,61.3-38.3,132.6-141.7,185.6"/>
          <path class="cls-64" d="M271.9-3l2.3,2c-4.9,1.4-14,5.1-14.6,7.8-.4,2,1.4,6,11.6,14.7,6.6,5.6,8.1,10.6,7.6,15.1-.9,7.9-8.8,13.3-27,22.7-4.6,2.4-9.8,5.1-15.3,8-6.9,3.7-10.4,8.1-10.6,13.3-.8,22.4,62.6,59.9,139.1,108.8,31,19.8,45.1,48.6,43.6,80-2.9,61.3-37.5,132.6-141,185.6"/>
          <path class="cls-40" d="M272.3-3l2.2,2c-4.9,1.4-14,5.1-14.6,7.8-.4,2,1.4,6,11.6,14.7,6.6,5.6,8.1,10.6,7.6,15.1-.9,7.9-8.7,13.3-26.9,22.7-4.6,2.4-9.8,5.1-15.3,8-6.9,3.7-10.4,8.1-10.6,13.3-.8,22.4,62.8,59.9,139.3,108.7,31,19.8,45,48.6,43.5,80-2.9,61.3-36.8,132.6-140.2,185.6"/>
        </g>
        <g class="cls-73">
          <path class="cls-48" d="M80.2,453c155.3-79.7,318.9-192.7,212-257.2-106.9-64.6-125.9-113.3-96.3-130.1,36.9-21,72-25.2,51.8-42.4-20.2-17.1-11.7-20.8,0-24.2"/>
          <path class="cls-19" d="M78.2,453c155.7-79.7,320.6-192.4,213.7-257-106.9-64.6-125.9-113.7-96.3-130.5,36.9-21,72-25.2,51.8-42.3-20.1-17-11.6-20.8,0-24.2"/>
          <path class="cls-8" d="M76.2,453c156.1-79.7,322.3-192.1,215.3-256.7-106.9-64.6-125.8-114-96.2-130.8,36.9-21,72-25.1,51.8-42.3-20-16.9-11.4-20.8.1-24.2"/>
          <path class="cls-43" d="M74.2,453c156.5-79.7,323.9-191.9,217-256.4-106.9-64.6-125.7-114.3-96.1-131.2,36.9-21,72.1-25.1,51.7-42.2-19.9-16.7-11.2-20.7.2-24.1"/>
          <path class="cls-37" d="M72.2,453c156.8-79.7,325.6-191.6,218.7-256.1-106.9-64.6-125.7-114.7-96.1-131.5,36.9-21,72.1-25.1,51.7-42.2-19.8-16.6-11-20.7.2-24.1"/>
          <path class="cls-50" d="M70.2,453c157.2-79.7,327.3-191.3,220.3-255.9-106.9-64.6-125.6-115-96-131.9,36.9-21,72.1-25,51.7-42.1-19.7-16.5-10.8-20.7.3-24.1"/>
          <path class="cls-9" d="M68.2,453c157.6-79.8,328.9-191,222-255.6-106.9-64.6-125.6-115.4-96-132.2,36.9-21,72.1-25,51.6-42.1-19.6-16.3-10.7-20.6.4-24.1"/>
          <path class="cls-24" d="M66.2,453c157.9-79.8,330.6-190.8,223.7-255.3-106.9-64.6-125.5-115.7-95.9-132.5,36.9-21,72.2-25,51.6-42-19.5-16.2-10.5-20.6.4-24"/>
          <path class="cls-61" d="M64.2,453c158.3-79.8,332.3-190.5,225.3-255.1s-125.4-116.1-95.8-132.9c36.9-21,72.2-24.9,51.6-42-19.4-16.1-10.3-20.6.5-24"/>
          <path class="cls-34" d="M62.2,453c158.7-79.8,333.9-190.2,227-254.8-106.9-64.6-125.4-116.4-95.8-133.2,36.9-21,72.2-24.9,51.5-41.9-19.3-15.9-10.1-20.5.6-24"/>
          <path class="cls-15" d="M60.2,453c159-79.8,335.6-190,228.7-254.5-106.9-64.6-125.3-116.8-95.7-133.6,36.9-21,72.2-24.9,51.5-41.9-19.2-15.8-9.9-20.5.6-24"/>
          <path class="cls-63" d="M58.2,453c159.4-79.8,337.3-189.7,230.3-254.2-106.9-64.6-125.2-117.1-95.7-133.9,36.9-21,72.3-24.8,51.5-41.8-19.1-15.7-9.8-20.5.7-23.9"/>
          <path class="cls-26" d="M56.2,453c159.8-79.8,338.9-189.4,232-254-106.9-64.6-125.2-117.5-95.6-134.3,36.9-21,72.3-24.8,51.4-41.8-19-15.5-9.6-20.5.7-23.9"/>
          <path class="cls-45" d="M54.2,453c160.1-79.8,340.6-189.1,233.7-253.7-106.9-64.6-125.1-117.8-95.5-134.6,36.9-21,72.3-24.8,51.4-41.7-18.8-15.4-9.4-20.4.8-23.9"/>
          <path class="cls-56" d="M52.2,453c160.5-79.8,342.2-188.9,235.3-253.4-106.9-64.6-125.1-118.1-95.5-135,36.9-21,72.3-24.7,51.4-41.7-18.7-15.3-9.2-20.4.9-23.9"/>
          <path class="cls-60" d="M50.2,453c160.9-79.9,343.9-188.6,237-253.2-106.9-64.6-125-118.5-95.4-135.3,36.9-21,72.4-24.7,51.3-41.6-18.6-15.1-9.1-20.4.9-23.8"/>
          <path class="cls-22" d="M48.2,453c161.2-79.9,345.6-188.3,238.6-252.9-106.9-64.6-124.9-118.8-95.3-135.6,36.9-21,72.4-24.6,51.3-41.6-18.5-15-8.9-20.3,1-23.8"/>
          <path class="cls-46" d="M46.2,453c161.6-79.9,347.2-188.1,240.3-252.6-106.9-64.6-124.9-119.2-95.3-136,36.9-21,72.4-24.6,51.3-41.5-18.4-14.9-8.7-20.3,1-23.8"/>
          <path class="cls-62" d="M44.2,453c162-79.9,348.9-187.8,242-252.4-106.9-64.6-124.8-119.5-95.2-136.3,36.9-21,72.4-24.6,51.2-41.5-18.3-14.7-8.5-20.3,1.1-23.8"/>
          <path class="cls-7" d="M42.3,453c162.4-79.9,350.6-187.5,243.6-252.1-106.9-64.6-124.7-119.9-95.2-136.7,36.9-21,72.5-24.5,51.2-41.4-18.2-14.6-8.3-20.2,1.2-23.7"/>
          <path class="cls-57" d="M40.3,453c162.7-79.9,352.2-187.2,245.3-251.8-106.9-64.6-124.7-120.2-95.1-137,36.9-21,72.5-24.5,51.2-41.4-18.1-14.5-8.2-20.2,1.2-23.7"/>
          <path class="cls-51" d="M38.3,453c163.1-79.9,353.9-187,247-251.5-106.9-64.6-124.6-120.5-95-137.4,36.9-21,72.5-24.5,51.1-41.3-18-14.3-8-20.2,1.3-23.7"/>
          <path class="cls-41" d="M36.3,453c163.5-79.9,355.6-186.7,248.6-251.3-106.9-64.6-124.6-120.9-95-137.7,36.9-21,72.5-24.4,51.1-41.3-17.9-14.2-7.8-20.1,1.3-23.7"/>
          <path class="cls-6" d="M34.3,453c163.8-79.9,357.2-186.4,250.3-251-106.9-64.6-124.5-121.2-94.9-138.1,36.9-21,72.5-24.4,51.1-41.2-17.8-14.1-7.6-20.1,1.4-23.6"/>
          <path class="cls-32" d="M32.3,453c164.2-80,358.9-186.2,252-250.7-106.9-64.6-124.4-121.6-94.8-138.4,36.9-21,72.6-24.4,51-41.2-17.7-13.9-7.5-20.1,1.5-23.6"/>
          <path class="cls-49" d="M30.3,453c164.6-80,360.6-185.9,253.6-250.5-106.9-64.6-124.4-121.9-94.8-138.7,36.9-21,72.6-24.3,51-41.1-17.6-13.8-7.3-20,1.5-23.6"/>
          <path class="cls-58" d="M28.3,453c164.9-80,362.2-185.6,255.3-250.2-106.9-64.6-124.3-122.3-94.7-139.1,36.9-21,72.6-24.3,51-41.1-17.5-13.7-7.1-20,1.6-23.6"/>
          <path class="cls-44" d="M26.3,453c165.3-80,363.9-185.4,257-249.9-106.9-64.6-124.2-122.6-94.7-139.4,36.9-21,72.6-24.3,50.9-41-17.4-13.5-6.9-20,1.7-23.6"/>
          <path class="cls-12" d="M24.3,453c165.7-80,365.6-185.1,258.6-249.6-106.9-64.6-124.2-123-94.6-139.8,36.9-21,72.7-24.2,50.9-41-17.3-13.4-6.7-19.9,1.7-23.5"/>
          <path class="cls-17" d="M22.3,453c166-80,367.2-184.8,260.3-249.4-106.9-64.6-124.1-123.3-94.5-140.1,36.9-21,72.7-24.2,50.9-41-17.2-13.3-6.6-19.9,1.8-23.5"/>
          <path class="cls-39" d="M20.3,453c166.4-80,368.9-184.5,262-249.1-106.9-64.6-124.1-123.6-94.5-140.5,36.9-21,72.7-24.1,50.8-40.9-17.1-13.1-6.4-19.9,1.8-23.5"/>
          <path class="cls-40" d="M18.3,453c166.8-80,370.6-184.3,263.6-248.8-106.9-64.6-124-124-94.4-140.8,36.9-21,72.7-24.1,50.8-40.9-17-13-6.2-19.8,1.9-23.5"/>
        </g>
        <path class="cls-66" d="M80.2,455l-14.5-2c90.5-46.4,256.3-136.5,258.7-206,.7-19.1-10.5-35.8-33.3-49.5-70.2-42.4-110.3-83-109.9-111.6.1-9.4,4.8-17.1,13.6-22.1,11.2-6.3,21.9-11.1,31.5-15.2,13.7-6,24.5-10.7,25.2-15.8.3-2.2-1.4-4.9-5.1-8.1-9.8-8.3-13.7-14.2-12.7-18.9,1.1-4.9,7-6.9,13.5-8.8h.3c0,0,17.7,0,17.7,0l.6,4c-4.9,1.4-10.2,3.1-10.7,5.8-.4,2,1.2,6.3,11.3,14.9,6.6,5.6,9.4,10.1,8.8,14.6-.9,7.9-11.9,13.6-30.1,23-4.6,2.4-9.8,5.1-15.3,8-6.9,3.7-10.4,8.1-10.6,13.3-.8,22.4,57.6,61.5,134.1,110.4,31,19.8,46.6,46.9,45.1,78.3-2.9,61.4-60.3,132.6-163.7,185.7H80.2Z"/>
        <path class="cls-67" d="M80.1,456l-17.7-2.5-2.8-1.7c44-22.6,114.2-56.6,167.9-94,62.6-43.7,94.8-81,95.9-110.9.6-18.7-10.4-35.1-32.8-48.6-70.5-42.6-110.7-83.6-110.4-112.4.1-9.8,5-17.8,14.1-22.9,11.2-6.4,22-11.1,31.6-15.3,12.9-5.6,24.3-10.6,25-15,.2-1.2-.9-4.2-5.2-7.9-10.1-8.6-13.6-14.2-12.5-19.3,1.2-5.4,9.4-7.5,16.2-9.4h-2.2,18.8l1.7,3.7-1.5,1.5c-3.1.9-10.2,3.3-10.7,5.6-.3,1.2.2,5.1,10.8,14.2,6.9,5.9,10.3,10.5,9.7,15.4-1,8.4-12.1,14.2-30.6,23.8-4.6,2.4-9.8,5.1-15.3,8-6.6,3.6-9.9,7.6-10,12.4-.8,21.9,57.4,60.8,133.6,109.5,31.3,20,47.1,47.4,45.6,79.2-1.5,31.1-16.8,64.5-44.4,96.6-28.7,33.4-61.4,65.2-111.1,90.7h0l-163.8-.6Z"/>
        <path class="cls-66" d="M80.2,455l-14.5-2c90.5-46.4,256.3-136.5,258.7-206,.7-19.1-10.5-35.8-33.3-49.5-70.2-42.4-110.3-83-109.9-111.6.1-9.4,4.8-17.1,13.6-22.1,11.2-6.3,21.9-11.1,31.5-15.2,13.7-6,24.5-10.7,25.2-15.8.3-2.2-1.4-4.9-5.1-8.1-9.8-8.3-13.7-14.2-12.7-18.9,1.1-4.9,7-6.9,13.5-8.8h.3c0,0,17.7,0,17.7,0l.6,4c-4.9,1.4-10.2,3.1-10.7,5.8-.4,2,1.2,6.3,11.3,14.9,6.6,5.6,9.4,10.1,8.8,14.6-.9,7.9-11.9,13.6-30.1,23-4.6,2.4-9.8,5.1-15.3,8-6.9,3.7-10.4,8.1-10.6,13.3-.8,22.4,57.6,61.5,134.1,110.4,31,19.8,46.6,46.9,45.1,78.3-2.9,61.4-60.3,132.6-163.7,185.7H80.2Z"/>
        <path class="cls-67" d="M265.1-1c-11.7,3.4-20.3,7.1-.2,24.2,20.2,17.1,1.2,22.2-36.1,42.4-37.3,20.2,18.1,59.9,123.4,127.1,95.8,61.2,28.2,180.6-127.1,260.3H80.2c155.3-79.7,318.9-192.7,212-257.2-106.9-64.6-125.9-113.3-96.3-130.1,36.9-21,72-25.2,51.8-42.4-20.2-17.1-11.7-20.8,0-24.2h17.4Z"/>
        <g>
          <g>
            <path class="cls-68" d="M133.2,454.7c-.8,0-1.5-.4-1.8-1.2-.4-1,0-2.2,1-2.6,1.8-.8,3.6-1.6,5.5-2.4,1-.5,2.2,0,2.6,1,.5,1,0,2.2-1,2.6-1.8.8-3.7,1.6-5.5,2.4-.3.1-.5.2-.8.2Z"/>
            <path class="cls-68" d="M161.2,441.8c-.8,0-1.5-.5-1.8-1.1-.5-1,0-2.2,1-2.7,3.8-1.8,7.3-3.5,10.7-5.1,1-.5,2.2,0,2.7.9.5,1,0,2.2-.9,2.7-3.5,1.7-7,3.4-10.5,5.1h-.2c-.3.2-.6.3-.9.3ZM194.1,425.5c-.7,0-1.4-.4-1.8-1.1-.2-.3-.2-.6-.2-.9,0-.8.4-1.4,1.1-1.8,3.7-1.9,7.2-3.8,10.5-5.5.9-.5,2.2-.1,2.7.8.5,1,.2,2.2-.8,2.7-3.5,1.9-7,3.7-10.5,5.6-.3.2-.6.2-.9.2ZM226.3,407.9c-.7,0-1.4-.4-1.7-1-.2-.3-.3-.6-.3-1,0-.7.4-1.4,1-1.7,3.4-1.9,6.8-4,10.2-6,.9-.6,2.2-.2,2.7.7.3.5.4,1,.2,1.5-.1.5-.5,1-.9,1.2-3.4,2-6.8,4-10.3,6h0c-.3.2-.6.3-1,.3ZM257.6,388.8c-.7,0-1.3-.3-1.7-.9-.2-.3-.3-.7-.3-1.1,0-.7.3-1.3.9-1.7h0s0,0,0,0c0,0,0,0,0,0,3.4-2.2,6.7-4.4,9.8-6.5.9-.6,2.2-.4,2.8.5.3.4.4,1,.3,1.5,0,.5-.4,1-.8,1.3-3.2,2.2-6.4,4.3-10,6.6h0s0,0,0,0c-.3.2-.7.3-1,.3ZM287.7,367.8c-.6,0-1.2-.3-1.6-.8-.3-.3-.4-.8-.4-1.2,0-.6.3-1.2.8-1.6,3.1-2.4,6.3-4.8,9.3-7.3.8-.7,2.2-.5,2.8.3.3.4.5.9.4,1.5,0,.5-.3,1-.7,1.3-3,2.4-6.2,4.9-9.4,7.4-.4.3-.8.4-1.2.4ZM315.7,344.2c-.6,0-1.1-.2-1.5-.6-.4-.4-.5-.9-.5-1.4,0-.5.2-1,.6-1.4h0,0c0,0,0,0,0-.1,2-1.9,4-3.9,5.9-5.7.8-.8,1.7-1.7,2.4-2.5.7-.8,2.1-.8,2.8,0,.8.8.8,2,0,2.8-.8.9-1.7,1.7-2.5,2.5-2,2-4,4-6.1,5.9-.4.4-.9.5-1.4.5ZM340.4,317.1c-.4,0-.8-.1-1.2-.4-.5-.4-.8-1-.8-1.6s.1-.8.4-1.2c0,0,0-.1.2-.2.7-.7,1.9-.8,2.6-.2.4.3.7.8.8,1.3,0,.5,0,1.1-.4,1.5-.4.5-1,.8-1.6.8Z"/>
            <path class="cls-68" d="M340.4,317.1c-.4,0-.8-.1-1.2-.4-.9-.7-1.1-1.9-.4-2.8,1.2-1.6,2.4-3.2,3.5-4.8.6-.9,1.9-1.1,2.8-.5.9.6,1.1,1.9.5,2.8-1.1,1.6-2.3,3.3-3.6,4.9-.4.5-1,.8-1.6.8Z"/>
          </g>
          <g>
            <path class="cls-68" d="M349.3,303.1c-.2,0-.4,0-.6-.2-.6-.4-.8-1.1-.4-1.7,1.1-1.8,3.5-6,5-8.7.3-.6,1.1-.8,1.7-.5.6.3.8,1.1.5,1.7-1.5,2.7-4,6.9-5.1,8.7-.2.4-.6.6-1.1.6Z"/>
            <path class="cls-68" d="M357.4,286.1c-.2,0-.3,0-.4,0-.6-.2-1-1-.7-1.6,1.5-4,2.6-8.1,3.3-12.2.1-.7.8-1.1,1.5-1,.3,0,.6.2.8.5.2.3.3.6.2.9-.8,4.1-1.9,8.3-3.4,12.5h0c-.2.6-.7.9-1.2.9ZM362,261.1h0c-.7,0-1.2-.6-1.2-1.2,0-4.2-.5-8.4-1.4-12.4,0-.3,0-.7.2-.9.2-.3.4-.5.8-.6.7-.1,1.3.3,1.5.9,1,4.2,1.5,8.5,1.5,13,0,.3-.1.6-.4.9-.2.2-.6.4-.9.4ZM356.4,236.3c-.5,0-.9-.3-1.1-.7-1.7-3.7-3.8-7.3-6.3-10.8-.4-.6-.3-1.4.3-1.8.5-.4,1.4-.2,1.7.3,2.6,3.6,4.8,7.4,6.6,11.2,0,.2.1.3.1.5,0,.5-.3.9-.7,1.1-.2,0-.3.1-.5.1ZM341.7,215.4c-.3,0-.7-.1-.9-.4-2.7-2.9-5.8-5.8-9.3-8.6-.2-.2-.4-.5-.4-.9,0-.3,0-.7.3-.9.4-.5,1.2-.6,1.8-.1,3.5,2.9,6.6,5.9,9.4,8.8.2.2.3.5.3.9s-.1.7-.4.9c-.2.2-.5.3-.9.3ZM322.3,198.8c-.3,0-.5,0-.8-.2-3.1-2.4-6.5-4.9-10.3-7.6-.3-.2-.4-.5-.5-.8s0-.7.2-.9c.4-.5,1.2-.7,1.7-.3,3.7,2.7,7.1,5.2,10.3,7.6.3.2.5.6.5,1s0,.5-.2.8c-.2.3-.6.5-1,.5ZM301.7,183.6c-.3,0-.5,0-.7-.2-3.6-2.6-7.1-5.1-10.4-7.4-.3-.2-.5-.5-.5-.8,0-.3,0-.7.2-.9.4-.5,1.2-.7,1.8-.3,3.7,2.6,7.1,5,10.4,7.4h.1c0,0,0,0,0,0,.3.2.4.6.4.9s0,.5-.2.7c-.2.3-.6.5-1,.5ZM280.8,168.8c-.3,0-.5,0-.7-.2h0c-.6-.4-.7-1.2-.3-1.8.4-.5,1.2-.7,1.7-.3,0,0,0,0,0,0h0c.3.2.5.6.5,1s0,.5-.2.7c-.2.3-.6.5-1,.5Z"/>
            <path class="cls-68" d="M280.8,168.8c-.3,0-.5,0-.7-.2-1.6-1.2-3.3-2.3-4.9-3.5-.6-.4-.7-1.2-.3-1.7.4-.6,1.2-.7,1.7-.3,1.6,1.2,3.2,2.3,4.9,3.5.6.4.7,1.2.3,1.7-.2.3-.6.5-1,.5Z"/>
          </g>
          <g>
            <path class="cls-68" d="M280.7,167.9c0,0-.2,0-.3,0l-4.9-3.4c-.2-.2-.3-.5-.1-.7.2-.2.5-.3.7-.1l4.9,3.4c.2.2.3.5.1.7,0,.1-.3.2-.4.2Z"/>
            <path class="cls-68" d="M270.6,161c0,0-.2,0-.3,0-3.9-2.8-7.1-5-10.1-7.1-.2-.2-.3-.5-.1-.7.2-.2.5-.3.7-.1,3,2.1,6.2,4.4,10.1,7.1.2.2.3.5.1.7,0,.1-.2.2-.4.2ZM255.5,150.3c-.1,0-.2,0-.3-.1-3.5-2.6-6.8-5-9.9-7.4-.2-.2-.2-.5,0-.7.2-.2.5-.2.7,0,3.1,2.4,6.3,4.8,9.8,7.4.1,0,.2.2.2.4s0,.2,0,.3c0,.1-.2.2-.4.2ZM240.9,139c-.1,0-.2,0-.3-.1-3.3-2.7-6.4-5.3-9.4-8,0,0-.2-.2-.2-.4,0-.1,0-.3.1-.4.2-.2.5-.2.7,0,3,2.7,6,5.3,9.4,8,.1.1.2.2.2.4s0,.2-.1.3c0,.1-.2.2-.4.2ZM226.9,126.8c-.1,0-.2,0-.4-.1-3-2.8-5.9-5.8-8.8-8.7,0-.1-.1-.2-.1-.4,0-.1,0-.3.2-.3.2-.2.5-.2.7,0,2.8,3,5.8,5.9,8.7,8.7,0,.1.2.2.2.4,0,.1,0,.2-.1.3,0,.1-.2.2-.4.2ZM213.9,113.6c-.1,0-.3,0-.4-.2-2.7-3-5.4-6.1-8.1-9.4,0-.1-.1-.2-.1-.4,0-.1,0-.2.2-.3.2-.2.5-.1.7,0,2.6,3.2,5.3,6.4,8,9.3,0,0,.1.2.1.3s0,.3-.2.4c0,0-.2.1-.3.1ZM202.2,99.3c-.2,0-.3,0-.4-.2-2.4-3.7-4.1-7.7-4.9-11.5,0-.1,0-.3,0-.4,0-.1.2-.2.3-.2.3,0,.5.1.6.4.8,3.7,2.4,7.5,4.8,11.1,0,0,0,.2,0,.2,0,.2,0,.3-.2.4,0,0-.2,0-.3,0ZM196.8,81.8h0c-.3,0-.5-.2-.5-.5h0c.2-4.5,1.9-8.3,5.1-11.3.2-.2.5-.2.7,0,.2.2.2.5,0,.7-2.9,2.8-4.6,6.4-4.8,10.6,0,.3-.2.5-.5.5ZM206.8,67.3c-.2,0-.3,0-.4-.2,0,0,0-.2,0-.2,0-.2,0-.3.2-.4,3.3-2.1,6.8-4,10.8-6,.2-.1.5,0,.7.2,0,.1,0,.2,0,.4,0,.1-.1.2-.3.3-4,2-7.5,3.9-10.7,6h0c0,0-.2,0-.3,0ZM223.1,58.6c-.2,0-.4-.1-.4-.3,0,0,0-.1,0-.2,0-.2.1-.4.3-.4,2.8-1.3,5.7-2.5,8.5-3.7.9-.4,1.9-.8,2.8-1.2.2-.1.5,0,.7.3.1.2,0,.6-.3.7-.9.4-1.9.8-2.8,1.2-2.8,1.2-5.7,2.5-8.5,3.8,0,0-.1,0-.2,0ZM240.1,51.1c-.2,0-.4-.1-.5-.3,0,0,0-.1,0-.2,0-.2.1-.4.3-.4,4.2-1.9,7.8-3.7,11-5.5.2-.1.5,0,.7.2.1.2,0,.6-.2.7-3.3,1.8-6.8,3.5-11.1,5.5,0,0-.1,0-.2,0ZM256.5,42.6c-.2,0-.3-.1-.4-.3,0,0,0-.2,0-.2,0-.2.1-.4.3-.4,1.8-1,3.7-2.9,4.6-4.7.7-1.4,1-2.7,1-3.9s0-.6,0-.9c0-.1,0-.3,0-.4,0-.1.2-.2.3-.2.3,0,.5.1.6.4,0,.3,0,.7,0,1,0,1.4-.4,2.9-1.1,4.4-1,2-3,4.1-5.1,5.2,0,0-.2,0-.2,0ZM259.6,27c-.1,0-.3,0-.4-.2-1.6-1.8-3.7-3.6-5.8-5.3-1.1-.9-2.3-1.9-3.4-2.9-.1,0-.2-.2-.2-.3,0-.1,0-.3.1-.4.2-.2.5-.2.7,0,1,.9,2.2,1.9,3.3,2.8,2.1,1.7,4.3,3.5,5.9,5.4,0,0,.1.2.1.3,0,.1,0,.3-.2.4,0,0-.2.1-.3.1ZM246.1,14.3c-.1,0-.3,0-.4-.2-1.2-1.3-2.4-2.9-2.4-5.3,0-.7,0-1.4.3-2.1h0c.5-1.7,1.5-3,2.8-4.1.2-.2.5-.1.7,0,.2.2.1.5,0,.7-1.2.9-2,2.1-2.5,3.6-.2.6-.2,1.3-.2,1.9,0,1.9.8,3.2,2.1,4.6h0c0,.1.1.2.1.3s0,.3-.2.4c0,0-.2.1-.3.1ZM252.5,1.1h0c-.3,0-.5-.1-.6-.4,0,0,0,0,0-.1,0-.1,0-.3.2-.4h-.2.3c0-.1,0-.1,0-.1,0,0,0,0,0,0,.2,0,.5,0,.6.3,0,.3,0,.5-.3.6h-.2Z"/>
            <path class="cls-68" d="M252.6,1c-.2,0-.4-.1-.5-.4,0-.3,0-.5.3-.6.5-.1,1.1-.3,1.6-.4,1.5-.4,2.8-.8,4.1-1.3.3-.1.5,0,.6.3.1.3,0,.5-.3.6-1.3.5-2.8.9-4.2,1.3-.5.1-1,.3-1.6.4,0,0,0,0-.1,0Z"/>
          </g>
        </g>
      </g>
    </g>
  </g>
</svg>