<svg width="48" height="48" viewBox="0 0 48 48" fill="none" xmlns="http://www.w3.org/2000/svg">
<g clip-path="url(#clip0_277_167)">
<g clip-path="url(#clip1_277_167)">
<path d="M31.4321 24.2005C31.2165 25.9621 30.4243 27.6411 29.1193 28.9462C27.5331 30.5334 25.3159 31.2805 22.5315 31.168C20.5786 31.0902 19.6768 31.6012 19.5286 31.694C18.9305 32.218 18.1711 32.5049 17.3696 32.5049C16.493 32.5049 15.6689 32.1637 15.0492 31.544C13.9795 30.4743 13.807 28.8243 14.5374 27.5671L15.0614 26.7365C15.2396 26.3024 15.4805 25.4455 15.4242 24.0608C15.3127 21.2755 16.0599 19.0592 17.6461 17.473C18.9455 16.1745 20.6068 15.3701 22.403 15.1554C22.6571 13.9339 23.2074 12.7911 24.0015 11.8311H5.15949C3.08948 11.8311 1.40479 13.5148 1.40479 15.5848V34.2027H40.5738V15.7161L35.814 21.5492C34.6947 22.9171 33.1403 23.848 31.4321 24.2005Z" fill="#004C92"/>
<path d="M1.40488 38.2154C1.40488 40.2845 3.08958 41.9682 5.15959 41.9682H15.8302V45.1876H13.465C12.6884 45.1876 12.0588 45.8172 12.0588 46.5939C12.0588 47.3705 12.6884 48.0001 13.465 48.0001H28.5132C29.2899 48.0001 29.9195 47.3705 29.9195 46.5939C29.9195 45.8172 29.2899 45.1876 28.5132 45.1876H26.1481V41.9682H36.8191C38.8891 41.9682 40.5738 40.2845 40.5738 38.2154V37.0154H1.40479V38.2154H1.40488Z" fill="#004C92"/>
<path d="M17.0721 28.8596C17.0719 28.8597 17.0716 28.86 17.0714 28.8603C17.0712 28.8604 17.0711 28.8605 17.071 28.8607L17.0706 28.8611C17.0705 28.8612 17.0704 28.8613 17.0702 28.8615C17.0701 28.8618 17.07 28.8618 17.0697 28.862L17.0696 28.8621C17.0695 28.8623 17.0693 28.8624 17.0691 28.8626C17.0691 28.8626 17.0691 28.8626 17.069 28.8627C17.069 28.8627 17.0688 28.8629 17.0687 28.8631C17.0687 28.8631 17.0687 28.8631 17.0686 28.8632C17.0684 28.8633 17.0683 28.8635 17.0681 28.8637C17.0681 28.8637 17.0681 28.8637 17.068 28.8638L17.0675 28.8642C16.8898 29.0477 16.8916 29.3405 17.0728 29.5218C17.1644 29.6133 17.2843 29.6591 17.4043 29.6591C17.5232 29.6591 17.642 29.6142 17.7333 29.5242C17.762 29.4971 19.182 28.1843 22.6802 28.3249C24.6483 28.4042 26.1573 27.9327 27.1657 26.9244C29.2323 24.8578 29.2323 21.4954 27.1657 19.4289C26.1647 18.4278 24.8337 17.8765 23.418 17.8765C22.0023 17.8765 20.6713 18.4277 19.6702 19.4289C18.6619 20.4372 18.1906 21.9464 18.2697 23.9144C18.4111 27.4317 17.0835 28.8478 17.0728 28.8589C17.0724 28.8592 17.0723 28.8594 17.0721 28.8596Z" fill="#004C92"/>
<path d="M31.3104 21.3091C32.2273 21.0344 33.0533 20.4907 33.6692 19.7379L35.466 17.5359L29.0651 11.135L26.8723 12.926C26.1176 13.541 25.572 14.366 25.2964 15.2829C26.7458 15.6232 28.0751 16.361 29.1542 17.4401C30.2586 18.5444 30.9776 19.8898 31.3104 21.3091Z" fill="#004C92"/>
<path d="M45.7508 0.844431C44.7036 -0.202757 43.048 -0.286194 41.9005 0.651306L31.2544 9.3469L37.2532 15.3457L45.9448 4.6939C46.8814 3.54724 46.798 1.89162 45.7508 0.844431Z" fill="#004C92"/>
</g>
</g>
<defs>
<clipPath id="clip0_277_167">
<rect width="48" height="48" fill="white"/>
</clipPath>
<clipPath id="clip1_277_167">
<rect width="48" height="48" fill="white"/>
</clipPath>
</defs>
</svg>
