<svg width="48" height="48" viewBox="0 0 48 48" fill="none" xmlns="http://www.w3.org/2000/svg">
<path d="M7.61426 30.5872H9.4563C9.87085 30.5872 10.2063 30.923 10.2063 31.3372V36.3099L10.5813 35.935L15.7097 30.8069C15.8503 30.6663 16.0408 30.5872 16.24 30.5872H32.8557C35.4001 30.5872 37.47 28.5173 37.47 25.9729V9.87976V8.29919C37.47 5.75476 35.4001 3.68457 32.8557 3.68457H7.61426C5.06982 3.68457 3 5.75476 3 8.29919V25.9729C3 28.5173 5.06982 30.5872 7.61426 30.5872ZM8.87402 9.12683H31.6721C32.0867 9.12683 32.4221 9.46265 32.4221 9.87683C32.4221 10.291 32.0867 10.6268 31.6721 10.6268H8.87402C8.45947 10.6268 8.12402 10.291 8.12402 9.87683C8.12402 9.46265 8.45947 9.12683 8.87402 9.12683ZM8.87402 14.9646H31.6721C32.0867 14.9646 32.4221 15.3004 32.4221 15.7146C32.4221 16.1288 32.0867 16.4646 31.6721 16.4646H8.87402C8.45947 16.4646 8.12402 16.1288 8.12402 15.7146C8.12402 15.3004 8.45947 14.9646 8.87402 14.9646ZM8.87402 20.802H23.1519C23.5664 20.802 23.9019 21.1378 23.9019 21.552C23.9019 21.9662 23.5664 22.302 23.1519 22.302H8.87402C8.45947 22.302 8.12402 21.9662 8.12402 21.552C8.12402 21.1378 8.45947 20.802 8.87402 20.802Z" fill="#004C92"/>
<path d="M32.8556 32.087H16.5504L12.1794 36.4578C13.0086 37.147 14.0566 37.5322 15.1442 37.5322H31.7599C31.9591 37.5322 32.1496 37.6113 32.2902 37.752L37.7936 43.255V38.2822C37.7936 37.868 38.1291 37.5322 38.5436 37.5322H40.3857C42.9301 37.5322 44.9999 35.4624 44.9999 32.918V15.2439C44.9999 12.6995 42.9301 10.6296 40.3857 10.6296H38.9699V25.9728C38.9699 29.3441 36.227 32.087 32.8556 32.087Z" fill="#004C92"/>
</svg>
