<svg fill="#004C92" id="Layer_1" enable-background="new 0 0 66 66" viewBox="0 0 66 66" xmlns="http://www.w3.org/2000/svg"><g><path d="m53.59 22.68c0-11.35-9.24-20.59-20.59-20.59s-20.59 9.24-20.59 20.59c0 10.18 16.85 29.34 20.59 33.47 3.74-4.13 20.59-23.29 20.59-33.47zm-36.7-.51c0-8.89 7.23-16.11 16.11-16.11s16.11 7.23 16.11 16.11-7.22 16.11-16.11 16.11-16.11-7.22-16.11-16.11z"/><path d="m47.12 22.17c0-7.78-6.33-14.12-14.12-14.12s-14.12 6.33-14.12 14.12 6.34 14.12 14.12 14.12 14.12-6.33 14.12-14.12zm-10.12-1.24c0-2.16 1.75-3.91 3.91-3.91s3.91 1.75 3.91 3.91v2.48c0 2.16-1.76 3.91-3.91 3.91s-3.91-1.75-3.91-3.91zm-12.75 6.4c-1.24 0-2.35-.74-2.83-1.88-.22-.51.02-1.09.53-1.31.51-.21 1.09.02 1.31.53.17.4.56.66 1 .66.6 0 1.08-.48 1.08-1.08s-.48-1.08-1.08-1.08c-1.7 0-3.08-1.38-3.08-3.08s1.38-3.08 3.08-3.08c1.32 0 2.49.84 2.91 2.08.18.52-.1 1.09-.62 1.27s-1.09-.1-1.27-.62c-.15-.44-.56-.73-1.02-.73-.6 0-1.08.48-1.08 1.08s.48 1.08 1.08 1.08c1.7 0 3.08 1.38 3.08 3.08-.01 1.7-1.39 3.08-3.09 3.08zm5.15-1v-8.32c0-.55.45-1 1-1h3.54c.55 0 1 .45 1 1s-.45 1-1 1h-2.54v2.16h2.54c.55 0 1 .45 1 1s-.45 1-1 1h-2.54v2.16h2.54c.55 0 1 .45 1 1s-.45 1-1 1h-3.54c-.56 0-1-.45-1-1z"/><path d="m40.91 25.33c1.06 0 1.92-.86 1.92-1.92v-2.48c0-1.06-.86-1.92-1.92-1.92s-1.92.86-1.92 1.92v2.48c0 1.06.86 1.92 1.92 1.92z"/><path d="m22.79 55.9c0 1.82 4.37 3.85 10.21 3.85s10.21-2.03 10.21-3.85c0-1.16-1.86-2.42-4.58-3.15-2.66 3.16-4.64 5.28-4.9 5.56-.19.2-.45.32-.73.32s-.54-.11-.73-.32c-.26-.28-2.24-2.4-4.9-5.56-2.72.73-4.58 1.98-4.58 3.15z"/><path d="m45.2 55.9c0 3.33-5.25 5.85-12.2 5.85s-12.2-2.51-12.2-5.85c0-2.02 1.91-3.77 5.18-4.83-.6-.73-1.22-1.5-1.85-2.3-6.57 1.38-10.95 4.21-10.95 7.13 0 3.87 7.97 8.01 19.83 8.01s19.83-4.14 19.83-8.01c0-2.92-4.38-5.75-10.95-7.13-.63.8-1.25 1.57-1.85 2.3 3.26 1.06 5.16 2.81 5.16 4.83z"/></g></svg>