<svg width="48" height="48" viewBox="0 0 48 48" fill="none" xmlns="http://www.w3.org/2000/svg">
<g clip-path="url(#clip0_277_231)">
<path d="M1.40416 36.6568H38.1558C38.4854 36.6568 38.804 36.5415 39.0567 36.3313C39.4097 36.0356 47.4619 29.1086 47.9529 14.1558H8.48242C7.9933 27.7289 0.57753 34.1087 0.500464 34.1724C0.0486624 34.5541 -0.117564 35.1777 0.0856953 35.7325C0.287548 36.286 0.813603 36.6568 1.40416 36.6568Z" fill="#004C92"/>
<path d="M46.5935 5.7179H39.5619V4.31159C39.5619 3.52405 38.9432 2.90527 38.1556 2.90527C37.3681 2.90527 36.7493 3.52405 36.7493 4.31159V5.7179H29.624V4.31159C29.624 3.52405 29.0052 2.90527 28.2177 2.90527C27.4301 2.90527 26.8114 3.52405 26.8114 4.31159V5.7179H19.7798V4.31159C19.7798 3.52405 19.161 2.90527 18.3735 2.90527C17.586 2.90527 16.9672 3.52405 16.9672 4.31159V5.7179H9.93561C9.14807 5.7179 8.5293 6.33668 8.5293 7.12421V11.3432H47.9998V7.12421C47.9998 6.33668 47.381 5.7179 46.5935 5.7179Z" fill="#004C92"/>
<path d="M40.8627 38.4875C40.0991 39.1234 39.1406 39.4695 38.1559 39.4695H8.52954V43.6885C8.52954 44.4658 9.15854 45.0948 9.93585 45.0948H46.5938C47.3711 45.0948 48.0001 44.4658 48.0001 43.6885V27.9241C45.2887 34.576 41.5052 37.9499 40.8627 38.4875Z" fill="#004C92"/>
</g>
<defs>
<clipPath id="clip0_277_231">
<rect width="48" height="48" fill="white"/>
</clipPath>
</defs>
</svg>
