<svg xmlns="http://www.w3.org/2000/svg" version="1.1" xmlns:xlink="http://www.w3.org/1999/xlink" width="512" height="512" x="0" y="0" viewBox="0 0 510 510" style="enable-background:new 0 0 512 512" xml:space="preserve" fill-rule="evenodd" class=""><g><path d="M340.296 277.997c-7.842 10.509-20.38 17.327-34.462 17.327H151.317l-66.024 68.73a7.999 7.999 0 0 1-13.769-5.542v-63.188H49.959C26.299 295.324 7 276.078 7 252.418V77.304c0-23.657 19.302-42.959 42.959-42.959h198.928c4.415 0 8 3.584 8 8 0 4.415-3.585 8-8 8H49.959C35.113 50.345 23 62.458 23 77.304v175.114c0 14.842 12.117 26.906 26.959 26.906h29.565a8 8 0 0 1 8 8v51.312l54.615-56.854a8.003 8.003 0 0 1 5.77-2.458h157.925c14.842 0 26.959-12.064 26.959-26.906V128.534c0-4.415 3.585-8 8-8s8 3.585 8 8v123.884c0 3.292-.374 6.498-1.081 9.579h85.615c4.415 0 8 3.585 8 8 0 4.416-3.585 8-8 8zm25.169-61.242c-4.415 0-8-3.585-8-8s3.585-8 8-8h97.884c21.835 0 39.651 17.816 39.651 39.651v158.541c0 21.838-17.812 39.602-39.651 39.602h-18.766V495a8 8 0 0 1-13.77 5.542l-59.551-61.993H231.691c-21.838 0-39.651-17.764-39.651-39.602v-86.196c0-4.416 3.585-8 8-8 4.416 0 8 3.584 8 8v86.196c0 13.02 10.63 23.602 23.651 23.602H374.67a8 8 0 0 1 5.769 2.458l48.144 50.117v-44.575a8 8 0 0 1 8-8h26.766c13.021 0 23.651-10.582 23.651-23.602V240.406c0-13.024-10.627-23.651-23.651-23.651zm67.862 95.472c4.415 0 8 3.584 8 8 0 4.415-3.585 8-8 8H264.491c-4.415 0-8-3.585-8-8 0-4.416 3.585-8 8-8zm0 50.181c4.415 0 8 3.585 8 8 0 4.416-3.585 8-8 8H264.491c-4.415 0-8-3.584-8-8 0-4.415 3.585-8 8-8zM197.983 73.591l-3.726 63.979h50.95a7.999 7.999 0 0 1 6.221 13.029l-83.889 103.772a8 8 0 0 1-14.167-5.956l7.657-65.611h-50.443a8 8 0 0 1-6.305-12.924l79.41-101.678a8 8 0 0 1 14.292 5.389zm-17.464 24.666-53.535 68.548h43.033a7.997 7.997 0 0 1 7.946 8.927l-5.496 47.093 55.986-69.255h-42.675a7.999 7.999 0 0 1-7.987-8.465zm144.533 10.397v19.187a8 8 0 0 1-12.732 6.45l-71.845-52.709a8.001 8.001 0 0 1-.402-12.585l71.844-60.132A8 8 0 0 1 325.052 15v18.37c38.53 1.503 66.962 13.86 85.757 31.283 31.185 28.909 36.498 71.973 17.262 106.598a8 8 0 0 1-14.742-1.895c-13.667-53.221-56.24-59.968-88.277-60.702zm-8-16.082c33.726 0 81.739 3.996 104.361 51.934 5.536-23.878-1.466-49.565-21.481-68.119-17.705-16.412-45.29-27.172-82.88-27.172a8 8 0 0 1-8-8v-9.087l-50.885 42.589 50.885 37.333v-11.478a8 8 0 0 1 8-8z" fill="#004c92" opacity="1" data-original="#000000" class=""></path></g></svg>