<svg fill="#004C92" enable-background="new 0 0 32 32" viewBox="0 0 32 32" xmlns="http://www.w3.org/2000/svg"><g id="Guides"/><g id="_x32_0"/><g id="_x31_9"/><g id="_x31_8"/><g id="_x31_7"/><g id="_x31_6"/><g id="_x31_5"/><g id="_x31_4"/><g id="_x31_3"><path d="m11 19h-5c-.5522461 0-1-.4472656-1-1s.4477539-1 1-1h5c.5522461 0 1 .4472656 1 1s-.4477539 1-1 1z"/><path d="m9 22h-6c-.5522461 0-1-.4472656-1-1s.4477539-1 1-1h6c.5522461 0 1 .4472656 1 1s-.4477539 1-1 1z"/><path d="m11 25h-5c-.5522461 0-1-.4472656-1-1s.4477539-1 1-1h5c.5522461 0 1 .4472656 1 1s-.4477539 1-1 1z"/><path d="m8.5 2c-3.5841675 0-6.5 2.9162598-6.5 6.5 0 3.5836792 2.9158325 6.5 6.5 6.5s6.5-2.9163208 6.5-6.5c0-3.5837402-2.9158325-6.5-6.5-6.5zm0 12c-3.0327148 0-5.5-2.4677734-5.5-5.5s2.4672852-5.5 5.5-5.5 5.5 2.4677734 5.5 5.5-2.4672852 5.5-5.5 5.5z"/><path d="m8.5 4c-2.4814453 0-4.5 2.0185547-4.5 4.5s2.0185547 4.5 4.5 4.5 4.5-2.0185547 4.5-4.5-2.0185547-4.5-4.5-4.5zm2.3535156 2.8535156-2 2c-.09375.09375-.2207031.1464844-.3535156.1464844h-2c-.2763672 0-.5-.2236328-.5-.5s.2236328-.5.5-.5h1.7929688l1.8535156-1.8535156c.1953125-.1953125.5117188-.1953125.7070313 0s.1953124.5117187-.0000001.7070312z"/><path d="m16 15h11c1.6568546 0 3 1.3431454 3 3v6c0 1.6568546-1.3431454 3-3 3h-3v2.5c0 .2021484-.121582.3847656-.3085938.4619141-.0620117.0258789-.1269531.0380859-.1914062.0380859-.1298828 0-.2578125-.0507813-.3535156-.1464844l-4.1464844-2.8535156h-3c-1.6568546 0-3-1.3431454-3-3v-6c0-1.6568546 1.3431454-3 3-3z"/></g><g id="_x31_2"/><g id="_x31_1"/><g id="_x31_0"/><g id="_x30_9"/><g id="_x30_8"/><g id="_x30_7"/><g id="_x30_6"/><g id="_x30_5"/><g id="_x30_4"/><g id="_x30_3"/><g id="_x30_2"/><g id="_x30_1"/></svg>