<svg width="20" height="21" viewBox="0 0 20 21" fill="none" xmlns="http://www.w3.org/2000/svg">
<path d="M7.84167 6.99919H14.1667C14.3877 6.99919 14.5996 6.91139 14.7559 6.75511C14.9122 6.59883 15 6.38687 15 6.16585C15 5.94484 14.9122 5.73288 14.7559 5.5766C14.5996 5.42032 14.3877 5.33252 14.1667 5.33252H5.83333C5.72444 5.33384 5.61685 5.35649 5.51667 5.39919C5.31304 5.48375 5.15123 5.64556 5.06667 5.84919C5.02397 5.94937 5.00132 6.05696 5 6.16585V14.4992C5 14.7202 5.0878 14.9322 5.24408 15.0884C5.40036 15.2447 5.61232 15.3325 5.83333 15.3325C6.05435 15.3325 6.26631 15.2447 6.42259 15.0884C6.57887 14.9322 6.66667 14.7202 6.66667 14.4992V8.17419L13.575 15.0909C13.6525 15.169 13.7446 15.231 13.8462 15.2733C13.9477 15.3156 14.0567 15.3374 14.1667 15.3374C14.2767 15.3374 14.3856 15.3156 14.4871 15.2733C14.5887 15.231 14.6809 15.169 14.7583 15.0909C14.8364 15.0134 14.8984 14.9212 14.9407 14.8197C14.9831 14.7181 15.0048 14.6092 15.0048 14.4992C15.0048 14.3892 14.9831 14.2803 14.9407 14.1787C14.8984 14.0772 14.8364 13.985 14.7583 13.9075L7.84167 6.99919Z" fill="#1A1A1A"/>
</svg>
