<svg width="20" height="21" viewBox="0 0 20 21" fill="none" xmlns="http://www.w3.org/2000/svg">
<path d="M14.9333 5.84919C14.8487 5.64556 14.6869 5.48375 14.4833 5.39919C14.3831 5.35649 14.2755 5.33384 14.1666 5.33252H5.83328C5.61227 5.33252 5.40031 5.42032 5.24403 5.5766C5.08775 5.73288 4.99995 5.94484 4.99995 6.16585C4.99995 6.38687 5.08775 6.59883 5.24403 6.75511C5.40031 6.91139 5.61227 6.99919 5.83328 6.99919H12.1583L5.24162 13.9075C5.16351 13.985 5.10151 14.0772 5.05921 14.1787C5.0169 14.2803 4.99512 14.3892 4.99512 14.4992C4.99512 14.6092 5.0169 14.7181 5.05921 14.8197C5.10151 14.9212 5.16351 15.0134 5.24162 15.0909C5.31908 15.169 5.41125 15.231 5.5128 15.2733C5.61435 15.3156 5.72327 15.3374 5.83328 15.3374C5.94329 15.3374 6.05221 15.3156 6.15376 15.2733C6.25531 15.231 6.34748 15.169 6.42495 15.0909L13.3333 8.17419V14.4992C13.3333 14.7202 13.4211 14.9322 13.5774 15.0884C13.7336 15.2447 13.9456 15.3325 14.1666 15.3325C14.3876 15.3325 14.5996 15.2447 14.7559 15.0884C14.9122 14.9322 14.9999 14.7202 14.9999 14.4992V6.16585C14.9986 6.05696 14.976 5.94937 14.9333 5.84919V5.84919Z" fill="#1A1A1A"/>
</svg>
