<svg xmlns="http://www.w3.org/2000/svg" version="1.1" xmlns:xlink="http://www.w3.org/1999/xlink" width="512" height="512" x="0" y="0" viewBox="0 0 64 64" style="enable-background:new 0 0 512 512" xml:space="preserve" class=""><g><path d="M47.32 16.2a1 1 0 0 0-1.41 0L32.43 29.27a1 1 0 0 0 1.4 1.44l13.47-13.1a1 1 0 0 0 .02-1.41z" fill="#007ad0" opacity="1" data-original="#000000" class=""></path><path d="M54.64 26.4h-1.57a1.27 1.27 0 0 1-1.21-.87 21.41 21.41 0 0 0-1.78-3.93l6.16-6.09a4.79 4.79 0 0 0 0-6.77l-1.58-1.53a4.77 4.77 0 0 0-3.37-1.38 4.72 4.72 0 0 0-3.37 1.41l-6.2 6.12a23.16 23.16 0 0 0-3.57-1.57 1.26 1.26 0 0 1-.86-1.21V9A3.29 3.29 0 0 0 34 5.72h-5.61A3.29 3.29 0 0 0 25.1 9v1.57a1.27 1.27 0 0 1-.87 1.21 23.09 23.09 0 0 0-2.77 1.15 1.28 1.28 0 0 1-1.46-.24l-1.1-1.11a3.31 3.31 0 0 0-4.66 0l-3.94 3.94a3.29 3.29 0 0 0 0 4.66l1.1 1.11a1.28 1.28 0 0 1 .25 1.47 20.93 20.93 0 0 0-1.14 2.77 1.29 1.29 0 0 1-1.22.87H7.71a3.29 3.29 0 0 0-3.29 3.29v5.57a3.29 3.29 0 0 0 3.29 3.29h1.57a1.27 1.27 0 0 1 1.21.87 23.09 23.09 0 0 0 1.15 2.77 1.28 1.28 0 0 1-.25 1.47l-1.1 1.11a3.24 3.24 0 0 0-1 2.33 3.29 3.29 0 0 0 1 2.33l3.94 3.94a3.31 3.31 0 0 0 4.66 0L20 52.26a1.28 1.28 0 0 1 1.46-.26 21.5 21.5 0 0 0 2.77 1.14 1.29 1.29 0 0 1 .87 1.22v1.57a3.29 3.29 0 0 0 3.29 3.29H34a3.29 3.29 0 0 0 3.3-3.29v-1.56a1.27 1.27 0 0 1 .86-1.22A21.06 21.06 0 0 0 40.9 52a1.27 1.27 0 0 1 1.46.25l1.11 1.11a3.31 3.31 0 0 0 4.66 0l3.94-3.94a3.31 3.31 0 0 0 0-4.66L51 43.66a1.28 1.28 0 0 1-.25-1.47 21 21 0 0 0 1.15-2.77 1.27 1.27 0 0 1 1.21-.87h1.57a3.29 3.29 0 0 0 3.29-3.29v-5.57a3.29 3.29 0 0 0-3.33-3.29zm-9 1.36a15.26 15.26 0 1 1-14.46-10.54 15.07 15.07 0 0 1 5.54 1.05l-12 11.9a1 1 0 0 0-.27.47l-2.29 9.12a1 1 0 0 0 .26 1 1 1 0 0 0 .71.3 1 1 0 0 0 .24 0l9.22-2.27a.88.88 0 0 0 .46-.26l12.16-12a13.38 13.38 0 0 1 .48 1.23zm-19.71 5.06 4.42 4.37-5.87 1.45zm6.39 3.51-5.51-5.45 19.84-19.6 5.51 5.45zm19-28.5a2.83 2.83 0 0 1 2 .8l1.54 1.53a2.79 2.79 0 0 1 0 3.94l-1.24 1.22-5.55-5.45 1.23-1.22a2.77 2.77 0 0 1 1.97-.82zm4.66 27.43a1.29 1.29 0 0 1-1.29 1.29h-1.62A3.28 3.28 0 0 0 50 38.79a21.06 21.06 0 0 1-1 2.51 3.29 3.29 0 0 0 .62 3.77l1.11 1.11a1.29 1.29 0 0 1 0 1.83L46.71 52a1.29 1.29 0 0 1-1.83 0l-1.11-1.11a3.26 3.26 0 0 0-3.77-.67 20.54 20.54 0 0 1-2.52 1 3.25 3.25 0 0 0-2.23 3.11v1.57A1.3 1.3 0 0 1 34 57.23h-5.61a1.29 1.29 0 0 1-1.29-1.29v-1.57a3.26 3.26 0 0 0-2.23-3.11 20.54 20.54 0 0 1-2.52-1 3.26 3.26 0 0 0-3.77.62L17.47 52a1.29 1.29 0 0 1-1.83 0l-3.94-4a1.25 1.25 0 0 1-.38-.91 1.28 1.28 0 0 1 .38-.92l1.11-1.11a3.25 3.25 0 0 0 .62-3.77 20.54 20.54 0 0 1-1-2.52 3.28 3.28 0 0 0-3.11-2.23H7.71a1.29 1.29 0 0 1-1.29-1.29v-5.56a1.29 1.29 0 0 1 1.29-1.29h1.57a3.26 3.26 0 0 0 3.11-2.23 20.68 20.68 0 0 1 1-2.53 3.24 3.24 0 0 0-.62-3.76l-1.07-1.11a1.3 1.3 0 0 1 0-1.83L15.64 13a1.29 1.29 0 0 1 1.83 0l1.11 1.11a3.27 3.27 0 0 0 3.77.62 20.54 20.54 0 0 1 2.52-1 3.27 3.27 0 0 0 2.23-3.11V9a1.29 1.29 0 0 1 1.29-1.29H34A1.3 1.3 0 0 1 35.26 9v1.57a3.26 3.26 0 0 0 2.23 3.11 20.71 20.71 0 0 1 2.7 1.16l-1.92 1.89a17 17 0 0 0-7.09-1.52A17.21 17.21 0 1 0 47.6 27.15a17.56 17.56 0 0 0-.91-2.2l1.9-1.88a19.09 19.09 0 0 1 1.41 3.1 3.28 3.28 0 0 0 3.11 2.23h1.57a1.29 1.29 0 0 1 1.29 1.29z" fill="#007ad0" opacity="1" data-original="#000000" class=""></path></g></svg>