<svg xmlns="http://www.w3.org/2000/svg" version="1.1" xmlns:xlink="http://www.w3.org/1999/xlink" width="512" height="512" x="0" y="0" viewBox="0 0 512 512" style="enable-background:new 0 0 512 512" xml:space="preserve" class=""><g><path d="m70.557 418.524-8.351 18.836c-4.485 10.117 5.128 20.767 15.65 17.338l66.633-21.716 28.649 63.959c4.524 10.099 18.871 10.072 23.356-.045l29.152-65.754M94.883 363.654l-10.14 22.872M286.354 431.143l29.152 65.754c4.485 10.117 18.833 10.144 23.356.045l28.649-63.959 66.633 21.716c10.522 3.429 20.135-7.221 15.65-17.338l-32.677-73.705M423.513 153.165c11.083-25.108 7.605-55.079-10.438-77.123M385.189 54.888c-19.026-8.282-40.806-8.235-59.802.15C314.609 27.228 287.616 7.5 256 7.5s-58.608 19.728-69.386 47.538c-27.286-12.044-60.322-6.907-82.678 15.449s-27.492 55.392-15.449 82.678" style="stroke-width:15;stroke-linecap:round;stroke-linejoin:round;stroke-miterlimit:10;" fill="none" stroke="#ff6f61" stroke-width="15" stroke-linecap="round" stroke-linejoin="round" stroke-miterlimit="10" data-original="#000000" opacity="1" class=""></path><path d="M88.487 291.938c-12.044 27.286-6.907 60.322 15.449 82.678s55.392 27.492 82.678 15.449c10.778 27.81 37.77 47.538 69.386 47.538 31.616 0 58.609-19.728 69.386-47.538 27.286 12.044 60.322 6.907 82.678-15.449s27.492-55.392 15.449-82.678M378.356 153.165C354.174 110.614 308.441 81.908 256 81.908s-98.174 28.705-122.356 71.257" style="stroke-width:15;stroke-linecap:round;stroke-linejoin:round;stroke-miterlimit:10;" fill="none" stroke="#ff6f61" stroke-width="15" stroke-linecap="round" stroke-linejoin="round" stroke-miterlimit="10" data-original="#000000" opacity="1" class=""></path><path d="M133.644 291.938c24.182 42.552 69.915 71.257 122.356 71.257s98.174-28.705 122.356-71.257M445.461 291.938H66.539C46.911 291.938 31 276.027 31 256.399v-67.694c0-19.628 15.911-35.539 35.539-35.539h378.922c19.628 0 35.539 15.911 35.539 35.539v67.694c0 19.628-15.911 35.539-35.539 35.539z" style="stroke-width:15;stroke-linecap:round;stroke-linejoin:round;stroke-miterlimit:10;" fill="none" stroke="#ff6f61" stroke-width="15" stroke-linecap="round" stroke-linejoin="round" stroke-miterlimit="10" data-original="#000000" opacity="1" class=""></path><path d="M101.098 189.536H73.016v66.645h28.082M99.027 222.859H73.016M308.699 189.536h-28.082v66.645h28.082M306.629 222.859h-26.012M134.751 188.922l47.315 67.259M178.736 188.922l-47.382 67.259M401.839 188.922h37.145M420.337 191.07v65.111M347.01 224.08l28.253 32.101M338.899 188.922v67.259M338.921 188.922h17.873c10.004 0 18.469 7.826 18.469 17.48s-8.465 17.48-18.469 17.48c-4.961 0-17.749.077-17.749.077M212.184 188.922v67.259M212.184 188.922h18.728c10.483 0 19.352 8.498 19.352 18.981 0 10.483-8.87 18.981-19.352 18.981-5.199 0-18.598.084-18.598.084" style="stroke-width:15;stroke-linecap:round;stroke-linejoin:round;stroke-miterlimit:10;" fill="none" stroke="#ff6f61" stroke-width="15" stroke-linecap="round" stroke-linejoin="round" stroke-miterlimit="10" data-original="#000000" opacity="1" class=""></path></g></svg>