<svg xmlns="http://www.w3.org/2000/svg" version="1.1" xmlns:xlink="http://www.w3.org/1999/xlink" width="512" height="512" x="0" y="0" viewBox="0 0 64 64" style="enable-background:new 0 0 512 512" xml:space="preserve"><g><path d="M62.1 52.96 51.34 42.21a.948.948 0 0 0-1.37 0l-1.07 1.07-3.93-3.92c7-9.71 6.14-23.36-2.59-32.08A24.644 24.644 0 0 0 24.83 0C18.19 0 11.96 2.59 7.27 7.28c-9.68 9.68-9.68 25.44 0 35.12a24.79 24.79 0 0 0 17.56 7.26c5.1 0 10.2-1.56 14.52-4.67l3.92 3.92-1.07 1.07a.993.993 0 0 0 0 1.38l10.76 10.75c1.26 1.26 2.91 1.89 4.57 1.89s3.32-.63 4.58-1.89c2.51-2.52 2.51-6.62-.01-9.15zM37.57 37.59a17.975 17.975 0 0 1-12.74 5.27c-4.62 0-9.22-1.76-12.73-5.27-7.03-7.03-7.03-18.46 0-25.48 7.02-7.02 18.45-7.02 25.47 0 3.4 3.4 5.28 7.92 5.28 12.74a17.99 17.99 0 0 1-5.28 12.74z" fill="#ffffff" opacity="1" data-original="#000000"></path></g></svg>