<svg width="851" height="991" viewBox="0 0 851 991" fill="none" xmlns="http://www.w3.org/2000/svg">
<g clip-path="url(#clip0_492_452)">
<g style="mix-blend-mode:hard-light">
<path d="M851 376.861C851 489.482 806.739 595.38 726.372 675.02C675.686 725.249 614.476 761.245 547.657 780.977C548.174 777.824 548.831 774.098 549.666 769.879C561.264 711.272 608.389 554.652 792.059 423.995C789.115 425.019 632.062 480.334 545.111 659.723C531.723 687.341 520.445 732.07 511.333 779.834C510.657 783.342 510.001 786.852 509.343 790.38C491.719 886.658 482.727 991 482.727 991C482.727 991 458.676 903.889 455.214 797.517C455.095 794.245 455.015 790.952 454.956 787.641C453.524 717.009 461.6 638.966 491.797 572.769C570.91 399.393 725.278 412.818 835.94 312.202C838.884 309.501 841.808 306.742 844.692 303.884C848.872 327.736 851 352.141 851 376.861Z" fill="#004C92"/>
<path d="M396.042 787.639C395.982 790.951 395.904 794.243 395.784 797.515C392.322 903.887 368.272 990.998 368.272 990.998C368.272 990.998 359.262 886.658 341.656 790.379C340.999 786.85 340.323 783.321 339.646 779.812C330.534 732.047 319.255 687.338 305.889 659.721C218.938 480.334 61.8852 425.019 58.9412 423.993C242.61 554.67 289.755 711.31 301.335 769.897C302.17 774.116 302.827 777.821 303.343 780.976C236.524 761.243 175.313 725.247 124.628 675.018C44.2608 595.377 0 489.479 0 376.86C0 352.141 2.12815 327.755 6.30608 303.902C9.19021 306.76 12.1143 309.521 15.0583 312.201C125.742 412.815 280.108 399.391 359.202 572.767C389.4 638.964 397.476 717.008 396.042 787.639Z" fill="#004C92"/>
<path d="M425.499 480.151C560.476 480.151 669.897 372.666 669.897 240.076C669.897 107.486 560.476 0 425.499 0C290.522 0 181.102 107.486 181.102 240.076C181.102 372.666 290.522 480.151 425.499 480.151Z" fill="#119CE2"/>
</g>
</g>
<defs>
<clipPath id="clip0_492_452">
<rect width="851" height="991" fill="white"/>
</clipPath>
</defs>
</svg>
