<svg xmlns="http://www.w3.org/2000/svg" version="1.1" xmlns:xlink="http://www.w3.org/1999/xlink" width="512" height="512" x="0" y="0" viewBox="0 0 512 512" style="enable-background:new 0 0 512 512" xml:space="preserve"><g><path d="M512 256c0-69.97-56.924-126.894-126.894-126.894-33.895 0-65.76 13.199-89.727 37.167L166.271 295.379c-10.517 10.518-24.502 16.311-39.378 16.311-30.708 0-55.69-24.982-55.69-55.69s24.982-55.69 55.69-55.69c14.876 0 28.861 5.793 39.379 16.312l18.166 18.165 50.349-50.348-18.167-18.166c-23.967-23.968-55.832-37.167-89.727-37.167C56.924 129.106 0 186.03 0 256s56.924 126.894 126.894 126.894c33.895 0 65.76-13.199 89.727-37.167L345.729 216.62c10.517-10.518 24.502-16.311 39.378-16.311 30.708 0 55.69 24.982 55.69 55.69s-24.982 55.69-55.69 55.69c-14.877 0-28.862-5.793-39.379-16.313l-18.166-18.165-50.349 50.348 18.166 18.166c23.968 23.967 55.833 37.167 89.728 37.167C455.076 382.894 512 325.97 512 256z" fill="#FF6F61" opacity="1" data-original="#000000"></path></g></svg>