<svg width="849" height="311" viewBox="0 0 849 311" fill="none" xmlns="http://www.w3.org/2000/svg">
<path d="M7 99C7 85.7452 17.7452 75 31 75V75V225V225C17.7452 225 7 214.255 7 201V99Z" fill="#119ce2"/>
<path d="M109.12 26C120.599 19.3726 135.277 23.3056 141.904 34.7846L142.446 35.7227L12.5421 110.723L12.0005 109.785C5.37307 98.3056 9.30608 83.6274 20.7851 77L109.12 26Z" fill="#119ce2"/>
<path d="M223.661 77C235.14 83.6274 239.073 98.3056 232.445 109.785L231.531 111.369L101.627 36.3686L102.542 34.7846C109.169 23.3056 123.847 19.3726 135.326 26L223.661 77Z" fill="#119ce2"/>
<path d="M236.828 201C236.828 214.255 226.083 225 212.828 225H210.999L210.999 75H212.828C226.083 75 236.828 85.7452 236.828 99L236.828 201Z" fill="#119ce2"/>
<path d="M134.699 274.369C123.22 280.996 108.541 277.063 101.914 265.584L101 264L230.903 189L231.818 190.584C238.445 202.063 234.512 216.741 223.033 223.369L134.699 274.369Z" fill="#119ce2"/>
<path d="M20.7846 223.369C9.30559 216.741 5.37258 202.063 12 190.584L12.9145 189L142.818 264L141.904 265.584C135.276 277.063 120.598 280.996 109.119 274.369L20.7846 223.369Z" fill="#119ce2"/>
<circle cx="87" cy="150" r="26" fill="#119ce2"/>
<circle cx="159" cy="186" r="21" fill="#119ce2"/>
<circle cx="151" cy="103" r="21" fill="#119ce2"/>
<rect x="78" y="173" width="19" height="71" fill="#119ce2"/>
<rect x="142.744" y="185.405" width="19.9455" height="71" transform="rotate(55 142.744 185.405)" fill="#119ce2"/>
<rect x="145.107" y="96.0271" width="19.4887" height="71" transform="rotate(53.6261 145.107 96.0271)" fill="#119ce2"/>
<rect x="87.6543" y="137.215" width="20.8544" height="71" transform="rotate(120.831 87.6543 137.215)" fill="#119ce2"/>
<path d="M285.92 151V53H302.16V136.44H344.16V151H285.92ZM390.1 152.4C381.793 152.4 374.84 150.72 369.24 147.36C363.686 144 359.486 139.567 356.64 134.06C353.84 128.507 352.44 122.417 352.44 115.79C352.44 109.397 353.746 103.517 356.36 98.15C359.02 92.7367 362.87 88.42 367.91 85.2C372.996 81.9333 379.156 80.3 386.39 80.3C392.736 80.3 398.15 81.5833 402.63 84.15C407.11 86.7167 410.516 90.2633 412.85 94.79C415.23 99.27 416.42 104.403 416.42 110.19C416.42 111.497 416.326 112.873 416.14 114.32C416 115.72 415.79 117.167 415.51 118.66H368.61C369.263 123.747 370.686 127.783 372.88 130.77C375.073 133.757 377.803 135.927 381.07 137.28C384.336 138.587 387.86 139.24 391.64 139.24C395.373 139.24 398.966 138.797 402.42 137.91C405.92 136.977 409.163 135.717 412.15 134.13L413.34 147.08C410.68 148.387 407.39 149.6 403.47 150.72C399.55 151.84 395.093 152.4 390.1 152.4ZM369.31 108.02H400.46C400.46 105.5 399.97 103.143 398.99 100.95C398.056 98.71 396.54 96.9133 394.44 95.56C392.386 94.16 389.68 93.46 386.32 93.46C381.42 93.46 377.593 94.79 374.84 97.45C372.133 100.11 370.29 103.633 369.31 108.02ZM448.224 152.4C444.304 152.4 440.78 151.56 437.654 149.88C434.527 148.2 432.054 145.82 430.234 142.74C428.46 139.66 427.574 136.02 427.574 131.82C427.574 127.9 428.46 124.54 430.234 121.74C432.054 118.893 434.434 116.537 437.374 114.67C440.36 112.803 443.604 111.333 447.104 110.26C450.65 109.14 454.197 108.323 457.744 107.81C461.337 107.297 464.604 107.017 467.544 106.97C467.404 102.023 466.26 98.6167 464.114 96.75C462.014 94.8367 458.677 93.88 454.104 93.88C451.164 93.88 448.224 94.3 445.284 95.14C442.344 95.98 439.007 97.45 435.274 99.55L433.664 86.81C437.35 84.7567 441.27 83.17 445.424 82.05C449.624 80.8833 453.917 80.3 458.304 80.3C463.764 80.3 468.337 81.2567 472.024 83.17C475.71 85.0833 478.487 88.2333 480.354 92.62C482.267 97.0067 483.224 102.863 483.224 110.19V127.27C483.224 130.677 483.387 133.267 483.714 135.04C484.04 136.813 484.67 138.027 485.604 138.68C486.584 139.333 488.054 139.66 490.014 139.66H491.904L490.224 152.4H485.884C482.71 152.4 480.074 152.027 477.974 151.28C475.874 150.58 474.147 149.577 472.794 148.27C471.487 146.963 470.367 145.4 469.434 143.58C467.054 146.287 463.974 148.433 460.194 150.02C456.46 151.607 452.47 152.4 448.224 152.4ZM453.684 140.29C455.877 140.29 458.28 139.73 460.894 138.61C463.507 137.443 465.747 135.81 467.614 133.71V117.61C463.134 117.75 459.097 118.333 455.504 119.36C451.91 120.34 449.064 121.81 446.964 123.77C444.91 125.683 443.884 128.133 443.884 131.12C443.884 134.247 444.7 136.557 446.334 138.05C448.014 139.543 450.464 140.29 453.684 140.29ZM533.583 152.4C526.957 152.4 521.24 150.767 516.433 147.5C511.673 144.233 508.01 139.87 505.443 134.41C502.877 128.95 501.593 122.953 501.593 116.42C501.593 109.933 502.83 103.96 505.303 98.5C507.777 92.9933 511.393 88.5833 516.153 85.27C520.96 81.9567 526.77 80.3 533.583 80.3C538.53 80.3 542.893 81.21 546.673 83.03C550.5 84.8033 553.767 87.37 556.473 90.73L552.833 93.74V46H568.443V151H553.953L552.553 138.12L556.963 141.27C554.117 144.817 550.803 147.57 547.023 149.53C543.243 151.443 538.763 152.4 533.583 152.4ZM536.033 139.24C539.627 139.24 542.753 138.353 545.413 136.58C548.073 134.807 550.15 132.217 551.643 128.81C553.137 125.403 553.883 121.273 553.883 116.42C553.883 111.66 553.137 107.577 551.643 104.17C550.15 100.717 548.073 98.08 545.413 96.26C542.753 94.3933 539.627 93.46 536.033 93.46C532.16 93.46 528.847 94.44 526.093 96.4C523.34 98.36 521.217 101.067 519.723 104.52C518.277 107.973 517.553 111.94 517.553 116.42C517.553 120.76 518.277 124.657 519.723 128.11C521.217 131.563 523.34 134.293 526.093 136.3C528.847 138.26 532.16 139.24 536.033 139.24ZM602.803 151L582.293 81.49H598.533L610.923 132.52L624.643 83.17H638.643L652.223 132.52L664.753 81.49H680.993L660.413 151H645.993L631.643 103.54L617.223 151H602.803ZM727.505 152.4C719.198 152.4 712.245 150.72 706.645 147.36C701.092 144 696.892 139.567 694.045 134.06C691.245 128.507 689.845 122.417 689.845 115.79C689.845 109.397 691.152 103.517 693.765 98.15C696.425 92.7367 700.275 88.42 705.315 85.2C710.402 81.9333 716.562 80.3 723.795 80.3C730.142 80.3 735.555 81.5833 740.035 84.15C744.515 86.7167 747.922 90.2633 750.255 94.79C752.635 99.27 753.825 104.403 753.825 110.19C753.825 111.497 753.732 112.873 753.545 114.32C753.405 115.72 753.195 117.167 752.915 118.66H706.015C706.668 123.747 708.092 127.783 710.285 130.77C712.478 133.757 715.208 135.927 718.475 137.28C721.742 138.587 725.265 139.24 729.045 139.24C732.778 139.24 736.372 138.797 739.825 137.91C743.325 136.977 746.568 135.717 749.555 134.13L750.745 147.08C748.085 148.387 744.795 149.6 740.875 150.72C736.955 151.84 732.498 152.4 727.505 152.4ZM706.715 108.02H737.865C737.865 105.5 737.375 103.143 736.395 100.95C735.462 98.71 733.945 96.9133 731.845 95.56C729.792 94.16 727.085 93.46 723.725 93.46C718.825 93.46 714.998 94.79 712.245 97.45C709.538 100.11 707.695 103.633 706.715 108.02ZM788.009 152.4C783.763 152.4 780.309 151.583 777.649 149.95C775.036 148.317 773.123 146.17 771.909 143.51C770.696 140.803 770.089 137.863 770.089 134.69V46H785.769V127.55C785.769 131.33 786.003 134.083 786.469 135.81C786.936 137.49 787.823 138.563 789.129 139.03C790.483 139.45 792.489 139.66 795.149 139.66L793.469 152.4H788.009ZM827.619 152.4C823.373 152.4 819.919 151.583 817.259 149.95C814.646 148.317 812.733 146.17 811.519 143.51C810.306 140.803 809.699 137.863 809.699 134.69V46H825.379V127.55C825.379 131.33 825.613 134.083 826.079 135.81C826.546 137.49 827.433 138.563 828.739 139.03C830.093 139.45 832.099 139.66 834.759 139.66L833.079 152.4H827.619ZM329.04 261.96C319.147 261.96 310.537 259.86 303.21 255.66C295.883 251.46 290.19 245.533 286.13 237.88C282.117 230.227 280.11 221.22 280.11 210.86C280.11 200.593 282.28 191.657 286.62 184.05C291.007 176.443 297.027 170.54 304.68 166.34C312.38 162.14 321.2 160.04 331.14 160.04C336.367 160.04 341.337 160.577 346.05 161.65C350.81 162.723 354.917 164.077 358.37 165.71L356.69 180.83C353.05 179.243 349.107 177.937 344.86 176.91C340.613 175.883 336.087 175.37 331.28 175.37C323.627 175.37 317.327 176.933 312.38 180.06C307.48 183.187 303.84 187.41 301.46 192.73C299.08 198.05 297.89 204.047 297.89 210.72C297.89 217.673 299.08 223.857 301.46 229.27C303.887 234.683 307.527 238.93 312.38 242.01C317.28 245.09 323.44 246.63 330.86 246.63C332.913 246.63 335.223 246.467 337.79 246.14C340.357 245.813 342.877 245.323 345.35 244.67V224.65H331.21V210.86H361.59V254.54C358.043 256.593 353.447 258.343 347.8 259.79C342.153 261.237 335.9 261.96 329.04 261.96ZM379.882 260V190.49H394.022L394.792 199.38C397.219 196.533 400.042 194.107 403.262 192.1C406.482 190.093 409.959 189.09 413.692 189.09C414.812 189.09 415.862 189.207 416.842 189.44L415.582 205.33C414.695 205.097 413.809 204.957 412.922 204.91C412.035 204.817 411.125 204.77 410.192 204.77C407.019 204.77 404.102 205.493 401.442 206.94C398.782 208.387 396.915 210.067 395.842 211.98V260H379.882ZM459.392 261.4C451.925 261.4 445.555 259.767 440.282 256.5C435.055 253.233 431.042 248.87 428.242 243.41C425.489 237.95 424.112 231.93 424.112 225.35C424.112 218.77 425.489 212.727 428.242 207.22C431.042 201.713 435.055 197.327 440.282 194.06C445.555 190.747 451.925 189.09 459.392 189.09C466.812 189.09 473.159 190.747 478.432 194.06C483.705 197.327 487.719 201.713 490.472 207.22C493.272 212.727 494.672 218.77 494.672 225.35C494.672 231.93 493.272 237.95 490.472 243.41C487.719 248.87 483.705 253.233 478.432 256.5C473.159 259.767 466.812 261.4 459.392 261.4ZM459.392 248.24C465.552 248.24 470.289 246.163 473.602 242.01C476.962 237.81 478.642 232.257 478.642 225.35C478.642 218.35 476.962 212.75 473.602 208.55C470.289 204.35 465.552 202.25 459.392 202.25C453.232 202.25 448.472 204.35 445.112 208.55C441.752 212.75 440.072 218.35 440.072 225.35C440.072 232.257 441.752 237.81 445.112 242.01C448.472 246.163 453.232 248.24 459.392 248.24ZM524.092 260L503.582 190.49H519.822L532.212 241.52L545.932 192.17H559.932L573.512 241.52L586.042 190.49H602.282L581.702 260H567.282L552.932 212.54L538.512 260H524.092ZM639.324 261.4C634.937 261.4 631.39 260.537 628.684 258.81C625.977 257.083 623.994 254.89 622.734 252.23C621.474 249.523 620.844 246.7 620.844 243.76V203.16H610.204L611.604 190.49H620.844V174.53L636.454 172.92V190.49H652.834V203.16H636.454V236.41C636.454 240.283 636.687 243.083 637.154 244.81C637.62 246.49 638.694 247.563 640.374 248.03C642.054 248.45 644.76 248.66 648.494 248.66H652.694L651.364 261.4H639.324ZM668.065 260V155H683.745V201.34L679.615 199.31C682.649 196.51 685.939 194.153 689.485 192.24C693.032 190.28 697.395 189.3 702.575 189.3C708.642 189.3 713.635 190.653 717.555 193.36C721.475 196.067 724.369 199.823 726.235 204.63C728.102 209.437 729.035 215.013 729.035 221.36V260H713.425V222.69C713.425 215.783 712.235 210.697 709.855 207.43C707.522 204.117 703.812 202.46 698.725 202.46C694.572 202.46 691.049 203.487 688.155 205.54C685.309 207.593 682.905 210.347 680.945 213.8L683.745 205.05V260H668.065Z" fill="#022B4F"/>
</svg>
