<svg width="246" height="195" viewBox="0 0 246 195" fill="none" xmlns="http://www.w3.org/2000/svg">
<g filter="url(#filter0_d_476_281)">
<rect x="20" y="20" width="198" height="147" rx="12" fill="white"/>
<rect x="31" y="35" width="32" height="32" rx="4" fill="#5CFF7F"/>
<path d="M42.5117 45.1562C43.9356 45.1562 45.0898 44.002 45.0898 42.5781C45.0898 41.1543 43.9356 40 42.5117 40C41.0879 40 39.9336 41.1543 39.9336 42.5781C39.9336 44.002 41.0879 45.1562 42.5117 45.1562Z" fill="white"/>
<path d="M51.5352 45.1562C52.959 45.1562 54.1133 44.002 54.1133 42.5781C54.1133 41.1543 52.959 40 51.5352 40C50.1113 40 48.957 41.1543 48.957 42.5781C48.957 44.002 50.1113 45.1562 51.5352 45.1562Z" fill="white"/>
<path d="M56.0469 50.3125H38V51.9371L44.4453 56.4488V62L49.6016 60.281V56.4488L56.0469 51.9371V50.3125Z" fill="white"/>
<path d="M38.6445 49.0234H46.3789C46.3789 46.8909 44.6442 45.1562 42.5117 45.1562C40.3792 45.1562 38.6445 46.8909 38.6445 49.0234Z" fill="white"/>
<path d="M47.668 49.0234H55.4023C55.4023 46.8909 53.6677 45.1562 51.5352 45.1562C49.4027 45.1562 47.668 46.8909 47.668 49.0234Z" fill="white"/>
<rect x="31" y="77" width="32" height="32" rx="4" fill="#1A91F3"/>
<g clip-path="url(#clip0_476_281)">
<path fill-rule="evenodd" clip-rule="evenodd" d="M43.2605 82C40.7576 82 38.7285 84.029 38.7285 86.532V99.468C38.7285 101.971 40.7576 104 43.2605 104H47.3023C46.0241 102.645 45.2405 100.818 45.2405 98.808C45.2405 94.6283 48.6288 91.24 52.8085 91.24C53.6712 91.24 54.5001 91.3843 55.2725 91.6502V86.532C55.2725 84.029 53.2435 82 50.7405 82H43.2605ZM41.9405 86.928C41.9405 86.2719 42.4724 85.74 43.1285 85.74H49.2005C49.8566 85.74 50.3885 86.2719 50.3885 86.928C50.3885 87.5841 49.8566 88.116 49.2005 88.116H43.1285C42.4724 88.116 41.9405 87.5841 41.9405 86.928ZM43.1285 89.7C42.4724 89.7 41.9405 90.2319 41.9405 90.888C41.9405 91.5441 42.4724 92.076 43.1285 92.076H44.8005C45.4566 92.076 45.9885 91.5441 45.9885 90.888C45.9885 90.2319 45.4566 89.7 44.8005 89.7H43.1285Z" fill="white"/>
<path fill-rule="evenodd" clip-rule="evenodd" d="M52.8092 104C52.4425 104 52.0847 103.962 51.7395 103.89C49.3852 103.397 47.6172 101.309 47.6172 98.808C47.6172 95.9405 49.9417 93.616 52.8092 93.616C53.7009 93.616 54.5401 93.8408 55.2732 94.2368C56.8976 95.1142 58.0012 96.8322 58.0012 98.808C58.0012 101.675 55.6767 104 52.8092 104ZM51.8012 97.9918C51.3373 97.5279 50.5851 97.5279 50.1211 97.9918C49.6572 98.4557 49.6572 99.208 50.1211 99.6719L51.4434 100.994C51.9073 101.458 52.6595 101.458 53.1235 100.994L55.6554 98.4622C56.1193 97.9983 56.1193 97.2461 55.6554 96.7821C55.1914 96.3182 54.4392 96.3182 53.9753 96.7821L52.2834 98.474L51.8012 97.9918Z" fill="white"/>
</g>
<rect x="31" y="119" width="32" height="32" rx="4" fill="#FF6200"/>
<path d="M57.3781 140.146L54.308 137.076C53.2115 135.979 51.3474 136.418 50.9088 137.843C50.5799 138.83 49.4834 139.378 48.4966 139.159C46.3036 138.611 43.3431 135.76 42.7948 133.457C42.4659 132.47 43.1238 131.374 44.1106 131.045C45.5361 130.606 45.9746 128.742 44.8782 127.646L41.808 124.576C40.9308 123.808 39.615 123.808 38.8475 124.576L36.7642 126.659C34.6808 128.852 36.9834 134.663 42.1369 139.817C47.2904 144.97 53.1018 147.383 55.2948 145.19L57.3781 143.106C58.1457 142.229 58.1457 140.913 57.3781 140.146Z" fill="white"/>
<path d="M74.556 49V42.088H72.18V40.6H78.468V42.088H76.092V49H74.556ZM81.1856 49.12C80.5336 49.12 79.9776 48.978 79.5176 48.694C79.0576 48.41 78.7056 48.032 78.4616 47.56C78.2216 47.088 78.1016 46.572 78.1016 46.012C78.1016 45.448 78.2216 44.928 78.4616 44.452C78.7056 43.976 79.0576 43.596 79.5176 43.312C79.9776 43.024 80.5336 42.88 81.1856 42.88C81.8376 42.88 82.3936 43.024 82.8536 43.312C83.3136 43.596 83.6636 43.976 83.9036 44.452C84.1476 44.928 84.2696 45.448 84.2696 46.012C84.2696 46.572 84.1476 47.088 83.9036 47.56C83.6636 48.032 83.3136 48.41 82.8536 48.694C82.3936 48.978 81.8376 49.12 81.1856 49.12ZM81.1856 47.896C81.6856 47.896 82.0696 47.722 82.3376 47.374C82.6096 47.022 82.7456 46.568 82.7456 46.012C82.7456 45.448 82.6096 44.99 82.3376 44.638C82.0696 44.282 81.6856 44.104 81.1856 44.104C80.6896 44.104 80.3056 44.282 80.0336 44.638C79.7616 44.99 79.6256 45.448 79.6256 46.012C79.6256 46.568 79.7616 47.022 80.0336 47.374C80.3056 47.722 80.6896 47.896 81.1856 47.896ZM87.1911 49.12C86.8151 49.12 86.5091 49.044 86.2731 48.892C86.0371 48.736 85.8631 48.538 85.7511 48.298C85.6391 48.058 85.5831 47.808 85.5831 47.548V44.224H84.7311L84.8631 43H85.5831V41.68L87.0711 41.524V43H88.3911V44.224H87.0711V46.936C87.0711 47.24 87.0891 47.46 87.1251 47.596C87.1611 47.728 87.2431 47.812 87.3711 47.848C87.4991 47.88 87.7031 47.896 87.9831 47.896H88.3911L88.2591 49.12H87.1911ZM90.6561 49.12C90.3361 49.12 90.0441 49.05 89.7801 48.91C89.5161 48.766 89.3061 48.56 89.1501 48.292C88.9941 48.024 88.9161 47.7 88.9161 47.32C88.9161 46.98 88.9941 46.69 89.1501 46.45C89.3101 46.206 89.5181 46.004 89.7741 45.844C90.0341 45.68 90.3141 45.552 90.6141 45.46C90.9181 45.364 91.2161 45.294 91.5081 45.25C91.8041 45.206 92.0641 45.18 92.2881 45.172C92.2721 44.828 92.1841 44.578 92.0241 44.422C91.8641 44.266 91.5921 44.188 91.2081 44.188C90.9401 44.188 90.6781 44.226 90.4221 44.302C90.1701 44.374 89.8841 44.488 89.5641 44.644L89.4321 43.432C89.7921 43.256 90.1521 43.124 90.5121 43.036C90.8761 42.948 91.2441 42.904 91.6161 42.904C92.0641 42.904 92.4501 42.984 92.7741 43.144C93.0981 43.304 93.3481 43.562 93.5241 43.918C93.7001 44.27 93.7881 44.736 93.7881 45.316V46.936C93.7881 47.236 93.8021 47.454 93.8301 47.59C93.8581 47.722 93.9101 47.806 93.9861 47.842C94.0621 47.878 94.1721 47.896 94.3161 47.896H94.5081L94.3761 49.12H93.8361C93.6121 49.12 93.4121 49.09 93.2361 49.03C93.0641 48.974 92.9161 48.894 92.7921 48.79C92.6681 48.686 92.5681 48.564 92.4921 48.424C92.2961 48.644 92.0301 48.816 91.6941 48.94C91.3621 49.06 91.0161 49.12 90.6561 49.12ZM91.2801 47.98C91.4121 47.98 91.5761 47.946 91.7721 47.878C91.9681 47.806 92.1441 47.696 92.3001 47.548V46.18C92.0201 46.192 91.7401 46.238 91.4601 46.318C91.1801 46.398 90.9461 46.516 90.7581 46.672C90.5701 46.828 90.4761 47.024 90.4761 47.26C90.4761 47.504 90.5401 47.686 90.6681 47.806C90.7961 47.922 91.0001 47.98 91.2801 47.98ZM96.8726 49.12C96.5166 49.12 96.2246 49.05 95.9966 48.91C95.7726 48.766 95.6066 48.576 95.4986 48.34C95.3906 48.1 95.3366 47.836 95.3366 47.548V40H96.8246V46.936C96.8246 47.256 96.8426 47.484 96.8786 47.62C96.9186 47.752 96.9906 47.832 97.0946 47.86C97.1986 47.884 97.3486 47.896 97.5446 47.896L97.4126 49.12H96.8726ZM102.972 49L100.608 40.6H102.204L103.884 46.564L105.756 40.6H106.824L108.768 46.408L110.376 40.6H111.972L109.512 49H108.156L106.284 43.396L104.424 49H102.972ZM115.162 49.12C114.438 49.12 113.834 48.976 113.35 48.688C112.87 48.396 112.51 48.012 112.27 47.536C112.03 47.056 111.91 46.532 111.91 45.964C111.91 45.416 112.022 44.91 112.246 44.446C112.474 43.982 112.806 43.61 113.242 43.33C113.678 43.046 114.21 42.904 114.838 42.904C115.414 42.904 115.894 43.022 116.278 43.258C116.662 43.494 116.95 43.81 117.142 44.206C117.334 44.598 117.43 45.032 117.43 45.508C117.43 45.64 117.422 45.774 117.406 45.91C117.39 46.042 117.366 46.18 117.334 46.324H113.458C113.514 46.696 113.63 46.998 113.806 47.23C113.986 47.458 114.204 47.626 114.46 47.734C114.72 47.842 114.998 47.896 115.294 47.896C115.642 47.896 115.966 47.852 116.266 47.764C116.566 47.672 116.842 47.552 117.094 47.404L117.166 48.664C116.938 48.784 116.654 48.89 116.314 48.982C115.974 49.074 115.59 49.12 115.162 49.12ZM113.494 45.316H115.918C115.918 45.136 115.884 44.956 115.816 44.776C115.748 44.592 115.634 44.438 115.474 44.314C115.318 44.19 115.106 44.128 114.838 44.128C114.454 44.128 114.152 44.24 113.932 44.464C113.712 44.688 113.566 44.972 113.494 45.316ZM121.566 49.12C121.11 49.12 120.716 49.046 120.384 48.898C120.052 48.75 119.742 48.548 119.454 48.292L119.898 47.98L119.826 49H118.434V40H119.922V43.996L119.562 43.768C119.826 43.496 120.12 43.284 120.444 43.132C120.772 42.98 121.146 42.904 121.566 42.904C122.154 42.904 122.648 43.046 123.048 43.33C123.448 43.614 123.75 43.992 123.954 44.464C124.162 44.936 124.266 45.452 124.266 46.012C124.266 46.572 124.162 47.088 123.954 47.56C123.75 48.032 123.448 48.41 123.048 48.694C122.648 48.978 122.154 49.12 121.566 49.12ZM121.35 47.896C121.646 47.896 121.898 47.816 122.106 47.656C122.314 47.496 122.472 47.276 122.58 46.996C122.688 46.712 122.742 46.384 122.742 46.012C122.742 45.64 122.688 45.314 122.58 45.034C122.472 44.75 122.314 44.528 122.106 44.368C121.898 44.208 121.646 44.128 121.35 44.128C121.002 44.128 120.718 44.208 120.498 44.368C120.278 44.528 120.114 44.75 120.006 45.034C119.902 45.314 119.85 45.64 119.85 46.012C119.85 46.384 119.902 46.712 120.006 46.996C120.114 47.276 120.278 47.496 120.498 47.656C120.718 47.816 121.002 47.896 121.35 47.896ZM127.005 49.12C126.609 49.12 126.251 49.082 125.931 49.006C125.615 48.93 125.297 48.82 124.977 48.676L125.109 47.404C125.417 47.584 125.719 47.73 126.015 47.842C126.315 47.95 126.629 48.004 126.957 48.004C127.253 48.004 127.479 47.956 127.635 47.86C127.791 47.764 127.869 47.612 127.869 47.404C127.869 47.248 127.827 47.12 127.743 47.02C127.663 46.92 127.541 46.83 127.377 46.75C127.213 46.67 127.009 46.584 126.765 46.492C126.397 46.356 126.083 46.208 125.823 46.048C125.567 45.888 125.371 45.696 125.235 45.472C125.103 45.244 125.037 44.964 125.037 44.632C125.037 44.288 125.127 43.984 125.307 43.72C125.487 43.456 125.743 43.25 126.075 43.102C126.407 42.954 126.801 42.88 127.257 42.88C127.637 42.88 127.977 42.922 128.277 43.006C128.581 43.09 128.861 43.204 129.117 43.348L128.985 44.62C128.717 44.432 128.447 44.278 128.175 44.158C127.903 44.034 127.605 43.972 127.281 43.972C127.025 43.972 126.827 44.024 126.687 44.128C126.547 44.232 126.477 44.38 126.477 44.572C126.477 44.804 126.575 44.978 126.771 45.094C126.967 45.21 127.281 45.352 127.713 45.52C127.993 45.628 128.235 45.74 128.439 45.856C128.647 45.972 128.819 46.1 128.955 46.24C129.091 46.38 129.191 46.54 129.255 46.72C129.323 46.896 129.357 47.1 129.357 47.332C129.357 47.712 129.265 48.036 129.081 48.304C128.901 48.568 128.635 48.77 128.283 48.91C127.935 49.05 127.509 49.12 127.005 49.12ZM130.376 49V43H131.864V49H130.376ZM130.376 42.088V40.6H131.864V42.088H130.376ZM135.215 49.12C134.839 49.12 134.533 49.044 134.297 48.892C134.061 48.736 133.887 48.538 133.775 48.298C133.663 48.058 133.607 47.808 133.607 47.548V44.224H132.755L132.887 43H133.607V41.68L135.095 41.524V43H136.415V44.224H135.095V46.936C135.095 47.24 135.113 47.46 135.149 47.596C135.185 47.728 135.267 47.812 135.395 47.848C135.523 47.88 135.727 47.896 136.007 47.896H136.415L136.283 49.12H135.215ZM140.276 49.12C139.552 49.12 138.948 48.976 138.464 48.688C137.984 48.396 137.624 48.012 137.384 47.536C137.144 47.056 137.024 46.532 137.024 45.964C137.024 45.416 137.136 44.91 137.36 44.446C137.588 43.982 137.92 43.61 138.356 43.33C138.792 43.046 139.324 42.904 139.952 42.904C140.528 42.904 141.008 43.022 141.392 43.258C141.776 43.494 142.064 43.81 142.256 44.206C142.448 44.598 142.544 45.032 142.544 45.508C142.544 45.64 142.536 45.774 142.52 45.91C142.504 46.042 142.48 46.18 142.448 46.324H138.572C138.628 46.696 138.744 46.998 138.92 47.23C139.1 47.458 139.318 47.626 139.574 47.734C139.834 47.842 140.112 47.896 140.408 47.896C140.756 47.896 141.08 47.852 141.38 47.764C141.68 47.672 141.956 47.552 142.208 47.404L142.28 48.664C142.052 48.784 141.768 48.89 141.428 48.982C141.088 49.074 140.704 49.12 140.276 49.12ZM138.608 45.316H141.032C141.032 45.136 140.998 44.956 140.93 44.776C140.862 44.592 140.748 44.438 140.588 44.314C140.432 44.19 140.22 44.128 139.952 44.128C139.568 44.128 139.266 44.24 139.046 44.464C138.826 44.688 138.68 44.972 138.608 45.316ZM146.483 49V40.6H148.019V47.632H151.475V49H146.483ZM155.076 49.12C154.352 49.12 153.748 48.976 153.264 48.688C152.784 48.396 152.424 48.012 152.184 47.536C151.944 47.056 151.824 46.532 151.824 45.964C151.824 45.416 151.936 44.91 152.16 44.446C152.388 43.982 152.72 43.61 153.156 43.33C153.592 43.046 154.124 42.904 154.752 42.904C155.328 42.904 155.808 43.022 156.192 43.258C156.576 43.494 156.864 43.81 157.056 44.206C157.248 44.598 157.344 45.032 157.344 45.508C157.344 45.64 157.336 45.774 157.32 45.91C157.304 46.042 157.28 46.18 157.248 46.324H153.372C153.428 46.696 153.544 46.998 153.72 47.23C153.9 47.458 154.118 47.626 154.374 47.734C154.634 47.842 154.912 47.896 155.208 47.896C155.556 47.896 155.88 47.852 156.18 47.764C156.48 47.672 156.756 47.552 157.008 47.404L157.08 48.664C156.852 48.784 156.568 48.89 156.228 48.982C155.888 49.074 155.504 49.12 155.076 49.12ZM153.408 45.316H155.832C155.832 45.136 155.798 44.956 155.73 44.776C155.662 44.592 155.548 44.438 155.388 44.314C155.232 44.19 155.02 44.128 154.752 44.128C154.368 44.128 154.066 44.24 153.846 44.464C153.626 44.688 153.48 44.972 153.408 45.316ZM159.656 49.12C159.336 49.12 159.044 49.05 158.78 48.91C158.516 48.766 158.306 48.56 158.15 48.292C157.994 48.024 157.916 47.7 157.916 47.32C157.916 46.98 157.994 46.69 158.15 46.45C158.31 46.206 158.518 46.004 158.774 45.844C159.034 45.68 159.314 45.552 159.614 45.46C159.918 45.364 160.216 45.294 160.508 45.25C160.804 45.206 161.064 45.18 161.288 45.172C161.272 44.828 161.184 44.578 161.024 44.422C160.864 44.266 160.592 44.188 160.208 44.188C159.94 44.188 159.678 44.226 159.422 44.302C159.17 44.374 158.884 44.488 158.564 44.644L158.432 43.432C158.792 43.256 159.152 43.124 159.512 43.036C159.876 42.948 160.244 42.904 160.616 42.904C161.064 42.904 161.45 42.984 161.774 43.144C162.098 43.304 162.348 43.562 162.524 43.918C162.7 44.27 162.788 44.736 162.788 45.316V46.936C162.788 47.236 162.802 47.454 162.83 47.59C162.858 47.722 162.91 47.806 162.986 47.842C163.062 47.878 163.172 47.896 163.316 47.896H163.508L163.376 49.12H162.836C162.612 49.12 162.412 49.09 162.236 49.03C162.064 48.974 161.916 48.894 161.792 48.79C161.668 48.686 161.568 48.564 161.492 48.424C161.296 48.644 161.03 48.816 160.694 48.94C160.362 49.06 160.016 49.12 159.656 49.12ZM160.28 47.98C160.412 47.98 160.576 47.946 160.772 47.878C160.968 47.806 161.144 47.696 161.3 47.548V46.18C161.02 46.192 160.74 46.238 160.46 46.318C160.18 46.398 159.946 46.516 159.758 46.672C159.57 46.828 159.476 47.024 159.476 47.26C159.476 47.504 159.54 47.686 159.668 47.806C159.796 47.922 160 47.98 160.28 47.98ZM166.761 49.12C166.153 49.12 165.641 48.978 165.225 48.694C164.813 48.41 164.501 48.032 164.289 47.56C164.081 47.088 163.977 46.572 163.977 46.012C163.977 45.452 164.081 44.936 164.289 44.464C164.501 43.992 164.813 43.614 165.225 43.33C165.641 43.046 166.153 42.904 166.761 42.904C167.201 42.904 167.573 42.978 167.877 43.126C168.181 43.27 168.449 43.456 168.681 43.684L168.321 43.996V40H169.809V49H168.405L168.333 47.98L168.765 48.292C168.485 48.548 168.195 48.75 167.895 48.898C167.595 49.046 167.217 49.12 166.761 49.12ZM166.977 47.896C167.305 47.896 167.573 47.816 167.781 47.656C167.989 47.496 168.143 47.276 168.243 46.996C168.343 46.712 168.393 46.384 168.393 46.012C168.393 45.64 168.343 45.314 168.243 45.034C168.143 44.75 167.989 44.528 167.781 44.368C167.573 44.208 167.305 44.128 166.977 44.128C166.665 44.128 166.399 44.208 166.179 44.368C165.959 44.528 165.791 44.75 165.675 45.034C165.559 45.314 165.501 45.64 165.501 46.012C165.501 46.384 165.559 46.712 165.675 46.996C165.791 47.276 165.959 47.496 166.179 47.656C166.399 47.816 166.665 47.896 166.977 47.896ZM172.896 49.12C172.5 49.12 172.142 49.082 171.822 49.006C171.506 48.93 171.188 48.82 170.868 48.676L171 47.404C171.308 47.584 171.61 47.73 171.906 47.842C172.206 47.95 172.52 48.004 172.848 48.004C173.144 48.004 173.37 47.956 173.526 47.86C173.682 47.764 173.76 47.612 173.76 47.404C173.76 47.248 173.718 47.12 173.634 47.02C173.554 46.92 173.432 46.83 173.268 46.75C173.104 46.67 172.9 46.584 172.656 46.492C172.288 46.356 171.974 46.208 171.714 46.048C171.458 45.888 171.262 45.696 171.126 45.472C170.994 45.244 170.928 44.964 170.928 44.632C170.928 44.288 171.018 43.984 171.198 43.72C171.378 43.456 171.634 43.25 171.966 43.102C172.298 42.954 172.692 42.88 173.148 42.88C173.528 42.88 173.868 42.922 174.168 43.006C174.472 43.09 174.752 43.204 175.008 43.348L174.876 44.62C174.608 44.432 174.338 44.278 174.066 44.158C173.794 44.034 173.496 43.972 173.172 43.972C172.916 43.972 172.718 44.024 172.578 44.128C172.438 44.232 172.368 44.38 172.368 44.572C172.368 44.804 172.466 44.978 172.662 45.094C172.858 45.21 173.172 45.352 173.604 45.52C173.884 45.628 174.126 45.74 174.33 45.856C174.538 45.972 174.71 46.1 174.846 46.24C174.982 46.38 175.082 46.54 175.146 46.72C175.214 46.896 175.248 47.1 175.248 47.332C175.248 47.712 175.156 48.036 174.972 48.304C174.792 48.568 174.526 48.77 174.174 48.91C173.826 49.05 173.4 49.12 172.896 49.12Z" fill="black"/>
<path d="M73.848 62V55.244C73.56 55.476 73.322 55.642 73.134 55.742C72.946 55.842 72.768 55.92 72.6 55.976L72.408 54.908C72.624 54.836 72.844 54.734 73.068 54.602C73.296 54.466 73.506 54.312 73.698 54.14C73.894 53.968 74.052 53.788 74.172 53.6H74.952V62H73.848ZM78.7941 62.168C78.3341 62.168 77.9041 62.108 77.5041 61.988C77.1081 61.868 76.7381 61.716 76.3941 61.532L76.6701 60.476C77.0141 60.672 77.3521 60.832 77.6841 60.956C78.0201 61.076 78.3941 61.136 78.8061 61.136C79.3301 61.136 79.7381 61.006 80.0301 60.746C80.3261 60.482 80.4741 60.144 80.4741 59.732C80.4741 59.268 80.3141 58.896 79.9941 58.616C79.6741 58.336 79.1741 58.196 78.4941 58.196H77.9661V57.164H78.4941C79.0101 57.164 79.4181 57.042 79.7181 56.798C80.0221 56.554 80.1741 56.22 80.1741 55.796C80.1741 55.344 80.0581 55.01 79.8261 54.794C79.5941 54.574 79.2621 54.464 78.8301 54.464C78.4901 54.464 78.1721 54.53 77.8761 54.662C77.5801 54.794 77.2901 54.956 77.0061 55.148L76.8141 53.984C77.1221 53.808 77.4541 53.672 77.8101 53.576C78.1701 53.48 78.5621 53.432 78.9861 53.432C79.5061 53.432 79.9461 53.526 80.3061 53.714C80.6701 53.902 80.9461 54.164 81.1341 54.5C81.3261 54.832 81.4221 55.216 81.4221 55.652C81.4221 56.196 81.2621 56.656 80.9421 57.032C80.6261 57.404 80.1981 57.648 79.6581 57.764V57.488C80.2941 57.612 80.7901 57.854 81.1461 58.214C81.5061 58.57 81.6861 59.064 81.6861 59.696C81.6861 60.208 81.5581 60.65 81.3021 61.022C81.0501 61.39 80.7061 61.674 80.2701 61.874C79.8341 62.07 79.3421 62.168 78.7941 62.168ZM83.0903 61.988L85.3823 58.508C85.6343 58.128 85.8503 57.782 86.0303 57.47C86.2103 57.158 86.3463 56.87 86.4383 56.606C86.5343 56.338 86.5823 56.084 86.5823 55.844C86.5823 55.428 86.4643 55.098 86.2283 54.854C85.9963 54.61 85.6783 54.488 85.2743 54.488C84.8743 54.488 84.5043 54.574 84.1643 54.746C83.8283 54.918 83.5183 55.148 83.2343 55.436L83.0903 54.236C83.3663 54.012 83.6983 53.82 84.0863 53.66C84.4783 53.5 84.9143 53.42 85.3943 53.42C85.9063 53.42 86.3363 53.522 86.6843 53.726C87.0323 53.93 87.2943 54.206 87.4703 54.554C87.6463 54.902 87.7343 55.292 87.7343 55.724C87.7343 56.096 87.6843 56.45 87.5843 56.786C87.4843 57.118 87.3343 57.464 87.1343 57.824C86.9343 58.184 86.6863 58.588 86.3903 59.036L85.1183 60.956H88.0583V61.988H83.0903Z" fill="#515151"/>
<path d="M73.08 147L76.464 139.164L76.776 139.68H72.48V138.6H77.916L74.28 147H73.08ZM82.1177 147.168C81.3777 147.168 80.7437 146.978 80.2157 146.598C79.6877 146.218 79.2817 145.694 78.9977 145.026C78.7177 144.358 78.5777 143.592 78.5777 142.728C78.5777 141.864 78.7277 141.11 79.0277 140.466C79.3277 139.822 79.7437 139.322 80.2757 138.966C80.8077 138.61 81.4217 138.432 82.1177 138.432C82.8297 138.432 83.4497 138.61 83.9777 138.966C84.5097 139.322 84.9217 139.822 85.2137 140.466C85.5097 141.11 85.6577 141.864 85.6577 142.728C85.6577 143.592 85.5177 144.358 85.2377 145.026C84.9577 145.694 84.5537 146.218 84.0257 146.598C83.4977 146.978 82.8617 147.168 82.1177 147.168ZM82.1177 146.136C82.6137 146.136 83.0337 146.004 83.3777 145.74C83.7257 145.476 83.9897 145.09 84.1697 144.582C84.3537 144.074 84.4457 143.456 84.4457 142.728C84.4457 141.636 84.2337 140.82 83.8097 140.28C83.3897 139.736 82.8257 139.464 82.1177 139.464C81.4457 139.464 80.8897 139.736 80.4497 140.28C80.0097 140.82 79.7897 141.636 79.7897 142.728C79.7897 143.456 79.8797 144.074 80.0597 144.582C80.2437 145.09 80.5077 145.476 80.8517 145.74C81.1997 146.004 81.6217 146.136 82.1177 146.136Z" fill="#515151"/>
<path d="M75.54 105.168C74.952 105.168 74.448 105.038 74.028 104.778C73.612 104.514 73.294 104.148 73.074 103.68C72.854 103.212 72.744 102.668 72.744 102.048C72.744 101.388 72.852 100.768 73.068 100.188C73.288 99.608 73.578 99.078 73.938 98.598C74.302 98.114 74.704 97.69 75.144 97.326C75.584 96.962 76.024 96.664 76.464 96.432L77.244 97.164C76.888 97.34 76.544 97.55 76.212 97.794C75.884 98.034 75.58 98.302 75.3 98.598C75.024 98.89 74.78 99.208 74.568 99.552C74.36 99.896 74.198 100.262 74.082 100.65C73.966 101.034 73.908 101.436 73.908 101.856L73.524 101.208C73.716 100.824 74.01 100.52 74.406 100.296C74.806 100.072 75.272 99.96 75.804 99.96C76.292 99.96 76.724 100.072 77.1 100.296C77.476 100.516 77.77 100.818 77.982 101.202C78.194 101.586 78.3 102.02 78.3 102.504C78.3 103.024 78.184 103.484 77.952 103.884C77.72 104.284 77.396 104.598 76.98 104.826C76.568 105.054 76.088 105.168 75.54 105.168ZM75.54 104.184C76.02 104.184 76.404 104.026 76.692 103.71C76.98 103.39 77.124 103 77.124 102.54C77.124 102.088 76.98 101.71 76.692 101.406C76.404 101.098 76.02 100.944 75.54 100.944C75.06 100.944 74.674 101.098 74.382 101.406C74.09 101.714 73.944 102.096 73.944 102.552C73.944 103.024 74.09 103.414 74.382 103.722C74.674 104.03 75.06 104.184 75.54 104.184ZM79.5043 104.988L81.7963 101.508C82.0483 101.128 82.2643 100.782 82.4443 100.47C82.6243 100.158 82.7603 99.87 82.8523 99.606C82.9483 99.338 82.9963 99.084 82.9963 98.844C82.9963 98.428 82.8783 98.098 82.6423 97.854C82.4103 97.61 82.0923 97.488 81.6883 97.488C81.2883 97.488 80.9183 97.574 80.5783 97.746C80.2423 97.918 79.9323 98.148 79.6483 98.436L79.5043 97.236C79.7803 97.012 80.1123 96.82 80.5003 96.66C80.8923 96.5 81.3283 96.42 81.8083 96.42C82.3203 96.42 82.7503 96.522 83.0983 96.726C83.4463 96.93 83.7083 97.206 83.8843 97.554C84.0603 97.902 84.1483 98.292 84.1483 98.724C84.1483 99.096 84.0983 99.45 83.9983 99.786C83.8983 100.118 83.7483 100.464 83.5483 100.824C83.3483 101.184 83.1003 101.588 82.8043 102.036L81.5323 103.956H84.4723V104.988H79.5043Z" fill="#515151"/>
<path d="M72.924 91V82.6H78.3V84.088H74.496V85.876H77.448V87.364H74.496V89.512H78.42V91H72.924ZM81.2203 91.12C80.8243 91.12 80.4663 91.082 80.1463 91.006C79.8303 90.93 79.5123 90.82 79.1923 90.676L79.3243 89.404C79.6323 89.584 79.9343 89.73 80.2303 89.842C80.5303 89.95 80.8443 90.004 81.1723 90.004C81.4683 90.004 81.6943 89.956 81.8503 89.86C82.0063 89.764 82.0843 89.612 82.0843 89.404C82.0843 89.248 82.0423 89.12 81.9583 89.02C81.8783 88.92 81.7563 88.83 81.5923 88.75C81.4283 88.67 81.2243 88.584 80.9803 88.492C80.6123 88.356 80.2983 88.208 80.0383 88.048C79.7823 87.888 79.5863 87.696 79.4503 87.472C79.3183 87.244 79.2523 86.964 79.2523 86.632C79.2523 86.288 79.3423 85.984 79.5223 85.72C79.7023 85.456 79.9583 85.25 80.2903 85.102C80.6223 84.954 81.0163 84.88 81.4723 84.88C81.8523 84.88 82.1923 84.922 82.4923 85.006C82.7963 85.09 83.0763 85.204 83.3323 85.348L83.2003 86.62C82.9323 86.432 82.6623 86.278 82.3903 86.158C82.1183 86.034 81.8203 85.972 81.4963 85.972C81.2403 85.972 81.0423 86.024 80.9023 86.128C80.7623 86.232 80.6923 86.38 80.6923 86.572C80.6923 86.804 80.7903 86.978 80.9863 87.094C81.1823 87.21 81.4963 87.352 81.9283 87.52C82.2083 87.628 82.4503 87.74 82.6543 87.856C82.8623 87.972 83.0343 88.1 83.1703 88.24C83.3063 88.38 83.4063 88.54 83.4703 88.72C83.5383 88.896 83.5723 89.1 83.5723 89.332C83.5723 89.712 83.4803 90.036 83.2963 90.304C83.1163 90.568 82.8503 90.77 82.4983 90.91C82.1503 91.05 81.7243 91.12 81.2203 91.12ZM86.5465 91.12C86.1705 91.12 85.8645 91.044 85.6285 90.892C85.3925 90.736 85.2185 90.538 85.1065 90.298C84.9945 90.058 84.9385 89.808 84.9385 89.548V86.224H84.0865L84.2185 85H84.9385V83.68L86.4265 83.524V85H87.7465V86.224H86.4265V88.936C86.4265 89.24 86.4445 89.46 86.4805 89.596C86.5165 89.728 86.5985 89.812 86.7265 89.848C86.8545 89.88 87.0585 89.896 87.3385 89.896H87.7465L87.6145 91.12H86.5465ZM88.7155 91V85H90.2035V91H88.7155ZM88.7155 84.088V82.6H90.2035V84.088H88.7155ZM91.5983 91V85H92.8703L92.9663 85.876L92.7503 85.612C92.9783 85.432 93.2503 85.27 93.5663 85.126C93.8863 84.978 94.2583 84.904 94.6823 84.904C95.0023 84.904 95.2843 84.952 95.5283 85.048C95.7763 85.14 95.9883 85.274 96.1643 85.45C96.3403 85.622 96.4823 85.828 96.5903 86.068L96.2303 85.984C96.4223 85.64 96.7023 85.374 97.0703 85.186C97.4423 84.998 97.8623 84.904 98.3303 84.904C98.8823 84.904 99.3323 85.018 99.6803 85.246C100.028 85.474 100.284 85.796 100.448 86.212C100.612 86.624 100.694 87.108 100.694 87.664V91H99.2063V87.772C99.2063 87.212 99.1183 86.798 98.9423 86.53C98.7703 86.262 98.4823 86.128 98.0783 86.128C97.8783 86.128 97.7023 86.164 97.5503 86.236C97.4023 86.304 97.2783 86.406 97.1783 86.542C97.0823 86.674 97.0103 86.836 96.9623 87.028C96.9143 87.216 96.8903 87.428 96.8903 87.664V91H95.4023V87.772C95.4023 87.4 95.3623 87.092 95.2823 86.848C95.2063 86.604 95.0823 86.424 94.9103 86.308C94.7423 86.188 94.5223 86.128 94.2503 86.128C93.9023 86.128 93.6163 86.21 93.3923 86.374C93.1723 86.534 92.9783 86.752 92.8103 87.028L93.0863 86.224V91H91.5983ZM103.324 91.12C103.004 91.12 102.712 91.05 102.448 90.91C102.184 90.766 101.974 90.56 101.818 90.292C101.662 90.024 101.584 89.7 101.584 89.32C101.584 88.98 101.662 88.69 101.818 88.45C101.978 88.206 102.186 88.004 102.442 87.844C102.702 87.68 102.982 87.552 103.282 87.46C103.586 87.364 103.884 87.294 104.176 87.25C104.472 87.206 104.732 87.18 104.956 87.172C104.94 86.828 104.852 86.578 104.692 86.422C104.532 86.266 104.26 86.188 103.876 86.188C103.608 86.188 103.346 86.226 103.09 86.302C102.838 86.374 102.552 86.488 102.232 86.644L102.1 85.432C102.46 85.256 102.82 85.124 103.18 85.036C103.544 84.948 103.912 84.904 104.284 84.904C104.732 84.904 105.118 84.984 105.442 85.144C105.766 85.304 106.016 85.562 106.192 85.918C106.368 86.27 106.456 86.736 106.456 87.316V88.936C106.456 89.236 106.47 89.454 106.498 89.59C106.526 89.722 106.578 89.806 106.654 89.842C106.73 89.878 106.84 89.896 106.984 89.896H107.176L107.044 91.12H106.504C106.28 91.12 106.08 91.09 105.904 91.03C105.732 90.974 105.584 90.894 105.46 90.79C105.336 90.686 105.236 90.564 105.16 90.424C104.964 90.644 104.698 90.816 104.362 90.94C104.03 91.06 103.684 91.12 103.324 91.12ZM103.948 89.98C104.08 89.98 104.244 89.946 104.44 89.878C104.636 89.806 104.812 89.696 104.968 89.548V88.18C104.688 88.192 104.408 88.238 104.128 88.318C103.848 88.398 103.614 88.516 103.426 88.672C103.238 88.828 103.144 89.024 103.144 89.26C103.144 89.504 103.208 89.686 103.336 89.806C103.464 89.922 103.668 89.98 103.948 89.98ZM109.867 91.12C109.491 91.12 109.185 91.044 108.949 90.892C108.713 90.736 108.539 90.538 108.427 90.298C108.315 90.058 108.259 89.808 108.259 89.548V86.224H107.407L107.539 85H108.259V83.68L109.747 83.524V85H111.067V86.224H109.747V88.936C109.747 89.24 109.765 89.46 109.801 89.596C109.837 89.728 109.919 89.812 110.047 89.848C110.175 89.88 110.379 89.896 110.659 89.896H111.067L110.935 91.12H109.867ZM114.928 91.12C114.204 91.12 113.6 90.976 113.116 90.688C112.636 90.396 112.276 90.012 112.036 89.536C111.796 89.056 111.676 88.532 111.676 87.964C111.676 87.416 111.788 86.91 112.012 86.446C112.24 85.982 112.572 85.61 113.008 85.33C113.444 85.046 113.976 84.904 114.604 84.904C115.18 84.904 115.66 85.022 116.044 85.258C116.428 85.494 116.716 85.81 116.908 86.206C117.1 86.598 117.196 87.032 117.196 87.508C117.196 87.64 117.188 87.774 117.172 87.91C117.156 88.042 117.132 88.18 117.1 88.324H113.224C113.28 88.696 113.396 88.998 113.572 89.23C113.752 89.458 113.97 89.626 114.226 89.734C114.486 89.842 114.764 89.896 115.06 89.896C115.408 89.896 115.732 89.852 116.032 89.764C116.332 89.672 116.608 89.552 116.86 89.404L116.932 90.664C116.704 90.784 116.42 90.89 116.08 90.982C115.74 91.074 115.356 91.12 114.928 91.12ZM113.26 87.316H115.684C115.684 87.136 115.65 86.956 115.582 86.776C115.514 86.592 115.4 86.438 115.24 86.314C115.084 86.19 114.872 86.128 114.604 86.128C114.22 86.128 113.918 86.24 113.698 86.464C113.478 86.688 113.332 86.972 113.26 87.316ZM121.135 91V82.6H124.207C124.787 82.6 125.293 82.692 125.725 82.876C126.161 83.06 126.499 83.34 126.739 83.716C126.979 84.092 127.099 84.568 127.099 85.144C127.099 85.76 126.967 86.25 126.703 86.614C126.443 86.974 126.099 87.26 125.671 87.472L127.567 91H125.851L124.231 87.88C124.219 87.88 124.209 87.88 124.201 87.88C124.193 87.88 124.183 87.88 124.171 87.88H122.671V91H121.135ZM122.671 86.596H123.799C124.431 86.596 124.871 86.468 125.119 86.212C125.367 85.952 125.491 85.624 125.491 85.228C125.491 84.808 125.369 84.48 125.125 84.244C124.881 84.004 124.459 83.884 123.859 83.884H122.671V86.596ZM131.088 91.12C130.364 91.12 129.76 90.976 129.276 90.688C128.796 90.396 128.436 90.012 128.196 89.536C127.956 89.056 127.836 88.532 127.836 87.964C127.836 87.416 127.948 86.91 128.172 86.446C128.4 85.982 128.732 85.61 129.168 85.33C129.604 85.046 130.136 84.904 130.764 84.904C131.34 84.904 131.82 85.022 132.204 85.258C132.588 85.494 132.876 85.81 133.068 86.206C133.26 86.598 133.356 87.032 133.356 87.508C133.356 87.64 133.348 87.774 133.332 87.91C133.316 88.042 133.292 88.18 133.26 88.324H129.384C129.44 88.696 129.556 88.998 129.732 89.23C129.912 89.458 130.13 89.626 130.386 89.734C130.646 89.842 130.924 89.896 131.22 89.896C131.568 89.896 131.892 89.852 132.192 89.764C132.492 89.672 132.768 89.552 133.02 89.404L133.092 90.664C132.864 90.784 132.58 90.89 132.24 90.982C131.9 91.074 131.516 91.12 131.088 91.12ZM129.42 87.316H131.844C131.844 87.136 131.81 86.956 131.742 86.776C131.674 86.592 131.56 86.438 131.4 86.314C131.244 86.19 131.032 86.128 130.764 86.128C130.38 86.128 130.078 86.24 129.858 86.464C129.638 86.688 129.492 86.972 129.42 87.316ZM138.356 93.904V90.016L138.74 90.292C138.484 90.556 138.202 90.76 137.894 90.904C137.59 91.048 137.216 91.12 136.772 91.12C136.172 91.12 135.666 90.978 135.254 90.694C134.846 90.41 134.536 90.032 134.324 89.56C134.116 89.088 134.012 88.572 134.012 88.012C134.012 87.452 134.116 86.936 134.324 86.464C134.536 85.992 134.846 85.614 135.254 85.33C135.666 85.046 136.172 84.904 136.772 84.904C137.236 84.904 137.628 84.99 137.948 85.162C138.272 85.33 138.556 85.556 138.8 85.84L138.356 85.996L138.704 85H139.844V93.904H138.356ZM137.012 89.896C137.34 89.896 137.608 89.816 137.816 89.656C138.024 89.496 138.178 89.276 138.278 88.996C138.378 88.712 138.428 88.384 138.428 88.012C138.428 87.452 138.314 86.998 138.086 86.65C137.862 86.302 137.504 86.128 137.012 86.128C136.544 86.128 136.18 86.302 135.92 86.65C135.664 86.998 135.536 87.452 135.536 88.012C135.536 88.568 135.664 89.022 135.92 89.374C136.18 89.722 136.544 89.896 137.012 89.896ZM143.723 91.12C143.099 91.12 142.601 90.996 142.229 90.748C141.857 90.5 141.589 90.16 141.425 89.728C141.261 89.292 141.179 88.792 141.179 88.228V85H142.667V88.228C142.667 88.784 142.759 89.198 142.943 89.47C143.131 89.738 143.435 89.872 143.855 89.872C144.191 89.872 144.469 89.792 144.689 89.632C144.913 89.472 145.099 89.248 145.247 88.96L144.983 89.716V85H146.471V91H145.079L145.007 89.956L145.331 90.376C145.187 90.56 144.959 90.73 144.647 90.886C144.339 91.042 144.031 91.12 143.723 91.12ZM150.752 91.12C150.028 91.12 149.424 90.976 148.94 90.688C148.46 90.396 148.1 90.012 147.86 89.536C147.62 89.056 147.5 88.532 147.5 87.964C147.5 87.416 147.612 86.91 147.836 86.446C148.064 85.982 148.396 85.61 148.832 85.33C149.268 85.046 149.8 84.904 150.428 84.904C151.004 84.904 151.484 85.022 151.868 85.258C152.252 85.494 152.54 85.81 152.732 86.206C152.924 86.598 153.02 87.032 153.02 87.508C153.02 87.64 153.012 87.774 152.996 87.91C152.98 88.042 152.956 88.18 152.924 88.324H149.048C149.104 88.696 149.22 88.998 149.396 89.23C149.576 89.458 149.794 89.626 150.05 89.734C150.31 89.842 150.588 89.896 150.884 89.896C151.232 89.896 151.556 89.852 151.856 89.764C152.156 89.672 152.432 89.552 152.684 89.404L152.756 90.664C152.528 90.784 152.244 90.89 151.904 90.982C151.564 91.074 151.18 91.12 150.752 91.12ZM149.084 87.316H151.508C151.508 87.136 151.474 86.956 151.406 86.776C151.338 86.592 151.224 86.438 151.064 86.314C150.908 86.19 150.696 86.128 150.428 86.128C150.044 86.128 149.742 86.24 149.522 86.464C149.302 86.688 149.156 86.972 149.084 87.316ZM155.74 91.12C155.344 91.12 154.986 91.082 154.666 91.006C154.35 90.93 154.032 90.82 153.712 90.676L153.844 89.404C154.152 89.584 154.454 89.73 154.75 89.842C155.05 89.95 155.364 90.004 155.692 90.004C155.988 90.004 156.214 89.956 156.37 89.86C156.526 89.764 156.604 89.612 156.604 89.404C156.604 89.248 156.562 89.12 156.478 89.02C156.398 88.92 156.276 88.83 156.112 88.75C155.948 88.67 155.744 88.584 155.5 88.492C155.132 88.356 154.818 88.208 154.558 88.048C154.302 87.888 154.106 87.696 153.97 87.472C153.838 87.244 153.772 86.964 153.772 86.632C153.772 86.288 153.862 85.984 154.042 85.72C154.222 85.456 154.478 85.25 154.81 85.102C155.142 84.954 155.536 84.88 155.992 84.88C156.372 84.88 156.712 84.922 157.012 85.006C157.316 85.09 157.596 85.204 157.852 85.348L157.72 86.62C157.452 86.432 157.182 86.278 156.91 86.158C156.638 86.034 156.34 85.972 156.016 85.972C155.76 85.972 155.562 86.024 155.422 86.128C155.282 86.232 155.212 86.38 155.212 86.572C155.212 86.804 155.31 86.978 155.506 87.094C155.702 87.21 156.016 87.352 156.448 87.52C156.728 87.628 156.97 87.74 157.174 87.856C157.382 87.972 157.554 88.1 157.69 88.24C157.826 88.38 157.926 88.54 157.99 88.72C158.058 88.896 158.092 89.1 158.092 89.332C158.092 89.712 158 90.036 157.816 90.304C157.636 90.568 157.37 90.77 157.018 90.91C156.67 91.05 156.244 91.12 155.74 91.12ZM161.066 91.12C160.69 91.12 160.384 91.044 160.148 90.892C159.912 90.736 159.738 90.538 159.626 90.298C159.514 90.058 159.458 89.808 159.458 89.548V86.224H158.606L158.738 85H159.458V83.68L160.946 83.524V85H162.266V86.224H160.946V88.936C160.946 89.24 160.964 89.46 161 89.596C161.036 89.728 161.118 89.812 161.246 89.848C161.374 89.88 161.578 89.896 161.858 89.896H162.266L162.134 91.12H161.066ZM164.939 91.12C164.543 91.12 164.185 91.082 163.865 91.006C163.549 90.93 163.231 90.82 162.911 90.676L163.043 89.404C163.351 89.584 163.653 89.73 163.949 89.842C164.249 89.95 164.563 90.004 164.891 90.004C165.187 90.004 165.413 89.956 165.569 89.86C165.725 89.764 165.803 89.612 165.803 89.404C165.803 89.248 165.761 89.12 165.677 89.02C165.597 88.92 165.475 88.83 165.311 88.75C165.147 88.67 164.943 88.584 164.699 88.492C164.331 88.356 164.017 88.208 163.757 88.048C163.501 87.888 163.305 87.696 163.169 87.472C163.037 87.244 162.971 86.964 162.971 86.632C162.971 86.288 163.061 85.984 163.241 85.72C163.421 85.456 163.677 85.25 164.009 85.102C164.341 84.954 164.735 84.88 165.191 84.88C165.571 84.88 165.911 84.922 166.211 85.006C166.515 85.09 166.795 85.204 167.051 85.348L166.919 86.62C166.651 86.432 166.381 86.278 166.109 86.158C165.837 86.034 165.539 85.972 165.215 85.972C164.959 85.972 164.761 86.024 164.621 86.128C164.481 86.232 164.411 86.38 164.411 86.572C164.411 86.804 164.509 86.978 164.705 87.094C164.901 87.21 165.215 87.352 165.647 87.52C165.927 87.628 166.169 87.74 166.373 87.856C166.581 87.972 166.753 88.1 166.889 88.24C167.025 88.38 167.125 88.54 167.189 88.72C167.257 88.896 167.291 89.1 167.291 89.332C167.291 89.712 167.199 90.036 167.015 90.304C166.835 90.568 166.569 90.77 166.217 90.91C165.869 91.05 165.443 91.12 164.939 91.12Z" fill="black"/>
<path d="M76.728 133.168C75.876 133.168 75.126 132.988 74.478 132.628C73.83 132.264 73.324 131.756 72.96 131.104C72.6 130.448 72.42 129.68 72.42 128.8C72.42 127.92 72.606 127.154 72.978 126.502C73.354 125.846 73.87 125.338 74.526 124.978C75.182 124.614 75.932 124.432 76.776 124.432C77.22 124.432 77.626 124.48 77.994 124.576C78.362 124.668 78.68 124.784 78.948 124.924L78.78 126.388C78.476 126.248 78.162 126.134 77.838 126.046C77.518 125.954 77.16 125.908 76.764 125.908C76.176 125.908 75.684 126.032 75.288 126.28C74.896 126.528 74.6 126.87 74.4 127.306C74.2 127.742 74.1 128.24 74.1 128.8C74.1 129.36 74.198 129.858 74.394 130.294C74.59 130.73 74.882 131.072 75.27 131.32C75.662 131.568 76.148 131.692 76.728 131.692C77.132 131.692 77.494 131.648 77.814 131.56C78.134 131.472 78.456 131.356 78.78 131.212L78.948 132.676C78.632 132.824 78.284 132.942 77.904 133.03C77.528 133.122 77.136 133.168 76.728 133.168ZM81.3045 133.12C80.9845 133.12 80.6925 133.05 80.4285 132.91C80.1645 132.766 79.9545 132.56 79.7985 132.292C79.6425 132.024 79.5645 131.7 79.5645 131.32C79.5645 130.98 79.6425 130.69 79.7985 130.45C79.9585 130.206 80.1665 130.004 80.4225 129.844C80.6825 129.68 80.9625 129.552 81.2625 129.46C81.5665 129.364 81.8645 129.294 82.1565 129.25C82.4525 129.206 82.7125 129.18 82.9365 129.172C82.9205 128.828 82.8325 128.578 82.6725 128.422C82.5125 128.266 82.2405 128.188 81.8565 128.188C81.5885 128.188 81.3265 128.226 81.0705 128.302C80.8185 128.374 80.5325 128.488 80.2125 128.644L80.0805 127.432C80.4405 127.256 80.8005 127.124 81.1605 127.036C81.5245 126.948 81.8925 126.904 82.2645 126.904C82.7125 126.904 83.0985 126.984 83.4225 127.144C83.7465 127.304 83.9965 127.562 84.1725 127.918C84.3485 128.27 84.4365 128.736 84.4365 129.316V130.936C84.4365 131.236 84.4505 131.454 84.4785 131.59C84.5065 131.722 84.5585 131.806 84.6345 131.842C84.7105 131.878 84.8205 131.896 84.9645 131.896H85.1565L85.0245 133.12H84.4845C84.2605 133.12 84.0605 133.09 83.8845 133.03C83.7125 132.974 83.5645 132.894 83.4405 132.79C83.3165 132.686 83.2165 132.564 83.1405 132.424C82.9445 132.644 82.6785 132.816 82.3425 132.94C82.0105 133.06 81.6645 133.12 81.3045 133.12ZM81.9285 131.98C82.0605 131.98 82.2245 131.946 82.4205 131.878C82.6165 131.806 82.7925 131.696 82.9485 131.548V130.18C82.6685 130.192 82.3885 130.238 82.1085 130.318C81.8285 130.398 81.5945 130.516 81.4065 130.672C81.2185 130.828 81.1245 131.024 81.1245 131.26C81.1245 131.504 81.1885 131.686 81.3165 131.806C81.4445 131.922 81.6485 131.98 81.9285 131.98ZM87.5211 133.12C87.1651 133.12 86.8731 133.05 86.6451 132.91C86.4211 132.766 86.2551 132.576 86.1471 132.34C86.0391 132.1 85.9851 131.836 85.9851 131.548V124H87.4731V130.936C87.4731 131.256 87.4911 131.484 87.5271 131.62C87.5671 131.752 87.6391 131.832 87.7431 131.86C87.8471 131.884 87.9971 131.896 88.1931 131.896L88.0611 133.12H87.5211ZM90.6734 133.12C90.3174 133.12 90.0254 133.05 89.7974 132.91C89.5734 132.766 89.4074 132.576 89.2994 132.34C89.1914 132.1 89.1374 131.836 89.1374 131.548V124H90.6254V130.936C90.6254 131.256 90.6434 131.484 90.6794 131.62C90.7194 131.752 90.7914 131.832 90.8954 131.86C90.9994 131.884 91.1494 131.896 91.3454 131.896L91.2134 133.12H90.6734ZM93.9938 133.12C93.5978 133.12 93.2398 133.082 92.9198 133.006C92.6038 132.93 92.2858 132.82 91.9658 132.676L92.0978 131.404C92.4058 131.584 92.7078 131.73 93.0038 131.842C93.3038 131.95 93.6178 132.004 93.9458 132.004C94.2418 132.004 94.4678 131.956 94.6237 131.86C94.7798 131.764 94.8578 131.612 94.8578 131.404C94.8578 131.248 94.8158 131.12 94.7318 131.02C94.6518 130.92 94.5298 130.83 94.3658 130.75C94.2018 130.67 93.9978 130.584 93.7538 130.492C93.3858 130.356 93.0718 130.208 92.8118 130.048C92.5558 129.888 92.3598 129.696 92.2238 129.472C92.0918 129.244 92.0258 128.964 92.0258 128.632C92.0258 128.288 92.1158 127.984 92.2958 127.72C92.4758 127.456 92.7318 127.25 93.0638 127.102C93.3958 126.954 93.7898 126.88 94.2458 126.88C94.6258 126.88 94.9658 126.922 95.2658 127.006C95.5698 127.09 95.8498 127.204 96.1058 127.348L95.9738 128.62C95.7058 128.432 95.4358 128.278 95.1638 128.158C94.8918 128.034 94.5938 127.972 94.2698 127.972C94.0138 127.972 93.8158 128.024 93.6758 128.128C93.5358 128.232 93.4658 128.38 93.4658 128.572C93.4658 128.804 93.5638 128.978 93.7598 129.094C93.9558 129.21 94.2698 129.352 94.7018 129.52C94.9818 129.628 95.2238 129.74 95.4278 129.856C95.6358 129.972 95.8078 130.1 95.9438 130.24C96.0798 130.38 96.1798 130.54 96.2438 130.72C96.3118 130.896 96.3458 131.1 96.3458 131.332C96.3458 131.712 96.2538 132.036 96.0698 132.304C95.8898 132.568 95.6238 132.77 95.2718 132.91C94.9238 133.05 94.4978 133.12 93.9938 133.12ZM100.287 133V124.6H105.459V126.088H101.823V127.876H104.631V129.364H101.823V133H100.287ZM105.93 133V127H107.322L107.358 127.636C107.51 127.468 107.724 127.3 108 127.132C108.276 126.964 108.578 126.88 108.906 126.88C109.002 126.88 109.09 126.888 109.17 126.904L109.062 128.368C108.974 128.344 108.886 128.328 108.798 128.32C108.714 128.312 108.63 128.308 108.546 128.308C108.294 128.308 108.064 128.366 107.856 128.482C107.648 128.598 107.502 128.74 107.418 128.908V133H105.93ZM112.51 133.12C111.858 133.12 111.302 132.978 110.842 132.694C110.382 132.41 110.03 132.032 109.786 131.56C109.546 131.088 109.426 130.572 109.426 130.012C109.426 129.448 109.546 128.928 109.786 128.452C110.03 127.976 110.382 127.596 110.842 127.312C111.302 127.024 111.858 126.88 112.51 126.88C113.162 126.88 113.718 127.024 114.178 127.312C114.638 127.596 114.988 127.976 115.228 128.452C115.472 128.928 115.594 129.448 115.594 130.012C115.594 130.572 115.472 131.088 115.228 131.56C114.988 132.032 114.638 132.41 114.178 132.694C113.718 132.978 113.162 133.12 112.51 133.12ZM112.51 131.896C113.01 131.896 113.394 131.722 113.662 131.374C113.934 131.022 114.07 130.568 114.07 130.012C114.07 129.448 113.934 128.99 113.662 128.638C113.394 128.282 113.01 128.104 112.51 128.104C112.014 128.104 111.63 128.282 111.358 128.638C111.086 128.99 110.95 129.448 110.95 130.012C110.95 130.568 111.086 131.022 111.358 131.374C111.63 131.722 112.014 131.896 112.51 131.896ZM116.63 133V127H117.902L117.998 127.876L117.782 127.612C118.01 127.432 118.282 127.27 118.598 127.126C118.918 126.978 119.29 126.904 119.714 126.904C120.034 126.904 120.316 126.952 120.56 127.048C120.808 127.14 121.02 127.274 121.196 127.45C121.372 127.622 121.514 127.828 121.622 128.068L121.262 127.984C121.454 127.64 121.734 127.374 122.102 127.186C122.474 126.998 122.894 126.904 123.362 126.904C123.914 126.904 124.364 127.018 124.712 127.246C125.06 127.474 125.316 127.796 125.48 128.212C125.644 128.624 125.726 129.108 125.726 129.664V133H124.238V129.772C124.238 129.212 124.15 128.798 123.974 128.53C123.802 128.262 123.514 128.128 123.11 128.128C122.91 128.128 122.734 128.164 122.582 128.236C122.434 128.304 122.31 128.406 122.21 128.542C122.114 128.674 122.042 128.836 121.994 129.028C121.946 129.216 121.922 129.428 121.922 129.664V133H120.434V129.772C120.434 129.4 120.394 129.092 120.314 128.848C120.238 128.604 120.114 128.424 119.942 128.308C119.774 128.188 119.554 128.128 119.282 128.128C118.934 128.128 118.648 128.21 118.424 128.374C118.204 128.534 118.01 128.752 117.842 129.028L118.118 128.224V133H116.63ZM131.543 133L129.179 124.6H130.775L132.455 130.564L134.327 124.6H135.395L137.339 130.408L138.947 124.6H140.543L138.083 133H136.727L134.855 127.396L132.995 133H131.543ZM143.733 133.12C143.009 133.12 142.405 132.976 141.921 132.688C141.441 132.396 141.081 132.012 140.841 131.536C140.601 131.056 140.481 130.532 140.481 129.964C140.481 129.416 140.593 128.91 140.817 128.446C141.045 127.982 141.377 127.61 141.813 127.33C142.249 127.046 142.781 126.904 143.409 126.904C143.985 126.904 144.465 127.022 144.849 127.258C145.233 127.494 145.521 127.81 145.713 128.206C145.905 128.598 146.001 129.032 146.001 129.508C146.001 129.64 145.993 129.774 145.977 129.91C145.961 130.042 145.937 130.18 145.905 130.324H142.029C142.085 130.696 142.201 130.998 142.377 131.23C142.557 131.458 142.775 131.626 143.031 131.734C143.291 131.842 143.569 131.896 143.865 131.896C144.213 131.896 144.537 131.852 144.837 131.764C145.137 131.672 145.413 131.552 145.665 131.404L145.737 132.664C145.509 132.784 145.225 132.89 144.885 132.982C144.545 133.074 144.161 133.12 143.733 133.12ZM142.065 129.316H144.489C144.489 129.136 144.455 128.956 144.387 128.776C144.319 128.592 144.205 128.438 144.045 128.314C143.889 128.19 143.677 128.128 143.409 128.128C143.025 128.128 142.723 128.24 142.503 128.464C142.283 128.688 142.137 128.972 142.065 129.316ZM150.136 133.12C149.68 133.12 149.286 133.046 148.954 132.898C148.622 132.75 148.312 132.548 148.024 132.292L148.468 131.98L148.396 133H147.004V124H148.492V127.996L148.132 127.768C148.396 127.496 148.69 127.284 149.014 127.132C149.342 126.98 149.716 126.904 150.136 126.904C150.724 126.904 151.218 127.046 151.618 127.33C152.018 127.614 152.32 127.992 152.524 128.464C152.732 128.936 152.836 129.452 152.836 130.012C152.836 130.572 152.732 131.088 152.524 131.56C152.32 132.032 152.018 132.41 151.618 132.694C151.218 132.978 150.724 133.12 150.136 133.12ZM149.92 131.896C150.216 131.896 150.468 131.816 150.676 131.656C150.884 131.496 151.042 131.276 151.15 130.996C151.258 130.712 151.312 130.384 151.312 130.012C151.312 129.64 151.258 129.314 151.15 129.034C151.042 128.75 150.884 128.528 150.676 128.368C150.468 128.208 150.216 128.128 149.92 128.128C149.572 128.128 149.288 128.208 149.068 128.368C148.848 128.528 148.684 128.75 148.576 129.034C148.472 129.314 148.42 129.64 148.42 130.012C148.42 130.384 148.472 130.712 148.576 130.996C148.684 131.276 148.848 131.496 149.068 131.656C149.288 131.816 149.572 131.896 149.92 131.896ZM155.576 133.12C155.18 133.12 154.822 133.082 154.502 133.006C154.186 132.93 153.868 132.82 153.548 132.676L153.68 131.404C153.988 131.584 154.29 131.73 154.586 131.842C154.886 131.95 155.2 132.004 155.528 132.004C155.824 132.004 156.05 131.956 156.206 131.86C156.362 131.764 156.44 131.612 156.44 131.404C156.44 131.248 156.398 131.12 156.314 131.02C156.234 130.92 156.112 130.83 155.948 130.75C155.784 130.67 155.58 130.584 155.336 130.492C154.968 130.356 154.654 130.208 154.394 130.048C154.138 129.888 153.942 129.696 153.806 129.472C153.674 129.244 153.608 128.964 153.608 128.632C153.608 128.288 153.698 127.984 153.878 127.72C154.058 127.456 154.314 127.25 154.646 127.102C154.978 126.954 155.372 126.88 155.828 126.88C156.208 126.88 156.548 126.922 156.848 127.006C157.152 127.09 157.432 127.204 157.688 127.348L157.556 128.62C157.288 128.432 157.018 128.278 156.746 128.158C156.474 128.034 156.176 127.972 155.852 127.972C155.596 127.972 155.398 128.024 155.258 128.128C155.118 128.232 155.048 128.38 155.048 128.572C155.048 128.804 155.146 128.978 155.342 129.094C155.538 129.21 155.852 129.352 156.284 129.52C156.564 129.628 156.806 129.74 157.01 129.856C157.218 129.972 157.39 130.1 157.526 130.24C157.662 130.38 157.762 130.54 157.826 130.72C157.894 130.896 157.928 131.1 157.928 131.332C157.928 131.712 157.836 132.036 157.652 132.304C157.472 132.568 157.206 132.77 156.854 132.91C156.506 133.05 156.08 133.12 155.576 133.12ZM158.946 133V127H160.434V133H158.946ZM158.946 126.088V124.6H160.434V126.088H158.946ZM163.785 133.12C163.409 133.12 163.103 133.044 162.867 132.892C162.631 132.736 162.457 132.538 162.345 132.298C162.233 132.058 162.177 131.808 162.177 131.548V128.224H161.325L161.457 127H162.177V125.68L163.665 125.524V127H164.985V128.224H163.665V130.936C163.665 131.24 163.683 131.46 163.719 131.596C163.755 131.728 163.837 131.812 163.965 131.848C164.093 131.88 164.297 131.896 164.577 131.896H164.985L164.853 133.12H163.785ZM168.846 133.12C168.122 133.12 167.518 132.976 167.034 132.688C166.554 132.396 166.194 132.012 165.954 131.536C165.714 131.056 165.594 130.532 165.594 129.964C165.594 129.416 165.706 128.91 165.93 128.446C166.158 127.982 166.49 127.61 166.926 127.33C167.362 127.046 167.894 126.904 168.522 126.904C169.098 126.904 169.578 127.022 169.962 127.258C170.346 127.494 170.634 127.81 170.826 128.206C171.018 128.598 171.114 129.032 171.114 129.508C171.114 129.64 171.106 129.774 171.09 129.91C171.074 130.042 171.05 130.18 171.018 130.324H167.142C167.198 130.696 167.314 130.998 167.49 131.23C167.67 131.458 167.888 131.626 168.144 131.734C168.404 131.842 168.682 131.896 168.978 131.896C169.326 131.896 169.65 131.852 169.95 131.764C170.25 131.672 170.526 131.552 170.778 131.404L170.85 132.664C170.622 132.784 170.338 132.89 169.998 132.982C169.658 133.074 169.274 133.12 168.846 133.12ZM167.178 129.316H169.602C169.602 129.136 169.568 128.956 169.5 128.776C169.432 128.592 169.318 128.438 169.158 128.314C169.002 128.19 168.79 128.128 168.522 128.128C168.138 128.128 167.836 128.24 167.616 128.464C167.396 128.688 167.25 128.972 167.178 129.316Z" fill="black"/>
</g>
<defs>
<filter id="filter0_d_476_281" x="0" y="0" width="246" height="195" filterUnits="userSpaceOnUse" color-interpolation-filters="sRGB">
<feFlood flood-opacity="0" result="BackgroundImageFix"/>
<feColorMatrix in="SourceAlpha" type="matrix" values="0 0 0 0 0 0 0 0 0 0 0 0 0 0 0 0 0 0 127 0" result="hardAlpha"/>
<feOffset dx="4" dy="4"/>
<feGaussianBlur stdDeviation="12"/>
<feComposite in2="hardAlpha" operator="out"/>
<feColorMatrix type="matrix" values="0 0 0 0 0 0 0 0 0 0 0 0 0 0 0 0 0 0 0.15 0"/>
<feBlend mode="normal" in2="BackgroundImageFix" result="effect1_dropShadow_476_281"/>
<feBlend mode="normal" in="SourceGraphic" in2="effect1_dropShadow_476_281" result="shape"/>
</filter>
<clipPath id="clip0_476_281">
<rect width="22" height="22" fill="white" transform="translate(36 82)"/>
</clipPath>
</defs>
</svg>
