<svg xmlns="http://www.w3.org/2000/svg" version="1.1" xmlns:xlink="http://www.w3.org/1999/xlink" width="512" height="512" x="0" y="0" viewBox="0 0 64 64" style="enable-background:new 0 0 512 512" xml:space="preserve" class=""><g><path d="M60 27H46.591C48.041 23.444 49 20.244 49 18c0-9.374-7.626-17-17-17S15 8.626 15 18c0 2.244.959 5.444 2.409 9H12v-5c0-1.654-1.346-3-3-3H7c-3.309 0-6 2.691-6 6v32c0 3.309 2.691 6 6 6h53c1.654 0 3-1.346 3-3V30c0-1.654-1.346-3-3-3zM40.293 45.707 55.586 61h-4.172L36.666 46.252a248.785 248.785 0 0 0 3.328-5.832L51.414 29h4.172L40.293 44.293a.999.999 0 0 0 0 1.414zm-12.215 1.801L14.586 61H9.309c1.3-1.333 3.414-3.547 6.971-7.273L25.851 43.7c.796 1.389 1.548 2.67 2.227 3.808zm1.061 1.767a192.304 192.304 0 0 0 2.017 3.261 1 1 0 0 0 1.688 0c.164-.257 1.242-1.96 2.769-4.509L48.586 61H17.414zM48.586 29l-5.414 5.414A116.467 116.467 0 0 0 45.739 29zM32 3c8.271 0 15 6.729 15 15 0 7.3-11.718 26.794-15 32.11C28.718 44.794 17 25.3 17 18c0-8.271 6.729-15 15-15zM3 25c0-2.206 1.794-4 4-4h2a1 1 0 0 1 1 1v28a1 1 0 0 1-1 1H7a5.98 5.98 0 0 0-4 1.531zm0 32c0-2.206 1.794-4 4-4h2c1.654 0 3-1.346 3-3V29h6.261c1.883 4.276 4.312 8.882 6.56 12.883l-9.987 10.463-8.223 8.615C4.589 60.761 3 59.073 3 57zm58 3a1 1 0 0 1-1 1h-1.586l-16-16 16-16H60a1 1 0 0 1 1 1z" fill="#004c92" opacity="1" data-original="#000000" class=""></path><path d="M45 18c0-7.168-5.832-13-13-13s-13 5.832-13 13 5.832 13 13 13 13-5.832 13-13zm-24 0c0-6.065 4.935-11 11-11s11 4.935 11 11-4.935 11-11 11-11-4.935-11-11z" fill="#004c92" opacity="1" data-original="#000000" class=""></path><path d="M23 15v3a1 1 0 0 0 1 1h2v1h-3v2h4a1 1 0 0 0 1-1v-3a1 1 0 0 0-1-1h-2v-1h3v-2h-4a1 1 0 0 0-1 1zM34 20h-3v-1h2v-2h-2v-1h3v-2h-4a1 1 0 0 0-1 1v6a1 1 0 0 0 1 1h4zM36 22h4a1 1 0 0 0 1-1v-6a1 1 0 0 0-1-1h-4a1 1 0 0 0-1 1v6a1 1 0 0 0 1 1zm1-6h2v4h-2z" fill="#004c92" opacity="1" data-original="#000000" class=""></path></g></svg>