<svg width="803" height="283" viewBox="0 0 803 283" fill="none" xmlns="http://www.w3.org/2000/svg">
<path d="M606.144 278.495C604.19 275.329 603.073 271.284 603.352 267.238V263.72H610.471V267.766C610.471 271.635 611.728 273.57 614.38 273.57C615.497 273.57 616.474 273.218 617.311 272.163C618.009 270.756 618.428 269.173 618.288 267.59C618.288 265.303 617.87 263.017 616.892 260.906C615.497 258.268 613.821 255.981 611.867 254.046C609.355 251.408 607.121 248.242 605.446 244.724C604.19 241.91 603.631 238.568 603.631 235.226C603.492 231.181 604.469 227.311 606.423 224.145C608.657 221.331 611.728 219.924 614.799 220.276C617.87 219.924 620.801 221.507 622.895 224.145C624.849 227.311 625.826 231.357 625.687 235.402V237.865H618.568V234.875C618.568 233.292 618.288 231.709 617.59 230.301C616.892 229.246 615.915 228.718 614.799 228.894C612.286 228.894 611.03 230.829 611.03 234.699C611.03 236.809 611.448 238.92 612.425 240.855C613.821 243.493 615.497 245.78 617.451 247.714C619.963 250.353 622.197 253.519 624.012 257.037C625.268 260.027 625.826 263.545 625.826 266.886C625.826 271.811 624.849 275.681 622.895 278.319C620.661 281.133 617.59 282.541 614.519 282.189C611.448 282.541 608.377 280.958 606.144 278.143V278.495Z" fill="#D9D9D9"/>
<path d="M732.269 221.463H741.382L748.352 257.152V221.463H754.785V281.002H747.414L738.702 237.48V281.002H732.269V221.463Z" fill="#D9D9D9"/>
<path d="M687.015 278.368C684.913 275.269 683.932 271.309 684.212 267.349V236.357C684.212 231.536 685.193 227.92 687.015 225.337C691.781 220.172 698.93 220.172 703.696 225.337C705.798 228.437 706.78 232.397 706.639 236.357V241.35H699.491V235.84C699.491 232.052 698.229 229.986 695.566 229.986C692.903 229.986 691.641 231.88 691.641 235.84V268.038C691.641 271.825 692.903 273.719 695.566 273.719C698.229 273.719 699.491 271.825 699.491 268.038V256.502H695.706V248.065H706.639V267.349C706.92 271.309 705.798 275.269 703.696 278.368C698.93 283.534 691.781 283.534 687.015 278.368Z" fill="#D9D9D9"/>
<path d="M650.39 221.463H658.578V281.002H650.39V221.463Z" fill="#D9D9D9"/>
<path d="M782.313 277.379C780.27 274.273 779.102 270.305 779.394 266.337V262.887H786.837V266.855C786.837 270.65 788.15 272.548 790.923 272.548C792.09 272.548 793.112 272.203 793.988 271.168C794.717 269.788 795.155 268.235 795.009 266.682C795.009 264.44 794.571 262.197 793.55 260.127C792.09 257.539 790.339 255.296 788.296 253.398C785.669 250.811 783.334 247.705 781.583 244.255C780.27 241.495 779.686 238.217 779.686 234.939C779.54 230.971 780.561 227.176 782.605 224.07C784.94 221.31 788.15 219.93 791.361 220.275C794.571 219.93 797.636 221.482 799.825 224.07C801.868 227.176 802.89 231.143 802.744 235.111V237.527H795.301V234.594C795.301 233.041 795.009 231.489 794.28 230.108C793.55 229.073 792.528 228.556 791.361 228.728C788.734 228.728 787.421 230.626 787.421 234.421C787.421 236.492 787.858 238.562 788.88 240.459C790.339 243.047 792.091 245.29 794.134 247.188C796.761 249.776 799.096 252.881 800.993 256.331C802.306 259.264 802.89 262.714 802.89 265.992C802.89 270.823 801.868 274.618 799.825 277.206C797.49 279.966 794.41 281.002 791.069 281.002C787.907 281.002 784.648 280.139 782.313 277.379Z" fill="#D9D9D9"/>
<path d="M558.275 221.463H579.769V230.146H566.171V246.271H576.991V254.954H566.171V273.56H579.769V282.242H558.275V221.641V221.463Z" fill="#D9D9D9"/>
<path d="M501.983 221.463H515.971C520.577 221.463 523.988 222.704 526.206 225.362C528.424 227.842 529.618 231.564 529.618 236.525V267.358C529.618 272.319 528.424 276.04 526.206 278.521C523.988 281.002 520.577 282.242 515.971 282.242H501.983V221.463ZM515.971 273.382C517.165 273.382 518.53 273.028 519.383 271.965C520.236 270.724 520.747 269.13 520.577 267.535V235.994C520.577 234.399 520.236 232.804 519.383 231.564C518.53 230.678 517.165 230.146 515.971 230.146H511.365V273.56H515.971V273.382Z" fill="#D9D9D9"/>
<path d="M604.48 153.413H616.387C620.504 153.413 623.444 154.435 625.355 156.651C627.266 158.867 628.148 162.277 628.148 166.709V169.095C628.148 171.652 627.854 174.209 626.825 176.425C626.09 178.3 624.62 179.664 623.003 180.516C626.972 182.221 628.883 186.312 628.883 192.789V197.733C629.03 201.483 628.001 205.233 625.796 207.961C623.738 210.347 620.798 211.54 616.829 211.54H604.333V153.242L604.48 153.413ZM615.505 177.107C616.829 177.107 618.152 176.766 619.034 175.743C619.916 174.379 620.357 172.675 620.21 170.97V167.731C620.21 166.197 619.916 164.493 619.181 163.129C618.446 162.106 617.27 161.595 616.093 161.765H612.271V177.277H615.358L615.505 177.107ZM616.976 203.358C618.152 203.358 619.181 203.017 620.063 201.994C620.798 200.631 621.239 199.097 621.092 197.562V192.448C621.239 190.573 620.798 188.528 619.916 186.823C618.887 185.63 617.417 185.119 615.946 185.289H612.418V203.188H616.976V203.358Z" fill="#D9D9D9"/>
<path d="M558.275 153.242H579.769V161.925H566.171V178.05H576.991V186.733H566.171V205.338H579.769V214.021H558.275V153.419V153.242Z" fill="#D9D9D9"/>
<path d="M498.033 153.242H505.488L508.929 198.074H509.072L512.657 153.242H521.115L524.7 198.074L528.14 153.242H534.735L529.717 211.54H520.112L516.671 172.163H516.528L513.087 211.54H502.908L497.89 153.242H498.033Z" fill="#D9D9D9"/>
<g clip-path="url(#clip0_331_301)">
<path d="M413.697 282.44V153.64H440.577C447.575 153.64 453.548 154.647 458.497 156.661C463.532 158.569 467.372 162.014 470.017 166.997C472.748 171.979 474.113 178.87 474.113 187.668C474.113 192.969 473.729 197.686 472.961 201.821C472.279 205.849 470.999 209.4 469.121 212.475C467.329 215.443 464.769 217.828 461.441 219.63L475.777 282.44H454.145L442.241 224.083H434.817V282.44H413.697ZM434.817 208.499H440.961C444.375 208.499 447.063 207.81 449.025 206.432C450.988 205.054 452.353 202.987 453.121 200.231C453.975 197.368 454.401 193.87 454.401 189.736C454.401 183.799 453.505 179.294 451.713 176.22C450.007 173.039 446.764 171.449 441.985 171.449H434.817V208.499Z" fill="white"/>
</g>
<g clip-path="url(#clip1_331_301)">
<path d="M356.697 282.44V153.64H401.881V171.767H377.817V205.955H396.377V224.242H377.817V264.631H402.137V282.44H356.697Z" fill="white"/>
</g>
<g clip-path="url(#clip2_331_301)">
<path d="M319.954 282.44V153.64H340.946V282.44H319.954Z" fill="white"/>
</g>
<g clip-path="url(#clip3_331_301)">
<path d="M272.426 282.44V173.198H256.426V153.64H309.418V173.198H293.674V282.44H272.426Z" fill="white"/>
</g>
<g clip-path="url(#clip4_331_301)">
<path d="M747.697 130.683V1.88184H762.417L785.457 68.9854V1.88184H802.865V130.683H788.785L765.745 59.4446V130.683H747.697Z" fill="white"/>
</g>
<g clip-path="url(#clip5_331_301)">
<path d="M670.697 130.683V1.88184H697.577C704.575 1.88184 710.548 2.88892 715.497 4.9031C720.532 6.81124 724.372 10.2565 727.017 15.239C729.748 20.2214 731.113 27.1119 731.113 35.9107C731.113 41.2112 730.729 45.9285 729.961 50.0629C729.279 54.0912 727.999 57.6424 726.121 60.7167C724.329 63.6849 721.769 66.0701 718.441 67.8723L732.777 130.683H711.145L699.241 72.3247H691.817V130.683H670.697ZM691.817 56.7414H697.961C701.375 56.7414 704.063 56.0523 706.025 54.6742C707.988 53.2962 709.353 51.229 710.121 48.4727C710.975 45.6105 711.401 42.1122 711.401 37.9778C711.401 32.0413 710.505 27.536 708.713 24.4617C707.007 21.2815 703.764 19.6913 698.985 19.6913H691.817V56.7414Z" fill="white"/>
</g>
<g clip-path="url(#clip6_331_301)">
<path d="M612.697 130.683V1.88184H657.881V20.0094H633.817V54.1972H652.377V72.4837H633.817V112.873H658.137V130.683H612.697Z" fill="white"/>
</g>
<g clip-path="url(#clip7_331_301)">
<path d="M533.954 130.683V1.88184H555.074V54.8333H573.378V1.88184H594.498V130.683H573.378V73.5968H555.074V130.683H533.954Z" fill="white"/>
</g>
<g clip-path="url(#clip8_331_301)">
<path d="M486.892 133.167V21.4807H470.89V1.48438H523.89V21.4807H508.143V133.167H486.892Z" fill="white"/>
</g>
<g clip-path="url(#clip9_331_301)">
<path d="M430.882 132.432C423.031 132.432 416.93 130.788 412.578 127.502C408.226 124.11 405.154 119.287 403.362 113.032C401.655 106.672 400.802 98.9859 400.802 89.9752V1.88184H421.666V93.6325C421.666 96.8127 421.836 99.9399 422.178 103.014C422.604 106.089 423.458 108.58 424.738 110.488C426.103 112.396 428.151 113.35 430.882 113.35C433.698 113.35 435.746 112.396 437.026 110.488C438.391 108.58 439.244 106.089 439.586 103.014C439.927 99.9399 440.098 96.8127 440.098 93.6325V1.88184H460.962V89.9752C460.962 98.9859 460.066 106.672 458.274 113.032C456.567 119.287 453.538 124.11 449.186 127.502C444.834 130.788 438.732 132.432 430.882 132.432Z" fill="white"/>
</g>
<g clip-path="url(#clip10_331_301)">
<path d="M356.262 133.167C348.69 133.167 342.692 131.477 338.268 128.096C333.844 124.716 330.654 119.909 328.697 113.676C326.825 107.338 325.89 99.7844 325.89 91.016V43.1602C325.89 34.3918 326.825 26.8913 328.697 20.6584C330.654 14.4255 333.844 9.67164 338.268 6.39674C342.692 3.12183 348.69 1.48438 356.262 1.48438C363.919 1.48438 369.959 3.17465 374.383 6.55519C378.892 9.8301 382.083 14.584 383.955 20.8169C385.911 26.9441 386.89 34.3918 386.89 43.1602V91.016C386.89 99.7844 385.911 107.338 383.955 113.676C382.083 119.909 378.892 124.716 374.383 128.096C369.959 131.477 363.919 133.167 356.262 133.167ZM356.262 114.31C358.985 114.31 360.984 113.571 362.26 112.092C363.536 110.507 364.387 108.447 364.812 105.912C365.238 103.271 365.45 100.471 365.45 97.513V36.8216C365.45 33.8637 365.238 31.117 364.812 28.5816C364.387 26.0462 363.536 24.039 362.26 22.56C360.984 20.9753 358.985 20.183 356.262 20.183C353.71 20.183 351.796 20.9753 350.519 22.56C349.243 24.039 348.392 26.0462 347.967 28.5816C347.542 31.117 347.329 33.8637 347.329 36.8216V97.513C347.329 100.471 347.499 103.271 347.839 105.912C348.265 108.447 349.116 110.507 350.392 112.092C351.668 113.571 353.625 114.31 356.262 114.31Z" fill="white"/>
</g>
<g clip-path="url(#clip11_331_301)">
<path d="M288.653 133.167C282.346 133.167 277.09 131.728 272.886 128.848C268.681 125.863 265.486 121.437 263.299 115.572C261.197 109.6 260.226 100.589 259.89 91.4182H279.106C279.274 96.7502 278.926 98.8297 279.599 102.455C280.355 105.974 280.664 108.64 282.094 110.453C283.608 112.159 285.457 113.013 287.644 113.013C290.335 113.013 292.143 111.946 293.068 109.813C294.077 107.681 294.581 105.228 294.581 102.455C294.581 97.0168 293.53 92.4846 291.428 88.8589C289.41 85.1265 286.719 81.3943 283.355 77.6619L272.76 65.9849C268.976 61.9326 265.864 57.3472 263.425 52.2285C261.071 47.1099 259.894 40.8182 259.894 33.3535C259.894 22.6897 262.332 14.5318 267.21 8.87993C272.171 3.12143 278.94 0.242188 287.518 0.242188C292.647 0.242188 296.852 1.30858 300.132 3.44136C303.411 5.57412 305.934 8.45336 307.7 12.0791C309.55 15.5982 310.811 19.4905 311.484 23.756C312.241 27.9149 312.443 35.433 312.611 39.5919H294.203C294.035 35.6463 294.308 31.9204 293.888 28.9346C293.551 25.9488 293.11 23.8626 291.933 22.1564C290.839 20.4503 289.158 19.5971 286.887 19.5971C284.448 19.5971 282.64 20.7702 281.463 23.1162C280.286 25.3556 279.697 27.8616 279.697 30.6342C279.697 35.2196 280.496 39.0054 282.094 41.9912C283.776 44.8705 286.046 47.9097 288.905 51.1088L299.249 62.6258C303.537 67.318 307.195 72.7032 310.223 78.7816C313.334 84.7534 314.89 92.1647 314.89 101.016C314.89 107.094 313.796 112.586 311.61 117.491C309.424 122.397 306.354 126.235 302.402 129.008C298.534 131.781 293.951 133.167 288.653 133.167Z" fill="white"/>
</g>
<rect x="1.13965" y="0.492188" width="216.5" height="43.5" fill="white" stroke="#C7C7C7" stroke-width="0.5"/>
<path d="M130.89 44.2422H173.89V167.686L130.89 193.242V44.2422Z" fill="white" stroke="#C7C7C7" stroke-width="0.5" stroke-linejoin="round"/>
<rect x="131.14" y="41.7305" width="42.501" height="4.83936" fill="white"/>
<path d="M1.1416 81.4979V44.0073H42.6416V62.5073C42.8083 63.5073 43.1416 67.0073 46.1416 70.0073C49.9659 73.8316 91.1416 95.0073 99.1416 102.007C105.542 107.607 107.808 116.007 108.142 119.507V209.507L68.1416 187.507V136.507C68.1416 127.507 26.1416 107.507 15.6416 102.007C7.2416 97.6073 1.1416 86.4979 1.1416 81.4979Z" fill="white" stroke="#C7C7C7" stroke-width="0.5" stroke-linejoin="round"/>
<rect x="1.38965" y="41.8643" width="41" height="3.41357" fill="white"/>
<path d="M1.12207 221.471V149.242H42.305V176.141V203.04L91.0215 231.931L173.89 181.62V222.742C173.89 226.329 174.39 228.242 169.89 231.742L95.0393 281.246C94.3697 281.578 92.3273 282.242 89.5148 282.242C86.7023 282.242 84.3251 281.246 83.488 280.748C60.5528 265.472 13.477 234.123 8.65554 230.935C3.83412 227.747 1.6243 223.297 1.12207 221.471Z" fill="#D9D9D9" stroke="#C7C7C7" stroke-width="0.5"/>
<defs>
<clipPath id="clip0_331_301">
<rect width="63" height="129.198" fill="white" transform="translate(412.89 153.242)"/>
</clipPath>
<clipPath id="clip1_331_301">
<rect width="47" height="129.198" fill="white" transform="translate(355.89 153.242)"/>
</clipPath>
<clipPath id="clip2_331_301">
<rect width="22" height="129.198" fill="white" transform="translate(319.89 153.242)"/>
</clipPath>
<clipPath id="clip3_331_301">
<rect width="54" height="129.198" fill="white" transform="translate(255.89 153.242)"/>
</clipPath>
<clipPath id="clip4_331_301">
<rect width="56" height="129.198" fill="white" transform="translate(746.89 1.48438)"/>
</clipPath>
<clipPath id="clip5_331_301">
<rect width="63" height="129.198" fill="white" transform="translate(669.89 1.48438)"/>
</clipPath>
<clipPath id="clip6_331_301">
<rect width="47" height="129.198" fill="white" transform="translate(611.89 1.48438)"/>
</clipPath>
<clipPath id="clip7_331_301">
<rect width="61" height="129.198" fill="white" transform="translate(533.89 1.48438)"/>
</clipPath>
<clipPath id="clip8_331_301">
<rect width="54" height="131.683" fill="white" transform="translate(470.89 1.48438)"/>
</clipPath>
<clipPath id="clip9_331_301">
<rect width="62" height="131.683" fill="white" transform="translate(399.89 1.48438)"/>
</clipPath>
<clipPath id="clip10_331_301">
<rect width="62" height="131.683" fill="white" transform="translate(325.89 1.48438)"/>
</clipPath>
<clipPath id="clip11_331_301">
<rect width="57" height="132.925" fill="white" transform="translate(258.89 0.242188)"/>
</clipPath>
</defs>
</svg>
