<svg xmlns="http://www.w3.org/2000/svg" viewBox="0 0 812.88 156.14"><defs><style>.cls-1{fill:#fff;}</style></defs><g id="Layer_2" data-name="Layer 2"><g id="Layer_2-2" data-name="Layer 2"><path class="cls-1" d="M381.85,75.23q-3.28-3.65-3.28-10.44v-3.2h8.32v3.84q0,5.44,4.56,5.44a4.29,4.29,0,0,0,3.4-1.32A6.44,6.44,0,0,0,396,65.27a11.81,11.81,0,0,0-1.6-6.2,29.43,29.43,0,0,0-5.92-6.44,35.51,35.51,0,0,1-7.6-8.69,17.66,17.66,0,0,1-2.16-8.76q0-6.63,3.36-10.28t9.76-3.64q6.31,0,9.56,3.64t3.24,10.44v2.32h-8.32V34.78a6.41,6.41,0,0,0-1.12-4.2,4.07,4.07,0,0,0-3.28-1.32c-2.94,0-4.4,1.79-4.4,5.36a10.51,10.51,0,0,0,1.64,5.68,31.08,31.08,0,0,0,6,6.4q5.52,4.8,7.6,8.72a19.37,19.37,0,0,1,2.08,9.21q0,6.89-3.4,10.56t-9.88,3.68Q385.13,78.87,381.85,75.23Z"/><path class="cls-1" d="M418.25,75.19q-3.44-3.68-3.44-10.4V35.34q0-6.72,3.44-10.4t9.92-3.68c4.33,0,7.63,1.23,9.93,3.68s3.44,5.92,3.44,10.4V64.79q0,6.72-3.44,10.4c-2.3,2.45-5.6,3.68-9.93,3.68S420.55,77.64,418.25,75.19Zm14.49-9.84V34.78c0-3.68-1.53-5.52-4.57-5.52s-4.56,1.84-4.56,5.52V65.35q0,5.52,4.56,5.52C431.21,70.87,432.74,69,432.74,65.35Z"/><path class="cls-1" d="M456.1,75.23q-3.36-3.65-3.36-10.44V22.06h8.8V65.43a6.12,6.12,0,0,0,1.16,4.16,4.95,4.95,0,0,0,6.64,0,6.12,6.12,0,0,0,1.16-4.16V22.06H479V64.79q0,6.79-3.36,10.44t-9.76,3.64Q459.45,78.87,456.1,75.23Z"/><path class="cls-1" d="M497.71,30.06H488.5v-8h27.21v8h-9.2v48h-8.8Z"/><path class="cls-1" d="M525.55,22.06h8.8v22.8h9.44V22.06h8.81v56h-8.81V52.87h-9.44v25.2h-8.8Z"/><path class="cls-1" d="M564.76,22.06h24v8h-15.2v14.8h12.08v8H573.56v17.2h15.2v8h-24Z"/><path class="cls-1" d="M599.4,22.06h13.05q6.79,0,9.92,3.16t3.12,9.72v3.44q0,8.73-5.76,11v.16a6.87,6.87,0,0,1,4.52,3.93,19.72,19.72,0,0,1,1.32,7.92v9.84a36.74,36.74,0,0,0,.16,3.88,9.43,9.43,0,0,0,.8,2.92h-9a12.44,12.44,0,0,1-.64-2.56,37.7,37.7,0,0,1-.16-4.32V61c0-2.56-.42-4.35-1.24-5.36s-2.26-1.52-4.28-1.52h-3v24h-8.8Zm12,24a5.27,5.27,0,0,0,4-1.36q1.32-1.35,1.32-4.56V35.82a7.13,7.13,0,0,0-1.08-4.4,4.08,4.08,0,0,0-3.4-1.36h-4v16Z"/><path class="cls-1" d="M637.25,22.06h11l8.56,33.53H657V22.06h7.85v56h-9.05L645.25,37.18h-.16V78.07h-7.84Z"/><path class="cls-1" d="M702.3,30.06h-9.2v-8h27.2v8h-9.2v48h-8.8Z"/><path class="cls-1" d="M730.14,22.06H739v56h-8.81Z"/><path class="cls-1" d="M751.11,22.06h24v8h-15.2v14.8H772v8H759.91v17.2h15.2v8h-24Z"/><path class="cls-1" d="M785.75,22.06h13q6.8,0,9.92,3.16t3.12,9.72v3.44q0,8.73-5.76,11v.16a6.87,6.87,0,0,1,4.52,3.93,19.72,19.72,0,0,1,1.32,7.92v9.84a36.74,36.74,0,0,0,.16,3.88,9.43,9.43,0,0,0,.8,2.92h-9a12.44,12.44,0,0,1-.64-2.56,37.7,37.7,0,0,1-.16-4.32V61c0-2.56-.42-4.35-1.24-5.36s-2.26-1.52-4.29-1.52h-3v24h-8.8Zm12,24a5.27,5.27,0,0,0,4-1.36Q803,43.35,803,40.14V35.82a7.13,7.13,0,0,0-1.08-4.4,4.08,4.08,0,0,0-3.4-1.36h-4v16Z"/><path class="cls-1" d="M443.77,97.18H449l2.39,26.31h.1L454,97.18h5.86l2.55,26.31h.09l2.4-26.31h4.64l-3.47,34.23h-6.7l-2.44-23.08h-.1l-2.44,23.08h-7.14Z"/><path class="cls-1" d="M486.45,97.18h14.67v4.89h-9.29v9.05h7.39V116h-7.39v10.51h9.29v4.89H486.45Z"/><path class="cls-1" d="M518.38,97.18h8.12q4.15,0,6.06,1.94t1.91,5.94v1.37a9.39,9.39,0,0,1-.86,4.3,5,5,0,0,1-2.61,2.39v.1q4,1.36,4,7.14v2.94a8.13,8.13,0,0,1-2.08,6q-2.08,2.08-6.09,2.08h-8.46Zm7.48,13.94a3.22,3.22,0,0,0,2.42-.83,3.92,3.92,0,0,0,.81-2.79v-1.91a4.38,4.38,0,0,0-.66-2.69,2.5,2.5,0,0,0-2.08-.83h-2.59v9.05Zm1,15.4a2.66,2.66,0,0,0,2.1-.76,3.85,3.85,0,0,0,.69-2.61v-3a5,5,0,0,0-.81-3.26,3.42,3.42,0,0,0-2.66-.9h-2.4v10.51Z"/><path class="cls-1" d="M574.32,97.18h8.22q4,0,6,2.16c1.34,1.43,2,3.53,2,6.3V123c0,2.77-.66,4.88-2,6.31s-3.34,2.15-6,2.15h-8.22Zm8.12,29.34a2.62,2.62,0,0,0,2-.78,3.74,3.74,0,0,0,.71-2.54V105.4a3.72,3.72,0,0,0-.71-2.54,2.62,2.62,0,0,0-2-.79H579.7v24.45Z"/><path class="cls-1" d="M608.35,97.18H623v4.89h-9.29v9.05h7.39V116h-7.39v10.51H623v4.89H608.35Z"/><path class="cls-1" d="M641.46,129.68a9.21,9.21,0,0,1-2-6.38v-2h5.09v2.35q0,3.32,2.78,3.32a2.6,2.6,0,0,0,2.08-.81,3.9,3.9,0,0,0,.71-2.61,7.25,7.25,0,0,0-1-3.79,18,18,0,0,0-3.62-3.94,21.67,21.67,0,0,1-4.64-5.3,10.84,10.84,0,0,1-1.32-5.36,8.91,8.91,0,0,1,2.05-6.28,7.74,7.74,0,0,1,6-2.23,7.43,7.43,0,0,1,5.84,2.23,9.29,9.29,0,0,1,2,6.38v1.42h-5.08V105a3.93,3.93,0,0,0-.69-2.57,2.45,2.45,0,0,0-2-.8c-1.8,0-2.69,1.09-2.69,3.27a6.42,6.42,0,0,0,1,3.47,19,19,0,0,0,3.64,3.91,20.37,20.37,0,0,1,4.65,5.33,11.84,11.84,0,0,1,1.27,5.63q0,4.2-2.08,6.45a7.81,7.81,0,0,1-6,2.25A7.54,7.54,0,0,1,641.46,129.68Z"/><path class="cls-1" d="M672.75,97.18h5.38v34.23h-5.38Z"/><path class="cls-1" d="M698,129.68a9.08,9.08,0,0,1-2.05-6.38v-18q0-4.15,2.05-6.38a9.09,9.09,0,0,1,11.93,0A9.06,9.06,0,0,1,712,105.3v2.93h-5.09V105q0-3.37-2.79-3.37T701.31,105v18.73q0,3.32,2.78,3.32t2.79-3.32V117h-2.69V112.1H712v11.2a9.08,9.08,0,0,1-2.06,6.38,9.12,9.12,0,0,1-11.93,0Z"/><path class="cls-1" d="M729.62,97.18h6.75l5.23,20.49h.09V97.18h4.8v34.23H741l-6.45-25h-.1v25h-4.79Z"/><polygon class="cls-1" points="390.74 156.14 306.75 78.07 289.96 83.41 211.57 0 134.37 78.56 123.76 74.68 113.15 78.56 91.94 60.13 0 156.14 78.38 91.81 82.39 100.74 73.56 111.3 84.86 125.43 71.31 139.66 81.33 139.66 114.92 111.85 121.01 113.97 207.29 26.15 219.24 78.07 187.85 104.74 171.5 135.78 157.35 148.38 170.62 148.38 199.79 116.38 267.86 113.47 278.46 140.63 293.49 148.38 312.94 112.5 390.74 156.14"/></g></g></svg>