<svg width="218" height="283" viewBox="0 0 218 283" fill="none" xmlns="http://www.w3.org/2000/svg">
<rect x="1.25" y="0.25" width="216.5" height="43.5" fill="white" stroke="#C7C7C7" stroke-width="0.5"/>
<path d="M131 44H174V167.443L131 193V44Z" fill="white" stroke="#C7C7C7" stroke-width="0.5" stroke-linejoin="round"/>
<rect x="131.25" y="39.2446" width="42.501" height="10.4429" fill="white"/>
<path d="M1.25195 81.2557V43.7651H42.752V62.2651C42.9186 63.2651 43.252 66.7651 46.252 69.7651C50.0762 73.5894 91.252 94.7651 99.252 101.765C105.652 107.365 107.919 115.765 108.252 119.265V209.265L68.252 187.265V136.265C68.252 127.265 26.252 107.265 15.752 101.765C7.35195 97.3651 1.25195 86.2557 1.25195 81.2557Z" fill="white" stroke="#C7C7C7" stroke-width="0.5"/>
<rect x="1.5" y="40.4219" width="41" height="8.39502" fill="white"/>
<path d="M1.23242 221.228V149H42.4154V175.899V202.798L91.1318 231.689L174 181.378V222.5C174 226.087 174.5 228 170 231.5L95.1497 281.004C94.48 281.336 92.4376 282 89.6251 282C86.8126 282 84.4354 281.004 83.5984 280.506C60.6631 265.23 13.5873 233.881 8.76589 230.693C3.94447 227.505 1.73465 223.055 1.23242 221.228Z" fill="#D9D9D9" stroke="#C7C7C7" stroke-width="0.5"/>
</svg>
