<svg width="1436" height="276" viewBox="0 0 1436 276" fill="none" xmlns="http://www.w3.org/2000/svg">
<g clip-path="url(#clip0_301_127)">
<path d="M674.829 137.477C670.943 133.234 669 127.045 669 119.089V113.431H683.662V120.15C683.662 126.515 686.312 129.698 691.788 129.698C694.084 129.698 696.204 128.99 697.794 127.399C699.384 125.277 700.091 122.448 699.737 119.796C699.737 115.906 698.854 112.193 696.911 108.834C694.084 104.591 690.551 100.701 686.488 97.5182C681.189 93.098 676.596 87.9705 673.063 82.1358C670.413 77.3619 669.177 72.0576 669.177 66.5765C669.177 58.7969 671.12 52.7854 675.183 48.3651C679.246 43.9449 684.899 42 692.495 42C699.914 42 705.567 44.1217 709.453 48.3651C713.34 52.6086 715.106 58.7969 715.106 66.7534V70.82H700.444V65.6925C700.621 63.0404 699.914 60.3882 698.501 58.2665C697.088 56.6752 694.968 55.7912 692.671 55.968C687.548 55.968 684.899 59.1505 684.899 65.5157C684.899 69.0519 685.959 72.5881 687.725 75.5938C690.728 79.8373 694.261 83.7271 698.324 86.9097C704.86 92.5676 709.277 97.6951 711.75 102.292C714.223 107.42 715.636 112.901 715.459 118.559C715.459 126.692 713.516 132.88 709.453 137.3C705.39 141.721 699.561 143.842 691.965 143.842C684.369 143.842 678.716 141.721 674.829 137.477Z" fill="#004C92"/>
<path d="M738.953 137.477C734.89 133.057 732.947 127.045 732.947 119.089V66.9302C732.947 58.9737 734.89 52.9622 738.953 48.542C743.016 44.1217 748.846 42 756.442 42C764.038 42 769.867 44.1217 773.93 48.542C777.993 52.9622 779.937 58.9737 779.937 66.9302V119.089C779.937 127.045 777.993 133.057 773.93 137.477C769.867 141.721 764.038 144.019 756.442 144.019C748.846 144.019 743.016 141.897 738.953 137.477ZM764.568 120.15V66.0461C764.568 59.5042 761.918 56.3216 756.442 56.3216C750.966 56.3216 748.316 59.5042 748.316 66.0461V120.15C748.316 126.692 750.966 129.874 756.442 129.874C761.741 129.874 764.568 126.515 764.568 120.15Z" fill="#004C92"/>
<path d="M805.905 137.477C802.018 133.234 799.898 127.046 799.898 119.089V43.5913H815.444V120.327C815.267 122.979 815.974 125.631 817.564 127.753C820.92 130.759 826.043 130.759 829.223 127.753C830.812 125.631 831.519 122.979 831.342 120.327V43.5913H846.358V119.089C846.358 127.046 844.415 133.234 840.352 137.477C836.289 141.721 830.636 143.842 823.04 143.842C815.444 143.842 809.791 141.721 805.728 137.477H805.905Z" fill="#004C92"/>
<path d="M879.392 57.7361H863.14V43.5913H911.189V57.7361H894.937V142.605H879.392V57.7361Z" fill="#004C92"/>
<path d="M928.501 43.5913H944.046V83.9039H960.652V43.5913H976.197V142.605H960.652V98.0487H944.046V142.605H928.501V43.5913Z" fill="#004C92"/>
<path d="M997.925 43.5913H1040.32V57.7361H1013.47V83.9039H1034.85V98.0487H1013.47V128.46H1040.32V142.605H997.925V43.5913Z" fill="#004C92"/>
<path d="M1059.05 43.5913H1082.01C1089.96 43.5913 1095.79 45.5362 1099.5 49.2492C1103.21 52.9622 1104.98 58.6201 1104.98 66.3998V72.4113C1104.98 82.6663 1101.62 89.2082 1094.73 91.8604V92.214C1098.26 93.098 1101.27 95.7502 1102.68 99.1096C1104.45 103.53 1105.15 108.304 1104.98 113.078V130.405C1104.98 132.703 1104.98 135.002 1105.33 137.3C1105.51 139.069 1106.04 140.837 1106.74 142.428H1090.84C1090.31 141.013 1089.96 139.422 1089.78 137.831C1089.61 135.356 1089.43 132.703 1089.43 130.228V112.37C1089.43 107.773 1088.72 104.767 1087.31 102.823C1085.9 100.878 1083.25 100.17 1079.71 100.17H1074.41V142.605H1058.87V43.5913H1059.05ZM1080.24 86.0256C1082.89 86.2024 1085.37 85.3184 1087.31 83.5503C1088.9 81.959 1089.61 79.3069 1089.61 75.4171V67.8142C1089.78 65.1621 1089.08 62.3331 1087.66 60.0346C1086.07 58.2665 1083.95 57.3825 1081.66 57.5593H1074.59V85.8488H1080.24V86.0256Z" fill="#004C92"/>
<path d="M1125.82 43.5913H1145.25L1160.44 102.823H1160.8V43.5913H1174.58V142.605H1158.68L1140.13 70.2896H1139.78V142.605H1126V43.5913H1125.82Z" fill="#004C92"/>
<path d="M1240.82 57.7361H1224.57V43.5913H1272.62V57.7361H1256.37V142.605H1240.82V57.7361Z" fill="#004C92"/>
<path d="M1289.93 43.5913H1305.65V142.605H1290.11V43.5913H1289.93Z" fill="#004C92"/>
<path d="M1327.03 43.5913H1369.42V57.7361H1342.57V83.9039H1363.95V98.0487H1342.57V128.46H1369.42V142.605H1327.03V43.5913Z" fill="#004C92"/>
<path d="M1388.33 43.5913H1411.29C1419.24 43.5913 1425.07 45.5362 1428.78 49.2492C1432.49 52.9622 1434.25 58.6201 1434.25 66.3998V72.4113C1434.25 82.6663 1430.9 89.2082 1424.01 91.8604V92.214C1427.54 93.098 1430.54 95.7502 1431.96 99.1096C1433.72 103.53 1434.43 108.304 1434.25 113.078V130.405C1434.25 132.703 1434.25 135.002 1434.61 137.3C1434.78 139.069 1435.31 140.837 1436.02 142.428H1420.12C1419.59 141.013 1419.24 139.422 1419.06 137.831C1418.89 135.356 1418.71 132.703 1418.71 130.228V112.37C1418.71 107.773 1418 104.767 1416.59 102.823C1415.18 100.878 1412.53 100.17 1408.99 100.17H1403.69V142.605H1388.15V43.5913H1388.33ZM1409.52 86.0256C1412.17 86.2024 1414.65 85.3184 1416.59 83.5503C1418 81.959 1418.71 79.3069 1418.71 75.4171V67.8142C1418.89 65.1621 1418.18 62.3331 1416.77 60.0346C1415.18 58.2665 1413.06 57.3825 1410.76 57.5593H1403.69V85.8488H1409.35L1409.52 86.0256Z" fill="#004C92"/>
<path d="M752.026 176.906H761.212L765.452 223.407H765.628L770.045 176.906H780.467L784.883 223.407L789.123 176.906H797.249L791.066 237.375H779.231L774.991 196.532H774.814L770.575 237.375H758.032L751.85 176.906H752.026Z" fill="#004C92"/>
<path d="M827.456 176.906H853.424V185.569H836.995V201.659H850.067V210.323H836.995V228.888H853.424V237.552H827.456V177.083V176.906Z" fill="#004C92"/>
<path d="M883.808 176.906H898.116C903.062 176.906 906.596 177.967 908.892 180.265C911.189 182.564 912.248 186.1 912.248 190.697V193.172C912.248 195.824 911.895 198.477 910.659 200.775C909.775 202.72 908.009 204.135 906.066 205.019C910.835 206.787 913.132 211.03 913.132 217.749V222.876C913.308 226.766 912.072 230.656 909.422 233.485C906.949 235.96 903.416 237.198 898.646 237.198H883.631V176.729L883.808 176.906ZM897.056 201.482C898.646 201.482 900.236 201.129 901.296 200.068C902.356 198.653 902.886 196.885 902.709 195.117V191.758C902.709 190.167 902.356 188.398 901.473 186.984C900.589 185.923 899.176 185.393 897.763 185.569H893.17V201.659H896.88L897.056 201.482ZM898.823 228.711C900.236 228.711 901.473 228.357 902.533 227.297C903.416 225.882 903.946 224.291 903.769 222.7V217.395C903.946 215.45 903.416 213.329 902.356 211.561C901.119 210.323 899.353 209.792 897.586 209.969H893.347V228.534H898.823V228.711Z" fill="#004C92"/>
<path d="M982.557 176.906H997.042C1001.81 176.906 1005.34 178.143 1007.64 180.796C1009.94 183.271 1011.17 186.984 1011.17 191.935V222.699C1011.17 227.65 1009.94 231.363 1007.64 233.838C1005.34 236.314 1001.81 237.552 997.042 237.552H982.557V176.906ZM997.042 228.711C998.279 228.711 999.692 228.357 1000.58 227.297C1001.46 226.059 1001.99 224.468 1001.81 222.876V191.404C1001.81 189.813 1001.46 188.222 1000.58 186.984C999.692 186.1 998.279 185.569 997.042 185.569H992.272V228.888H997.042V228.711Z" fill="#004C92"/>
<path d="M1042.79 176.906H1068.76V185.569H1052.33V201.659H1065.41V210.323H1052.33V228.888H1068.76V237.552H1042.79V177.083V176.906Z" fill="#004C92"/>
<path d="M1101.27 234.369C1098.79 231.186 1097.38 227.12 1097.73 223.053V219.517H1106.74V223.584C1106.74 227.473 1108.33 229.418 1111.69 229.418C1113.1 229.418 1114.34 229.065 1115.4 228.004C1116.28 226.589 1116.81 224.998 1116.64 223.407C1116.64 221.108 1116.11 218.81 1114.87 216.688C1113.1 214.036 1110.98 211.737 1108.51 209.792C1105.33 207.14 1102.5 203.958 1100.38 200.421C1098.79 197.593 1098.09 194.233 1098.09 190.874C1097.91 186.807 1099.15 182.917 1101.62 179.735C1104.45 176.906 1108.33 175.491 1112.22 175.845C1116.11 175.491 1119.81 177.083 1122.46 179.735C1124.94 182.917 1126.17 186.984 1126 191.051V193.526H1116.99V190.52C1116.99 188.929 1116.64 187.338 1115.75 185.923C1114.87 184.862 1113.63 184.332 1112.22 184.509C1109.04 184.509 1107.45 186.453 1107.45 190.343C1107.45 192.465 1107.98 194.587 1109.22 196.532C1110.98 199.184 1113.1 201.482 1115.58 203.427C1118.76 206.079 1121.58 209.262 1123.88 212.798C1125.47 215.804 1126.17 219.34 1126.17 222.699C1126.17 227.65 1124.94 231.54 1122.46 234.192C1119.64 237.021 1115.75 238.436 1111.87 238.082C1107.98 238.436 1104.09 236.844 1101.27 234.015V234.369Z" fill="#004C92"/>
<path d="M1156.56 176.906H1166.1V237.375H1156.56V176.906Z" fill="#004C92"/>
<path d="M1201.07 234.369C1198.42 231.186 1197.19 227.12 1197.54 223.053V191.227C1197.54 186.276 1198.78 182.563 1201.07 179.911C1207.08 174.607 1216.09 174.607 1222.1 179.911C1224.75 183.094 1225.98 187.161 1225.81 191.227V196.355H1216.8V190.697C1216.8 186.807 1215.21 184.685 1211.85 184.685C1208.49 184.685 1206.9 186.63 1206.9 190.697V223.76C1206.9 227.65 1208.49 229.595 1211.85 229.595C1215.21 229.595 1216.8 227.65 1216.8 223.76V211.914H1212.03V203.25H1225.81V223.053C1226.16 227.12 1224.75 231.186 1222.1 234.369C1216.09 239.673 1207.08 239.673 1201.07 234.369Z" fill="#004C92"/>
<path d="M1256.9 176.906H1268.91L1278.09 213.152V176.906H1286.57V237.375H1276.86L1265.38 193.172V237.375H1256.9V176.906Z" fill="#004C92"/>
<path d="M1319.61 233.308C1317.13 230.125 1315.72 226.059 1316.07 221.992V218.456H1325.08V222.522C1325.08 226.412 1326.67 228.357 1330.03 228.357C1331.44 228.357 1332.68 228.004 1333.74 226.943C1334.62 225.528 1335.15 223.937 1334.98 222.346C1334.98 220.047 1334.45 217.749 1333.21 215.627C1331.44 212.975 1329.32 210.676 1326.85 208.731C1323.67 206.079 1320.84 202.897 1318.72 199.36C1317.13 196.531 1316.43 193.172 1316.43 189.813C1316.25 185.746 1317.49 181.856 1319.96 178.674C1322.79 175.845 1326.67 174.43 1330.56 174.784C1334.45 174.43 1338.16 176.022 1340.81 178.674C1343.28 181.856 1344.52 185.923 1344.34 189.99V192.465H1335.33V189.459C1335.33 187.868 1334.98 186.276 1334.09 184.862C1333.21 183.801 1331.97 183.271 1330.56 183.448C1327.38 183.448 1325.79 185.392 1325.79 189.282C1325.79 191.404 1326.32 193.526 1327.56 195.471C1329.32 198.123 1331.44 200.421 1333.92 202.366C1337.1 205.018 1339.92 208.201 1342.22 211.737C1343.81 214.743 1344.52 218.279 1344.52 221.638C1344.52 226.589 1343.28 230.479 1340.81 233.131C1337.98 235.96 1334.09 237.375 1330.21 237.021C1326.32 237.375 1322.43 235.783 1319.61 232.954V233.308Z" fill="#004C92"/>
<path d="M690.5 276L538.606 140.589L508.292 149.994L373 0.5L222.5 137.5L217 129.5L200 133L160 104L2 274.5L126.469 164.899L133.687 180.692L117.808 199.502L138.198 224.523L113.658 249.898H140.5L192.332 200.389L208 207L359.063 48.3145L380.536 140.589L324.057 187.79L294.464 242.978L269.021 265.336H300L345.53 208.552L468.413 203.406L487.54 251.495L517 265.336L549.5 203.406L690.5 276Z" fill="#004C92"/>
<path d="M674.632 132.961C670.746 128.718 668.803 122.529 668.803 114.573V108.915H683.465V115.634C683.465 121.999 686.115 125.182 691.591 125.182C693.887 125.182 696.007 124.474 697.597 122.883C699.187 120.761 699.893 117.932 699.54 115.28C699.54 111.39 698.657 107.677 696.714 104.318C693.887 100.075 690.354 96.1847 686.291 93.0021C680.992 88.5819 676.399 83.4544 672.866 77.6197C670.216 72.8458 668.979 67.5415 668.979 62.0604C668.979 54.2808 670.923 48.2693 674.986 43.849C679.049 39.4288 684.701 37.4839 692.297 37.4839C699.717 37.4839 705.37 39.6056 709.256 43.849C713.142 48.0925 714.909 54.2808 714.909 62.2372V66.3039H700.247V61.1764C700.423 58.5242 699.717 55.8721 698.304 53.7504C696.89 52.1591 694.77 51.275 692.474 51.4519C687.351 51.4519 684.701 54.6344 684.701 60.9996C684.701 64.5358 685.761 68.072 687.528 71.0777C690.531 75.3212 694.064 79.211 698.127 82.3936C704.663 88.0515 709.079 93.1789 711.552 97.776C714.025 102.903 715.439 108.385 715.262 114.042C715.262 122.176 713.319 128.364 709.256 132.784C705.193 137.205 699.363 139.326 691.767 139.326C684.171 139.326 678.519 137.205 674.632 132.961Z" fill="#119CE2"/>
<path d="M738.756 132.961C734.693 128.541 732.75 122.529 732.75 114.573V62.4141C732.75 54.4576 734.693 48.4461 738.756 44.0258C742.819 39.6056 748.649 37.4839 756.245 37.4839C763.841 37.4839 769.67 39.6056 773.733 44.0258C777.796 48.4461 779.739 54.4576 779.739 62.4141V114.573C779.739 122.529 777.796 128.541 773.733 132.961C769.67 137.205 763.841 139.503 756.245 139.503C748.649 139.503 742.819 137.381 738.756 132.961ZM764.371 115.634V61.53C764.371 54.988 761.721 51.8055 756.245 51.8055C750.768 51.8055 748.119 54.988 748.119 61.53V115.634C748.119 122.176 750.768 125.358 756.245 125.358C761.544 125.358 764.371 121.999 764.371 115.634Z" fill="#119CE2"/>
<path d="M805.707 132.961C801.821 128.718 799.701 122.529 799.701 114.573V39.0752H815.246V115.811C815.07 118.463 815.776 121.115 817.366 123.237C820.723 126.242 825.846 126.242 829.025 123.237C830.615 121.115 831.322 118.463 831.145 115.811V39.0752H846.16V114.573C846.16 122.529 844.217 128.718 840.154 132.961C836.091 137.205 830.438 139.326 822.842 139.326C815.246 139.326 809.594 137.205 805.531 132.961H805.707Z" fill="#119CE2"/>
<path d="M879.194 53.22H862.942V39.0752H910.992V53.22H894.74V138.089H879.194V53.22Z" fill="#119CE2"/>
<path d="M928.304 39.0752H943.849V79.3878H960.454V39.0752H976V138.089H960.454V93.5326H943.849V138.089H928.304V39.0752Z" fill="#119CE2"/>
<path d="M997.728 39.0752H1040.12V53.22H1013.27V79.3878H1034.65V93.5326H1013.27V123.944H1040.12V138.089H997.728V39.0752Z" fill="#119CE2"/>
<path d="M1058.85 39.0752H1081.81C1089.76 39.0752 1095.59 41.0201 1099.3 44.7331C1103.01 48.4461 1104.78 54.104 1104.78 61.8836V67.8952C1104.78 78.1501 1101.42 84.6921 1094.53 87.3443V87.6979C1098.07 88.5819 1101.07 91.2341 1102.48 94.5934C1104.25 99.0137 1104.95 103.788 1104.78 108.561V125.889C1104.78 128.187 1104.78 130.486 1105.13 132.784C1105.31 134.552 1105.84 136.321 1106.54 137.912H1090.65C1090.12 136.497 1089.76 134.906 1089.59 133.315C1089.41 130.839 1089.23 128.187 1089.23 125.712V107.854C1089.23 103.257 1088.53 100.251 1087.11 98.3065C1085.7 96.3615 1083.05 95.6543 1079.52 95.6543H1074.22V138.089H1058.67V39.0752H1058.85ZM1080.05 81.5095C1082.7 81.6863 1085.17 80.8023 1087.11 79.0342C1088.7 77.4429 1089.41 74.7908 1089.41 70.9009V63.2981C1089.59 60.646 1088.88 57.817 1087.47 55.5185C1085.88 53.7504 1083.76 52.8664 1081.46 53.0432H1074.39V81.3327H1080.05V81.5095Z" fill="#119CE2"/>
<path d="M1125.62 39.0752H1145.05L1160.25 98.3065H1160.6V39.0752H1174.38V138.089H1158.48L1139.93 65.7735H1139.58V138.089H1125.8V39.0752H1125.62Z" fill="#119CE2"/>
<path d="M1240.62 53.22H1224.37V39.0752H1272.42V53.22H1256.17V138.089H1240.62V53.22Z" fill="#119CE2"/>
<path d="M1289.73 39.0752H1305.45V138.089H1289.91V39.0752H1289.73Z" fill="#119CE2"/>
<path d="M1326.83 39.0752H1369.23V53.22H1342.37V79.3878H1363.75V93.5326H1342.37V123.944H1369.23V138.089H1326.83V39.0752Z" fill="#119CE2"/>
<path d="M1388.13 39.0752H1411.09C1419.04 39.0752 1424.87 41.0201 1428.58 44.7331C1432.29 48.4461 1434.06 54.104 1434.06 61.8836V67.8952C1434.06 78.1501 1430.7 84.6921 1423.81 87.3443V87.6979C1427.34 88.5819 1430.35 91.2341 1431.76 94.5934C1433.53 99.0137 1434.23 103.788 1434.06 108.561V125.889C1434.06 128.187 1434.06 130.486 1434.41 132.784C1434.59 134.552 1435.12 136.321 1435.82 137.912H1419.93C1419.4 136.497 1419.04 134.906 1418.87 133.315C1418.69 130.839 1418.51 128.187 1418.51 125.712V107.854C1418.51 103.257 1417.81 100.251 1416.39 98.3065C1414.98 96.3615 1412.33 95.6543 1408.8 95.6543H1403.5V138.089H1387.95V39.0752H1388.13ZM1409.33 81.5095C1411.98 81.6863 1414.45 80.8023 1416.39 79.0342C1417.81 77.4429 1418.51 74.7908 1418.51 70.9009V63.2981C1418.69 60.646 1417.98 57.817 1416.57 55.5185C1414.98 53.7504 1412.86 52.8664 1410.56 53.0432H1403.5V81.3327H1409.15L1409.33 81.5095Z" fill="#119CE2"/>
<path d="M751.829 172.39H761.015L765.255 218.891H765.431L769.847 172.39H780.27L784.686 218.891L788.926 172.39H797.052L790.869 232.859H779.033L774.794 192.016H774.617L770.377 232.859H757.835L751.652 172.39H751.829Z" fill="#119CE2"/>
<path d="M827.259 172.39H853.227V181.053H836.798V197.143H849.87V205.807H836.798V224.372H853.227V233.035H827.259V172.566V172.39Z" fill="#119CE2"/>
<path d="M883.61 172.39H897.919C902.865 172.39 906.398 173.451 908.695 175.749C910.991 178.048 912.051 181.584 912.051 186.181V188.656C912.051 191.308 911.698 193.96 910.461 196.259C909.578 198.204 907.811 199.618 905.868 200.502C910.638 202.271 912.934 206.514 912.934 213.233V218.36C913.111 222.25 911.874 226.14 909.225 228.969C906.752 231.444 903.219 232.682 898.449 232.682H883.434V172.213L883.61 172.39ZM896.859 196.966C898.449 196.966 900.039 196.613 901.099 195.552C902.159 194.137 902.689 192.369 902.512 190.601V187.242C902.512 185.65 902.159 183.882 901.275 182.468C900.392 181.407 898.979 180.877 897.566 181.053H892.973V197.143H896.682L896.859 196.966ZM898.626 224.195C900.039 224.195 901.275 223.841 902.335 222.78C903.219 221.366 903.749 219.775 903.572 218.183V212.879C903.749 210.934 903.219 208.812 902.159 207.044C900.922 205.807 899.156 205.276 897.389 205.453H893.149V224.018H898.626V224.195Z" fill="#119CE2"/>
<path d="M982.359 172.39H996.845C1001.61 172.39 1005.15 173.627 1007.44 176.279C1009.74 178.755 1010.98 182.468 1010.98 187.418V218.183C1010.98 223.134 1009.74 226.847 1007.44 229.322C1005.15 231.798 1001.61 233.035 996.845 233.035H982.359V172.39ZM996.845 224.195C998.081 224.195 999.495 223.841 1000.38 222.78C1001.26 221.543 1001.79 219.951 1001.61 218.36V186.888C1001.61 185.297 1001.26 183.705 1000.38 182.468C999.495 181.584 998.081 181.053 996.845 181.053H992.075V224.372H996.845V224.195Z" fill="#119CE2"/>
<path d="M1042.6 172.39H1068.57V181.053H1052.14V197.143H1065.21V205.807H1052.14V224.372H1068.57V233.035H1042.6V172.566V172.39Z" fill="#119CE2"/>
<path d="M1101.07 229.853C1098.6 226.67 1097.18 222.604 1097.54 218.537V215.001H1106.55V219.067C1106.55 222.957 1108.14 224.902 1111.49 224.902C1112.9 224.902 1114.14 224.549 1115.2 223.488C1116.08 222.073 1116.61 220.482 1116.44 218.891C1116.44 216.592 1115.91 214.294 1114.67 212.172C1112.9 209.52 1110.79 207.221 1108.31 205.276C1105.13 202.624 1102.31 199.442 1100.19 195.905C1098.6 193.076 1097.89 189.717 1097.89 186.358C1097.71 182.291 1098.95 178.401 1101.42 175.219C1104.25 172.39 1108.14 170.975 1112.02 171.329C1115.91 170.975 1119.62 172.566 1122.27 175.219C1124.74 178.401 1125.98 182.468 1125.8 186.534V189.01H1116.79V186.004C1116.79 184.413 1116.44 182.821 1115.55 181.407C1114.67 180.346 1113.43 179.816 1112.02 179.992C1108.84 179.992 1107.25 181.937 1107.25 185.827C1107.25 187.949 1107.78 190.071 1109.02 192.016C1110.79 194.668 1112.9 196.966 1115.38 198.911C1118.56 201.563 1121.38 204.746 1123.68 208.282C1125.27 211.288 1125.98 214.824 1125.98 218.183C1125.98 223.134 1124.74 227.024 1122.27 229.676C1119.44 232.505 1115.55 233.919 1111.67 233.566C1107.78 233.919 1103.9 232.328 1101.07 229.499V229.853Z" fill="#119CE2"/>
<path d="M1156.36 172.39H1165.9V232.859H1156.36V172.39Z" fill="#119CE2"/>
<path d="M1200.88 229.853C1198.23 226.67 1196.99 222.603 1197.34 218.537V186.711C1197.34 181.76 1198.58 178.047 1200.88 175.395C1206.88 170.091 1215.89 170.091 1221.9 175.395C1224.55 178.578 1225.79 182.644 1225.61 186.711V191.839H1216.6V186.181C1216.6 182.291 1215.01 180.169 1211.65 180.169C1208.3 180.169 1206.71 182.114 1206.71 186.181V219.244C1206.71 223.134 1208.3 225.079 1211.65 225.079C1215.01 225.079 1216.6 223.134 1216.6 219.244V207.398H1211.83V198.734H1225.61V218.537C1225.96 222.603 1224.55 226.67 1221.9 229.853C1215.89 235.157 1206.88 235.157 1200.88 229.853Z" fill="#119CE2"/>
<path d="M1256.7 172.39H1268.71L1277.9 208.636V172.39H1286.38V232.859H1276.66L1265.18 188.656V232.859H1256.7V172.39Z" fill="#119CE2"/>
<path d="M690.177 276L541.967 138.088L512.289 147.459L373.795 0L237.42 138.972L218.695 132.077L199.969 138.972L162.343 106.263L0 276L138.495 162.311L145.561 178.047L130.015 196.789L149.977 221.719L125.953 247.003H143.618L202.973 197.673L213.748 201.563L366.199 46.1473L387.22 138.088L331.928 185.12L302.957 240.108L278.049 262.386H301.367L352.95 205.807L473.249 200.679L491.974 248.594L518.472 262.386L552.742 198.911L690.177 276Z" fill="#119CE2"/>
<path d="M1319.41 228.792C1316.94 225.609 1315.52 221.543 1315.88 217.476V213.94H1324.89V218.006C1324.89 221.896 1326.48 223.841 1329.83 223.841C1331.25 223.841 1332.48 223.487 1333.54 222.427C1334.43 221.012 1334.96 219.421 1334.78 217.83C1334.78 215.531 1334.25 213.233 1333.01 211.111C1331.25 208.459 1329.13 206.16 1326.65 204.215C1323.47 201.563 1320.65 198.38 1318.53 194.844C1316.94 192.015 1316.23 188.656 1316.23 185.297C1316.05 181.23 1317.29 177.34 1319.76 174.158C1322.59 171.329 1326.48 169.914 1330.36 170.268C1334.25 169.914 1337.96 171.505 1340.61 174.158C1343.08 177.34 1344.32 181.407 1344.14 185.473V187.949H1335.13V184.943C1335.13 183.352 1334.78 181.76 1333.9 180.346C1333.01 179.285 1331.78 178.755 1330.36 178.931C1327.18 178.931 1325.59 180.876 1325.59 184.766C1325.59 186.888 1326.12 189.01 1327.36 190.954C1329.13 193.607 1331.25 195.905 1333.72 197.85C1336.9 200.502 1339.72 203.685 1342.02 207.221C1343.61 210.227 1344.32 213.763 1344.32 217.122C1344.32 222.073 1343.08 225.963 1340.61 228.615C1337.78 231.444 1333.9 232.858 1330.01 232.505C1326.12 232.858 1322.24 231.267 1319.41 228.438V228.792Z" fill="#119CE2"/>
</g>
<defs>
<clipPath id="clip0_301_127">
<rect width="1436" height="276" fill="white"/>
</clipPath>
</defs>
</svg>
