<?xml version="1.0" encoding="UTF-8" standalone="no"?>
<!-- Created with Inkscape (http://www.inkscape.org/) -->

<svg
   version="1.1"
   id="svg7917"
   xml:space="preserve"
   width="682.66669"
   height="682.66669"
   viewBox="0 0 682.66669 682.66669"
   xmlns="http://www.w3.org/2000/svg"
   xmlns:svg="http://www.w3.org/2000/svg"><defs
     id="defs7921"><clipPath
       clipPathUnits="userSpaceOnUse"
       id="clipPath7931"><path
         d="M 0,512 H 512 V 0 H 0 Z"
         id="path7929" /></clipPath></defs><g
     id="g7923"
     transform="matrix(1.3333333,0,0,-1.3333333,0,682.66667)"><g
       id="g7925"><g
         id="g7927"
         clip-path="url(#clipPath7931)"><g
           id="g7933"
           transform="translate(434.74,238.5)"><path
             d="m 0,0 -64.61,-111.9 -9.61,-16.64 c -6.25,-10.83 -17.8,-17.5 -30.31,-17.5 h -148.42 c -12.51,0 -24.06,6.67 -30.31,17.5 l -9.61,16.64 L -357.48,0 c -6.25,10.83 -6.25,24.17 0,35 l 63.03,109.16 11.19,19.38 c 6.25,10.83 17.8,17.5 30.31,17.5 h 148.42 c 12.51,0 24.06,-6.67 30.31,-17.5 L -63.03,144.16 0,35 C 6.25,24.17 6.25,10.83 0,0"
             style="fill:#99e6fc;fill-opacity:1;fill-rule:nonzero;stroke:none"
             id="path7935" /></g><g
           id="g7937"
           transform="translate(176.48,109.96)"><path
             d="m 0,0 -9.61,16.64 -64.61,111.9 c -6.25,10.83 -6.25,24.17 0,35 L -11.19,272.7 0,292.08 c 6.25,10.83 17.8,17.5 30.31,17.5 h -25 c -12.51,0 -24.06,-6.67 -30.31,-17.5 L -36.19,272.7 -99.22,163.54 c -6.25,-10.83 -6.25,-24.17 0,-35 L -34.61,16.64 -25,0 c 6.25,-10.83 17.8,-17.5 30.31,-17.5 h 25 C 17.8,-17.5 6.25,-10.83 0,0"
             style="fill:#62dbfb;fill-opacity:1;fill-rule:nonzero;stroke:none"
             id="path7939" /></g><g
           id="g7941"
           transform="translate(43.5,464.5)"><path
             d="m 0,0 h -32 c -2.209,0 -4,1.791 -4,4 v 32 c 0,2.209 1.791,4 4,4 H 0 c 2.209,0 4,-1.791 4,-4 V 4 C 4,1.791 2.209,0 0,0"
             style="fill:#7ca1b1;fill-opacity:1;fill-rule:nonzero;stroke:none"
             id="path7943" /></g><g
           id="g7945"
           transform="translate(272,464.5)"><path
             d="m 0,0 h -32 c -2.209,0 -4,1.791 -4,4 v 32 c 0,2.209 1.791,4 4,4 H 0 c 2.209,0 4,-1.791 4,-4 V 4 C 4,1.791 2.209,0 0,0"
             style="fill:#7ca1b1;fill-opacity:1;fill-rule:nonzero;stroke:none"
             id="path7947" /></g><g
           id="g7949"
           transform="translate(500.5,464.5)"><path
             d="m 0,0 h -32 c -2.209,0 -4,1.791 -4,4 v 32 c 0,2.209 1.791,4 4,4 H 0 c 2.209,0 4,-1.791 4,-4 V 4 C 4,1.791 2.209,0 0,0"
             style="fill:#7ca1b1;fill-opacity:1;fill-rule:nonzero;stroke:none"
             id="path7951" /></g><g
           id="g7953"
           transform="translate(43.5,7.5)"><path
             d="m 0,0 h -32 c -2.209,0 -4,1.791 -4,4 v 32 c 0,2.209 1.791,4 4,4 H 0 c 2.209,0 4,-1.791 4,-4 V 4 C 4,1.791 2.209,0 0,0"
             style="fill:#7ca1b1;fill-opacity:1;fill-rule:nonzero;stroke:none"
             id="path7955" /></g><g
           id="g7957"
           transform="translate(43.5,7.5)"><path
             d="m 0,0 h -32 c -2.209,0 -4,1.791 -4,4 v 32 c 0,2.209 1.791,4 4,4 H 0 c 2.209,0 4,-1.791 4,-4 V 4 C 4,1.791 2.209,0 0,0"
             style="fill:#7ca1b1;fill-opacity:1;fill-rule:nonzero;stroke:none"
             id="path7959" /></g><g
           id="g7961"
           transform="translate(43.5,236)"><path
             d="m 0,0 h -32 c -2.209,0 -4,1.791 -4,4 v 32 c 0,2.209 1.791,4 4,4 H 0 c 2.209,0 4,-1.791 4,-4 V 4 C 4,1.791 2.209,0 0,0"
             style="fill:#7ca1b1;fill-opacity:1;fill-rule:nonzero;stroke:none"
             id="path7963" /></g><g
           id="g7965"
           transform="translate(43.5,236)"><path
             d="m 0,0 h -32 c -2.209,0 -4,1.791 -4,4 v 32 c 0,2.209 1.791,4 4,4 H 0 c 2.209,0 4,-1.791 4,-4 V 4 C 4,1.791 2.209,0 0,0"
             style="fill:#7ca1b1;fill-opacity:1;fill-rule:nonzero;stroke:none"
             id="path7967" /></g><g
           id="g7969"
           transform="translate(272,7.5)"><path
             d="m 0,0 h -32 c -2.209,0 -4,1.791 -4,4 v 32 c 0,2.209 1.791,4 4,4 H 0 c 2.209,0 4,-1.791 4,-4 V 4 C 4,1.791 2.209,0 0,0"
             style="fill:#7ca1b1;fill-opacity:1;fill-rule:nonzero;stroke:none"
             id="path7971" /></g><g
           id="g7973"
           transform="translate(500.5,7.5)"><path
             d="m 0,0 h -32 c -2.209,0 -4,1.791 -4,4 v 32 c 0,2.209 1.791,4 4,4 H 0 c 2.209,0 4,-1.791 4,-4 V 4 C 4,1.791 2.209,0 0,0"
             style="fill:#7ca1b1;fill-opacity:1;fill-rule:nonzero;stroke:none"
             id="path7975" /></g><g
           id="g7977"
           transform="translate(500.5,236)"><path
             d="m 0,0 h -32 c -2.209,0 -4,1.791 -4,4 v 32 c 0,2.209 1.791,4 4,4 H 0 c 2.209,0 4,-1.791 4,-4 V 4 C 4,1.791 2.209,0 0,0"
             style="fill:#7ca1b1;fill-opacity:1;fill-rule:nonzero;stroke:none"
             id="path7979" /></g><g
           id="g7981"
           transform="translate(371.71,382.66)"><path
             d="m 0,0 h -231.42 l 11.19,19.38 c 6.25,10.83 17.8,17.5 30.31,17.5 H -41.5 c 12.51,0 24.06,-6.67 30.31,-17.5 z"
             style="fill:#27a5fe;fill-opacity:1;fill-rule:nonzero;stroke:none"
             id="path7983" /></g><g
           id="g7985"
           transform="translate(370.13,126.6001)"><path
             d="m 0,0 -9.61,-16.64 c -6.25,-10.83 -17.8,-17.5 -30.31,-17.5 h -148.42 c -12.51,0 -24.06,6.67 -30.31,17.5 L -228.26,0 Z"
             style="fill:#27a5fe;fill-opacity:1;fill-rule:nonzero;stroke:none"
             id="path7987" /></g><g
           id="g7989"
           transform="translate(304.1104,320.2246)"><path
             d="M 0,0 H -84.703 C -91.725,0 -97.788,5.396 -98.097,12.412 -98.426,19.859 -92.485,26 -85.11,26 H -0.408 C 6.615,26 12.678,20.604 12.987,13.588 13.315,6.141 7.375,0 0,0"
             style="fill:#27a5fe;fill-opacity:1;fill-rule:nonzero;stroke:none"
             id="path7991" /></g><g
           id="g7993"
           transform="translate(304.1104,164.4102)"><path
             d="M 0,0 H -84.703 C -91.725,0 -97.788,5.396 -98.097,12.412 -98.426,19.859 -92.485,26 -85.11,26 H -0.408 C 6.615,26 12.678,20.604 12.987,13.588 13.315,6.141 7.375,0 0,0"
             style="fill:#27a5fe;fill-opacity:1;fill-rule:nonzero;stroke:none"
             id="path7995" /></g><g
           id="g7997"
           transform="translate(206.79,419.54)"><path
             d="M 0,0 H -25 C -37.51,0 -49.06,-6.67 -55.31,-17.5 L -66.5,-36.88 h 25 l 11.19,19.38 C -24.06,-6.67 -12.51,0 0,0"
             style="fill:#0593fc;fill-opacity:1;fill-rule:nonzero;stroke:none"
             id="path7999" /></g><g
           id="g8001"
           transform="translate(176.48,109.96)"><path
             d="m 0,0 -9.61,16.64 h -25 L -25,0 c 6.25,-10.83 17.8,-17.5 30.31,-17.5 h 25 C 17.8,-17.5 6.25,-10.83 0,0"
             style="fill:#0593fc;fill-opacity:1;fill-rule:nonzero;stroke:none"
             id="path8003" /></g><g
           id="g8005"
           transform="translate(231.013,332.6364)"><path
             d="m 0,0 c -0.328,7.447 5.612,13.588 12.987,13.588 h -25 C -19.388,13.588 -25.328,7.447 -25,0 c 0.309,-7.016 6.372,-12.412 13.395,-12.412 h 25 C 6.372,-12.412 0.309,-7.016 0,0"
             style="fill:#0593fc;fill-opacity:1;fill-rule:nonzero;stroke:none"
             id="path8007" /></g><g
           id="g8009"
           transform="translate(231.013,176.8219)"><path
             d="m 0,0 c -0.328,7.447 5.612,13.588 12.987,13.588 h -25 C -19.388,13.588 -25.328,7.447 -25,0 c 0.309,-7.016 6.372,-12.412 13.395,-12.412 h 25 C 6.372,-12.412 0.309,-7.016 0,0"
             style="fill:#0593fc;fill-opacity:1;fill-rule:nonzero;stroke:none"
             id="path8011" /></g><g
           id="g8013"
           transform="translate(43.5,464.5)"><path
             d="m 0,0 h -32 c -2.209,0 -4,1.791 -4,4 v 32 c 0,2.209 1.791,4 4,4 H 0 c 2.209,0 4,-1.791 4,-4 V 4 C 4,1.791 2.209,0 0,0 Z"
             style="fill:none;stroke:#000000;stroke-width:15;stroke-linecap:round;stroke-linejoin:round;stroke-miterlimit:10;stroke-dasharray:none;stroke-opacity:1"
             id="path8015" /></g><g
           id="g8017"
           transform="translate(272,464.5)"><path
             d="m 0,0 h -32 c -2.209,0 -4,1.791 -4,4 v 32 c 0,2.209 1.791,4 4,4 H 0 c 2.209,0 4,-1.791 4,-4 V 4 C 4,1.791 2.209,0 0,0 Z"
             style="fill:none;stroke:#000000;stroke-width:15;stroke-linecap:round;stroke-linejoin:round;stroke-miterlimit:10;stroke-dasharray:none;stroke-opacity:1"
             id="path8019" /></g><g
           id="g8021"
           transform="translate(500.5,464.5)"><path
             d="m 0,0 h -32 c -2.209,0 -4,1.791 -4,4 v 32 c 0,2.209 1.791,4 4,4 H 0 c 2.209,0 4,-1.791 4,-4 V 4 C 4,1.791 2.209,0 0,0 Z"
             style="fill:none;stroke:#000000;stroke-width:15;stroke-linecap:round;stroke-linejoin:round;stroke-miterlimit:10;stroke-dasharray:none;stroke-opacity:1"
             id="path8023" /></g><g
           id="g8025"
           transform="translate(43.5,7.5)"><path
             d="m 0,0 h -32 c -2.209,0 -4,1.791 -4,4 v 32 c 0,2.209 1.791,4 4,4 H 0 c 2.209,0 4,-1.791 4,-4 V 4 C 4,1.791 2.209,0 0,0 Z"
             style="fill:none;stroke:#000000;stroke-width:15;stroke-linecap:round;stroke-linejoin:round;stroke-miterlimit:10;stroke-dasharray:none;stroke-opacity:1"
             id="path8027" /></g><g
           id="g8029"
           transform="translate(43.5,7.5)"><path
             d="m 0,0 h -32 c -2.209,0 -4,1.791 -4,4 v 32 c 0,2.209 1.791,4 4,4 H 0 c 2.209,0 4,-1.791 4,-4 V 4 C 4,1.791 2.209,0 0,0 Z"
             style="fill:none;stroke:#000000;stroke-width:15;stroke-linecap:round;stroke-linejoin:round;stroke-miterlimit:10;stroke-dasharray:none;stroke-opacity:1"
             id="path8031" /></g><g
           id="g8033"
           transform="translate(43.5,236)"><path
             d="m 0,0 h -32 c -2.209,0 -4,1.791 -4,4 v 32 c 0,2.209 1.791,4 4,4 H 0 c 2.209,0 4,-1.791 4,-4 V 4 C 4,1.791 2.209,0 0,0 Z"
             style="fill:none;stroke:#000000;stroke-width:15;stroke-linecap:round;stroke-linejoin:round;stroke-miterlimit:10;stroke-dasharray:none;stroke-opacity:1"
             id="path8035" /></g><g
           id="g8037"
           transform="translate(43.5,236)"><path
             d="m 0,0 h -32 c -2.209,0 -4,1.791 -4,4 v 32 c 0,2.209 1.791,4 4,4 H 0 c 2.209,0 4,-1.791 4,-4 V 4 C 4,1.791 2.209,0 0,0 Z"
             style="fill:none;stroke:#000000;stroke-width:15;stroke-linecap:round;stroke-linejoin:round;stroke-miterlimit:10;stroke-dasharray:none;stroke-opacity:1"
             id="path8039" /></g><g
           id="g8041"
           transform="translate(272,7.5)"><path
             d="m 0,0 h -32 c -2.209,0 -4,1.791 -4,4 v 32 c 0,2.209 1.791,4 4,4 H 0 c 2.209,0 4,-1.791 4,-4 V 4 C 4,1.791 2.209,0 0,0 Z"
             style="fill:none;stroke:#000000;stroke-width:15;stroke-linecap:round;stroke-linejoin:round;stroke-miterlimit:10;stroke-dasharray:none;stroke-opacity:1"
             id="path8043" /></g><g
           id="g8045"
           transform="translate(500.5,7.5)"><path
             d="m 0,0 h -32 c -2.209,0 -4,1.791 -4,4 v 32 c 0,2.209 1.791,4 4,4 H 0 c 2.209,0 4,-1.791 4,-4 V 4 C 4,1.791 2.209,0 0,0 Z"
             style="fill:none;stroke:#000000;stroke-width:15;stroke-linecap:round;stroke-linejoin:round;stroke-miterlimit:10;stroke-dasharray:none;stroke-opacity:1"
             id="path8047" /></g><g
           id="g8049"
           transform="translate(500.5,236)"><path
             d="m 0,0 h -32 c -2.209,0 -4,1.791 -4,4 v 32 c 0,2.209 1.791,4 4,4 H 0 c 2.209,0 4,-1.791 4,-4 V 4 C 4,1.791 2.209,0 0,0 Z"
             style="fill:none;stroke:#000000;stroke-width:15;stroke-linecap:round;stroke-linejoin:round;stroke-miterlimit:10;stroke-dasharray:none;stroke-opacity:1"
             id="path8051" /></g><g
           id="g8053"
           transform="translate(236,27.5)"><path
             d="M 0,0 H -188.5"
             style="fill:none;stroke:#000000;stroke-width:15;stroke-linecap:round;stroke-linejoin:round;stroke-miterlimit:10;stroke-dasharray:none;stroke-opacity:1"
             id="path8055" /></g><g
           id="g8057"
           transform="translate(464.5,27.5)"><path
             d="M 0,0 H -188.5"
             style="fill:none;stroke:#000000;stroke-width:15;stroke-linecap:round;stroke-linejoin:round;stroke-miterlimit:10;stroke-dasharray:none;stroke-opacity:1"
             id="path8059" /></g><g
           id="g8061"
           transform="translate(484.5,47.5)"><path
             d="M 0,0 V 188.5"
             style="fill:none;stroke:#000000;stroke-width:15;stroke-linecap:round;stroke-linejoin:round;stroke-miterlimit:10;stroke-dasharray:none;stroke-opacity:1"
             id="path8063" /></g><g
           id="g8065"
           transform="translate(484.5,276)"><path
             d="M 0,0 V 188.5"
             style="fill:none;stroke:#000000;stroke-width:15;stroke-linecap:round;stroke-linejoin:round;stroke-miterlimit:10;stroke-dasharray:none;stroke-opacity:1"
             id="path8067" /></g><g
           id="g8069"
           transform="translate(464.5,484.5)"><path
             d="M 0,0 H -188.5"
             style="fill:none;stroke:#000000;stroke-width:15;stroke-linecap:round;stroke-linejoin:round;stroke-miterlimit:10;stroke-dasharray:none;stroke-opacity:1"
             id="path8071" /></g><g
           id="g8073"
           transform="translate(236,484.5)"><path
             d="M 0,0 H -188.5"
             style="fill:none;stroke:#000000;stroke-width:15;stroke-linecap:round;stroke-linejoin:round;stroke-miterlimit:10;stroke-dasharray:none;stroke-opacity:1"
             id="path8075" /></g><g
           id="g8077"
           transform="translate(27.5,276)"><path
             d="M 0,0 V 188.5"
             style="fill:none;stroke:#000000;stroke-width:15;stroke-linecap:round;stroke-linejoin:round;stroke-miterlimit:10;stroke-dasharray:none;stroke-opacity:1"
             id="path8079" /></g><g
           id="g8081"
           transform="translate(27.5,47.5)"><path
             d="M 0,0 V 188.5"
             style="fill:none;stroke:#000000;stroke-width:15;stroke-linecap:round;stroke-linejoin:round;stroke-miterlimit:10;stroke-dasharray:none;stroke-opacity:1"
             id="path8083" /></g><g
           id="g8085"
           transform="translate(414.1,202.75)"><path
             d="m 0,0 20.64,35.75 c 6.25,10.83 6.25,24.17 0,35 l -63.03,109.16 -11.19,19.38 c -6.25,10.83 -17.8,17.5 -30.31,17.5 h -148.42 c -12.51,0 -24.06,-6.67 -30.31,-17.5 l -11.19,-19.38 -63.03,-109.16 c -6.25,-10.83 -6.25,-24.17 0,-35 l 64.61,-111.9 9.61,-16.64 c 6.25,-10.83 17.8,-17.5 30.31,-17.5 h 148.42 c 12.51,0 24.06,6.67 30.31,17.5 l 9.61,16.64 25.85,44.78"
             style="fill:none;stroke:#000000;stroke-width:15;stroke-linecap:round;stroke-linejoin:round;stroke-miterlimit:10;stroke-dasharray:none;stroke-opacity:1"
             id="path8087" /></g><g
           id="g8089"
           transform="translate(196.65,382.66)"><path
             d="M 0,0 H -56.36"
             style="fill:none;stroke:#000000;stroke-width:15;stroke-linecap:round;stroke-linejoin:round;stroke-miterlimit:10;stroke-dasharray:none;stroke-opacity:1"
             id="path8091" /></g><g
           id="g8093"
           transform="translate(371.71,382.66)"><path
             d="M 0,0 H -140.06"
             style="fill:none;stroke:#000000;stroke-width:15;stroke-linecap:round;stroke-linejoin:round;stroke-miterlimit:10;stroke-dasharray:none;stroke-opacity:1"
             id="path8095" /></g><g
           id="g8097"
           transform="translate(370.13,126.6)"><path
             d="M 0,0 H -228.26"
             style="fill:none;stroke:#000000;stroke-width:15;stroke-linecap:round;stroke-linejoin:round;stroke-miterlimit:10;stroke-dasharray:none;stroke-opacity:1"
             id="path8099" /></g><g
           id="g8101"
           transform="translate(127.3196,283.7852)"><path
             d="m 0,0 v -54.554 c 0,-0.546 0.437,-0.993 0.983,-1 3.978,-0.051 18.476,0.03 18.476,0.03"
             style="fill:none;stroke:#000000;stroke-width:15;stroke-linecap:round;stroke-linejoin:round;stroke-miterlimit:10;stroke-dasharray:none;stroke-opacity:1"
             id="path8103" /></g><g
           id="g8105"
           transform="translate(295.6693,279.04)"><path
             d="M 0,0 C -5.019,3.391 -11.205,5.185 -17.83,4.653 -31.393,3.565 -42.302,-7.47 -43.25,-21.044 c -1.135,-16.248 11.71,-29.781 27.715,-29.781 15.041,0 23.64,11.951 23.975,26.875 0.012,0.499 -0.399,0.91 -0.898,0.91 H -8.173"
             style="fill:none;stroke:#000000;stroke-width:15;stroke-linecap:round;stroke-linejoin:round;stroke-miterlimit:10;stroke-dasharray:none;stroke-opacity:1"
             id="path8107" /></g><g
           id="g8109"
           transform="translate(384.6804,256)"><path
             d="m 0,0 c 0,-15.345 -12.44,-27.785 -27.785,-27.785 -15.346,0 -27.785,12.44 -27.785,27.785 0,15.345 12.439,27.785 27.785,27.785 C -12.44,27.785 0,15.345 0,0 Z"
             style="fill:none;stroke:#000000;stroke-width:15;stroke-linecap:round;stroke-linejoin:round;stroke-miterlimit:10;stroke-dasharray:none;stroke-opacity:1"
             id="path8111" /></g><g
           id="g8113"
           transform="translate(227.3491,256)"><path
             d="m 0,0 c 0,-15.345 -12.44,-27.785 -27.785,-27.785 -15.346,0 -27.785,12.44 -27.785,27.785 0,15.345 12.439,27.785 27.785,27.785 C -12.44,27.785 0,15.345 0,0 Z"
             style="fill:none;stroke:#000000;stroke-width:15;stroke-linecap:round;stroke-linejoin:round;stroke-miterlimit:10;stroke-dasharray:none;stroke-opacity:1"
             id="path8115" /></g><g
           id="g8117"
           transform="translate(304.1104,320.2246)"><path
             d="M 0,0 H -84.703 C -91.725,0 -97.788,5.396 -98.097,12.412 -98.426,19.859 -92.485,26 -85.11,26 H -0.408 C 6.615,26 12.678,20.604 12.987,13.588 13.315,6.141 7.375,0 0,0 Z"
             style="fill:none;stroke:#000000;stroke-width:15;stroke-linecap:round;stroke-linejoin:round;stroke-miterlimit:10;stroke-dasharray:none;stroke-opacity:1"
             id="path8119" /></g><g
           id="g8121"
           transform="translate(304.1104,164.4102)"><path
             d="M 0,0 H -84.703 C -91.725,0 -97.788,5.396 -98.097,12.412 -98.426,19.859 -92.485,26 -85.11,26 H -0.408 C 6.615,26 12.678,20.604 12.987,13.588 13.315,6.141 7.375,0 0,0 Z"
             style="fill:none;stroke:#000000;stroke-width:15;stroke-linecap:round;stroke-linejoin:round;stroke-miterlimit:10;stroke-dasharray:none;stroke-opacity:1"
             id="path8123" /></g></g></g></g></svg>
