<?xml version="1.0" encoding="UTF-8"?>
<svg xmlns="http://www.w3.org/2000/svg" version="1.1" viewBox="0 0 812.9 156.1">
  <defs>
    <style>
      .cls-1 {
        fill: #119ce2;
      }
    </style>
  </defs>
  <!-- Generator: Adobe Illustrator 28.6.0, SVG Export Plug-In . SVG Version: 1.2.0 Build 709)  -->
  <g>
    <g id="Layer_1">
      <g id="Layer_2">
        <g id="Layer_2-2">
          <path class="cls-1" d="M381.9,75.2c-2.2-2.4-3.3-5.9-3.3-10.4v-3.2h8.3v3.8c0,3.6,1.5,5.4,4.6,5.4,1.3,0,2.5-.4,3.4-1.3.9-1.2,1.3-2.8,1.1-4.3,0-2.2-.5-4.3-1.6-6.2-1.6-2.4-3.6-4.6-5.9-6.4-3-2.5-5.6-5.4-7.6-8.7-1.5-2.7-2.2-5.7-2.2-8.8,0-4.4,1.1-7.8,3.4-10.3s5.5-3.6,9.8-3.6c4.2,0,7.4,1.2,9.6,3.6,2.2,2.4,3.2,5.9,3.2,10.4v2.3h-8.3v-2.9c.1-1.5-.3-3-1.1-4.2-.8-.9-2-1.4-3.3-1.3-2.9,0-4.4,1.8-4.4,5.4,0,2,.6,4,1.6,5.7,1.7,2.4,3.7,4.6,6,6.4,3.7,3.2,6.2,6.1,7.6,8.7,1.4,2.9,2.2,6,2.1,9.2,0,4.6-1.1,8.1-3.4,10.6s-5.6,3.7-9.9,3.7c-4.3,0-7.5-1.2-9.7-3.6Z"/>
          <path class="cls-1" d="M418.2,75.2c-2.3-2.5-3.4-5.9-3.4-10.4v-29.5c0-4.5,1.1-7.9,3.4-10.4,2.3-2.5,5.6-3.7,9.9-3.7s7.6,1.2,9.9,3.7,3.4,5.9,3.4,10.4v29.5c0,4.5-1.1,7.9-3.4,10.4-2.3,2.4-5.6,3.7-9.9,3.7s-7.6-1.2-9.9-3.7ZM432.7,65.4v-30.6c0-3.7-1.5-5.5-4.6-5.5s-4.6,1.8-4.6,5.5v30.6c0,3.7,1.5,5.5,4.6,5.5,3,0,4.6-1.9,4.6-5.5Z"/>
          <path class="cls-1" d="M456.1,75.2c-2.2-2.4-3.4-5.9-3.4-10.4V22.1h8.8v43.4c-.1,1.5.3,3,1.2,4.2,1.9,1.7,4.8,1.7,6.6,0,.9-1.2,1.3-2.7,1.2-4.2V22.1h8.5v42.7c0,4.5-1.1,8-3.4,10.4s-5.5,3.6-9.8,3.6c-4.3,0-7.5-1.2-9.8-3.6Z"/>
          <path class="cls-1" d="M497.7,30.1h-9.2v-8h27.2v8h-9.2v48h-8.8V30.1Z"/>
          <path class="cls-1" d="M525.5,22.1h8.8v22.8h9.4v-22.8h8.8v56h-8.8v-25.2h-9.4v25.2h-8.8V22.1Z"/>
          <path class="cls-1" d="M564.8,22.1h24v8h-15.2v14.8h12.1v8h-12.1v17.2h15.2v8h-24V22.1Z"/>
          <path class="cls-1" d="M599.4,22.1h13c4.5,0,7.8,1.1,9.9,3.2s3.1,5.3,3.1,9.7v3.4c0,5.8-1.9,9.5-5.8,11v.2c2,.5,3.7,2,4.5,3.9,1,2.5,1.4,5.2,1.3,7.9v9.8c0,1.3,0,2.6.2,3.9.1,1,.4,2,.8,2.9h-9c-.3-.8-.5-1.7-.6-2.6-.1-1.4-.2-2.9-.2-4.3v-10.1c0-2.6-.4-4.3-1.2-5.4s-2.3-1.5-4.3-1.5h-3v24h-8.8V22.1ZM611.4,46.1c1.5.1,2.9-.4,4-1.4.9-.9,1.3-2.4,1.3-4.6v-4.3c.1-1.5-.3-3.1-1.1-4.4-.9-1-2.1-1.5-3.4-1.4h-4v16h3.2Z"/>
          <path class="cls-1" d="M637.2,22.1h11l8.6,33.5h.2V22.1h7.8v56h-9l-10.5-40.9h-.2v40.9h-7.8V22.1Z"/>
          <path class="cls-1" d="M702.3,30.1h-9.2v-8h27.2v8h-9.2v48h-8.8V30.1Z"/>
          <path class="cls-1" d="M730.1,22.1h8.9v56h-8.8V22.1Z"/>
          <path class="cls-1" d="M751.1,22.1h24v8h-15.2v14.8h12.1v8h-12.1v17.2h15.2v8h-24V22.1Z"/>
          <path class="cls-1" d="M785.8,22.1h13c4.5,0,7.8,1.1,9.9,3.2,2.1,2.1,3.1,5.3,3.1,9.7v3.4c0,5.8-1.9,9.5-5.8,11v.2c2,.5,3.7,2,4.5,3.9,1,2.5,1.4,5.2,1.3,7.9v9.8c0,1.3,0,2.6.2,3.9.1,1,.4,2,.8,2.9h-9c-.3-.8-.5-1.7-.6-2.6-.1-1.4-.2-2.9-.2-4.3v-10.1c0-2.6-.4-4.3-1.2-5.4s-2.3-1.5-4.3-1.5h-3v24h-8.8V22.1ZM797.8,46.1c1.5.1,2.9-.4,4-1.4.8-.9,1.2-2.4,1.2-4.6v-4.3c.1-1.5-.3-3.1-1.1-4.4-.9-1-2.1-1.5-3.4-1.4h-4v16h3.2Z"/>
          <path class="cls-1" d="M425.6,97.5h5.2l2.4,26.3h.1l2.5-26.3h5.9l2.5,26.3h0l2.4-26.3h4.6l-3.5,34.2h-6.7l-2.4-23.1h-.1l-2.4,23.1h-7.1l-3.5-34.2Z"/>
          <path class="cls-1" d="M468.3,97.5h14.7v4.9h-9.3v9.1h7.4v4.9h-7.4v10.5h9.3v4.9h-14.7v-34.2Z"/>
          <path class="cls-1" d="M500.2,97.5h8.1c2.8,0,4.8.6,6.1,1.9s1.9,3.3,1.9,5.9v1.4c0,1.5-.2,3-.9,4.3-.5,1.1-1.5,1.9-2.6,2.4h0c2.7,1,4,3.4,4,7.2v2.9c.1,2.2-.6,4.4-2.1,6-1.4,1.4-3.4,2.1-6.1,2.1h-8.5v-34.2ZM507.7,111.4c.9,0,1.8-.2,2.4-.8.6-.8.9-1.8.8-2.8v-1.9c0-.9-.2-1.9-.7-2.7-.5-.6-1.3-.9-2.1-.8h-2.6v9.1h2.1ZM508.7,126.8c.8,0,1.5-.2,2.1-.8.5-.8.8-1.7.7-2.6v-3c.1-1.1-.2-2.3-.8-3.3-.7-.7-1.7-1-2.7-.9h-2.4v10.5h3.1Z"/>
          <path class="cls-1" d="M556.1,97.5h8.2c2.7,0,4.7.7,6,2.2,1.3,1.4,2,3.5,2,6.3v17.4c0,2.8-.7,4.9-2,6.3-1.3,1.4-3.3,2.1-6,2.1h-8.2v-34.3ZM564.3,126.8c.7,0,1.5-.2,2-.8.5-.7.8-1.6.7-2.5v-17.8c0-.9-.2-1.8-.7-2.5-.5-.5-1.3-.8-2-.8h-2.7v24.5h2.7Z"/>
          <path class="cls-1" d="M590.2,97.5h14.7v4.9h-9.3v9.1h7.4v4.9h-7.4v10.5h9.3v4.9h-14.7v-34.2Z"/>
          <path class="cls-1" d="M623.3,130c-1.4-1.8-2.2-4.1-2-6.4v-2h5.1v2.3c0,2.2.9,3.3,2.8,3.3.8,0,1.5-.2,2.1-.8.5-.8.8-1.7.7-2.6,0-1.3-.3-2.6-1-3.8-1-1.5-2.2-2.8-3.6-3.9-1.8-1.5-3.4-3.3-4.6-5.3-.9-1.6-1.3-3.5-1.3-5.4-.1-2.3.6-4.5,2-6.3,1.6-1.6,3.8-2.4,6-2.2,2.2-.2,4.3.7,5.8,2.2,1.4,1.8,2.1,4.1,2,6.4v1.4h-5.1v-1.7c0-.9-.2-1.8-.7-2.6-.5-.6-1.2-.9-2-.8-1.8,0-2.7,1.1-2.7,3.3,0,1.2.3,2.4,1,3.5,1,1.5,2.2,2.8,3.6,3.9,1.8,1.5,3.4,3.3,4.7,5.3.9,1.7,1.3,3.7,1.3,5.6,0,2.8-.7,5-2.1,6.5-1.6,1.6-3.8,2.4-6,2.2-2.2.2-4.4-.7-6-2.3Z"/>
          <path class="cls-1" d="M654.6,97.5h5.4v34.2h-5.4v-34.2Z"/>
          <path class="cls-1" d="M679.8,130c-1.5-1.8-2.2-4.1-2-6.4v-18c0-2.8.7-4.9,2-6.4,3.4-3,8.5-3,11.9,0,1.5,1.8,2.2,4.1,2.1,6.4v2.9h-5.1v-3.2c0-2.2-.9-3.4-2.8-3.4s-2.8,1.1-2.8,3.4v18.7c0,2.2.9,3.3,2.8,3.3s2.8-1.1,2.8-3.3v-6.7h-2.7v-4.9h7.8v11.2c.2,2.3-.6,4.6-2.1,6.4-3.4,3-8.5,3-11.9,0h0Z"/>
          <path class="cls-1" d="M711.4,97.5h6.8l5.2,20.5h0v-20.5h4.8v34.2h-5.5l-6.5-25h0v25h-4.8v-34.2Z"/>
          <polygon class="cls-1" points="390.7 156.1 306.8 78.1 290 83.4 211.6 0 134.4 78.6 123.8 74.7 113.2 78.6 91.9 60.1 0 156.1 78.4 91.8 82.4 100.7 73.6 111.3 84.9 125.4 71.3 139.7 81.3 139.7 114.9 111.8 121 114 207.3 26.1 219.2 78.1 187.9 104.7 171.5 135.8 157.4 148.4 170.6 148.4 199.8 116.4 267.9 113.5 278.5 140.6 293.5 148.4 312.9 112.5 390.7 156.1"/>
          <path class="cls-1" d="M746.9,129.4c-1.4-1.8-2.2-4.1-2-6.4v-2h5.1v2.3c0,2.2.9,3.3,2.8,3.3.8,0,1.5-.2,2.1-.8.5-.8.8-1.7.7-2.6,0-1.3-.3-2.6-1-3.8-1-1.5-2.2-2.8-3.6-3.9-1.8-1.5-3.4-3.3-4.6-5.3-.9-1.6-1.3-3.5-1.3-5.4-.1-2.3.6-4.5,2-6.3,1.6-1.6,3.8-2.4,6-2.2,2.2-.2,4.3.7,5.8,2.2,1.4,1.8,2.1,4.1,2,6.4v1.4h-5.1v-1.7c0-.9-.2-1.8-.7-2.6-.5-.6-1.2-.9-2-.8-1.8,0-2.7,1.1-2.7,3.3,0,1.2.3,2.4,1,3.5,1,1.5,2.2,2.8,3.6,3.9,1.8,1.5,3.4,3.3,4.7,5.3.9,1.7,1.3,3.7,1.3,5.6,0,2.8-.7,5-2.1,6.5-1.6,1.6-3.8,2.4-6,2.2-2.2.2-4.4-.7-6-2.3Z"/>
        </g>
      </g>
    </g>
  </g>
</svg>