<svg xmlns="http://www.w3.org/2000/svg" version="1.1" xmlns:xlink="http://www.w3.org/1999/xlink" width="512" height="512" x="0" y="0" viewBox="0 0 60 61" style="enable-background:new 0 0 512 512" xml:space="preserve"><g><path d="M58 7h1a1 1 0 0 0 1-1V2a1 1 0 0 0-1-1h-4a1 1 0 0 0-1 1v1H34V1a1 1 0 0 0-1-1h-6a1 1 0 0 0-1 1v2H6V2a1 1 0 0 0-1-1H1a1 1 0 0 0-1 1v4a1 1 0 0 0 1 1h1v47H1a1 1 0 0 0-1 1v4a1 1 0 0 0 1 1h4a1 1 0 0 0 1-1v-1h20v2a1 1 0 0 0 1 1h6a1 1 0 0 0 1-1v-2h20v1a1 1 0 0 0 1 1h4a1 1 0 0 0 1-1v-4a1 1 0 0 0-1-1h-1V30.5zm-2-4h2v2h-2zM28 2h4v4h-4V4zM2 3h2v2H2zm2 4h1a1 1 0 0 0 1-1V5h13.495C12.398 7.805 6.812 13.358 4 20.27zm0 51H2v-2h2zm1-4H4V40.73C6.812 47.642 12.398 53.195 19.495 56H6v-1a1 1 0 0 0-1-1zm19.25-30.116 3.541 9.678c-1.269.93-1.842 2.61-1.274 4.159a3.6 3.6 0 0 0 1.878 2.043 3.606 3.606 0 0 0 2.772.116c.91-.333 1.635-1 2.043-1.878.408-.879.45-1.863.117-2.772-.566-1.549-2.087-2.463-3.657-2.355l-3.543-9.683 13.769 10.942c-1.626 2.231-2.077 4.905-1.195 7.33l1.159 3.171-12.1 4.426-1.161-3.175c-.896-2.447-3.026-4.184-5.805-4.788zm7.199 12.033c.149.407.13.849-.053 1.242a1.617 1.617 0 0 1-.917.843c-.407.148-.85.131-1.242-.053a1.627 1.627 0 0 1 .683-3.101 1.634 1.634 0 0 1 1.529 1.069zm-3.002 15.024 12.1-4.427 2.253 6.162c-.056.031-.111.064-.167.094a26.25 26.25 0 0 1-2.007.993l-.119.051a25.93 25.93 0 0 1-1.841.724l-.019.007c-.096.034-.194.064-.291.097a25.5 25.5 0 0 1-2.244.637c-.664.156-1.335.29-2.014.394l-.099.013V54a1 1 0 0 0-1-1H29.2zM32 59h-4v-4h4v2zm26-1h-2v-2h2zm-2-17.227V54h-1a1 1 0 0 0-1 1v1H40.49c.018-.007.035-.016.053-.024a27.397 27.397 0 0 0 2.227-1.017 28.667 28.667 0 0 0 1.778-.974 28.49 28.49 0 0 0 1.748-1.139c.181-.126.354-.259.531-.389a28.164 28.164 0 0 0 1.693-1.342c.365-.313.717-.636 1.063-.966.151-.144.306-.285.454-.432.477-.477.94-.965 1.378-1.472.042-.048.079-.1.12-.149.395-.464.773-.94 1.135-1.427.129-.174.25-.352.375-.528a26.111 26.111 0 0 0 1.84-3.002c.09-.17.185-.338.271-.51.297-.596.576-1.201.829-1.818.003-.013.01-.025.015-.038zM44.542 51.616 40.58 40.778c-.746-2.05-.21-4.281 1.47-6.124a1 1 0 0 0-.118-1.457L24.837 19.612c-.161-.606-.485-2.288.473-3.507 1.091-1.387 3.625-1.894 7.325-1.478 3.713.426 6.29-.142 7.667-1.674 1.082-1.202 1.107-2.708.952-3.409l-1.952.434c.002.009.166.913-.486 1.639-.895.993-3.011 1.354-5.955 1.024-4.492-.513-7.559.241-9.123 2.229-1.58 2.009-1.041 4.548-.8 5.389l-4.309 21.465a.995.995 0 0 0 .874 1.191c2.564.273 4.466 1.607 5.218 3.661L27.07 53H27a1 1 0 0 0-1 1v1.692C13.381 53.795 4 43.152 4 30.5S13.381 7.205 26 5.308V7a1 1 0 0 0 1 1h6a1 1 0 0 0 1-1V5.308C46.619 7.205 56 17.848 56 30.5c0 8.569-4.264 16.37-11.458 21.116zM40.505 5H54v1a1 1 0 0 0 1 1h1v13.27C53.188 13.358 47.602 7.805 40.505 5z" fill="#ef8354" opacity="1" data-original="#000000"></path></g></svg>