<svg width="250" height="54" viewBox="0 0 250 54" fill="none" xmlns="http://www.w3.org/2000/svg">
<g clip-path="url(#clip0_4_163)">
<path d="M82.122 27.8374L75.2321 41.2095H83.1085L85.4394 36.6859H93.6137C93.6983 36.6858 93.7814 36.7073 93.8551 36.7483C93.9289 36.7892 93.9908 36.8483 94.0349 36.9197C94.0791 36.9912 94.104 37.0727 94.1072 37.1565C94.1105 37.2402 94.092 37.3234 94.0536 37.3981L92.0891 41.2095H99.9655L102.134 37.0006C102.235 36.8061 102.283 36.5893 102.274 36.371C102.266 36.1527 102.201 35.9402 102.086 35.7539C101.971 35.5676 101.81 35.4137 101.617 35.3071C101.425 35.2004 101.208 35.1445 100.988 35.1448H100.965C101.605 35.1444 102.233 34.9687 102.779 34.637C103.325 34.3053 103.768 33.8305 104.059 33.265L105.161 31.1269L105.463 30.5392C105.61 30.2556 105.68 29.9394 105.668 29.621C105.655 29.3026 105.56 28.9928 105.392 28.7213C105.224 28.4499 104.988 28.226 104.707 28.0712C104.426 27.9164 104.11 27.8359 103.788 27.8374H82.122ZM95.2335 33.5171H87.0685L88.2999 31.1269H96.4508C96.5377 31.1269 96.6232 31.149 96.699 31.1911C96.7748 31.2332 96.8385 31.2939 96.8839 31.3674C96.9293 31.4409 96.9549 31.5247 96.9582 31.6108C96.9616 31.6969 96.9426 31.7824 96.9031 31.8592L96.4204 32.7964C96.3087 33.0133 96.1388 33.1954 95.9293 33.3225C95.7199 33.4497 95.4791 33.517 95.2335 33.5171Z" fill="#FE0000"/>
<path d="M115.333 31.1269L114.4 32.9387H122.564L120.974 36.1083H112.767L111.923 37.746H128.64L126.855 41.2095H102.265L107.461 31.1269L109.155 27.8374H133.745L132.051 31.1269H115.333Z" fill="#FE0000"/>
<path d="M135.809 27.8374L134.115 31.1269L130.701 37.746L128.916 41.2095H149.9C151.087 41.2098 152.251 40.8851 153.263 40.2711C154.276 39.6571 155.098 38.7776 155.638 37.7298L159.342 30.5431C159.489 30.2602 159.56 29.9445 159.548 29.6265C159.537 29.3084 159.443 28.9987 159.276 28.727C159.109 28.4553 158.874 28.2307 158.594 28.075C158.314 27.9192 157.999 27.8374 157.678 27.8374H135.809ZM146.502 37.746H138.578L141.988 31.1269H149.87C150.006 31.127 150.14 31.1617 150.259 31.2277C150.378 31.2938 150.478 31.389 150.549 31.5042C150.62 31.6194 150.66 31.7508 150.665 31.8858C150.67 32.0208 150.641 32.1549 150.579 32.2752L148.331 36.6364C148.159 36.9706 147.897 37.2512 147.574 37.447C147.251 37.6428 146.88 37.7463 146.502 37.746Z" fill="#FE0000"/>
<path d="M162.145 27.8374L160.451 31.1269L157.041 37.746L155.255 41.2095H176.239C177.426 41.2098 178.59 40.8851 179.603 40.2711C180.615 39.657 181.438 38.7776 181.978 37.7298L185.68 30.5392C185.826 30.2563 185.897 29.9408 185.885 29.6231C185.873 29.3054 185.778 28.9962 185.611 28.725C185.444 28.4538 185.209 28.2297 184.929 28.0743C184.65 27.9189 184.334 27.8373 184.014 27.8374H162.145ZM172.839 37.746H164.913L168.323 31.1269H176.205C176.341 31.127 176.475 31.1617 176.594 31.2277C176.713 31.2938 176.813 31.389 176.884 31.5042C176.955 31.6194 176.995 31.7508 177 31.8858C177.006 32.0208 176.976 32.1549 176.914 32.2752L174.667 36.6364C174.495 36.9705 174.233 37.2509 173.911 37.4467C173.588 37.6425 173.217 37.7461 172.839 37.746Z" fill="#FE0000"/>
<path d="M212.501 27.8374L199.485 35.5878L196.588 41.2095H188.715L191.658 35.4974L187.09 27.8374H196.346L198.385 31.256L203.097 27.8374H212.501Z" fill="#FE0000"/>
<path d="M232.9 35.9675L231.964 37.9741C231.046 39.9429 229.015 41.2095 226.776 41.2095H205.703L207.269 37.8535H223.913C224.128 37.855 224.34 37.7953 224.522 37.6816C224.704 37.5679 224.85 37.4049 224.942 37.2117L225.102 36.8699C225.133 36.8 225.147 36.7233 225.14 36.6469C225.134 36.5706 225.108 36.4972 225.065 36.4334C225.022 36.3697 224.964 36.3177 224.895 36.2823C224.827 36.247 224.75 36.2294 224.673 36.2312H211.213C209.717 36.2312 208.718 34.7427 209.333 33.4274L210.347 31.2522L210.503 30.9243C211.379 29.0461 213.316 27.8374 215.453 27.8374H236.757L235.164 31.2522H218.519C218.291 31.251 218.069 31.3141 217.876 31.434C217.684 31.554 217.53 31.7259 217.433 31.9295L217.315 32.1824C217.282 32.257 217.268 32.3388 217.275 32.4202C217.282 32.5016 217.309 32.58 217.355 32.648C217.4 32.716 217.462 32.7715 217.535 32.8094C217.608 32.8472 217.69 32.8661 217.772 32.8644H230.818C232.475 32.8636 233.579 34.5115 232.9 35.9675Z" fill="#FE0000"/>
<path d="M154.965 24.333H140.133L139.948 20.9399H126.203L122.981 24.333H107.306L111.439 20.4837C124.411 19.4981 138.578 18.5833 153.941 17.7394L154.965 24.333ZM190.732 16.0746C190.736 16.1992 190.711 16.3229 190.659 16.4365L190.376 17.0551C190.219 17.4032 189.963 17.6987 189.64 17.9059C189.316 18.1132 188.94 18.2235 188.555 18.2235H159.098L156.328 24.3322H193.622C195.562 24.3322 197.46 23.7765 199.089 22.732C200.717 21.6875 202.007 20.1987 202.802 18.4446L204.084 15.6199C199.556 15.7612 195.105 15.9127 190.732 16.0746ZM4.15811 33.1103L0 41.2095H22.2738L28.2115 29.2131C12.1242 31.4958 4.15811 33.1103 4.15811 33.1103ZM66.7302 24.5124L64.2285 26.4556H55.871L48.2948 41.2095H70.068L78.732 24.333H103.797L107.638 20.776C92.274 21.9792 78.6431 23.2528 66.7302 24.5124ZM215.75 15.282L211.643 24.3369H225.759L230.02 14.9417C225.184 15.0412 220.427 15.1534 215.75 15.2781V15.282Z" fill="url(#paint0_linear_4_163)"/>
<path d="M151.193 1.39608e-07H133.402L111.439 20.4837C124.411 19.4981 138.578 18.5833 153.941 17.7394L151.193 1.39608e-07ZM131.906 14.9379L139.202 7.26016L139.62 14.9379H131.906ZM204.459 14.7948L204.084 15.6199C199.555 15.7632 195.104 15.9158 190.73 16.0777C190.724 15.863 190.634 15.6593 190.478 15.5097C190.323 15.3601 190.115 15.2765 189.898 15.2766H166.079C163.427 15.2766 161.666 12.5702 162.751 10.173L164.545 6.21471L164.816 5.61775C165.575 3.94377 166.806 2.523 168.36 1.52636C169.915 0.529729 171.727 -0.000314061 173.578 1.39608e-07H206.424L203.606 6.21394H179.008C178.602 6.21373 178.205 6.3299 177.864 6.54844C177.523 6.76699 177.253 7.0786 177.086 7.44574L176.878 7.90583C176.817 8.0398 176.791 8.18673 176.803 8.33322C176.814 8.47971 176.862 8.6211 176.942 8.7445C177.022 8.86789 177.133 8.96936 177.263 9.03965C177.393 9.10994 177.539 9.14682 177.687 9.14692H200.775C203.705 9.14692 205.661 12.1449 204.459 14.7948ZM83.2668 15.5008H113.339L107.639 20.7768C92.2763 21.9792 78.6431 23.2512 66.7303 24.5085L80.6746 13.6782H62.4263C64.6021 10.8241 66.8457 8.24839 69.4542 7.15345H48.5061C45.6922 7.15409 42.9348 7.93692 40.5469 9.41309C38.159 10.8893 36.2362 12.9996 34.9969 15.5047H74.9248L62.6992 24.333H30.6275L28.21 29.2131C12.1226 31.4957 4.15656 33.1103 4.15656 33.1103L13.6355 14.6495C15.8986 10.241 19.3476 6.53931 23.6007 3.95385C27.8538 1.36839 32.7454 -2.49719e-05 37.7342 1.39608e-07H130.082L122.357 7.15345H96.9982C94.1556 7.15337 91.3683 7.93307 88.9449 9.4063C86.5214 10.8795 84.5562 12.9888 83.2668 15.5008ZM250 1.39608e-07L247.181 6.21394H233.973L230.017 14.9379C225.182 15.041 220.426 15.1544 215.75 15.2781L219.861 6.21394H206.184L209.002 1.39608e-07H250Z" fill="url(#paint1_linear_4_163)"/>
<path d="M43.0683 52.6692L41.9243 53.9343H40.4535L44.1967 49.9133H45.9124L49.6704 53.9343H48.1497L46.9737 52.6692H43.0683ZM46.6797 52.2633L45.6012 51.1034C45.3922 50.873 45.2008 50.6275 45.0288 50.3688H44.9968C44.8263 50.6221 44.6409 50.8653 44.4416 51.0972L43.3631 52.2571L46.6797 52.2633Z" fill="black"/>
<path d="M52.2353 49.9118V52.2934C52.2353 53.1943 53.3271 53.5762 54.8002 53.5762C56.4379 53.5762 57.4805 53.1827 57.4805 52.2934V49.9118H58.9186V52.2571C58.9186 53.4943 57.1374 54 54.7511 54C52.4966 54 50.7973 53.5283 50.7973 52.281V49.9118H52.2353Z" fill="black"/>
<path d="M63.4604 50.3533H60.1071V49.9118H68.265V50.3533H64.8984V53.9343H63.4604V50.3533Z" fill="black"/>
<path d="M78.4443 51.8813C78.4443 53.2662 76.1406 54 73.3301 54C70.4212 54 68.3788 53.1765 68.3788 51.9594C68.3788 50.6819 70.5523 49.846 73.4938 49.846C76.5025 49.846 78.4443 50.6881 78.4443 51.8813ZM69.8988 51.947C69.8988 52.8061 71.173 53.5762 73.408 53.5762C75.6626 53.5762 76.9376 52.8185 76.9376 51.9052C76.9376 51.1057 75.7936 50.2698 73.4283 50.2698C71.0755 50.2698 69.8988 51.0639 69.8988 51.947Z" fill="black"/>
<path d="M89.5562 52.1681C89.4743 51.6068 89.3761 50.9309 89.3924 50.4314H89.3433C88.9095 50.9673 88.4458 51.4787 87.9544 51.9632L86.0103 53.9142H84.9317L83.1506 51.9988C82.6273 51.432 82.1867 50.9162 81.8763 50.4353H81.8436C81.8108 50.9363 81.7289 51.6106 81.6307 52.2138L81.3367 53.9381H79.9805L80.7487 49.9172H82.5626L84.4412 51.8627C84.8462 52.2853 85.2178 52.7382 85.5525 53.2175H85.6016C85.8793 52.8115 86.2715 52.3669 86.762 51.8627L88.7225 49.9172H90.5396L91.2258 53.9381H89.8377L89.5562 52.1681Z" fill="black"/>
<path d="M102.807 51.8813C102.807 53.2662 100.504 54 97.6931 54C94.7843 54 92.7419 53.1765 92.7419 51.9594C92.7419 50.6819 94.9153 49.846 97.8568 49.846C100.863 49.846 102.807 50.6881 102.807 51.8813ZM94.2618 51.947C94.2618 52.8061 95.536 53.5762 97.771 53.5762C100.026 53.5762 101.301 52.8185 101.301 51.9052C101.301 51.1057 100.157 50.2698 97.7913 50.2698C95.4378 50.2698 94.2618 51.0639 94.2618 51.947Z" fill="black"/>
<path d="M106.32 50.3533H102.971V49.9118H111.127V50.3533H107.758V53.9343H106.32V50.3533Z" fill="black"/>
<path d="M113.755 49.9118V53.9327H112.334V49.9118H113.755Z" fill="black"/>
<path d="M118.641 53.9343L115.046 49.9133H116.586L118.302 51.8952C118.776 52.4365 119.184 52.9275 119.478 53.3992H119.511C119.823 52.9352 120.279 52.4264 120.769 51.9006L122.632 49.9133H124.151L120.213 53.9343H118.641Z" fill="black"/>
<path d="M131.027 52.0483H126.746V53.4989H131.517V53.9343H125.324V49.9133H131.272V50.3494H126.749V51.6207H131.03L131.027 52.0483Z" fill="black"/>
<path d="M136.795 49.9659C137.661 49.9179 138.69 49.8824 139.818 49.8824C141.86 49.8824 143.315 50.0548 144.278 50.3835C145.259 50.7121 145.831 51.1768 145.831 51.8279C145.831 52.479 145.275 53.021 144.246 53.3914C143.216 53.7618 141.516 53.9698 139.376 53.9698C138.363 53.9698 137.513 53.9521 136.795 53.9227V49.9659ZM138.216 53.5229C138.575 53.5469 139.099 53.5523 139.654 53.5523C142.695 53.5523 144.344 52.9337 144.344 51.8457C144.36 50.8969 142.89 50.2937 139.883 50.2937C139.148 50.2937 138.592 50.3177 138.216 50.3479V53.5229Z" fill="black"/>
<path d="M153.364 52.0483H149.082V53.4989H153.853V53.9343H147.661V49.9133H153.608V50.3494H149.085V51.6207H153.367L153.364 52.0483Z" fill="black"/>
<path d="M158.036 50.3533H154.683V49.9118H162.837V50.3533H159.478V53.9343H158.04L158.036 50.3533Z" fill="black"/>
<path d="M164.605 52.6692L163.461 53.9343H161.991L165.734 49.9133H167.45L171.208 53.9343H169.689L168.512 52.6692H164.605ZM168.216 52.2633L167.138 51.1034C166.929 50.873 166.738 50.6275 166.566 50.3688H166.534C166.363 50.6221 166.177 50.8653 165.978 51.0972L164.899 52.2571L168.216 52.2633Z" fill="black"/>
<path d="M174.23 49.9118V53.9327H172.808V49.9118H174.23Z" fill="black"/>
<path d="M176.696 49.9118H178.116V53.4989H182.822V53.9343H176.696V49.9118Z" fill="black"/>
<path d="M185.814 49.9118V53.9327H184.393V49.9118H185.814Z" fill="black"/>
<path d="M188.282 53.9343V49.9133H189.834L193.363 51.9485C194.053 52.3368 194.714 52.7736 195.341 53.2553L195.374 53.2499C195.243 52.7087 195.21 52.223 195.21 51.5967V49.9118H196.55V53.9327H195.112L191.615 51.8936C190.847 51.4459 190.112 50.9866 189.556 50.5505L189.507 50.5567C189.592 51.1054 189.63 51.6602 189.622 52.2153V53.9343H188.282Z" fill="black"/>
<path d="M207.4 53.7557C206.278 53.9007 205.148 53.9743 204.017 53.976C202.35 53.976 200.976 53.8214 199.9 53.4448C198.952 53.1108 198.364 52.5741 198.364 51.947C198.38 50.7477 200.635 49.87 204.328 49.87C205.602 49.87 206.599 49.9713 207.073 50.0548L206.73 50.4793C205.925 50.3538 205.11 50.2959 204.295 50.3061C201.616 50.3061 199.867 50.9147 199.867 51.923C199.867 52.9437 201.55 53.5469 204.115 53.5469C205.051 53.5469 205.684 53.4989 206.011 53.4386V52.2393H203.773V51.8217H207.4L207.4 53.7557Z" fill="black"/>
</g>
<defs>
<linearGradient id="paint0_linear_4_163" x1="115.895" y1="36.4338" x2="114.137" y2="19.5674" gradientUnits="userSpaceOnUse">
<stop offset="0.32"/>
<stop offset="1" stop-color="#2B2B2B"/>
</linearGradient>
<linearGradient id="paint1_linear_4_163" x1="127.079" y1="33.1103" x2="127.079" y2="0" gradientUnits="userSpaceOnUse">
<stop offset="0.52"/>
<stop offset="1" stop-color="#585858"/>
</linearGradient>
<clipPath id="clip0_4_163">
<rect width="250" height="54" fill="white"/>
</clipPath>
</defs>
</svg>
