<svg width="803" height="283" viewBox="0 0 803 283" fill="none" xmlns="http://www.w3.org/2000/svg">
<path d="M606.254 278.253C604.3 275.087 603.183 271.041 603.462 266.996V263.478H610.582V267.524C610.582 271.393 611.838 273.328 614.49 273.328C615.607 273.328 616.584 272.976 617.422 271.921C618.12 270.514 618.538 268.931 618.399 267.348C618.399 265.061 617.98 262.775 617.003 260.664C615.607 258.026 613.932 255.739 611.978 253.804C609.465 251.166 607.231 248 605.556 244.482C604.3 241.668 603.742 238.326 603.742 234.984C603.602 230.939 604.579 227.069 606.533 223.903C608.767 221.089 611.838 219.682 614.909 220.034C617.98 219.682 620.911 221.265 623.005 223.903C624.96 227.069 625.937 231.115 625.797 235.16V237.623H618.678V234.632C618.678 233.049 618.399 231.466 617.701 230.059C617.003 229.004 616.026 228.476 614.909 228.652C612.396 228.652 611.14 230.587 611.14 234.456C611.14 236.567 611.559 238.678 612.536 240.613C613.932 243.251 615.607 245.538 617.561 247.472C620.074 250.111 622.307 253.277 624.122 256.794C625.378 259.785 625.937 263.302 625.937 266.644C625.937 271.569 624.96 275.439 623.005 278.077C620.772 280.891 617.701 282.298 614.63 281.947C611.559 282.298 608.488 280.715 606.254 277.901V278.253Z" fill="#004C92"/>
<path d="M732.379 221.221H741.493L748.462 256.909V221.221H754.896V280.76H747.524L738.812 237.237V280.76H732.379V221.221Z" fill="#004C92"/>
<path d="M687.126 278.126C685.023 275.027 684.042 271.067 684.322 267.107V236.115C684.322 231.294 685.304 227.678 687.126 225.095C691.892 219.93 699.04 219.93 703.806 225.095C705.909 228.194 706.89 232.154 706.75 236.115V241.108H699.601V235.598C699.601 231.81 698.339 229.744 695.676 229.744C693.013 229.744 691.751 231.638 691.751 235.598V267.795C691.751 271.583 693.013 273.477 695.676 273.477C698.339 273.477 699.601 271.583 699.601 267.795V256.259H695.816V247.823H706.75V267.107C707.03 271.067 705.909 275.027 703.806 278.126C699.04 283.291 691.892 283.291 687.126 278.126Z" fill="#004C92"/>
<path d="M650.5 221.221H658.688V280.76H650.5V221.221Z" fill="#004C92"/>
<path d="M782.423 277.136C780.38 274.031 779.212 270.063 779.504 266.095V262.645H786.947V266.613C786.947 270.408 788.261 272.306 791.033 272.306C792.201 272.306 793.222 271.961 794.098 270.926C794.828 269.546 795.266 267.993 795.12 266.44C795.12 264.197 794.682 261.955 793.66 259.884C792.201 257.297 790.45 255.054 788.406 253.156C785.78 250.568 783.445 247.463 781.693 244.013C780.38 241.252 779.796 237.975 779.796 234.697C779.65 230.729 780.672 226.933 782.715 223.828C785.05 221.068 788.261 219.688 791.471 220.033C794.682 219.688 797.747 221.24 799.936 223.828C801.979 226.933 803 230.901 802.854 234.869V237.284H795.411V234.352C795.411 232.799 795.12 231.246 794.39 229.866C793.66 228.831 792.639 228.313 791.471 228.486C788.844 228.486 787.531 230.384 787.531 234.179C787.531 236.249 787.969 238.32 788.99 240.217C790.45 242.805 792.201 245.048 794.244 246.946C796.871 249.533 799.206 252.639 801.103 256.089C802.416 259.022 803 262.472 803 265.75C803 270.581 801.979 274.376 799.936 276.964C797.601 279.724 794.52 280.759 791.179 280.759C788.017 280.759 784.758 279.897 782.423 277.136Z" fill="#004C92"/>
<path d="M558.386 221.221H579.879V229.904H566.281V246.029H577.101V254.712H566.281V273.317H579.879V282H558.386V221.398V221.221Z" fill="#004C92"/>
<path d="M502.094 221.221H516.081C520.687 221.221 524.099 222.462 526.316 225.12C528.534 227.6 529.728 231.321 529.728 236.283V267.115C529.728 272.077 528.534 275.798 526.316 278.279C524.099 280.76 520.687 282 516.081 282H502.094V221.221ZM516.081 273.14C517.276 273.14 518.64 272.786 519.493 271.723C520.346 270.482 520.858 268.887 520.687 267.293V235.751C520.687 234.157 520.346 232.562 519.493 231.321C518.64 230.435 517.276 229.904 516.081 229.904H511.476V273.317H516.081V273.14Z" fill="#004C92"/>
<path d="M604.59 153.17H616.498C620.614 153.17 623.554 154.193 625.465 156.409C627.376 158.625 628.258 162.034 628.258 166.467V168.853C628.258 171.41 627.964 173.967 626.935 176.183C626.2 178.058 624.73 179.422 623.113 180.274C627.082 181.979 628.993 186.07 628.993 192.547V197.491C629.14 201.241 628.111 204.991 625.906 207.718C623.848 210.105 620.908 211.298 616.939 211.298H604.443V153L604.59 153.17ZM615.616 176.865C616.939 176.865 618.262 176.524 619.144 175.501C620.026 174.137 620.467 172.433 620.32 170.728V167.489C620.32 165.955 620.026 164.25 619.291 162.887C618.556 161.864 617.38 161.353 616.204 161.523H612.382V177.035H615.469L615.616 176.865ZM617.086 203.116C618.262 203.116 619.291 202.775 620.173 201.752C620.908 200.388 621.349 198.854 621.202 197.32V192.206C621.349 190.331 620.908 188.286 620.026 186.581C618.997 185.388 617.527 184.876 616.057 185.047H612.529V202.945H617.086V203.116Z" fill="#004C92"/>
<path d="M558.386 153H579.879V161.683H566.281V177.808H577.101V186.49H566.281V205.096H579.879V213.779H558.386V153.177V153Z" fill="#004C92"/>
<path d="M498.143 153H505.598L509.039 197.832H509.183L512.767 153H521.226L524.81 197.832L528.251 153H534.846L529.828 211.298H520.222L516.781 171.921H516.638L513.197 211.298H503.018L498 153H498.143Z" fill="#004C92"/>
<g clip-path="url(#clip0_329_238)">
<path d="M413.808 282.198V153.397H440.688C447.685 153.397 453.658 154.405 458.608 156.419C463.642 158.327 467.482 161.772 470.128 166.755C472.858 171.737 474.224 178.628 474.224 187.426C474.224 192.727 473.84 197.444 473.072 201.578C472.389 205.607 471.109 209.158 469.232 212.232C467.44 215.201 464.88 217.586 461.552 219.388L475.888 282.198H454.256L442.352 223.84H434.928V282.198H413.808ZM434.928 208.257H441.072C444.485 208.257 447.173 207.568 449.136 206.19C451.098 204.812 452.464 202.745 453.232 199.988C454.085 197.126 454.512 193.628 454.512 189.493C454.512 183.557 453.616 179.052 451.824 175.977C450.117 172.797 446.874 171.207 442.096 171.207H434.928V208.257Z" fill="#119CE2"/>
</g>
<g clip-path="url(#clip1_329_238)">
<path d="M356.808 282.198V153.397H401.992V171.525H377.928V205.713H396.488V223.999H377.928V264.389H402.248V282.198H356.808Z" fill="#119CE2"/>
</g>
<g clip-path="url(#clip2_329_238)">
<path d="M320.064 282.198V153.397H341.056V282.198H320.064Z" fill="#119CE2"/>
</g>
<g clip-path="url(#clip3_329_238)">
<path d="M272.536 282.198V172.956H256.536V153.397H309.528V172.956H293.784V282.198H272.536Z" fill="#119CE2"/>
</g>
<g clip-path="url(#clip4_329_238)">
<path d="M747.808 130.44V1.63965H762.528L785.568 68.7432V1.63965H802.976V130.44H788.896L765.856 59.2024V130.44H747.808Z" fill="#119CE2"/>
</g>
<g clip-path="url(#clip5_329_238)">
<path d="M670.808 130.44V1.63965H697.688C704.685 1.63965 710.658 2.64673 715.608 4.66091C720.642 6.56906 724.482 10.0144 727.128 14.9968C729.858 19.9792 731.224 26.8697 731.224 35.6685C731.224 40.969 730.84 45.6863 730.072 49.8207C729.389 53.849 728.109 57.4003 726.232 60.4746C724.44 63.4428 721.88 65.828 718.552 67.6301L732.888 130.44H711.256L699.352 72.0825H691.928V130.44H670.808ZM691.928 56.4992H698.072C701.485 56.4992 704.173 55.8101 706.136 54.4321C708.098 53.054 709.464 50.9868 710.232 48.2305C711.085 45.3683 711.512 41.87 711.512 37.7357C711.512 31.7991 710.616 27.2938 708.824 24.2195C707.117 21.0393 703.874 19.4491 699.096 19.4491H691.928V56.4992Z" fill="#119CE2"/>
</g>
<g clip-path="url(#clip6_329_238)">
<path d="M612.808 130.44V1.63965H657.992V19.7672H633.928V53.955H652.488V72.2415H633.928V112.631H658.248V130.44H612.808Z" fill="#119CE2"/>
</g>
<g clip-path="url(#clip7_329_238)">
<path d="M534.064 130.44V1.63965H555.184V54.5911H573.488V1.63965H594.608V130.44H573.488V73.3546H555.184V130.44H534.064Z" fill="#119CE2"/>
</g>
<g clip-path="url(#clip8_329_238)">
<path d="M487.002 132.925V21.2385H471V1.24219H524V21.2385H508.254V132.925H487.002Z" fill="#119CE2"/>
</g>
<g clip-path="url(#clip9_329_238)">
<path d="M430.992 132.19C423.141 132.19 417.04 130.546 412.688 127.26C408.336 123.868 405.264 119.044 403.472 112.79C401.765 106.429 400.912 98.7437 400.912 89.733V1.63965H421.776V93.3903C421.776 96.5706 421.947 99.6978 422.288 102.772C422.715 105.846 423.568 108.338 424.848 110.246C426.213 112.154 428.261 113.108 430.992 113.108C433.808 113.108 435.856 112.154 437.136 110.246C438.501 108.338 439.355 105.846 439.696 102.772C440.037 99.6978 440.208 96.5706 440.208 93.3903V1.63965H461.072V89.733C461.072 98.7437 460.176 106.429 458.384 112.79C456.677 119.044 453.648 123.868 449.296 127.26C444.944 130.546 438.843 132.19 430.992 132.19Z" fill="#119CE2"/>
</g>
<g clip-path="url(#clip10_329_238)">
<path d="M356.372 132.925C348.801 132.925 342.803 131.235 338.379 127.854C333.955 124.474 330.764 119.667 328.808 113.434C326.936 107.096 326 99.5422 326 90.7738V42.918C326 34.1497 326.936 26.6491 328.808 20.4162C330.764 14.1833 333.955 9.42945 338.379 6.15455C342.803 2.87964 348.801 1.24219 356.372 1.24219C364.029 1.24219 370.07 2.93246 374.494 6.313C379.003 9.58791 382.193 14.3418 384.065 20.5747C386.022 26.7019 387 34.1497 387 42.918V90.7738C387 99.5422 386.022 107.096 384.065 113.434C382.193 119.667 379.003 124.474 374.494 127.854C370.07 131.235 364.029 132.925 356.372 132.925ZM356.372 114.068C359.095 114.068 361.094 113.328 362.37 111.849C363.646 110.265 364.497 108.205 364.923 105.669C365.348 103.028 365.561 100.229 365.561 97.2708V36.5795C365.561 33.6215 365.348 30.8748 364.923 28.3394C364.497 25.804 363.646 23.7968 362.37 22.3178C361.094 20.7332 359.095 19.9408 356.372 19.9408C353.82 19.9408 351.906 20.7332 350.63 22.3178C349.354 23.7968 348.503 25.804 348.077 28.3394C347.652 30.8748 347.439 33.6215 347.439 36.5795V97.2708C347.439 100.229 347.61 103.028 347.95 105.669C348.375 108.205 349.226 110.265 350.502 111.849C351.778 113.328 353.735 114.068 356.372 114.068Z" fill="#119CE2"/>
</g>
<g clip-path="url(#clip11_329_238)">
<path d="M288.763 132.925C282.456 132.925 277.201 131.485 272.996 128.606C268.792 125.621 265.596 121.195 263.41 115.33C261.307 109.358 260.336 100.347 260 91.176H279.216C279.384 96.508 279.036 98.5875 279.709 102.213C280.466 105.732 280.775 108.398 282.204 110.211C283.718 111.917 285.568 112.77 287.754 112.77C290.445 112.77 292.253 111.704 293.178 109.571C294.187 107.438 294.692 104.986 294.692 102.213C294.692 96.7746 293.641 92.2424 291.538 88.6167C289.52 84.8844 286.829 81.1521 283.466 77.4197L272.87 65.7427C269.086 61.6904 265.975 57.105 263.536 51.9864C261.181 46.8677 260.004 40.576 260.004 33.1113C260.004 22.4475 262.443 14.2896 267.32 8.63774C272.281 2.87924 279.051 0 287.628 0C292.758 0 296.962 1.06639 300.242 3.19917C303.521 5.33193 306.044 8.21118 307.81 11.8369C309.66 15.356 310.922 19.2483 311.594 23.5138C312.351 27.6727 312.553 35.1908 312.722 39.3497H294.313C294.145 35.4041 294.419 31.6783 293.998 28.6924C293.662 25.7066 293.22 23.6204 292.043 21.9143C290.95 20.2081 289.268 19.3549 286.997 19.3549C284.559 19.3549 282.751 20.528 281.574 22.874C280.396 25.1134 279.808 27.6194 279.808 30.392C279.808 34.9775 280.607 38.7632 282.204 41.7491C283.886 44.6283 286.157 47.6675 289.016 50.8667L299.359 62.3836C303.648 67.0758 307.306 72.461 310.333 78.5394C313.444 84.5112 315 91.9225 315 100.774C315 106.852 313.907 112.344 311.72 117.249C309.534 122.155 306.465 125.993 302.512 128.766C298.644 131.539 294.061 132.925 288.763 132.925Z" fill="#119CE2"/>
</g>
<rect x="1.25" y="0.25" width="216.5" height="43.5" fill="#119CE2" stroke="#004C92" stroke-width="0.5"/>
<path d="M131 44H174V167.443L131 193V44Z" fill="#119CE2" stroke="#004C92" stroke-width="0.5" stroke-linejoin="round"/>
<rect x="131.25" y="43.3794" width="42.501" height="1" fill="#119CE2"/>
<path d="M1.25195 81.2557V43.7651H42.752V62.2651C42.9186 63.2651 43.252 66.7651 46.252 69.7651C50.0762 73.5894 91.252 94.7651 99.252 101.765C105.652 107.365 107.919 115.765 108.252 119.265V209.265L68.252 187.265V136.265C68.252 127.265 26.252 107.265 15.752 101.765C7.35195 97.3651 1.25195 86.2557 1.25195 81.2557Z" fill="#119CE2" stroke="#0166CA" stroke-width="0.5"/>
<rect x="1.5" y="43.0737" width="41" height="1" fill="#119CE2"/>
<path d="M1.23242 221.228V149H42.4154V175.899V202.798L91.1318 231.689L174 181.378V222.5C174 226.087 174.5 228 170 231.5L95.1497 281.004C94.48 281.336 92.4376 282 89.6251 282C86.8126 282 84.4354 281.004 83.5984 280.506C60.6631 265.23 13.5873 233.881 8.76589 230.693C3.94447 227.505 1.73465 223.055 1.23242 221.228Z" fill="#004C92" stroke="black" stroke-width="0.5"/>
<defs>
<clipPath id="clip0_329_238">
<rect width="63" height="129.198" fill="white" transform="translate(413 153)"/>
</clipPath>
<clipPath id="clip1_329_238">
<rect width="47" height="129.198" fill="white" transform="translate(356 153)"/>
</clipPath>
<clipPath id="clip2_329_238">
<rect width="22" height="129.198" fill="white" transform="translate(320 153)"/>
</clipPath>
<clipPath id="clip3_329_238">
<rect width="54" height="129.198" fill="white" transform="translate(256 153)"/>
</clipPath>
<clipPath id="clip4_329_238">
<rect width="56" height="129.198" fill="white" transform="translate(747 1.24219)"/>
</clipPath>
<clipPath id="clip5_329_238">
<rect width="63" height="129.198" fill="white" transform="translate(670 1.24219)"/>
</clipPath>
<clipPath id="clip6_329_238">
<rect width="47" height="129.198" fill="white" transform="translate(612 1.24219)"/>
</clipPath>
<clipPath id="clip7_329_238">
<rect width="61" height="129.198" fill="white" transform="translate(534 1.24219)"/>
</clipPath>
<clipPath id="clip8_329_238">
<rect width="54" height="131.683" fill="white" transform="translate(471 1.24219)"/>
</clipPath>
<clipPath id="clip9_329_238">
<rect width="62" height="131.683" fill="white" transform="translate(400 1.24219)"/>
</clipPath>
<clipPath id="clip10_329_238">
<rect width="62" height="131.683" fill="white" transform="translate(326 1.24219)"/>
</clipPath>
<clipPath id="clip11_329_238">
<rect width="57" height="132.925" fill="white" transform="translate(259)"/>
</clipPath>
</defs>
</svg>
