<svg width="1200" height="800" viewBox="0 0 1200 800" fill="none" xmlns="http://www.w3.org/2000/svg">
<rect width="1200" height="800" fill="#119CE2"/>
<path d="M575.85 397.23C573.664 394.797 572.57 391.317 572.57 386.79V383.59H580.89V387.43C580.89 391.057 582.41 392.87 585.45 392.87C586.079 392.913 586.71 392.817 587.298 392.589C587.885 392.361 588.415 392.006 588.85 391.55C589.728 390.304 590.135 388.788 590 387.27C590.048 385.095 589.494 382.95 588.4 381.07C586.759 378.64 584.763 376.47 582.48 374.63C579.49 372.167 576.923 369.232 574.88 365.94C573.414 363.256 572.67 360.238 572.72 357.18C572.72 352.76 573.84 349.333 576.08 346.9C578.32 344.467 581.574 343.253 585.84 343.26C590.047 343.26 593.234 344.473 595.4 346.9C597.567 349.327 598.647 352.807 598.64 357.34V359.66H590.32V356.78C590.448 355.292 590.051 353.807 589.2 352.58C588.788 352.128 588.279 351.774 587.711 351.545C587.143 351.317 586.531 351.219 585.92 351.26C582.98 351.26 581.52 353.05 581.52 356.62C581.512 358.631 582.081 360.603 583.16 362.3C584.848 364.706 586.868 366.861 589.16 368.7C592.84 371.9 595.374 374.807 596.76 377.42C598.203 380.271 598.917 383.435 598.84 386.63C598.84 391.223 597.707 394.743 595.44 397.19C593.174 399.637 589.88 400.863 585.56 400.87C581.274 400.87 578.037 399.657 575.85 397.23Z" fill="white"/>
<path d="M612.25 397.19C609.956 394.737 608.81 391.27 608.81 386.79V357.34C608.81 352.86 609.956 349.393 612.25 346.94C614.543 344.487 617.85 343.26 622.17 343.26C626.5 343.26 629.8 344.49 632.1 346.94C634.4 349.39 635.54 352.86 635.54 357.34V386.79C635.54 391.27 634.393 394.737 632.1 397.19C629.8 399.64 626.5 400.87 622.17 400.87C617.84 400.87 614.55 399.64 612.25 397.19ZM626.74 387.35V356.78C626.74 353.1 625.21 351.26 622.17 351.26C619.13 351.26 617.61 353.1 617.61 356.78V387.35C617.61 391.03 619.13 392.87 622.17 392.87C625.21 392.87 626.74 391 626.74 387.35Z" fill="white"/>
<path d="M650.1 397.23C647.86 394.797 646.74 391.317 646.74 386.79V344.06H655.54V387.43C655.409 388.912 655.821 390.39 656.7 391.59C657.61 392.413 658.793 392.869 660.02 392.869C661.247 392.869 662.43 392.413 663.34 391.59C664.22 390.39 664.632 388.912 664.5 387.43V344.06H673V386.79C673 391.317 671.88 394.797 669.64 397.23C667.4 399.663 664.147 400.877 659.88 400.87C655.594 400.87 652.334 399.657 650.1 397.23Z" fill="white"/>
<path d="M691.71 352.06H682.5V344.06H709.71V352.06H700.51V400.06H691.71V352.06Z" fill="white"/>
<path d="M719.55 344.06H728.35V366.86H737.79V344.06H746.6V400.06H737.79V374.87H728.35V400.07H719.55V344.06Z" fill="white"/>
<path d="M758.76 344.06H782.76V352.06H767.56V366.86H779.64V374.86H767.56V392.06H782.76V400.06H758.76V344.06Z" fill="white"/>
<path d="M793.4 344.06H806.45C810.977 344.06 814.284 345.113 816.37 347.22C818.457 349.327 819.497 352.567 819.49 356.94V360.38C819.49 366.2 817.57 369.867 813.73 371.38V371.54C814.732 371.811 815.658 372.306 816.441 372.987C817.224 373.667 817.843 374.516 818.25 375.47C819.229 377.992 819.678 380.687 819.57 383.39V393.23C819.555 394.525 819.609 395.82 819.73 397.11C819.838 398.12 820.108 399.106 820.53 400.03H811.53C811.227 399.202 811.012 398.344 810.89 397.47C810.754 396.034 810.701 394.592 810.73 393.15V383C810.73 380.44 810.31 378.65 809.49 377.64C808.67 376.63 807.23 376.12 805.21 376.12H802.21V400.12H793.41L793.4 344.06ZM805.4 368.06C806.125 368.122 806.854 368.032 807.543 367.798C808.231 367.564 808.864 367.19 809.4 366.7C810.28 365.8 810.72 364.28 810.72 362.14V357.82C810.848 356.275 810.469 354.73 809.64 353.42C809.219 352.944 808.692 352.573 808.102 352.337C807.511 352.101 806.874 352.006 806.24 352.06H802.24V368.06H805.4Z" fill="white"/>
<path d="M831.25 344.06H842.25L850.81 377.59H851V344.06H858.85V400.06H849.8L839.25 359.18H839.09V400.07H831.25V344.06Z" fill="white"/>
<path d="M896.3 352.06H887.1V344.06H914.3V352.06H905.1V400.06H896.3V352.06Z" fill="white"/>
<path d="M924.14 344.06H933V400.06H924.19L924.14 344.06Z" fill="white"/>
<path d="M945.11 344.06H969.11V352.06H953.91V366.86H966V374.86H953.91V392.06H969.11V400.06H945.11V344.06Z" fill="white"/>
<path d="M979.75 344.06H992.75C997.284 344.06 1000.59 345.113 1002.67 347.22C1004.75 349.327 1005.79 352.567 1005.79 356.94V360.38C1005.79 366.2 1003.87 369.867 1000.03 371.38V371.54C1001.03 371.811 1001.96 372.306 1002.74 372.987C1003.52 373.667 1004.14 374.516 1004.55 375.47C1005.53 377.992 1005.98 380.687 1005.87 383.39V393.23C1005.86 394.525 1005.91 395.82 1006.03 397.11C1006.14 398.12 1006.41 399.106 1006.83 400.03H997.83C997.527 399.202 997.312 398.344 997.19 397.47C997.054 396.034 997.001 394.592 997.03 393.15V383C997.03 380.44 996.61 378.65 995.79 377.64C994.97 376.63 993.53 376.12 991.5 376.12H988.5V400.12H979.7L979.75 344.06ZM991.75 368.06C992.475 368.122 993.204 368.032 993.892 367.798C994.581 367.564 995.213 367.19 995.75 366.7C996.584 365.8 997 364.28 997 362.14V357.82C997.128 356.275 996.749 354.73 995.92 353.42C995.499 352.944 994.972 352.573 994.381 352.337C993.791 352.101 993.154 352.006 992.52 352.06H988.52V368.06H991.75Z" fill="white"/>
<path d="M637.77 419.18H643L645.39 445.49H645.49L648 419.18H653.86L656.41 445.49H656.5L658.9 419.18H663.54L660.07 453.41H653.37L650.93 430.33H650.83L648.39 453.41H641.25L637.77 419.18Z" fill="white"/>
<path d="M680.45 419.18H695.12V424.07H685.83V433.12H693.22V438H685.83V448.51H695.12V453.4H680.45V419.18Z" fill="white"/>
<path d="M712.38 419.18H720.5C723.267 419.18 725.287 419.827 726.56 421.12C727.833 422.413 728.47 424.393 728.47 427.06V428.43C728.527 429.911 728.232 431.385 727.61 432.73C727.061 433.818 726.132 434.668 725 435.12V435.22C727.667 436.127 729 438.507 729 442.36V445.3C729.074 446.388 728.928 447.481 728.57 448.511C728.213 449.542 727.652 450.491 726.92 451.3C725.533 452.687 723.503 453.38 720.83 453.38H712.37L712.38 419.18ZM719.86 433.12C720.299 433.154 720.74 433.098 721.156 432.956C721.572 432.813 721.955 432.586 722.28 432.29C722.898 431.498 723.187 430.499 723.09 429.5V427.59C723.167 426.645 722.935 425.702 722.43 424.9C722.172 424.609 721.849 424.383 721.488 424.239C721.127 424.095 720.737 424.037 720.35 424.07H717.76V433.12H719.86ZM720.86 448.52C721.244 448.553 721.631 448.502 721.994 448.371C722.356 448.24 722.686 448.031 722.96 447.76C723.498 447.002 723.743 446.075 723.65 445.15V442.15C723.764 441.002 723.478 439.851 722.84 438.89C722.486 438.56 722.065 438.309 721.607 438.154C721.148 437.999 720.662 437.943 720.18 437.99H717.78V448.5L720.86 448.52Z" fill="white"/>
<path d="M768.32 419.18H776.54C779.207 419.18 781.207 419.9 782.54 421.34C783.88 422.77 784.54 424.87 784.54 427.64V445C784.54 447.77 783.88 449.88 782.54 451.31C781.2 452.74 779.2 453.46 776.54 453.46H768.32V419.18ZM776.44 448.52C776.81 448.539 777.179 448.479 777.524 448.344C777.869 448.21 778.181 448.004 778.44 447.74C778.978 447.008 779.23 446.105 779.15 445.2V427.4C779.232 426.495 778.979 425.591 778.44 424.86C778.182 424.594 777.87 424.386 777.525 424.25C777.18 424.114 776.811 424.053 776.44 424.07H773.7V448.52H776.44Z" fill="white"/>
<path d="M802.35 419.18H817V424.07H807.71V433.12H815.1V438H807.71V448.51H817V453.4H802.35V419.18Z" fill="white"/>
<path d="M835.46 451.68C834.017 449.879 833.304 447.602 833.46 445.3V443.3H838.55V445.65C838.55 447.863 839.476 448.97 841.33 448.97C841.715 448.998 842.101 448.94 842.461 448.8C842.821 448.66 843.145 448.441 843.41 448.16C843.95 447.403 844.202 446.477 844.12 445.55C844.141 444.219 843.795 442.908 843.12 441.76C842.116 440.274 840.896 438.946 839.5 437.82C837.674 436.318 836.107 434.528 834.86 432.52C833.964 430.877 833.51 429.031 833.54 427.16C833.393 424.881 834.127 422.633 835.59 420.88C836.373 420.102 837.313 419.5 838.348 419.116C839.383 418.731 840.488 418.572 841.59 418.65C842.667 418.575 843.747 418.736 844.755 419.121C845.764 419.506 846.677 420.106 847.43 420.88C848.865 422.685 849.578 424.959 849.43 427.26V428.68H844.35V427C844.425 426.089 844.181 425.18 843.66 424.43C843.409 424.153 843.099 423.937 842.752 423.798C842.406 423.66 842.032 423.602 841.66 423.63C839.86 423.63 838.97 424.72 838.97 426.9C838.964 428.129 839.311 429.333 839.97 430.37C840.993 431.838 842.218 433.155 843.61 434.28C845.459 435.772 847.032 437.576 848.26 439.61C849.141 441.353 849.577 443.287 849.53 445.24C849.53 448.04 848.836 450.19 847.45 451.69C846.665 452.468 845.725 453.071 844.691 453.459C843.657 453.847 842.552 454.011 841.45 453.94C840.346 454.026 839.238 453.868 838.203 453.477C837.168 453.087 836.231 452.473 835.46 451.68Z" fill="white"/>
<path d="M960.021 452.049C958.579 450.248 957.865 447.971 958.021 445.669V443.669H963.111V446.019C963.111 448.233 964.038 449.339 965.891 449.339C966.276 449.367 966.663 449.309 967.022 449.169C967.382 449.029 967.706 448.81 967.971 448.529C968.511 447.772 968.763 446.846 968.681 445.919C968.702 444.588 968.356 443.277 967.681 442.129C966.677 440.643 965.457 439.315 964.061 438.189C962.236 436.687 960.668 434.897 959.421 432.889C958.526 431.246 958.071 429.4 958.101 427.529C957.954 425.251 958.688 423.003 960.151 421.249C960.934 420.471 961.875 419.87 962.91 419.485C963.945 419.1 965.05 418.941 966.151 419.019C967.228 418.944 968.308 419.105 969.317 419.49C970.326 419.875 971.238 420.476 971.991 421.249C973.426 423.054 974.139 425.328 973.991 427.629V429.049H968.911V427.369C968.987 426.458 968.743 425.55 968.221 424.799C967.971 424.522 967.66 424.306 967.314 424.168C966.967 424.029 966.593 423.971 966.221 423.999C964.421 423.999 963.531 425.089 963.531 427.269C963.526 428.498 963.873 429.702 964.531 430.739C965.554 432.207 966.78 433.524 968.171 434.649C970.02 436.141 971.594 437.945 972.821 439.979C973.702 441.722 974.139 443.657 974.091 445.609C974.091 448.409 973.398 450.559 972.011 452.059C971.227 452.837 970.287 453.44 969.252 453.828C968.218 454.216 967.113 454.38 966.011 454.309C964.908 454.395 963.8 454.237 962.764 453.847C961.729 453.456 960.793 452.842 960.021 452.049Z" fill="white"/>
<path d="M866.75 419.18H872.13V453.41H866.75V419.18Z" fill="white"/>
<path d="M892 451.68C890.528 449.892 889.795 447.61 889.95 445.3V427.3C889.95 424.533 890.633 422.407 892 420.92C893.654 419.481 895.773 418.689 897.965 418.689C900.157 418.689 902.276 419.481 903.93 420.92C905.411 422.703 906.152 424.987 906 427.3V430.23H900.91V427C900.91 424.753 899.98 423.63 898.12 423.63C896.26 423.63 895.323 424.753 895.31 427V445.73C895.31 447.943 896.237 449.05 898.09 449.05C899.943 449.05 900.873 447.943 900.88 445.73V439H898.19V434.1H906V445.3C906.152 447.611 905.415 449.894 903.94 451.68C902.283 453.113 900.166 453.901 897.975 453.901C895.784 453.901 893.667 453.113 892.01 451.68H892Z" fill="white"/>
<path d="M923.62 419.18H930.37L935.6 439.67H935.69V419.18H940.49V453.41H935L928.55 428.41H928.45V453.41H923.66L923.62 419.18Z" fill="white"/>
<path d="M584.74 478.14L500.75 400.07L483.96 405.41L405.57 322L328.37 400.56L317.76 396.68L307.15 400.56L285.94 382.13L194 478.14L272.38 413.81L276.39 422.74L267.56 433.3L278.86 447.43L265.31 461.66H275.33L308.92 433.85L315.01 435.97L401.29 348.15L413.24 400.07L381.85 426.74L365.5 457.78L351.35 470.38H364.62L393.79 438.38L461.86 435.47L472.46 462.63L487.49 470.38L506.94 434.5L584.74 478.14Z" fill="white"/>
</svg>
