<svg xmlns="http://www.w3.org/2000/svg" version="1.1" xmlns:xlink="http://www.w3.org/1999/xlink" width="512" height="512" x="0" y="0" viewBox="0 0 512 512" style="enable-background:new 0 0 512 512" xml:space="preserve"><g><path d="M266.667 298.667h170.667c5.888 0 10.667-4.779 10.667-10.667s-4.779-10.667-10.667-10.667H266.667c-5.888 0-10.667 4.779-10.667 10.667s4.779 10.667 10.667 10.667z" fill="#004c92" opacity="1" data-original="#000000"></path><path d="M512 202.667V160c0-10.304-3.072-19.84-8.149-28.011-.128-.256-.149-.555-.299-.789L437.589 25.173C427.797 9.429 410.859 0 392.299 0H119.723c-18.581 0-35.499 9.429-45.291 25.173L8.469 131.2c-.128.213-.128.448-.256.683C3.093 140.053 0 149.653 0 160v42.667c0 17.493 8.597 32.939 21.675 42.667C8.597 255.061 0 270.485 0 288v42.667c0 17.493 8.597 32.939 21.675 42.667C8.597 383.061 0 398.485 0 416v42.667C0 488.064 23.936 512 53.333 512h139.861a10.658 10.658 0 0 0 10.667-10.667c0-5.888-4.779-10.667-10.667-10.667H53.333c-17.643 0-32-14.357-32-32V416c0-17.664 14.357-32 32-32h178.432c5.888 0 10.667-4.779 10.667-10.667s-4.779-10.667-10.667-10.667H53.333c-17.643 0-32-14.357-32-32V288c0-17.664 14.357-32 32-32h405.333c17.643 0 32 14.357 32 32v42.667c0 4.693-1.152 9.408-3.371 13.952-2.581 5.291-.405 11.669 4.885 14.272 5.312 2.603 11.691.427 14.272-4.885 3.691-7.509 5.547-15.339 5.547-23.339V288c0-17.493-8.597-32.939-21.675-42.667C503.403 235.584 512 220.16 512 202.667zM92.544 36.437c5.867-9.451 16.021-15.104 27.157-15.104h272.576c11.136 0 21.291 5.653 27.179 15.104l44.011 70.72c-1.6-.171-3.157-.491-4.8-.491H53.333c-1.643 0-3.2.32-4.8.469l44.011-70.698zm398.123 166.23c0 17.643-14.357 32-32 32H53.333c-17.643 0-32-14.357-32-32V160c0-17.664 14.357-32 32-32h405.333c17.643 0 32 14.336 32 32v42.667z" fill="#004c92" opacity="1" data-original="#000000"></path><path d="M42.667 437.333c0 17.643 14.357 32 32 32s32-14.357 32-32-14.357-32-32-32-32 14.336-32 32zm42.666 0c0 5.888-4.779 10.667-10.667 10.667S64 443.221 64 437.333s4.779-10.667 10.667-10.667 10.666 4.779 10.666 10.667zM437.333 362.667c-1.941 0-3.883.107-5.781.277C413.781 336.277 383.936 320 352 320c-49.664 0-90.645 37.909-95.509 86.315-24.555 4.736-43.157 26.411-43.157 52.352 0 29.397 23.936 53.333 53.333 53.333h170.667C478.507 512 512 478.507 512 437.333s-33.493-74.666-74.667-74.666zm0 128H266.667c-17.643 0-32-14.357-32-32s14.357-32 32-32c5.888 0 10.667-4.779 10.667-10.667 0-41.173 33.493-74.667 74.667-74.667 26.667 0 51.52 14.699 64.811 38.357 2.219 3.947 6.613 6.037 11.179 5.269 3.051-.533 6.144-.96 9.344-.96 29.397 0 53.333 23.936 53.333 53.333s-23.937 53.335-53.335 53.335zM437.333 149.333H266.667c-5.888 0-10.667 4.779-10.667 10.667s4.779 10.667 10.667 10.667h170.667c5.888 0 10.667-4.779 10.667-10.667s-4.78-10.667-10.668-10.667zM437.333 192H266.667c-5.888 0-10.667 4.779-10.667 10.667s4.779 10.667 10.667 10.667h170.667c5.888 0 10.667-4.779 10.667-10.667S443.221 192 437.333 192zM74.667 149.333c-17.643 0-32 14.336-32 32s14.357 32 32 32 32-14.357 32-32c0-17.642-14.358-32-32-32zm0 42.667C68.779 192 64 187.221 64 181.333s4.779-10.667 10.667-10.667 10.667 4.779 10.667 10.667S80.555 192 74.667 192zM42.667 309.333c0 17.643 14.357 32 32 32s32-14.357 32-32-14.357-32-32-32-32 14.336-32 32zm42.666 0c0 5.888-4.779 10.667-10.667 10.667S64 315.221 64 309.333s4.779-10.667 10.667-10.667 10.666 4.779 10.666 10.667z" fill="#004c92" opacity="1" data-original="#000000"></path></g></svg>