<?xml version="1.0"?>
<svg xmlns="http://www.w3.org/2000/svg" xmlns:xlink="http://www.w3.org/1999/xlink" viewBox="0 0 64 64" width="512" height="512"><defs><linearGradient id="New_Gradient_Swatch_3" x1="32" y1="65.52" x2="32" y2="3.014" gradientUnits="userSpaceOnUse"><stop offset="0" stop-color="#006df0"/><stop offset="1" stop-color="#00e7f0"/></linearGradient><linearGradient id="New_Gradient_Swatch_3-2" x1="41" y1="65.52" x2="41" y2="3.014" xlink:href="#New_Gradient_Swatch_3"/><linearGradient id="New_Gradient_Swatch_3-3" x1="8" y1="65.52" x2="8" y2="3.014" xlink:href="#New_Gradient_Swatch_3"/><linearGradient id="New_Gradient_Swatch_3-4" x1="14" y1="65.52" x2="14" y2="3.014" xlink:href="#New_Gradient_Swatch_3"/><linearGradient id="New_Gradient_Swatch_3-5" x1="20" y1="65.52" x2="20" y2="3.014" xlink:href="#New_Gradient_Swatch_3"/><linearGradient id="New_Gradient_Swatch_3-7" x1="32.16" y1="65.52" x2="32.16" y2="3.014" xlink:href="#New_Gradient_Swatch_3"/><linearGradient id="New_Gradient_Swatch_3-8" x1="15.5" y1="65.52" x2="15.5" y2="3.014" xlink:href="#New_Gradient_Swatch_3"/><linearGradient id="New_Gradient_Swatch_3-9" x1="26" y1="65.52" x2="26" y2="3.014" xlink:href="#New_Gradient_Swatch_3"/><linearGradient id="New_Gradient_Swatch_3-10" x1="36.5" y1="65.52" x2="36.5" y2="3.014" xlink:href="#New_Gradient_Swatch_3"/></defs><g id="Website_optimize" data-name="Website optimize"><path d="M59,2H5A3,3,0,0,0,2,5V53a3,3,0,0,0,3,3H19.786l3.727,3.727a1,1,0,0,0,1.414,0l2.654-2.654c.136.059.275.117.419.174V61a1,1,0,0,0,1,1h6a1,1,0,0,0,1-1V57.247c.144-.057.283-.115.419-.174l2.654,2.654a1.029,1.029,0,0,0,1.414,0L44.214,56H59a3,3,0,0,0,3-3V5A3,3,0,0,0,59,2ZM39.78,57.606l-2.453-2.453a1,1,0,0,0-1.188-.17,8.112,8.112,0,0,1-1.446.605A1,1,0,0,0,34,56.54V60H30V56.54a1,1,0,0,0-.693-.952,8.112,8.112,0,0,1-1.446-.605,1,1,0,0,0-1.188.17L24.22,57.606,21.4,54.78l2.452-2.453a1,1,0,0,0,.17-1.187,8.225,8.225,0,0,1-.605-1.446A1,1,0,0,0,22.46,49H19V45h3.46a1,1,0,0,0,.952-.694,8.225,8.225,0,0,1,.605-1.446,1,1,0,0,0-.17-1.187L21.4,39.22l2.825-2.826,2.453,2.453a1,1,0,0,0,1.188.17,8.112,8.112,0,0,1,1.446-.605A1,1,0,0,0,30,37.46V34h4v3.46a1,1,0,0,0,.693.952,8.112,8.112,0,0,1,1.446.605,1,1,0,0,0,1.188-.17l2.453-2.453,2.825,2.826-2.452,2.453a1,1,0,0,0-.17,1.187,8.225,8.225,0,0,1,.605,1.446A1,1,0,0,0,41.54,45H45v4H41.54a1,1,0,0,0-.952.694,8.225,8.225,0,0,1-.605,1.446,1,1,0,0,0,.17,1.187l2.452,2.453ZM60,53a1,1,0,0,1-1,1H44.654l-2.581-2.582c.06-.135.117-.274.174-.418H46a1,1,0,0,0,1-1V44a1,1,0,0,0-1-1H42.247c-.057-.144-.114-.283-.174-.419l2.654-2.654a1,1,0,0,0,0-1.414l-4.24-4.24a1,1,0,0,0-1.414,0l-2.654,2.654c-.136-.059-.275-.117-.419-.174V33a1,1,0,0,0-1-1H29a1,1,0,0,0-1,1v3.753c-.144.057-.283.115-.419.174l-2.654-2.654a1.029,1.029,0,0,0-1.414,0l-4.24,4.24a1,1,0,0,0,0,1.414l2.654,2.654c-.06.136-.117.275-.174.419H18a1,1,0,0,0-1,1v6a1,1,0,0,0,1,1h3.753c.057.144.114.283.174.418L19.346,54H5a1,1,0,0,1-1-1V14H60ZM4,12V5A1,1,0,0,1,5,4H59a1,1,0,0,1,1,1v7Z" style="fill:url(#New_Gradient_Swatch_3)"/><path d="M55,5H27a3,3,0,0,0,0,6H55a3,3,0,0,0,0-6Zm0,4H27a1,1,0,0,1,0-2H55a1,1,0,0,1,0,2Z" style="fill:url(#New_Gradient_Swatch_3-2)"/><circle cx="8" cy="8" r="2" style="fill:url(#New_Gradient_Swatch_3-3)"/><circle cx="14" cy="8" r="2" style="fill:url(#New_Gradient_Swatch_3-4)"/><circle cx="20" cy="8" r="2" style="fill:url(#New_Gradient_Swatch_3-5)"/><path d="M32,41a6,6,0,1,0,6,6A6.006,6.006,0,0,0,32,41Zm0,10a4,4,0,1,1,4-4A4,4,0,0,1,32,51Z" style="fill:url(#New_Gradient_Swatch_3)"/><path d="M14,29H37.63a5,5,0,0,1,3.6,1.537,8,8,0,0,0,13-2.11A1,1,0,0,0,53.32,27H47.531L46.2,25.03,47.539,23H53.32a1,1,0,0,0,.905-1.427,8,8,0,0,0-13-2.11A5,5,0,0,1,37.63,21H14a4,4,0,0,0,0,8Zm0-6H37.63a7.005,7.005,0,0,0,5.041-2.155A6.007,6.007,0,0,1,51.478,21H47a1,1,0,0,0-.835.45l-2,3.037a1,1,0,0,0,.006,1.109l2,2.964A1,1,0,0,0,47,29h4.478a6.007,6.007,0,0,1-8.807.155A7.005,7.005,0,0,0,37.63,27H14a2,2,0,0,1,0-4Z" style="fill:url(#New_Gradient_Swatch_3-7)"/><path d="M15,26h1a1,1,0,0,0,0-2H15a1,1,0,0,0,0,2Z" style="fill:url(#New_Gradient_Swatch_3-8)"/><path d="M19,26H33a1,1,0,0,0,0-2H19a1,1,0,0,0,0,2Z" style="fill:url(#New_Gradient_Swatch_3-9)"/><path d="M36,26h1a1,1,0,0,0,0-2H36a1,1,0,0,0,0,2Z" style="fill:url(#New_Gradient_Swatch_3-10)"/></g></svg>
