<svg id="glipy_copy" viewBox="0 0 64 64" xmlns="http://www.w3.org/2000/svg" xmlns:xlink="http://www.w3.org/1999/xlink" data-name="glipy copy"><linearGradient id="linear-gradient" gradientUnits="userSpaceOnUse" x1="4" x2="60" y1="32" y2="32"><stop offset="0" stop-color="#00c0ff"/><stop offset="1" stop-color="#5558ff"/></linearGradient><path d="m56 4.0441h-23.58l8 8h19.58v-4a3.99887 3.99887 0 0 0 -4-4zm-11.98 5a1 1 0 0 1 0-2 1 1 0 0 1 0 2zm5.5 0a1 1 0 0 1 0-2 1 1 0 0 1 0 2zm5.5 0a1 1 0 0 1 0-2 1 1 0 0 1 0 2zm-25.44-5h-21.58a3.99887 3.99887 0 0 0 -4 4v4h33.58zm-1.58 5h-19a1.00011 1.00011 0 0 1 0-2h19a1.00012 1.00012 0 0 1 0 2zm-7.18 36.27c8.39955 10.41678 25.45719 4.438 25.4699-9.01016a14.35023 14.35023 0 0 0 -14.3299-14.33985c-11.94492-.10254-18.72718 14.20598-11.14 23.34997zm2.03-4.15 5.66-5.66a1.03423 1.03423 0 0 1 1.41 0l2.12 2.12 5.9-5.9h-.41a1.00016 1.00016 0 0 1 .00006-2h2.82994a1.003 1.003 0 0 1 1 1v2.83a1.003 1.003 0 0 1 -1 1c-.793-.00854-1.08162-.722-1-1.41l-6.61 6.61a1.00792 1.00792 0 0 1 -1.42 0l-2.12-2.13-4.95 4.95a.99717.99717 0 0 1 -1.41-1.41zm-18.85-27.12h56v37a3.9989 3.9989 0 0 1 -4 4h-35.01l3.98977-3.99025c10.44335 5.246 23.57007-3.04 23.31022-14.74974a16.35583 16.35583 0 0 0 -16.32973-16.33978c-11.71954-.26061-19.9909 12.85221-14.77026 23.30975l-9.28 9.29a5.54485 5.54485 0 0 0 -1.35 2.2 3.974 3.974 0 0 1 -2.56-3.71998zm19.16 36.01-8.88995 8.88a3.50017 3.50017 0 1 1 -4.95-4.95l8.88-8.88a16.29983 16.29983 0 0 0 3.46 3.86 13.568 13.568 0 0 0 1.49995 1.09001z" fill="url(#linear-gradient)"/></svg>