<svg xmlns="http://www.w3.org/2000/svg" version="1.1" xmlns:xlink="http://www.w3.org/1999/xlink" width="512" height="512" x="0" y="0" viewBox="0 0 32 32" style="enable-background:new 0 0 512 512" xml:space="preserve" class=""><g><path d="M1 29c0 1.1.9 2 2 2h26c1.1 0 2-.9 2-2V9H1zm20.5-3h-11c-.55 0-1-.45-1-1s.45-1 1-1h11c.55 0 1 .45 1 1s-.45 1-1 1zm3.5-2h.5c.55 0 1 .45 1 1s-.45 1-1 1H25c-.55 0-1-.45-1-1s.45-1 1-1zm-5.03-8.82c-.37-.41-.35-1.04.06-1.41s1.04-.34 1.41.06l2.29 2.5a1 1 0 0 1 0 1.35l-2.29 2.5c-.2.21-.47.32-.74.32-.24 0-.48-.09-.68-.26a.997.997 0 0 1-.06-1.41l1.67-1.82-1.67-1.82zm-5.86 5.6 1.83-8c.12-.54.66-.88 1.2-.75.54.12.88.66.75 1.2l-1.83 8c-.11.46-.52.78-.97.78-.07 0-.15 0-.22-.03a.992.992 0 0 1-.75-1.2zm-5.85-4.45 2.29-2.5a.997.997 0 1 1 1.47 1.35L10.35 17l1.67 1.82a.996.996 0 0 1-.74 1.67c-.27 0-.54-.11-.74-.32l-2.29-2.5a1 1 0 0 1 0-1.35zM6.5 24.01H7c.55 0 1 .45 1 1s-.45 1-1 1h-.5c-.55 0-1-.45-1-1s.45-1 1-1zM29 1H3c-1.1 0-2 .9-2 2v4h30V3c0-1.1-.9-2-2-2zM5.5 5H5c-.55 0-1-.45-1-1s.45-1 1-1h.5c.55 0 1 .45 1 1s-.45 1-1 1zm4 0H9c-.55 0-1-.45-1-1s.45-1 1-1h.5c.55 0 1 .45 1 1s-.45 1-1 1zm4 0H13c-.55 0-1-.45-1-1s.45-1 1-1h.5c.55 0 1 .45 1 1s-.45 1-1 1z" fill="#ffffff" opacity="1" data-original="#000000" class=""></path></g></svg>