<svg xmlns="http://www.w3.org/2000/svg" version="1.1" xmlns:xlink="http://www.w3.org/1999/xlink" width="512" height="512" x="0" y="0" viewBox="0 0 512 512" style="enable-background:new 0 0 512 512" xml:space="preserve" class=""><g><path fill-rule="evenodd" d="m432.275 330.294-90.553 26.512c1.253 14.568-6.038 28.37-18.738 35.702-8.249 4.762-18.272 6.44-28.133 3.917l-87.315-23.393a6.991 6.991 0 0 1 3.61-13.508l86.902 23.286c12.605 3.378 25.646-4.14 29.026-16.747 2.975-12.892-3.769-25.553-16.751-29.031l-65.39-17.521a6.97 6.97 0 0 1-2.242-1.066c-20.899-14.82-36.382-20.191-50.559-19.826-14.271.368-28.123 6.603-45.101 14.905-15.741 7.697-31.059 15.02-46.214 22.2l40.506 97.264 15.581-7.576c11.43-5.557 23.153-6.54 35.355-2.998l72.118 20.94c19.04 5.528 43.878-4.137 63.582-11.805l139.749-53.865c13.648-5.259 24.836-23.338 20.353-37.87-6.507-21.106-40.913-13.874-55.786-9.52zM129.889 480.473l-34.672 14.398c-7.523 3.124-16.205-.458-19.336-7.978L17.168 345.911a14.73 14.73 0 0 1 7.986-19.356l34.672-14.397c7.523-3.124 16.205.458 19.336 7.978l58.712 140.983a14.728 14.728 0 0 1-7.985 19.354zM385.613 50.884c0 19.269 15.62 34.889 34.889 34.889 19.27 0 34.89-15.62 34.89-34.889 0-19.264-15.62-34.884-34.89-34.884-19.269 0-34.889 15.62-34.889 34.884zm-94.511 26.127c0 19.27 15.62 34.889 34.889 34.889s34.889-15.619 34.889-34.889c0-19.264-15.62-34.884-34.889-34.884s-34.889 15.62-34.889 34.884zm110.375 130.48c0 41.689-150.975 41.689-150.975 0 0-41.688 33.801-75.485 75.49-75.485s75.485 33.797 75.485 75.485zM196.591 50.884c0 19.269 15.62 34.889 34.889 34.889 19.27 0 34.89-15.62 34.89-34.889C266.37 31.62 250.75 16 231.48 16c-19.269 0-34.889 15.62-34.889 34.884zm299.397 130.48c0-41.689-33.796-75.485-75.485-75.485-20.85 0-39.726 8.454-53.388 22.119 28.728 14.894 48.362 44.903 48.362 79.493a31.84 31.84 0 0 1-.4 5.061c39.462 1.047 80.911-9.343 80.911-31.188zm-259.086 31.188a31.704 31.704 0 0 1-.4-5.061c0-34.59 19.636-64.598 48.365-79.492-13.661-13.666-32.536-22.12-53.386-22.12-41.689 0-75.49 33.797-75.49 75.485-.001 21.845 41.448 32.235 80.911 31.188z" clip-rule="evenodd" fill="#ffffff" opacity="1" data-original="#000000"></path></g></svg>