<svg width="44" height="44" viewBox="0 0 44 44" fill="none" xmlns="http://www.w3.org/2000/svg">
<path d="M19.6968 31.8106H28.4693C28.481 31.8106 28.4913 31.8168 28.5023 31.8175H38.6085C39.3087 31.8169 39.98 31.5386 40.4752 31.0437C40.9704 30.5488 41.249 29.8776 41.2499 29.1775V27.83H19.6968V31.8106ZM25.5405 29.075H26.1531C26.3354 29.075 26.5103 29.1475 26.6392 29.2764C26.7682 29.4053 26.8406 29.5802 26.8406 29.7625C26.8406 29.9449 26.7682 30.1197 26.6392 30.2487C26.5103 30.3776 26.3354 30.45 26.1531 30.45H25.5405C25.3582 30.45 25.1833 30.3776 25.0544 30.2487C24.9255 30.1197 24.853 29.9449 24.853 29.7625C24.853 29.5802 24.9255 29.4053 25.0544 29.2764C25.1833 29.1475 25.3582 29.075 25.5405 29.075ZM21.7263 29.075H22.3395C22.5219 29.075 22.6967 29.1475 22.8257 29.2764C22.9546 29.4053 23.027 29.5802 23.027 29.7625C23.027 29.9449 22.9546 30.1197 22.8257 30.2487C22.6967 30.3776 22.5219 30.45 22.3395 30.45H21.7249C21.5426 30.45 21.3677 30.3776 21.2388 30.2487C21.1098 30.1197 21.0374 29.9449 21.0374 29.7625C21.0374 29.5802 21.1098 29.4053 21.2388 29.2764C21.3677 29.1475 21.5426 29.075 21.7249 29.075H21.7263Z" fill="#004C92"/>
<path d="M19.6969 38.5894C19.6946 39.1301 19.5397 39.6592 19.25 40.1157H31.5563V39.5932C31.5566 39.0801 31.3534 38.5878 30.9912 38.2243C30.6291 37.8608 30.1375 37.6559 29.6244 37.6544H19.6969V38.5894Z" fill="#004C92"/>
<path d="M4.28313 40.1156H16.7887C17.1943 40.116 17.5834 39.9555 17.8708 39.6694C18.1582 39.3833 18.3204 38.9949 18.3219 38.5894V15.2556C18.3204 14.8501 18.1582 14.4617 17.8708 14.1756C17.5834 13.8895 17.1943 13.729 16.7887 13.7294H4.28313C3.87754 13.7288 3.4883 13.8892 3.20087 14.1754C2.91343 14.4615 2.75127 14.85 2.75 15.2556V38.5894C2.75127 38.995 2.91343 39.3835 3.20087 39.6696C3.4883 39.9558 3.87754 40.1162 4.28313 40.1156ZM10.8481 14.9029H12.3454C12.5278 14.9029 12.7026 14.9754 12.8316 15.1043C12.9605 15.2332 13.0329 15.4081 13.0329 15.5904C13.0329 15.7728 12.9605 15.9476 12.8316 16.0766C12.7026 16.2055 12.5278 16.2779 12.3454 16.2779H10.8481C10.6657 16.2779 10.4909 16.2055 10.3619 16.0766C10.233 15.9476 10.1606 15.7728 10.1606 15.5904C10.1606 15.4081 10.233 15.2332 10.3619 15.1043C10.4909 14.9754 10.6657 14.9029 10.8481 14.9029ZM8.72644 14.9029H9.01725C9.19959 14.9029 9.37445 14.9754 9.50339 15.1043C9.63232 15.2332 9.70475 15.4081 9.70475 15.5904C9.70475 15.7728 9.63232 15.9476 9.50339 16.0766C9.37445 16.2055 9.19959 16.2779 9.01725 16.2779H8.72644C8.5441 16.2779 8.36923 16.2055 8.2403 16.0766C8.11137 15.9476 8.03894 15.7728 8.03894 15.5904C8.03894 15.4081 8.11137 15.2332 8.2403 15.1043C8.36923 14.9754 8.5441 14.9029 8.72644 14.9029ZM8.54012 37.1937H12.5318C12.7141 37.1937 12.889 37.2662 13.0179 37.3951C13.1468 37.524 13.2193 37.6989 13.2193 37.8812C13.2193 38.0636 13.1468 38.2385 13.0179 38.3674C12.889 38.4963 12.7141 38.5687 12.5318 38.5687H8.54012C8.35779 38.5687 8.18292 38.4963 8.05399 38.3674C7.92506 38.2385 7.85262 38.0636 7.85262 37.8812C7.85262 37.6989 7.92506 37.524 8.05399 37.3951C8.18292 37.2662 8.35779 37.1937 8.54012 37.1937Z" fill="#004C92"/>
<path d="M19.6968 33.1925H27.7818V36.2794H19.6968V33.1925Z" fill="#004C92"/>
<path d="M38.61 3.8844H5.39C4.69011 3.88531 4.01914 4.16374 3.52424 4.65864C3.02934 5.15354 2.75091 5.82451 2.75 6.5244V12.8013C3.20887 12.5112 3.74024 12.3563 4.28313 12.3544H16.7887C17.5588 12.3544 18.2975 12.6598 18.8427 13.2037C19.3879 13.7476 19.6951 14.4856 19.6969 15.2556V26.455H41.25V6.5244C41.2491 5.82451 40.9707 5.15354 40.4758 4.65864C39.9809 4.16374 39.3099 3.88531 38.61 3.8844Z" fill="#004C92"/>
</svg>
