<svg id="Capa_1" enable-background="new 0 0 625 625" height="625" viewBox="0 0 500 600" width="700" xmlns="http://www.w3.org/2000/svg" xmlns:xlink="http://www.w3.org/1999/xlink"><linearGradient id="SVGID_1_" gradientUnits="userSpaceOnUse" x1="256" x2="256" y1="625" y2="0"><stop offset="0" stop-color="#5558fd"/><stop offset="1" stop-color="#03befd"/></linearGradient><g><g><path d="m406 60c-8.284 0-15 6.716-15 15s6.716 15 15 15 15-6.716 15-15-6.716-15-15-15zm61-60h-422c-24.813 0-45 20.187-45 45v422c0 24.813 20.187 45 45 45h422c24.813 0 45-20.187 45-45v-422c0-24.813-20.187-45-45-45zm15 467c0 8.271-6.729 15-15 15h-422c-8.271 0-15-6.729-15-15v-377h136c8.271 0 15 6.729 15 15 0 24.813 20.187 45 45 45h256zm0-347h-256c-8.271 0-15-6.729-15-15 0-24.813-20.187-45-45-45h-136v-15c0-8.271 6.729-15 15-15h422c8.271 0 15 6.729 15 15zm-361 166c0 57.897 47.103 105 105 105 23.551 0 45.314-7.794 62.849-20.938l76.544 76.544c5.857 5.857 15.355 5.858 21.213 0s5.858-15.355 0-21.213l-76.544-76.544c13.144-17.535 20.938-39.298 20.938-62.849 0-58.006-47.231-105-105-105-57.897 0-105 47.103-105 105zm79.394-19.394 19.393 19.394-19.394 19.394c-5.858 5.858-5.858 15.355 0 21.213 5.857 5.857 15.355 5.858 21.213 0l30-30c5.858-5.858 5.858-15.355 0-21.213l-19.393-19.394 33.548-33.549c21.145 13.278 35.239 36.792 35.239 63.549 0 41.355-33.645 75-75 75s-75-33.645-75-75 33.645-75 75-75c2.812 0 5.583.169 8.315.472l-33.921 33.922c-5.859 5.857-5.859 15.355 0 21.212zm85.606-206.606c-8.284 0-15 6.716-15 15s6.716 15 15 15 15-6.716 15-15-6.716-15-15-15zm60 0c-8.284 0-15 6.716-15 15s6.716 15 15 15 15-6.716 15-15-6.716-15-15-15z" fill="url(#SVGID_1_)"/></g></g></svg>