<svg xmlns="http://www.w3.org/2000/svg" version="1.1" xmlns:xlink="http://www.w3.org/1999/xlink" width="512" height="512" x="0" y="0" viewBox="0 0 512 512" style="enable-background:new 0 0 512 512" xml:space="preserve" class=""><g><path fill="#eeeeee" d="M504 119.977C503.996 60.199 457.055 10.96 397.348 8.109 337.64 5.254 286.215 49.793 280.512 109.293c-5.703 59.504 36.324 113 95.488 121.539v49.145h32v-49.145c55.07-8.023 95.93-55.207 96-110.855zm0 0" opacity="1" data-original="#eeeeee"></path><path fill="#ef8354" d="M360 279.977h64v224h-64zm0 0" opacity="1" data-original="#ff8a65" class=""></path><path fill="#4f5d75" d="M472 119.977c0 44.183-35.816 80-80 80s-80-35.817-80-80c0-44.184 35.816-80 80-80s80 35.816 80 80zm0 0" opacity="1" data-original="#9fa8da" class=""></path><g fill="#ffe082"><path d="M24 391.977h64v112H24zM136 311.977h64v192h-64zM248 247.977h64v256h-64zm0 0" fill="#2d3142" opacity="1" data-original="#ffe082" class=""></path></g><path fill="#ffffff" d="M416.344 111.633 392 87.289l-24.344 24.344-11.312-11.313L392 64.664l35.656 35.656zm0 0" opacity="1" data-original="#ffffff"></path><path fill="#ffffff" d="M384 79.977h16v88h-16zm0 0" opacity="1" data-original="#ffffff"></path><path d="M432 271.977h-16v-34.403c60.36-12.32 101.586-68.344 95.39-129.637C505.2 46.648 453.606 0 392 0S278.8 46.648 272.61 107.938c-6.196 61.292 35.03 117.316 95.39 129.636v34.403h-16v224h-32v-256h-80v256h-32v-192h-80v192H96v-112H16v112H0v16h512v-16h-80zm-352 224H32v-96h48zm112 0h-48v-176h48zm112 0h-48v-240h48zm-16-376c0-55.508 43.59-101.23 99.035-103.88 55.442-2.652 103.195 38.708 108.492 93.958 5.293 55.254-33.734 104.93-88.672 112.855l-6.855.985v48.082h-16v-48.082l-6.855-.985c-51.063-7.582-88.934-51.312-89.145-102.933zm128 376h-48v-208h48zm0 0" fill="#000000" opacity="1" data-original="#000000" class=""></path><path d="M480 119.977c0-48.602-39.398-88-88-88s-88 39.398-88 88c0 48.601 39.398 88 88 88 48.578-.059 87.941-39.422 88-88zm-160 0c0-39.766 32.234-72 72-72s72 32.234 72 72c0 39.761-32.234 72-72 72-39.746-.047-71.957-32.254-72-72zM115.129 271.977h56.183L240 203.289v20.688h16v-48h-48v16h20.688l-64 64H108.87L2.566 354.102l10.868 11.746zM464 271.977h48v16h-48zM464 303.977h48v16h-48zM464 335.977h48v16h-48zM464 367.977h48v16h-48zM464 399.977h48v16h-48zM464 431.977h48v16h-48zM464 463.977h48v16h-48zm0 0" fill="#000000" opacity="1" data-original="#000000" class=""></path></g></svg>