<svg width="48" height="48" viewBox="0 0 48 48" fill="none" xmlns="http://www.w3.org/2000/svg">
<g clip-path="url(#clip0_263_223)">
<path d="M10.7869 30.1621L13.2767 32.652L17.5289 28.3583C13.4431 23.4882 12.5738 17.0545 14.4731 11.6069L20.1311 17.2649C20.0829 22.9535 24.7144 27.9253 30.7575 27.9253C34.3051 27.9252 37.4517 26.1775 39.3829 23.4983L32.959 17.0743L28.5043 21.5292L11.9375 4.96242V8.71883H9.03212L9.03222 0.00280762H17.7481V2.90805L13.9918 2.90815L28.5043 17.4206L32.959 12.9656L40.7916 20.7981C42.0761 17.1256 41.2945 12.807 38.2719 9.78431C34.3992 5.91188 28.3163 5.66377 24.1616 8.96559L19.4643 4.26823C26.2308 -1.61372 36.4977 -1.34604 42.9498 5.10613C46.2064 8.36273 47.9999 12.6928 47.9999 17.2984C47.9999 26.806 40.265 34.5412 30.7574 34.5413C26.612 34.5413 22.6905 33.0877 19.5736 30.4227L15.331 34.7064L17.8309 37.2065L7.04438 47.9933L0 40.9489L10.7869 30.1621Z" fill="#004C92"/>
<path d="M24.707 39.281H47.9497V42.1863H24.707V39.281Z" fill="#004C92"/>
<path d="M15.9907 45.0917H33.4228V47.9969H15.9907V45.0917Z" fill="#004C92"/>
</g>
<defs>
<clipPath id="clip0_263_223">
<rect width="48" height="48" fill="white"/>
</clipPath>
</defs>
</svg>
