<svg xmlns="http://www.w3.org/2000/svg" version="1.1" xmlns:xlink="http://www.w3.org/1999/xlink" width="512" height="512" x="0" y="0" viewBox="0 0 512 512" style="enable-background:new 0 0 512 512" xml:space="preserve"><g><path d="M508.016 112.284a7.91 7.91 0 0 0-7.309-4.884h-99.489V7.911a7.91 7.91 0 0 0-13.505-5.594l-56.681 56.681-.005.005-.005.005L277.33 112.7a7.909 7.909 0 0 0-2.317 5.594v9.299c-23.085-9.073-47.444-13.678-72.588-13.678-109.752 0-199.042 89.29-199.042 199.042S92.671 512 202.424 512s199.042-89.29 199.042-199.042c0-27.707-5.541-54.339-16.467-79.352h5.324a7.91 7.91 0 0 0 5.594-2.317l53.699-53.699.002-.002 56.684-56.684a7.91 7.91 0 0 0 1.714-8.62zM344.534 67.871l40.862-40.862v85.025l-40.862 40.862V67.871zm-53.7 71.702v-18.002l37.879-37.879v85.025L300.86 196.57l-9.372 9.372c-.218-.182-.436-.365-.655-.545v-65.824zm-15.821 73.583v9.263h-.001l-19.977 19.977c-15.168-11.334-33.581-17.512-52.61-17.512-48.564 0-88.074 39.51-88.074 88.074s39.51 88.074 88.074 88.074 88.074-39.51 88.074-88.074c0-22.307-8.542-43.737-23.668-59.982l19.37-19.37h10.739c18.701 22.24 28.966 50.278 28.966 79.352 0 68.088-55.394 123.48-123.48 123.48-68.088 0-123.48-55.394-123.48-123.48s55.394-123.48 123.48-123.48c26.371-.001 51.38 8.186 72.587 23.678zm-75.236 95.685c1.544 1.544 3.569 2.317 5.593 2.317s4.049-.772 5.593-2.317l17.787-17.787a34.028 34.028 0 0 1 7.953 21.903c0 18.902-15.379 34.28-34.28 34.28-18.903 0-34.28-15.379-34.28-34.28s15.378-34.28 34.28-34.28a33.9 33.9 0 0 1 13.539 2.79l-16.187 16.187a7.913 7.913 0 0 0 .002 11.187zm27.916-39.104c-7.637-4.465-16.389-6.881-25.269-6.881-27.627 0-50.102 22.475-50.102 50.102 0 27.626 22.475 50.102 50.102 50.102 27.626 0 50.102-22.476 50.102-50.102 0-12.359-4.496-24.039-12.55-33.128l15.658-15.658c12.175 13.28 19.042 30.683 19.042 48.786 0 39.84-32.412 72.252-72.252 72.252-39.84 0-72.252-32.412-72.252-72.252 0-39.84 32.412-72.252 72.252-72.252 14.83 0 29.203 4.588 41.275 13.026l-16.006 16.005zm157.951 43.22c0 101.029-82.192 183.222-183.221 183.222s-183.22-82.193-183.22-183.221 82.192-183.221 183.221-183.221c25.257 0 49.65 5.029 72.588 14.956v49.425c-21.805-13.415-46.608-20.463-72.588-20.463-76.812 0-139.302 62.491-139.302 139.302s62.491 139.302 139.302 139.302c76.812 0 139.302-62.491 139.302-139.302a138.93 138.93 0 0 0-24.884-79.352h50.752c11.975 24.829 18.05 51.498 18.05 79.352zm1.403-95.173h-83.002c-.326-.348-.659-.69-.988-1.035l8.992-8.992 27.852-27.852h85.025l-37.879 37.879zm53.7-53.699h-85.025l40.862-40.862h85.025l-40.862 40.862z" fill="#ffffff" opacity="1" data-original="#000000"></path></g></svg>