<svg width="198" height="147" viewBox="0 0 198 147" fill="none" xmlns="http://www.w3.org/2000/svg">
<g clip-path="url(#clip0_478_423)">
<path d="M186 0H12C5.37258 0 0 5.37258 0 12V135C0 141.627 5.37258 147 12 147H186C192.627 147 198 141.627 198 135V12C198 5.37258 192.627 0 186 0Z" fill="white"/>
<path d="M39 15H15C12.7909 15 11 16.7909 11 19V43C11 45.2091 12.7909 47 15 47H39C41.2091 47 43 45.2091 43 43V19C43 16.7909 41.2091 15 39 15Z" fill="#5CFF7F"/>
<path d="M22.5117 25.1562C23.9356 25.1562 25.0898 24.002 25.0898 22.5781C25.0898 21.1543 23.9356 20 22.5117 20C21.0879 20 19.9336 21.1543 19.9336 22.5781C19.9336 24.002 21.0879 25.1562 22.5117 25.1562Z" fill="white"/>
<path d="M31.5352 25.1562C32.959 25.1562 34.1133 24.002 34.1133 22.5781C34.1133 21.1543 32.959 20 31.5352 20C30.1113 20 28.957 21.1543 28.957 22.5781C28.957 24.002 30.1113 25.1562 31.5352 25.1562Z" fill="white"/>
<path d="M36.0469 30.3125H18V31.9371L24.4453 36.4488V42L29.6016 40.281V36.4488L36.0469 31.9371V30.3125Z" fill="white"/>
<path d="M18.6445 29.0234H26.3789C26.3789 26.8909 24.6442 25.1562 22.5117 25.1562C20.3792 25.1562 18.6445 26.8909 18.6445 29.0234Z" fill="white"/>
<path d="M27.668 29.0234H35.4023C35.4023 26.8909 33.6677 25.1562 31.5352 25.1562C29.4027 25.1562 27.668 26.8909 27.668 29.0234Z" fill="white"/>
<path d="M39 57H15C12.7909 57 11 58.7909 11 61V85C11 87.2091 12.7909 89 15 89H39C41.2091 89 43 87.2091 43 85V61C43 58.7909 41.2091 57 39 57Z" fill="#1A91F3"/>
<mask id="mask0_478_423" style="mask-type:luminance" maskUnits="userSpaceOnUse" x="16" y="62" width="22" height="22">
<path d="M38 62H16V84H38V62Z" fill="white"/>
</mask>
<g mask="url(#mask0_478_423)">
<path fill-rule="evenodd" clip-rule="evenodd" d="M23.2605 62C20.7576 62 18.7285 64.029 18.7285 66.532V79.468C18.7285 81.9709 20.7576 84 23.2605 84H27.3023C26.0241 82.6448 25.2405 80.8179 25.2405 78.808C25.2405 74.6283 28.6288 71.24 32.8085 71.24C33.6712 71.24 34.5001 71.3843 35.2725 71.6502V66.532C35.2725 64.029 33.2435 62 30.7405 62H23.2605ZM21.9405 66.928C21.9405 66.2719 22.4724 65.74 23.1285 65.74H29.2005C29.8566 65.74 30.3885 66.2719 30.3885 66.928C30.3885 67.5841 29.8566 68.116 29.2005 68.116H23.1285C22.4724 68.116 21.9405 67.5841 21.9405 66.928ZM23.1285 69.7C22.4724 69.7 21.9405 70.2319 21.9405 70.888C21.9405 71.5441 22.4724 72.076 23.1285 72.076H24.8005C25.4566 72.076 25.9885 71.5441 25.9885 70.888C25.9885 70.2319 25.4566 69.7 24.8005 69.7H23.1285Z" fill="white"/>
<path fill-rule="evenodd" clip-rule="evenodd" d="M32.8092 84C32.4425 84 32.0847 83.962 31.7395 83.8897C29.3852 83.3966 27.6172 81.3088 27.6172 78.808C27.6172 75.9405 29.9417 73.616 32.8092 73.616C33.7009 73.616 34.5401 73.8408 35.2732 74.2368C36.8976 75.1142 38.0012 76.8322 38.0012 78.808C38.0012 81.6754 35.6767 84 32.8092 84ZM31.8012 77.9918C31.3373 77.5279 30.5851 77.5279 30.1211 77.9918C29.6572 78.4557 29.6572 79.208 30.1211 79.6719L31.4434 80.9941C31.9073 81.458 32.6595 81.458 33.1235 80.9941L35.6554 78.4622C36.1193 77.9983 36.1193 77.2461 35.6554 76.7821C35.1914 76.3182 34.4392 76.3182 33.9753 76.7821L32.2834 78.474L31.8012 77.9918Z" fill="white"/>
</g>
<path d="M39 99H15C12.7909 99 11 100.791 11 103V127C11 129.209 12.7909 131 15 131H39C41.2091 131 43 129.209 43 127V103C43 100.791 41.2091 99 39 99Z" fill="#FF6200"/>
<path d="M37.3781 120.146L34.308 117.076C33.2115 115.979 31.3474 116.418 30.9088 117.843C30.5799 118.83 29.4834 119.378 28.4966 119.159C26.3036 118.611 23.3431 115.76 22.7948 113.457C22.4659 112.47 23.1238 111.374 24.1106 111.045C25.5361 110.606 25.9746 108.742 24.8782 107.646L21.808 104.576C20.9308 103.808 19.615 103.808 18.8475 104.576L16.7642 106.659C14.6808 108.852 16.9834 114.663 22.1369 119.817C27.2904 124.97 33.1018 127.383 35.2948 125.19L37.3781 123.106C38.1457 122.229 38.1457 120.913 37.3781 120.146Z" fill="white"/>
<path d="M54.5557 29V22.088H52.1797V20.6H58.4677V22.088H56.0917V29H54.5557ZM61.1853 29.12C60.5333 29.12 59.9773 28.978 59.5173 28.694C59.0573 28.41 58.7053 28.032 58.4613 27.56C58.2213 27.088 58.1013 26.572 58.1013 26.012C58.1013 25.448 58.2213 24.928 58.4613 24.452C58.7053 23.976 59.0573 23.596 59.5173 23.312C59.9773 23.024 60.5333 22.88 61.1853 22.88C61.8373 22.88 62.3933 23.024 62.8533 23.312C63.3133 23.596 63.6633 23.976 63.9033 24.452C64.1473 24.928 64.2693 25.448 64.2693 26.012C64.2693 26.572 64.1473 27.088 63.9033 27.56C63.6633 28.032 63.3133 28.41 62.8533 28.694C62.3933 28.978 61.8373 29.12 61.1853 29.12ZM61.1853 27.896C61.6853 27.896 62.0693 27.722 62.3373 27.374C62.6093 27.022 62.7453 26.568 62.7453 26.012C62.7453 25.448 62.6093 24.99 62.3373 24.638C62.0693 24.282 61.6853 24.104 61.1853 24.104C60.6893 24.104 60.3053 24.282 60.0333 24.638C59.7613 24.99 59.6253 25.448 59.6253 26.012C59.6253 26.568 59.7613 27.022 60.0333 27.374C60.3053 27.722 60.6893 27.896 61.1853 27.896ZM67.1908 29.12C66.8148 29.12 66.5088 29.044 66.2728 28.892C66.0368 28.736 65.8628 28.538 65.7508 28.298C65.6388 28.058 65.5828 27.808 65.5828 27.548V24.224H64.7308L64.8628 23H65.5828V21.68L67.0708 21.524V23H68.3908V24.224H67.0708V26.936C67.0708 27.24 67.0888 27.46 67.1248 27.596C67.1608 27.728 67.2428 27.812 67.3708 27.848C67.4988 27.88 67.7028 27.896 67.9828 27.896H68.3908L68.2588 29.12H67.1908ZM70.6558 29.12C70.3358 29.12 70.0438 29.05 69.7798 28.91C69.5158 28.766 69.3058 28.56 69.1498 28.292C68.9938 28.024 68.9158 27.7 68.9158 27.32C68.9158 26.98 68.9938 26.69 69.1498 26.45C69.3098 26.206 69.5178 26.004 69.7738 25.844C70.0338 25.68 70.3138 25.552 70.6138 25.46C70.9178 25.364 71.2158 25.294 71.5078 25.25C71.8038 25.206 72.0638 25.18 72.2878 25.172C72.2718 24.828 72.1838 24.578 72.0238 24.422C71.8638 24.266 71.5918 24.188 71.2078 24.188C70.9398 24.188 70.6778 24.226 70.4218 24.302C70.1698 24.374 69.8838 24.488 69.5638 24.644L69.4318 23.432C69.7918 23.256 70.1518 23.124 70.5118 23.036C70.8758 22.948 71.2438 22.904 71.6158 22.904C72.0638 22.904 72.4498 22.984 72.7738 23.144C73.0978 23.304 73.3478 23.562 73.5238 23.918C73.6998 24.27 73.7878 24.736 73.7878 25.316V26.936C73.7878 27.236 73.8018 27.454 73.8298 27.59C73.8578 27.722 73.9098 27.806 73.9858 27.842C74.0618 27.878 74.1718 27.896 74.3158 27.896H74.5078L74.3758 29.12H73.8358C73.6118 29.12 73.4118 29.09 73.2358 29.03C73.0638 28.974 72.9158 28.894 72.7918 28.79C72.6678 28.686 72.5678 28.564 72.4918 28.424C72.2958 28.644 72.0298 28.816 71.6938 28.94C71.3618 29.06 71.0158 29.12 70.6558 29.12ZM71.2798 27.98C71.4118 27.98 71.5758 27.946 71.7718 27.878C71.9678 27.806 72.1438 27.696 72.2998 27.548V26.18C72.0198 26.192 71.7398 26.238 71.4598 26.318C71.1798 26.398 70.9458 26.516 70.7578 26.672C70.5698 26.828 70.4758 27.024 70.4758 27.26C70.4758 27.504 70.5398 27.686 70.6678 27.806C70.7958 27.922 70.9998 27.98 71.2798 27.98ZM76.8723 29.12C76.5163 29.12 76.2243 29.05 75.9963 28.91C75.7723 28.766 75.6063 28.576 75.4983 28.34C75.3903 28.1 75.3363 27.836 75.3363 27.548V20H76.8243V26.936C76.8243 27.256 76.8423 27.484 76.8783 27.62C76.9183 27.752 76.9903 27.832 77.0943 27.86C77.1983 27.884 77.3483 27.896 77.5443 27.896L77.4123 29.12H76.8723ZM82.972 29L80.608 20.6H82.204L83.884 26.564L85.756 20.6H86.824L88.768 26.408L90.376 20.6H91.972L89.512 29H88.156L86.284 23.396L84.424 29H82.972ZM95.1619 29.12C94.4379 29.12 93.8339 28.976 93.3499 28.688C92.8699 28.396 92.5099 28.012 92.2699 27.536C92.0299 27.056 91.9099 26.532 91.9099 25.964C91.9099 25.416 92.0219 24.91 92.2459 24.446C92.4739 23.982 92.8059 23.61 93.2419 23.33C93.6779 23.046 94.2099 22.904 94.8379 22.904C95.4139 22.904 95.8939 23.022 96.2779 23.258C96.6619 23.494 96.9499 23.81 97.1419 24.206C97.3339 24.598 97.4299 25.032 97.4299 25.508C97.4299 25.64 97.4219 25.774 97.4059 25.91C97.3899 26.042 97.3659 26.18 97.3339 26.324H93.4579C93.5139 26.696 93.6299 26.998 93.8059 27.23C93.9859 27.458 94.2039 27.626 94.4599 27.734C94.7199 27.842 94.9979 27.896 95.2939 27.896C95.6419 27.896 95.9659 27.852 96.2659 27.764C96.5659 27.672 96.8419 27.552 97.0939 27.404L97.1659 28.664C96.9379 28.784 96.6539 28.89 96.3139 28.982C95.9739 29.074 95.5899 29.12 95.1619 29.12ZM93.4939 25.316H95.9179C95.9179 25.136 95.8839 24.956 95.8159 24.776C95.7479 24.592 95.6339 24.438 95.4739 24.314C95.3179 24.19 95.1059 24.128 94.8379 24.128C94.4539 24.128 94.1519 24.24 93.9319 24.464C93.7119 24.688 93.5659 24.972 93.4939 25.316ZM101.566 29.12C101.11 29.12 100.716 29.046 100.384 28.898C100.052 28.75 99.7417 28.548 99.4537 28.292L99.8977 27.98L99.8257 29H98.4337V20H99.9217V23.996L99.5617 23.768C99.8257 23.496 100.12 23.284 100.444 23.132C100.772 22.98 101.146 22.904 101.566 22.904C102.154 22.904 102.648 23.046 103.048 23.33C103.448 23.614 103.75 23.992 103.954 24.464C104.162 24.936 104.266 25.452 104.266 26.012C104.266 26.572 104.162 27.088 103.954 27.56C103.75 28.032 103.448 28.41 103.048 28.694C102.648 28.978 102.154 29.12 101.566 29.12ZM101.35 27.896C101.646 27.896 101.898 27.816 102.106 27.656C102.314 27.496 102.472 27.276 102.58 26.996C102.688 26.712 102.742 26.384 102.742 26.012C102.742 25.64 102.688 25.314 102.58 25.034C102.472 24.75 102.314 24.528 102.106 24.368C101.898 24.208 101.646 24.128 101.35 24.128C101.002 24.128 100.718 24.208 100.498 24.368C100.278 24.528 100.114 24.75 100.006 25.034C99.9017 25.314 99.8497 25.64 99.8497 26.012C99.8497 26.384 99.9017 26.712 100.006 26.996C100.114 27.276 100.278 27.496 100.498 27.656C100.718 27.816 101.002 27.896 101.35 27.896ZM107.005 29.12C106.609 29.12 106.251 29.082 105.931 29.006C105.615 28.93 105.297 28.82 104.977 28.676L105.109 27.404C105.417 27.584 105.719 27.73 106.015 27.842C106.315 27.95 106.629 28.004 106.957 28.004C107.253 28.004 107.479 27.956 107.635 27.86C107.791 27.764 107.869 27.612 107.869 27.404C107.869 27.248 107.827 27.12 107.743 27.02C107.663 26.92 107.541 26.83 107.377 26.75C107.213 26.67 107.009 26.584 106.765 26.492C106.397 26.356 106.083 26.208 105.823 26.048C105.567 25.888 105.371 25.696 105.235 25.472C105.103 25.244 105.037 24.964 105.037 24.632C105.037 24.288 105.127 23.984 105.307 23.72C105.487 23.456 105.743 23.25 106.075 23.102C106.407 22.954 106.801 22.88 107.257 22.88C107.637 22.88 107.977 22.922 108.277 23.006C108.581 23.09 108.861 23.204 109.117 23.348L108.985 24.62C108.717 24.432 108.447 24.278 108.175 24.158C107.903 24.034 107.605 23.972 107.281 23.972C107.025 23.972 106.827 24.024 106.687 24.128C106.547 24.232 106.477 24.38 106.477 24.572C106.477 24.804 106.575 24.978 106.771 25.094C106.967 25.21 107.281 25.352 107.713 25.52C107.993 25.628 108.235 25.74 108.439 25.856C108.647 25.972 108.819 26.1 108.955 26.24C109.091 26.38 109.191 26.54 109.255 26.72C109.323 26.896 109.357 27.1 109.357 27.332C109.357 27.712 109.265 28.036 109.081 28.304C108.901 28.568 108.635 28.77 108.283 28.91C107.935 29.05 107.509 29.12 107.005 29.12ZM110.376 29V23H111.864V29H110.376ZM110.376 22.088V20.6H111.864V22.088H110.376ZM115.215 29.12C114.839 29.12 114.533 29.044 114.297 28.892C114.061 28.736 113.887 28.538 113.775 28.298C113.663 28.058 113.607 27.808 113.607 27.548V24.224H112.755L112.887 23H113.607V21.68L115.095 21.524V23H116.415V24.224H115.095V26.936C115.095 27.24 115.113 27.46 115.149 27.596C115.185 27.728 115.267 27.812 115.395 27.848C115.523 27.88 115.727 27.896 116.007 27.896H116.415L116.283 29.12H115.215ZM120.276 29.12C119.552 29.12 118.948 28.976 118.464 28.688C117.984 28.396 117.624 28.012 117.384 27.536C117.144 27.056 117.024 26.532 117.024 25.964C117.024 25.416 117.136 24.91 117.36 24.446C117.588 23.982 117.92 23.61 118.356 23.33C118.792 23.046 119.324 22.904 119.952 22.904C120.528 22.904 121.008 23.022 121.392 23.258C121.776 23.494 122.064 23.81 122.256 24.206C122.448 24.598 122.544 25.032 122.544 25.508C122.544 25.64 122.536 25.774 122.52 25.91C122.504 26.042 122.48 26.18 122.448 26.324H118.572C118.628 26.696 118.744 26.998 118.92 27.23C119.1 27.458 119.318 27.626 119.574 27.734C119.834 27.842 120.112 27.896 120.408 27.896C120.756 27.896 121.08 27.852 121.38 27.764C121.68 27.672 121.956 27.552 122.208 27.404L122.28 28.664C122.052 28.784 121.768 28.89 121.428 28.982C121.088 29.074 120.704 29.12 120.276 29.12ZM118.608 25.316H121.032C121.032 25.136 120.998 24.956 120.93 24.776C120.862 24.592 120.748 24.438 120.588 24.314C120.432 24.19 120.22 24.128 119.952 24.128C119.568 24.128 119.266 24.24 119.046 24.464C118.826 24.688 118.68 24.972 118.608 25.316ZM126.483 29V20.6H128.019V27.632H131.475V29H126.483ZM135.076 29.12C134.352 29.12 133.748 28.976 133.264 28.688C132.784 28.396 132.424 28.012 132.184 27.536C131.944 27.056 131.824 26.532 131.824 25.964C131.824 25.416 131.936 24.91 132.16 24.446C132.388 23.982 132.72 23.61 133.156 23.33C133.592 23.046 134.124 22.904 134.752 22.904C135.328 22.904 135.808 23.022 136.192 23.258C136.576 23.494 136.864 23.81 137.056 24.206C137.248 24.598 137.344 25.032 137.344 25.508C137.344 25.64 137.336 25.774 137.32 25.91C137.304 26.042 137.28 26.18 137.248 26.324H133.372C133.428 26.696 133.544 26.998 133.72 27.23C133.9 27.458 134.118 27.626 134.374 27.734C134.634 27.842 134.912 27.896 135.208 27.896C135.556 27.896 135.88 27.852 136.18 27.764C136.48 27.672 136.756 27.552 137.008 27.404L137.08 28.664C136.852 28.784 136.568 28.89 136.228 28.982C135.888 29.074 135.504 29.12 135.076 29.12ZM133.408 25.316H135.832C135.832 25.136 135.798 24.956 135.73 24.776C135.662 24.592 135.548 24.438 135.388 24.314C135.232 24.19 135.02 24.128 134.752 24.128C134.368 24.128 134.066 24.24 133.846 24.464C133.626 24.688 133.48 24.972 133.408 25.316ZM139.656 29.12C139.336 29.12 139.044 29.05 138.78 28.91C138.516 28.766 138.306 28.56 138.15 28.292C137.994 28.024 137.916 27.7 137.916 27.32C137.916 26.98 137.994 26.69 138.15 26.45C138.31 26.206 138.518 26.004 138.774 25.844C139.034 25.68 139.314 25.552 139.614 25.46C139.918 25.364 140.216 25.294 140.508 25.25C140.804 25.206 141.064 25.18 141.288 25.172C141.272 24.828 141.184 24.578 141.024 24.422C140.864 24.266 140.592 24.188 140.208 24.188C139.94 24.188 139.678 24.226 139.422 24.302C139.17 24.374 138.884 24.488 138.564 24.644L138.432 23.432C138.792 23.256 139.152 23.124 139.512 23.036C139.876 22.948 140.244 22.904 140.616 22.904C141.064 22.904 141.45 22.984 141.774 23.144C142.098 23.304 142.348 23.562 142.524 23.918C142.7 24.27 142.788 24.736 142.788 25.316V26.936C142.788 27.236 142.802 27.454 142.83 27.59C142.858 27.722 142.91 27.806 142.986 27.842C143.062 27.878 143.172 27.896 143.316 27.896H143.508L143.376 29.12H142.836C142.612 29.12 142.412 29.09 142.236 29.03C142.064 28.974 141.916 28.894 141.792 28.79C141.668 28.686 141.568 28.564 141.492 28.424C141.296 28.644 141.03 28.816 140.694 28.94C140.362 29.06 140.016 29.12 139.656 29.12ZM140.28 27.98C140.412 27.98 140.576 27.946 140.772 27.878C140.968 27.806 141.144 27.696 141.3 27.548V26.18C141.02 26.192 140.74 26.238 140.46 26.318C140.18 26.398 139.946 26.516 139.758 26.672C139.57 26.828 139.476 27.024 139.476 27.26C139.476 27.504 139.54 27.686 139.668 27.806C139.796 27.922 140 27.98 140.28 27.98ZM146.761 29.12C146.153 29.12 145.641 28.978 145.225 28.694C144.813 28.41 144.501 28.032 144.289 27.56C144.081 27.088 143.977 26.572 143.977 26.012C143.977 25.452 144.081 24.936 144.289 24.464C144.501 23.992 144.813 23.614 145.225 23.33C145.641 23.046 146.153 22.904 146.761 22.904C147.201 22.904 147.573 22.978 147.877 23.126C148.181 23.27 148.449 23.456 148.681 23.684L148.321 23.996V20H149.809V29H148.405L148.333 27.98L148.765 28.292C148.485 28.548 148.195 28.75 147.895 28.898C147.595 29.046 147.217 29.12 146.761 29.12ZM146.977 27.896C147.305 27.896 147.573 27.816 147.781 27.656C147.989 27.496 148.143 27.276 148.243 26.996C148.343 26.712 148.393 26.384 148.393 26.012C148.393 25.64 148.343 25.314 148.243 25.034C148.143 24.75 147.989 24.528 147.781 24.368C147.573 24.208 147.305 24.128 146.977 24.128C146.665 24.128 146.399 24.208 146.179 24.368C145.959 24.528 145.791 24.75 145.675 25.034C145.559 25.314 145.501 25.64 145.501 26.012C145.501 26.384 145.559 26.712 145.675 26.996C145.791 27.276 145.959 27.496 146.179 27.656C146.399 27.816 146.665 27.896 146.977 27.896ZM152.896 29.12C152.5 29.12 152.142 29.082 151.822 29.006C151.506 28.93 151.188 28.82 150.868 28.676L151 27.404C151.308 27.584 151.61 27.73 151.906 27.842C152.206 27.95 152.52 28.004 152.848 28.004C153.144 28.004 153.37 27.956 153.526 27.86C153.682 27.764 153.76 27.612 153.76 27.404C153.76 27.248 153.718 27.12 153.634 27.02C153.554 26.92 153.432 26.83 153.268 26.75C153.104 26.67 152.9 26.584 152.656 26.492C152.288 26.356 151.974 26.208 151.714 26.048C151.458 25.888 151.262 25.696 151.126 25.472C150.994 25.244 150.928 24.964 150.928 24.632C150.928 24.288 151.018 23.984 151.198 23.72C151.378 23.456 151.634 23.25 151.966 23.102C152.298 22.954 152.692 22.88 153.148 22.88C153.528 22.88 153.868 22.922 154.168 23.006C154.472 23.09 154.752 23.204 155.008 23.348L154.876 24.62C154.608 24.432 154.338 24.278 154.066 24.158C153.794 24.034 153.496 23.972 153.172 23.972C152.916 23.972 152.718 24.024 152.578 24.128C152.438 24.232 152.368 24.38 152.368 24.572C152.368 24.804 152.466 24.978 152.662 25.094C152.858 25.21 153.172 25.352 153.604 25.52C153.884 25.628 154.126 25.74 154.33 25.856C154.538 25.972 154.71 26.1 154.846 26.24C154.982 26.38 155.082 26.54 155.146 26.72C155.214 26.896 155.248 27.1 155.248 27.332C155.248 27.712 155.156 28.036 154.972 28.304C154.792 28.568 154.526 28.77 154.174 28.91C153.826 29.05 153.4 29.12 152.896 29.12Z" fill="black"/>
<path d="M53.8482 41.9999V35.2439C53.5602 35.4759 53.3222 35.6419 53.1342 35.7419C52.9462 35.8419 52.7682 35.9199 52.6002 35.9759L52.4082 34.9079C52.6242 34.8359 52.8442 34.7339 53.0682 34.6019C53.2962 34.4659 53.5062 34.3119 53.6982 34.1399C53.8942 33.9679 54.0522 33.7879 54.1722 33.5999H54.9522V41.9999H53.8482ZM58.7943 42.1679C58.3343 42.1679 57.9043 42.1079 57.5043 41.9879C57.1083 41.8679 56.7383 41.7159 56.3943 41.5319L56.6703 40.4759C57.0143 40.6719 57.3523 40.8319 57.6843 40.9559C58.0203 41.0759 58.3943 41.1359 58.8063 41.1359C59.3303 41.1359 59.7383 41.0059 60.0303 40.7459C60.3263 40.4819 60.4743 40.1439 60.4743 39.7319C60.4743 39.2679 60.3143 38.8959 59.9943 38.6159C59.6743 38.3359 59.1743 38.1959 58.4943 38.1959H57.9663V37.1639H58.4943C59.0103 37.1639 59.4183 37.0419 59.7183 36.7979C60.0223 36.5539 60.1743 36.2199 60.1743 35.7959C60.1743 35.3439 60.0583 35.0099 59.8263 34.7939C59.5943 34.5739 59.2623 34.4639 58.8303 34.4639C58.4903 34.4639 58.1723 34.5299 57.8763 34.6619C57.5803 34.7939 57.2903 34.9559 57.0063 35.1479L56.8143 33.9839C57.1223 33.8079 57.4543 33.6719 57.8103 33.5759C58.1703 33.4799 58.5623 33.4319 58.9863 33.4319C59.5063 33.4319 59.9463 33.5259 60.3063 33.7139C60.6703 33.9019 60.9463 34.1639 61.1343 34.4999C61.3263 34.8319 61.4223 35.2159 61.4223 35.6519C61.4223 36.1959 61.2623 36.6559 60.9423 37.0319C60.6263 37.4039 60.1983 37.6479 59.6583 37.7639V37.4879C60.2943 37.6119 60.7903 37.8539 61.1463 38.2139C61.5063 38.5699 61.6863 39.0639 61.6863 39.6959C61.6863 40.2079 61.5583 40.6499 61.3023 41.0219C61.0503 41.3899 60.7063 41.6739 60.2703 41.8739C59.8343 42.0699 59.3423 42.1679 58.7943 42.1679ZM63.0905 41.9879L65.3825 38.5079C65.6345 38.1279 65.8505 37.7819 66.0305 37.4699C66.2105 37.1579 66.3465 36.8699 66.4385 36.6059C66.5345 36.3379 66.5825 36.0839 66.5825 35.8439C66.5825 35.4279 66.4645 35.0979 66.2285 34.8539C65.9965 34.6099 65.6785 34.4879 65.2745 34.4879C64.8745 34.4879 64.5045 34.5739 64.1645 34.7459C63.8285 34.9179 63.5185 35.1479 63.2345 35.4359L63.0905 34.2359C63.3665 34.0119 63.6985 33.8199 64.0865 33.6599C64.4785 33.4999 64.9145 33.4199 65.3945 33.4199C65.9065 33.4199 66.3365 33.5219 66.6845 33.7259C67.0325 33.9299 67.2945 34.2059 67.4705 34.5539C67.6465 34.9019 67.7345 35.2919 67.7345 35.7239C67.7345 36.0959 67.6845 36.4499 67.5845 36.7859C67.4845 37.1179 67.3345 37.4639 67.1345 37.8239C66.9345 38.1839 66.6865 38.5879 66.3905 39.0359L65.1185 40.9559H68.0585V41.9879H63.0905Z" fill="#515151"/>
<path d="M53.0805 127L56.4645 119.164L56.7765 119.68H52.4805V118.6H57.9165L54.2805 127H53.0805ZM62.1182 127.168C61.3782 127.168 60.7442 126.978 60.2162 126.598C59.6882 126.218 59.2822 125.694 58.9982 125.026C58.7182 124.358 58.5782 123.592 58.5782 122.728C58.5782 121.864 58.7282 121.11 59.0282 120.466C59.3282 119.822 59.7442 119.322 60.2762 118.966C60.8082 118.61 61.4222 118.432 62.1182 118.432C62.8302 118.432 63.4502 118.61 63.9782 118.966C64.5102 119.322 64.9222 119.822 65.2142 120.466C65.5102 121.11 65.6582 121.864 65.6582 122.728C65.6582 123.592 65.5182 124.358 65.2382 125.026C64.9582 125.694 64.5542 126.218 64.0262 126.598C63.4982 126.978 62.8622 127.168 62.1182 127.168ZM62.1182 126.136C62.6142 126.136 63.0342 126.004 63.3782 125.74C63.7262 125.476 63.9902 125.09 64.1702 124.582C64.3542 124.074 64.4462 123.456 64.4462 122.728C64.4462 121.636 64.2342 120.82 63.8102 120.28C63.3902 119.736 62.8262 119.464 62.1182 119.464C61.4462 119.464 60.8902 119.736 60.4502 120.28C60.0102 120.82 59.7902 121.636 59.7902 122.728C59.7902 123.456 59.8802 124.074 60.0602 124.582C60.2442 125.09 60.5082 125.476 60.8522 125.74C61.2002 126.004 61.6222 126.136 62.1182 126.136Z" fill="#515151"/>
<path d="M55.5401 85.1679C54.9521 85.1679 54.4481 85.0379 54.0281 84.7779C53.6121 84.5139 53.2941 84.1479 53.0741 83.6799C52.8541 83.2119 52.7441 82.6679 52.7441 82.0479C52.7441 81.3879 52.8521 80.7679 53.0681 80.1879C53.2881 79.6079 53.5781 79.0779 53.9381 78.5979C54.3021 78.1139 54.7041 77.6899 55.1441 77.3259C55.5841 76.9619 56.0241 76.6639 56.4641 76.4319L57.2441 77.1639C56.8881 77.3399 56.5441 77.5499 56.2121 77.7939C55.8841 78.0339 55.5801 78.3019 55.3001 78.5979C55.0241 78.8899 54.7801 79.2079 54.5681 79.5519C54.3601 79.8959 54.1981 80.2619 54.0821 80.6499C53.9661 81.0339 53.9081 81.4359 53.9081 81.8559L53.5241 81.2079C53.7161 80.8239 54.0101 80.5199 54.4061 80.2959C54.8061 80.0719 55.2721 79.9599 55.8041 79.9599C56.2921 79.9599 56.7241 80.0719 57.1001 80.2959C57.4761 80.5159 57.7701 80.8179 57.9821 81.2019C58.1941 81.5859 58.3001 82.0199 58.3001 82.5039C58.3001 83.0239 58.1841 83.4839 57.9521 83.8839C57.7201 84.2839 57.3961 84.5979 56.9801 84.8259C56.5681 85.0539 56.0881 85.1679 55.5401 85.1679ZM55.5401 84.1839C56.0201 84.1839 56.4041 84.0259 56.6921 83.7099C56.9801 83.3899 57.1241 82.9999 57.1241 82.5399C57.1241 82.0879 56.9801 81.7099 56.6921 81.4059C56.4041 81.0979 56.0201 80.9439 55.5401 80.9439C55.0601 80.9439 54.6741 81.0979 54.3821 81.4059C54.0901 81.7139 53.9441 82.0959 53.9441 82.5519C53.9441 83.0239 54.0901 83.4139 54.3821 83.7219C54.6741 84.0299 55.0601 84.1839 55.5401 84.1839ZM59.5044 84.9879L61.7964 81.5079C62.0484 81.1279 62.2644 80.7819 62.4444 80.4699C62.6244 80.1579 62.7604 79.8699 62.8524 79.6059C62.9484 79.3379 62.9964 79.0839 62.9964 78.8439C62.9964 78.4279 62.8784 78.0979 62.6424 77.8539C62.4104 77.6099 62.0924 77.4879 61.6884 77.4879C61.2884 77.4879 60.9184 77.5739 60.5784 77.7459C60.2424 77.9179 59.9324 78.1479 59.6484 78.4359L59.5044 77.2359C59.7804 77.0119 60.1124 76.8199 60.5004 76.6599C60.8924 76.4999 61.3284 76.4199 61.8084 76.4199C62.3204 76.4199 62.7504 76.5219 63.0984 76.7259C63.4464 76.9299 63.7084 77.2059 63.8844 77.5539C64.0604 77.9019 64.1484 78.2919 64.1484 78.7239C64.1484 79.0959 64.0984 79.4499 63.9984 79.7859C63.8984 80.1179 63.7484 80.4639 63.5484 80.8239C63.3484 81.1839 63.1004 81.5879 62.8044 82.0359L61.5324 83.9559H64.4724V84.9879H59.5044Z" fill="#515151"/>
<path d="M52.9238 71.0001V62.6001H58.2998V64.0881H54.4958V65.8761H57.4478V67.3641H54.4958V69.5121H58.4198V71.0001H52.9238ZM61.2201 71.1201C60.8241 71.1201 60.4661 71.0821 60.1461 71.0061C59.8301 70.9301 59.5121 70.8201 59.1921 70.6761L59.3241 69.4041C59.6321 69.5841 59.9341 69.7301 60.2301 69.8421C60.5301 69.9501 60.8441 70.0041 61.1721 70.0041C61.4681 70.0041 61.6941 69.9561 61.8501 69.8601C62.0061 69.7641 62.0841 69.6121 62.0841 69.4041C62.0841 69.2481 62.0421 69.1201 61.9581 69.0201C61.8781 68.9201 61.7561 68.8301 61.5921 68.7501C61.4281 68.6701 61.2241 68.5841 60.9801 68.4921C60.6121 68.3561 60.2981 68.2081 60.0381 68.0481C59.7821 67.8881 59.5861 67.6961 59.4501 67.4721C59.3181 67.2441 59.2521 66.9641 59.2521 66.6321C59.2521 66.2881 59.3421 65.9841 59.5221 65.7201C59.7021 65.4561 59.9581 65.2501 60.2901 65.1021C60.6221 64.9541 61.0161 64.8801 61.4721 64.8801C61.8521 64.8801 62.1921 64.9221 62.4921 65.0061C62.7961 65.0901 63.0761 65.2041 63.3321 65.3481L63.2001 66.6201C62.9321 66.4321 62.6621 66.2781 62.3901 66.1581C62.1181 66.0341 61.8201 65.9721 61.4961 65.9721C61.2401 65.9721 61.0421 66.0241 60.9021 66.1281C60.7621 66.2321 60.6921 66.3801 60.6921 66.5721C60.6921 66.8041 60.7901 66.9781 60.9861 67.0941C61.1821 67.2101 61.4961 67.3521 61.9281 67.5201C62.2081 67.6281 62.4501 67.7401 62.6541 67.8561C62.8621 67.9721 63.0341 68.1001 63.1701 68.2401C63.3061 68.3801 63.4061 68.5401 63.4701 68.7201C63.5381 68.8961 63.5721 69.1001 63.5721 69.3321C63.5721 69.7121 63.4801 70.0361 63.2961 70.3041C63.1161 70.5681 62.8501 70.7701 62.4981 70.9101C62.1501 71.0501 61.7241 71.1201 61.2201 71.1201ZM66.5463 71.1201C66.1703 71.1201 65.8643 71.0441 65.6283 70.8921C65.3923 70.7361 65.2183 70.5381 65.1063 70.2981C64.9943 70.0581 64.9383 69.8081 64.9383 69.5481V66.2241H64.0863L64.2183 65.0001H64.9383V63.6801L66.4263 63.5241V65.0001H67.7463V66.2241H66.4263V68.9361C66.4263 69.2401 66.4443 69.4601 66.4803 69.5961C66.5163 69.7281 66.5983 69.8121 66.7263 69.8481C66.8543 69.8801 67.0583 69.8961 67.3383 69.8961H67.7463L67.6143 71.1201H66.5463ZM68.7153 71.0001V65.0001H70.2033V71.0001H68.7153ZM68.7153 64.0881V62.6001H70.2033V64.0881H68.7153ZM71.5981 71.0001V65.0001H72.8701L72.9661 65.8761L72.7501 65.6121C72.9781 65.4321 73.2501 65.2701 73.5661 65.1261C73.8861 64.9781 74.2581 64.9041 74.6821 64.9041C75.0021 64.9041 75.2841 64.9521 75.5281 65.0481C75.7761 65.1401 75.9881 65.2741 76.1641 65.4501C76.3401 65.6221 76.4821 65.8281 76.5901 66.0681L76.2301 65.9841C76.4221 65.6401 76.7021 65.3741 77.0701 65.1861C77.4421 64.9981 77.8621 64.9041 78.3301 64.9041C78.8821 64.9041 79.3321 65.0181 79.6801 65.2461C80.0281 65.4741 80.2841 65.7961 80.4481 66.2121C80.6121 66.6241 80.6941 67.1081 80.6941 67.6641V71.0001H79.2061V67.7721C79.2061 67.2121 79.1181 66.7981 78.9421 66.5301C78.7701 66.2621 78.4821 66.1281 78.0781 66.1281C77.8781 66.1281 77.7021 66.1641 77.5501 66.2361C77.4021 66.3041 77.2781 66.4061 77.1781 66.5421C77.0821 66.6741 77.0101 66.8361 76.9621 67.0281C76.9141 67.2161 76.8901 67.4281 76.8901 67.6641V71.0001H75.4021V67.7721C75.4021 67.4001 75.3621 67.0921 75.2821 66.8481C75.2061 66.6041 75.0821 66.4241 74.9101 66.3081C74.7421 66.1881 74.5221 66.1281 74.2501 66.1281C73.9021 66.1281 73.6161 66.2101 73.3921 66.3741C73.1721 66.5341 72.9781 66.7521 72.8101 67.0281L73.0861 66.2241V71.0001H71.5981ZM83.3238 71.1201C83.0038 71.1201 82.7118 71.0501 82.4478 70.9101C82.1838 70.7661 81.9738 70.5601 81.8178 70.2921C81.6618 70.0241 81.5838 69.7001 81.5838 69.3201C81.5838 68.9801 81.6618 68.6901 81.8178 68.4501C81.9778 68.2061 82.1858 68.0041 82.4418 67.8441C82.7018 67.6801 82.9818 67.5521 83.2818 67.4601C83.5858 67.3641 83.8838 67.2941 84.1758 67.2501C84.4718 67.2061 84.7318 67.1801 84.9558 67.1721C84.9398 66.8281 84.8518 66.5781 84.6918 66.4221C84.5318 66.2661 84.2598 66.1881 83.8758 66.1881C83.6078 66.1881 83.3458 66.2261 83.0898 66.3021C82.8378 66.3741 82.5518 66.4881 82.2318 66.6441L82.0998 65.4321C82.4598 65.2561 82.8198 65.1241 83.1798 65.0361C83.5438 64.9481 83.9118 64.9041 84.2838 64.9041C84.7318 64.9041 85.1178 64.9841 85.4418 65.1441C85.7658 65.3041 86.0158 65.5621 86.1918 65.9181C86.3678 66.2701 86.4558 66.7361 86.4558 67.3161V68.9361C86.4558 69.2361 86.4698 69.4541 86.4978 69.5901C86.5258 69.7221 86.5778 69.8061 86.6538 69.8421C86.7298 69.8781 86.8398 69.8961 86.9838 69.8961H87.1758L87.0438 71.1201H86.5038C86.2798 71.1201 86.0798 71.0901 85.9038 71.0301C85.7318 70.9741 85.5838 70.8941 85.4598 70.7901C85.3358 70.6861 85.2358 70.5641 85.1598 70.4241C84.9638 70.6441 84.6978 70.8161 84.3618 70.9401C84.0298 71.0601 83.6838 71.1201 83.3238 71.1201ZM83.9478 69.9801C84.0798 69.9801 84.2438 69.9461 84.4398 69.8781C84.6358 69.8061 84.8118 69.6961 84.9678 69.5481V68.1801C84.6878 68.1921 84.4078 68.2381 84.1278 68.3181C83.8478 68.3981 83.6138 68.5161 83.4258 68.6721C83.2378 68.8281 83.1438 69.0241 83.1438 69.2601C83.1438 69.5041 83.2078 69.6861 83.3358 69.8061C83.4638 69.9221 83.6678 69.9801 83.9478 69.9801ZM89.8666 71.1201C89.4906 71.1201 89.1846 71.0441 88.9486 70.8921C88.7126 70.7361 88.5386 70.5381 88.4266 70.2981C88.3146 70.0581 88.2586 69.8081 88.2586 69.5481V66.2241H87.4066L87.5386 65.0001H88.2586V63.6801L89.7466 63.5241V65.0001H91.0666V66.2241H89.7466V68.9361C89.7466 69.2401 89.7646 69.4601 89.8006 69.5961C89.8366 69.7281 89.9186 69.8121 90.0466 69.8481C90.1746 69.8801 90.3786 69.8961 90.6586 69.8961H91.0666L90.9346 71.1201H89.8666ZM94.9276 71.1201C94.2036 71.1201 93.5996 70.9761 93.1156 70.6881C92.6356 70.3961 92.2756 70.0121 92.0356 69.5361C91.7956 69.0561 91.6756 68.5321 91.6756 67.9641C91.6756 67.4161 91.7876 66.9101 92.0116 66.4461C92.2396 65.9821 92.5716 65.6101 93.0076 65.3301C93.4436 65.0461 93.9756 64.9041 94.6036 64.9041C95.1796 64.9041 95.6596 65.0221 96.0436 65.2581C96.4276 65.4941 96.7156 65.8101 96.9076 66.2061C97.0996 66.5981 97.1956 67.0321 97.1956 67.5081C97.1956 67.6401 97.1876 67.7741 97.1716 67.9101C97.1556 68.0421 97.1316 68.1801 97.0996 68.3241H93.2236C93.2796 68.6961 93.3956 68.9981 93.5716 69.2301C93.7516 69.4581 93.9696 69.6261 94.2256 69.7341C94.4856 69.8421 94.7636 69.8961 95.0596 69.8961C95.4076 69.8961 95.7316 69.8521 96.0316 69.7641C96.3316 69.6721 96.6076 69.5521 96.8596 69.4041L96.9316 70.6641C96.7036 70.7841 96.4196 70.8901 96.0796 70.9821C95.7396 71.0741 95.3556 71.1201 94.9276 71.1201ZM93.2596 67.3161H95.6836C95.6836 67.1361 95.6496 66.9561 95.5816 66.7761C95.5136 66.5921 95.3996 66.4381 95.2396 66.3141C95.0836 66.1901 94.8716 66.1281 94.6036 66.1281C94.2196 66.1281 93.9176 66.2401 93.6976 66.4641C93.4776 66.6881 93.3316 66.9721 93.2596 67.3161ZM101.135 71.0001V62.6001H104.207C104.787 62.6001 105.293 62.6921 105.725 62.8761C106.161 63.0601 106.499 63.3401 106.739 63.7161C106.979 64.0921 107.099 64.5681 107.099 65.1441C107.099 65.7601 106.967 66.2501 106.703 66.6141C106.443 66.9741 106.099 67.2601 105.671 67.4721L107.567 71.0001H105.851L104.231 67.8801C104.219 67.8801 104.209 67.8801 104.201 67.8801C104.193 67.8801 104.183 67.8801 104.171 67.8801H102.671V71.0001H101.135ZM102.671 66.5961H103.799C104.431 66.5961 104.871 66.4681 105.119 66.2121C105.367 65.9521 105.491 65.6241 105.491 65.2281C105.491 64.8081 105.369 64.4801 105.125 64.2441C104.881 64.0041 104.459 63.8841 103.859 63.8841H102.671V66.5961ZM111.088 71.1201C110.364 71.1201 109.76 70.9761 109.276 70.6881C108.796 70.3961 108.436 70.0121 108.196 69.5361C107.956 69.0561 107.836 68.5321 107.836 67.9641C107.836 67.4161 107.948 66.9101 108.172 66.4461C108.4 65.9821 108.732 65.6101 109.168 65.3301C109.604 65.0461 110.136 64.9041 110.764 64.9041C111.34 64.9041 111.82 65.0221 112.204 65.2581C112.588 65.4941 112.876 65.8101 113.068 66.2061C113.26 66.5981 113.356 67.0321 113.356 67.5081C113.356 67.6401 113.348 67.7741 113.332 67.9101C113.316 68.0421 113.292 68.1801 113.26 68.3241H109.384C109.44 68.6961 109.556 68.9981 109.732 69.2301C109.912 69.4581 110.13 69.6261 110.386 69.7341C110.646 69.8421 110.924 69.8961 111.22 69.8961C111.568 69.8961 111.892 69.8521 112.192 69.7641C112.492 69.6721 112.768 69.5521 113.02 69.4041L113.092 70.6641C112.864 70.7841 112.58 70.8901 112.24 70.9821C111.9 71.0741 111.516 71.1201 111.088 71.1201ZM109.42 67.3161H111.844C111.844 67.1361 111.81 66.9561 111.742 66.7761C111.674 66.5921 111.56 66.4381 111.4 66.3141C111.244 66.1901 111.032 66.1281 110.764 66.1281C110.38 66.1281 110.078 66.2401 109.858 66.4641C109.638 66.6881 109.492 66.9721 109.42 67.3161ZM118.356 73.9041V70.0161L118.74 70.2921C118.484 70.5561 118.202 70.7601 117.894 70.9041C117.59 71.0481 117.216 71.1201 116.772 71.1201C116.172 71.1201 115.666 70.9781 115.254 70.6941C114.846 70.4101 114.536 70.0321 114.324 69.5601C114.116 69.0881 114.012 68.5721 114.012 68.0121C114.012 67.4521 114.116 66.9361 114.324 66.4641C114.536 65.9921 114.846 65.6141 115.254 65.3301C115.666 65.0461 116.172 64.9041 116.772 64.9041C117.236 64.9041 117.628 64.9901 117.948 65.1621C118.272 65.3301 118.556 65.5561 118.8 65.8401L118.356 65.9961L118.704 65.0001H119.844V73.9041H118.356ZM117.012 69.8961C117.34 69.8961 117.608 69.8161 117.816 69.6561C118.024 69.4961 118.178 69.2761 118.278 68.9961C118.378 68.7121 118.428 68.3841 118.428 68.0121C118.428 67.4521 118.314 66.9981 118.086 66.6501C117.862 66.3021 117.504 66.1281 117.012 66.1281C116.544 66.1281 116.18 66.3021 115.92 66.6501C115.664 66.9981 115.536 67.4521 115.536 68.0121C115.536 68.5681 115.664 69.0221 115.92 69.3741C116.18 69.7221 116.544 69.8961 117.012 69.8961ZM123.723 71.1201C123.099 71.1201 122.601 70.9961 122.229 70.7481C121.857 70.5001 121.589 70.1601 121.425 69.7281C121.261 69.2921 121.179 68.7921 121.179 68.2281V65.0001H122.667V68.2281C122.667 68.7841 122.759 69.1981 122.943 69.4701C123.131 69.7381 123.435 69.8721 123.855 69.8721C124.191 69.8721 124.469 69.7921 124.689 69.6321C124.913 69.4721 125.099 69.2481 125.247 68.9601L124.983 69.7161V65.0001H126.471V71.0001H125.079L125.007 69.9561L125.331 70.3761C125.187 70.5601 124.959 70.7301 124.647 70.8861C124.339 71.0421 124.031 71.1201 123.723 71.1201ZM130.752 71.1201C130.028 71.1201 129.424 70.9761 128.94 70.6881C128.46 70.3961 128.1 70.0121 127.86 69.5361C127.62 69.0561 127.5 68.5321 127.5 67.9641C127.5 67.4161 127.612 66.9101 127.836 66.4461C128.064 65.9821 128.396 65.6101 128.832 65.3301C129.268 65.0461 129.8 64.9041 130.428 64.9041C131.004 64.9041 131.484 65.0221 131.868 65.2581C132.252 65.4941 132.54 65.8101 132.732 66.2061C132.924 66.5981 133.02 67.0321 133.02 67.5081C133.02 67.6401 133.012 67.7741 132.996 67.9101C132.98 68.0421 132.956 68.1801 132.924 68.3241H129.048C129.104 68.6961 129.22 68.9981 129.396 69.2301C129.576 69.4581 129.794 69.6261 130.05 69.7341C130.31 69.8421 130.588 69.8961 130.884 69.8961C131.232 69.8961 131.556 69.8521 131.856 69.7641C132.156 69.6721 132.432 69.5521 132.684 69.4041L132.756 70.6641C132.528 70.7841 132.244 70.8901 131.904 70.9821C131.564 71.0741 131.18 71.1201 130.752 71.1201ZM129.084 67.3161H131.508C131.508 67.1361 131.474 66.9561 131.406 66.7761C131.338 66.5921 131.224 66.4381 131.064 66.3141C130.908 66.1901 130.696 66.1281 130.428 66.1281C130.044 66.1281 129.742 66.2401 129.522 66.4641C129.302 66.6881 129.156 66.9721 129.084 67.3161ZM135.74 71.1201C135.344 71.1201 134.986 71.0821 134.666 71.0061C134.35 70.9301 134.032 70.8201 133.712 70.6761L133.844 69.4041C134.152 69.5841 134.454 69.7301 134.75 69.8421C135.05 69.9501 135.364 70.0041 135.692 70.0041C135.988 70.0041 136.214 69.9561 136.37 69.8601C136.526 69.7641 136.604 69.6121 136.604 69.4041C136.604 69.2481 136.562 69.1201 136.478 69.0201C136.398 68.9201 136.276 68.8301 136.112 68.7501C135.948 68.6701 135.744 68.5841 135.5 68.4921C135.132 68.3561 134.818 68.2081 134.558 68.0481C134.302 67.8881 134.106 67.6961 133.97 67.4721C133.838 67.2441 133.772 66.9641 133.772 66.6321C133.772 66.2881 133.862 65.9841 134.042 65.7201C134.222 65.4561 134.478 65.2501 134.81 65.1021C135.142 64.9541 135.536 64.8801 135.992 64.8801C136.372 64.8801 136.712 64.9221 137.012 65.0061C137.316 65.0901 137.596 65.2041 137.852 65.3481L137.72 66.6201C137.452 66.4321 137.182 66.2781 136.91 66.1581C136.638 66.0341 136.34 65.9721 136.016 65.9721C135.76 65.9721 135.562 66.0241 135.422 66.1281C135.282 66.2321 135.212 66.3801 135.212 66.5721C135.212 66.8041 135.31 66.9781 135.506 67.0941C135.702 67.2101 136.016 67.3521 136.448 67.5201C136.728 67.6281 136.97 67.7401 137.174 67.8561C137.382 67.9721 137.554 68.1001 137.69 68.2401C137.826 68.3801 137.926 68.5401 137.99 68.7201C138.058 68.8961 138.092 69.1001 138.092 69.3321C138.092 69.7121 138 70.0361 137.816 70.3041C137.636 70.5681 137.37 70.7701 137.018 70.9101C136.67 71.0501 136.244 71.1201 135.74 71.1201ZM141.066 71.1201C140.69 71.1201 140.384 71.0441 140.148 70.8921C139.912 70.7361 139.738 70.5381 139.626 70.2981C139.514 70.0581 139.458 69.8081 139.458 69.5481V66.2241H138.606L138.738 65.0001H139.458V63.6801L140.946 63.5241V65.0001H142.266V66.2241H140.946V68.9361C140.946 69.2401 140.964 69.4601 141 69.5961C141.036 69.7281 141.118 69.8121 141.246 69.8481C141.374 69.8801 141.578 69.8961 141.858 69.8961H142.266L142.134 71.1201H141.066ZM144.939 71.1201C144.543 71.1201 144.185 71.0821 143.865 71.0061C143.549 70.9301 143.231 70.8201 142.911 70.6761L143.043 69.4041C143.351 69.5841 143.653 69.7301 143.949 69.8421C144.249 69.9501 144.563 70.0041 144.891 70.0041C145.187 70.0041 145.413 69.9561 145.569 69.8601C145.725 69.7641 145.803 69.6121 145.803 69.4041C145.803 69.2481 145.761 69.1201 145.677 69.0201C145.597 68.9201 145.475 68.8301 145.311 68.7501C145.147 68.6701 144.943 68.5841 144.699 68.4921C144.331 68.3561 144.017 68.2081 143.757 68.0481C143.501 67.8881 143.305 67.6961 143.169 67.4721C143.037 67.2441 142.971 66.9641 142.971 66.6321C142.971 66.2881 143.061 65.9841 143.241 65.7201C143.421 65.4561 143.677 65.2501 144.009 65.1021C144.341 64.9541 144.735 64.8801 145.191 64.8801C145.571 64.8801 145.911 64.9221 146.211 65.0061C146.515 65.0901 146.795 65.2041 147.051 65.3481L146.919 66.6201C146.651 66.4321 146.381 66.2781 146.109 66.1581C145.837 66.0341 145.539 65.9721 145.215 65.9721C144.959 65.9721 144.761 66.0241 144.621 66.1281C144.481 66.2321 144.411 66.3801 144.411 66.5721C144.411 66.8041 144.509 66.9781 144.705 67.0941C144.901 67.2101 145.215 67.3521 145.647 67.5201C145.927 67.6281 146.169 67.7401 146.373 67.8561C146.581 67.9721 146.753 68.1001 146.889 68.2401C147.025 68.3801 147.125 68.5401 147.189 68.7201C147.257 68.8961 147.291 69.1001 147.291 69.3321C147.291 69.7121 147.199 70.0361 147.015 70.3041C146.835 70.5681 146.569 70.7701 146.217 70.9101C145.869 71.0501 145.443 71.1201 144.939 71.1201Z" fill="black"/>
<path d="M56.7279 113.168C55.8759 113.168 55.1259 112.988 54.4779 112.628C53.8299 112.264 53.3239 111.756 52.9599 111.104C52.5999 110.448 52.4199 109.68 52.4199 108.8C52.4199 107.92 52.6059 107.154 52.9779 106.502C53.3539 105.846 53.8699 105.338 54.5259 104.978C55.1819 104.614 55.9319 104.432 56.7759 104.432C57.2199 104.432 57.6259 104.48 57.9939 104.576C58.3619 104.668 58.6799 104.784 58.9479 104.924L58.7799 106.388C58.4759 106.248 58.1619 106.134 57.8379 106.046C57.5179 105.954 57.1599 105.908 56.7639 105.908C56.1759 105.908 55.6839 106.032 55.2879 106.28C54.8959 106.528 54.5999 106.87 54.3999 107.306C54.1999 107.742 54.0999 108.24 54.0999 108.8C54.0999 109.36 54.1979 109.858 54.3939 110.294C54.5899 110.73 54.8819 111.072 55.2699 111.32C55.6619 111.568 56.1479 111.692 56.7279 111.692C57.1319 111.692 57.4939 111.648 57.8139 111.56C58.1339 111.472 58.4559 111.356 58.7799 111.212L58.9479 112.676C58.6319 112.824 58.2839 112.942 57.9039 113.03C57.5279 113.122 57.1359 113.168 56.7279 113.168ZM61.3044 113.12C60.9844 113.12 60.6924 113.05 60.4284 112.91C60.1644 112.766 59.9544 112.56 59.7984 112.292C59.6424 112.024 59.5644 111.7 59.5644 111.32C59.5644 110.98 59.6424 110.69 59.7984 110.45C59.9584 110.206 60.1664 110.004 60.4224 109.844C60.6824 109.68 60.9624 109.552 61.2624 109.46C61.5664 109.364 61.8644 109.294 62.1564 109.25C62.4524 109.206 62.7124 109.18 62.9364 109.172C62.9204 108.828 62.8324 108.578 62.6724 108.422C62.5124 108.266 62.2404 108.188 61.8564 108.188C61.5884 108.188 61.3264 108.226 61.0704 108.302C60.8184 108.374 60.5324 108.488 60.2124 108.644L60.0804 107.432C60.4404 107.256 60.8004 107.124 61.1604 107.036C61.5244 106.948 61.8924 106.904 62.2644 106.904C62.7124 106.904 63.0984 106.984 63.4224 107.144C63.7464 107.304 63.9964 107.562 64.1724 107.918C64.3484 108.27 64.4364 108.736 64.4364 109.316V110.936C64.4364 111.236 64.4504 111.454 64.4784 111.59C64.5064 111.722 64.5584 111.806 64.6344 111.842C64.7104 111.878 64.8204 111.896 64.9644 111.896H65.1564L65.0244 113.12H64.4844C64.2604 113.12 64.0604 113.09 63.8844 113.03C63.7124 112.974 63.5644 112.894 63.4404 112.79C63.3164 112.686 63.2164 112.564 63.1404 112.424C62.9444 112.644 62.6784 112.816 62.3424 112.94C62.0104 113.06 61.6644 113.12 61.3044 113.12ZM61.9284 111.98C62.0604 111.98 62.2244 111.946 62.4204 111.878C62.6164 111.806 62.7924 111.696 62.9484 111.548V110.18C62.6684 110.192 62.3884 110.238 62.1084 110.318C61.8284 110.398 61.5944 110.516 61.4064 110.672C61.2184 110.828 61.1244 111.024 61.1244 111.26C61.1244 111.504 61.1884 111.686 61.3164 111.806C61.4444 111.922 61.6484 111.98 61.9284 111.98ZM67.521 113.12C67.165 113.12 66.873 113.05 66.645 112.91C66.421 112.766 66.255 112.576 66.147 112.34C66.039 112.1 65.985 111.836 65.985 111.548V104H67.473V110.936C67.473 111.256 67.491 111.484 67.527 111.62C67.567 111.752 67.639 111.832 67.743 111.86C67.847 111.884 67.997 111.896 68.193 111.896L68.061 113.12H67.521ZM70.6733 113.12C70.3173 113.12 70.0253 113.05 69.7973 112.91C69.5733 112.766 69.4073 112.576 69.2993 112.34C69.1913 112.1 69.1373 111.836 69.1373 111.548V104H70.6253V110.936C70.6253 111.256 70.6433 111.484 70.6793 111.62C70.7193 111.752 70.7913 111.832 70.8953 111.86C70.9993 111.884 71.1493 111.896 71.3453 111.896L71.2133 113.12H70.6733ZM73.9937 113.12C73.5977 113.12 73.2397 113.082 72.9197 113.006C72.6037 112.93 72.2857 112.82 71.9657 112.676L72.0977 111.404C72.4057 111.584 72.7077 111.73 73.0037 111.842C73.3037 111.95 73.6177 112.004 73.9457 112.004C74.2417 112.004 74.4677 111.956 74.6236 111.86C74.7797 111.764 74.8577 111.612 74.8577 111.404C74.8577 111.248 74.8157 111.12 74.7317 111.02C74.6517 110.92 74.5297 110.83 74.3657 110.75C74.2017 110.67 73.9977 110.584 73.7537 110.492C73.3857 110.356 73.0717 110.208 72.8117 110.048C72.5557 109.888 72.3597 109.696 72.2237 109.472C72.0917 109.244 72.0257 108.964 72.0257 108.632C72.0257 108.288 72.1157 107.984 72.2957 107.72C72.4757 107.456 72.7317 107.25 73.0637 107.102C73.3957 106.954 73.7897 106.88 74.2457 106.88C74.6257 106.88 74.9657 106.922 75.2657 107.006C75.5697 107.09 75.8497 107.204 76.1057 107.348L75.9737 108.62C75.7057 108.432 75.4357 108.278 75.1637 108.158C74.8917 108.034 74.5937 107.972 74.2697 107.972C74.0137 107.972 73.8157 108.024 73.6757 108.128C73.5357 108.232 73.4657 108.38 73.4657 108.572C73.4657 108.804 73.5637 108.978 73.7597 109.094C73.9557 109.21 74.2697 109.352 74.7017 109.52C74.9817 109.628 75.2237 109.74 75.4277 109.856C75.6357 109.972 75.8077 110.1 75.9437 110.24C76.0797 110.38 76.1797 110.54 76.2437 110.72C76.3117 110.896 76.3457 111.1 76.3457 111.332C76.3457 111.712 76.2537 112.036 76.0697 112.304C75.8897 112.568 75.6237 112.77 75.2717 112.91C74.9237 113.05 74.4977 113.12 73.9937 113.12ZM80.2872 113V104.6H85.4592V106.088H81.8232V107.876H84.6312V109.364H81.8232V113H80.2872ZM85.9303 113V107H87.3223L87.3583 107.636C87.5103 107.468 87.7243 107.3 88.0003 107.132C88.2763 106.964 88.5783 106.88 88.9063 106.88C89.0023 106.88 89.0903 106.888 89.1703 106.904L89.0623 108.368C88.9743 108.344 88.8863 108.328 88.7983 108.32C88.7143 108.312 88.6303 108.308 88.5463 108.308C88.2943 108.308 88.0643 108.366 87.8563 108.482C87.6483 108.598 87.5023 108.74 87.4183 108.908V113H85.9303ZM92.5097 113.12C91.8577 113.12 91.3017 112.978 90.8417 112.694C90.3817 112.41 90.0297 112.032 89.7857 111.56C89.5457 111.088 89.4257 110.572 89.4257 110.012C89.4257 109.448 89.5457 108.928 89.7857 108.452C90.0297 107.976 90.3817 107.596 90.8417 107.312C91.3017 107.024 91.8577 106.88 92.5097 106.88C93.1617 106.88 93.7177 107.024 94.1777 107.312C94.6377 107.596 94.9877 107.976 95.2277 108.452C95.4717 108.928 95.5937 109.448 95.5937 110.012C95.5937 110.572 95.4717 111.088 95.2277 111.56C94.9877 112.032 94.6377 112.41 94.1777 112.694C93.7177 112.978 93.1617 113.12 92.5097 113.12ZM92.5097 111.896C93.0097 111.896 93.3937 111.722 93.6617 111.374C93.9337 111.022 94.0697 110.568 94.0697 110.012C94.0697 109.448 93.9337 108.99 93.6617 108.638C93.3937 108.282 93.0097 108.104 92.5097 108.104C92.0137 108.104 91.6297 108.282 91.3577 108.638C91.0857 108.99 90.9497 109.448 90.9497 110.012C90.9497 110.568 91.0857 111.022 91.3577 111.374C91.6297 111.722 92.0137 111.896 92.5097 111.896ZM96.6295 113V107H97.9015L97.9975 107.876L97.7815 107.612C98.0095 107.432 98.2815 107.27 98.5975 107.126C98.9175 106.978 99.2895 106.904 99.7135 106.904C100.034 106.904 100.316 106.952 100.56 107.048C100.808 107.14 101.02 107.274 101.196 107.45C101.372 107.622 101.514 107.828 101.622 108.068L101.262 107.984C101.454 107.64 101.734 107.374 102.102 107.186C102.474 106.998 102.894 106.904 103.362 106.904C103.914 106.904 104.364 107.018 104.712 107.246C105.06 107.474 105.316 107.796 105.48 108.212C105.644 108.624 105.726 109.108 105.726 109.664V113H104.238V109.772C104.238 109.212 104.15 108.798 103.974 108.53C103.802 108.262 103.514 108.128 103.11 108.128C102.91 108.128 102.734 108.164 102.582 108.236C102.434 108.304 102.31 108.406 102.21 108.542C102.114 108.674 102.042 108.836 101.994 109.028C101.946 109.216 101.922 109.428 101.922 109.664V113H100.434V109.772C100.434 109.4 100.394 109.092 100.314 108.848C100.238 108.604 100.114 108.424 99.9415 108.308C99.7735 108.188 99.5535 108.128 99.2815 108.128C98.9335 108.128 98.6475 108.21 98.4235 108.374C98.2035 108.534 98.0095 108.752 97.8415 109.028L98.1175 108.224V113H96.6295ZM111.543 113L109.179 104.6H110.775L112.455 110.564L114.327 104.6H115.395L117.339 110.408L118.947 104.6H120.543L118.083 113H116.727L114.855 107.396L112.995 113H111.543ZM123.733 113.12C123.009 113.12 122.405 112.976 121.921 112.688C121.441 112.396 121.081 112.012 120.841 111.536C120.601 111.056 120.481 110.532 120.481 109.964C120.481 109.416 120.593 108.91 120.817 108.446C121.045 107.982 121.377 107.61 121.813 107.33C122.249 107.046 122.781 106.904 123.409 106.904C123.985 106.904 124.465 107.022 124.849 107.258C125.233 107.494 125.521 107.81 125.713 108.206C125.905 108.598 126.001 109.032 126.001 109.508C126.001 109.64 125.993 109.774 125.977 109.91C125.961 110.042 125.937 110.18 125.905 110.324H122.029C122.085 110.696 122.201 110.998 122.377 111.23C122.557 111.458 122.775 111.626 123.031 111.734C123.291 111.842 123.569 111.896 123.865 111.896C124.213 111.896 124.537 111.852 124.837 111.764C125.137 111.672 125.413 111.552 125.665 111.404L125.737 112.664C125.509 112.784 125.225 112.89 124.885 112.982C124.545 113.074 124.161 113.12 123.733 113.12ZM122.065 109.316H124.489C124.489 109.136 124.455 108.956 124.387 108.776C124.319 108.592 124.205 108.438 124.045 108.314C123.889 108.19 123.677 108.128 123.409 108.128C123.025 108.128 122.723 108.24 122.503 108.464C122.283 108.688 122.137 108.972 122.065 109.316ZM130.136 113.12C129.68 113.12 129.286 113.046 128.954 112.898C128.622 112.75 128.312 112.548 128.024 112.292L128.468 111.98L128.396 113H127.004V104H128.492V107.996L128.132 107.768C128.396 107.496 128.69 107.284 129.014 107.132C129.342 106.98 129.716 106.904 130.136 106.904C130.724 106.904 131.218 107.046 131.618 107.33C132.018 107.614 132.32 107.992 132.524 108.464C132.732 108.936 132.836 109.452 132.836 110.012C132.836 110.572 132.732 111.088 132.524 111.56C132.32 112.032 132.018 112.41 131.618 112.694C131.218 112.978 130.724 113.12 130.136 113.12ZM129.92 111.896C130.216 111.896 130.468 111.816 130.676 111.656C130.884 111.496 131.042 111.276 131.15 110.996C131.258 110.712 131.312 110.384 131.312 110.012C131.312 109.64 131.258 109.314 131.15 109.034C131.042 108.75 130.884 108.528 130.676 108.368C130.468 108.208 130.216 108.128 129.92 108.128C129.572 108.128 129.288 108.208 129.068 108.368C128.848 108.528 128.684 108.75 128.576 109.034C128.472 109.314 128.42 109.64 128.42 110.012C128.42 110.384 128.472 110.712 128.576 110.996C128.684 111.276 128.848 111.496 129.068 111.656C129.288 111.816 129.572 111.896 129.92 111.896ZM135.576 113.12C135.18 113.12 134.822 113.082 134.502 113.006C134.186 112.93 133.868 112.82 133.548 112.676L133.68 111.404C133.988 111.584 134.29 111.73 134.586 111.842C134.886 111.95 135.2 112.004 135.528 112.004C135.824 112.004 136.05 111.956 136.206 111.86C136.362 111.764 136.44 111.612 136.44 111.404C136.44 111.248 136.398 111.12 136.314 111.02C136.234 110.92 136.112 110.83 135.948 110.75C135.784 110.67 135.58 110.584 135.336 110.492C134.968 110.356 134.654 110.208 134.394 110.048C134.138 109.888 133.942 109.696 133.806 109.472C133.674 109.244 133.608 108.964 133.608 108.632C133.608 108.288 133.698 107.984 133.878 107.72C134.058 107.456 134.314 107.25 134.646 107.102C134.978 106.954 135.372 106.88 135.828 106.88C136.208 106.88 136.548 106.922 136.848 107.006C137.152 107.09 137.432 107.204 137.688 107.348L137.556 108.62C137.288 108.432 137.018 108.278 136.746 108.158C136.474 108.034 136.176 107.972 135.852 107.972C135.596 107.972 135.398 108.024 135.258 108.128C135.118 108.232 135.048 108.38 135.048 108.572C135.048 108.804 135.146 108.978 135.342 109.094C135.538 109.21 135.852 109.352 136.284 109.52C136.564 109.628 136.806 109.74 137.01 109.856C137.218 109.972 137.39 110.1 137.526 110.24C137.662 110.38 137.762 110.54 137.826 110.72C137.894 110.896 137.928 111.1 137.928 111.332C137.928 111.712 137.836 112.036 137.652 112.304C137.472 112.568 137.206 112.77 136.854 112.91C136.506 113.05 136.08 113.12 135.576 113.12ZM138.946 113V107H140.434V113H138.946ZM138.946 106.088V104.6H140.434V106.088H138.946ZM143.785 113.12C143.409 113.12 143.103 113.044 142.867 112.892C142.631 112.736 142.457 112.538 142.345 112.298C142.233 112.058 142.177 111.808 142.177 111.548V108.224H141.325L141.457 107H142.177V105.68L143.665 105.524V107H144.985V108.224H143.665V110.936C143.665 111.24 143.683 111.46 143.719 111.596C143.755 111.728 143.837 111.812 143.965 111.848C144.093 111.88 144.297 111.896 144.577 111.896H144.985L144.853 113.12H143.785ZM148.846 113.12C148.122 113.12 147.518 112.976 147.034 112.688C146.554 112.396 146.194 112.012 145.954 111.536C145.714 111.056 145.594 110.532 145.594 109.964C145.594 109.416 145.706 108.91 145.93 108.446C146.158 107.982 146.49 107.61 146.926 107.33C147.362 107.046 147.894 106.904 148.522 106.904C149.098 106.904 149.578 107.022 149.962 107.258C150.346 107.494 150.634 107.81 150.826 108.206C151.018 108.598 151.114 109.032 151.114 109.508C151.114 109.64 151.106 109.774 151.09 109.91C151.074 110.042 151.05 110.18 151.018 110.324H147.142C147.198 110.696 147.314 110.998 147.49 111.23C147.67 111.458 147.888 111.626 148.144 111.734C148.404 111.842 148.682 111.896 148.978 111.896C149.326 111.896 149.65 111.852 149.95 111.764C150.25 111.672 150.526 111.552 150.778 111.404L150.85 112.664C150.622 112.784 150.338 112.89 149.998 112.982C149.658 113.074 149.274 113.12 148.846 113.12ZM147.178 109.316H149.602C149.602 109.136 149.568 108.956 149.5 108.776C149.432 108.592 149.318 108.438 149.158 108.314C149.002 108.19 148.79 108.128 148.522 108.128C148.138 108.128 147.836 108.24 147.616 108.464C147.396 108.688 147.25 108.972 147.178 109.316Z" fill="black"/>
</g>
<defs>
<clipPath id="clip0_478_423">
<rect width="198" height="147" fill="white"/>
</clipPath>
</defs>
</svg>
