<svg id="Layer_1" fill="#004C92" enable-background="new 0 0 66 66" height="512" viewBox="0 0 66 66" width="512" xmlns="http://www.w3.org/2000/svg"><g><g><path d="m59.72 1.65h-53.44c-2.37 0-4.28 1.92-4.28 4.28v6.28h62v-6.28c0-2.36-1.91-4.28-4.28-4.28zm-51.72 7.28c-1.1 0-2-.9-2-2s.9-2 2-2 2 .9 2 2-.9 2-2 2zm7.87 0c-1.1 0-2-.9-2-2s.9-2 2-2 2 .9 2 2-.89 2-2 2zm7.87 0c-1.1 0-2-.9-2-2s.9-2 2-2 2 .9 2 2-.89 2-2 2z"/><path d="m7.77 37.27h15.31l-7.65-12.69z"/><path d="m22.52 32.47 2.9 4.8h3.47l-4.63-7.68z"/><circle cx="28.1" cy="23.13" r="2.5"/><path d="m47.31 54.02 5.88-4.28c.6-.44.6-1.34 0-1.78l-5.88-4.28c-.73-.53-1.75-.01-1.75.89v8.57c0 .89 1.02 1.41 1.75.88z"/><path d="m2 60.07c0 2.36 1.91 4.28 4.28 4.28h53.45c2.36 0 4.28-1.91 4.28-4.28v-45.87h-62.01zm36.84-40.87h21.16c.55 0 1 .45 1 1s-.45 1-1 1h-21.16c-.55 0-1-.45-1-1s.45-1 1-1zm0 4.32h21.16c.55 0 1 .45 1 1s-.45 1-1 1h-21.16c-.55 0-1-.45-1-1s.45-1 1-1zm0 4.31h21.16c.55 0 1 .45 1 1s-.45 1-1 1h-21.16c-.55 0-1-.45-1-1s.45-1 1-1zm9.66 9.52c6.35 0 11.5 5.15 11.5 11.5s-5.15 11.5-11.5 11.5-11.5-5.15-11.5-11.5 5.15-11.5 11.5-11.5zm-42.5-19.15h27.1v20.06h-27.1zm0 24.27h27c.55 0 1 .45 1 1s-.45 1-1 1h-27c-.55 0-1-.45-1-1s.45-1 1-1zm0 4.29h27c.55 0 1 .45 1 1s-.45 1-1 1h-27c-.55 0-1-.45-1-1s.45-1 1-1zm0 4.28h27c.55 0 1 .45 1 1s-.45 1-1 1h-27c-.55 0-1-.45-1-1s.45-1 1-1zm0 4.28h21c.55 0 1 .45 1 1s-.45 1-1 1h-21c-.55 0-1-.45-1-1s.45-1 1-1z"/></g></g></svg>