<svg id="Capa_1" enable-background="new 0 0 512 512" height="512" viewBox="0 0 512 512" width="512" xmlns="http://www.w3.org/2000/svg"><g><path d="m14.56 135h482.89v292h-482.89z" fill="#f0f7ff"/><path d="m256 135h241.45v292h-241.45z" fill="#dfe7f4"/><path d="m497 0h-482c-8.28 0-15 6.72-15 15v412c0 8.28 6.72 15 15 15h482c8.29 0 15-6.72 15-15v-412c0-8.28-6.71-15-15-15zm-15 412h-452v-262h452z" fill="#47568c"/><path d="m512 15v412c0 8.28-6.71 15-15 15h-241v-30h226v-262h-226v-150h241c8.29 0 15 6.72 15 15z" fill="#29376d"/><circle cx="437.004" cy="71.282" fill="#ff3053" r="15"/><circle cx="377.004" cy="71.282" fill="#59c36a" r="15"/><circle cx="317.004" cy="71.282" fill="#ffe14d" r="15"/><path d="m173.347 86.282h-98.343c-8.284 0-15-6.716-15-15s6.716-15 15-15h98.343c8.284 0 15 6.716 15 15s-6.715 15-15 15z" fill="#f0f7ff"/><path d="m411.01 300.05-39.55-4.38 24.8-31.13c4.76-5.98 4.26-14.58-1.15-19.98l-40.66-40.47c-5.41-5.39-14.02-5.85-19.98-1.06l-30.56 24.57-4.32-38.97c-.84-7.6-7.26-13.35-14.91-13.35h-57.36c-7.65 0-14.07 5.75-14.91 13.35l-4.39 39.55-31.12-24.79c-5.98-4.77-14.59-4.27-19.98 1.15l-40.47 40.65c-5.39 5.42-5.85 14.02-1.06 19.98l24.57 30.56-38.97 4.32c-7.6.85-13.35 7.27-13.35 14.91v57.36c0 7.65 5.75 14.07 13.35 14.91l39.55 4.39-24.8 31.12c-4.76 5.98-4.26 14.59 1.15 19.98l40.66 40.47c5.41 5.39 14.02 5.85 19.98 1.06l30.56-24.57 4.32 38.97c.84 7.6 7.26 13.35 14.91 13.35h57.36c7.65 0 14.07-5.75 14.91-13.35l4.39-39.55 31.12 24.8c5.98 4.76 14.59 4.27 19.98-1.15l40.47-40.65c5.39-5.42 5.85-14.03 1.06-19.99l-24.57-30.56 38.97-4.32c7.6-.84 13.35-7.26 13.35-14.91v-57.36c0-7.64-5.75-14.06-13.35-14.91zm-155.01 106c-34.41 0-62.41-28-62.41-62.41s28-62.41 62.41-62.41 62.41 28 62.41 62.41-28 62.41-62.41 62.41z" fill="#4793ff"/><path d="m424.36 314.96v57.36c0 7.65-5.75 14.07-13.35 14.91l-38.97 4.32 24.57 30.56c4.79 5.96 4.33 14.57-1.06 19.99l-40.47 40.65c-5.39 5.42-14 5.91-19.98 1.15l-31.12-24.8-4.39 39.55c-.84 7.6-7.26 13.35-14.91 13.35h-28.68v-105.95c34.41 0 62.41-28 62.41-62.41s-28-62.41-62.41-62.41v-105.95h28.68c7.65 0 14.07 5.75 14.91 13.35l4.32 38.97 30.56-24.57c5.96-4.79 14.57-4.33 19.98 1.06l40.66 40.47c5.41 5.4 5.91 14 1.15 19.98l-24.8 31.13 39.55 4.38c7.6.85 13.35 7.27 13.35 14.91z" fill="#525cdd"/></g></svg>