<svg id="Glyph" fill="#FFFFFF" viewBox="0 0 64 64" xmlns="http://www.w3.org/2000/svg"><path d="m56 58h-1v-3h-42c-.55225 0-1-.44727-1-1s.44775-1 1-1h42v-3h1c.55225 0 1-.44727 1-1s-.44775-1-1-1h-43c-3.30859 0-6 2.69141-6 6s2.69141 6 6 6h43c.55225 0 1-.44727 1-1s-.44775-1-1-1z"/><path d="m21 24h.10315c1.27606 2.76257 3.5675 4.96631 6.39685 6.12v3.97998c0 1.64001-.58002 3.22998-1.62 4.47998l-2.22003 2.67004c-.75.89001-1.15997 2.02997-1.15997 3.20001v1.54999h19v-1.54999c0-1.17004-.40997-2.31-1.15997-3.20001l-2.22003-2.67004c-1.03998-1.25-1.62-2.83997-1.62-4.47998v-3.97998c2.82935-1.15369 5.12079-3.35742 6.39685-6.12h.10315c5.51416 0 10-4.48584 10-10v-5c0-2.75684-2.24316-5-5-5h-32c-2.75684 0-5 2.24316-5 5v5c0 5.51416 4.48584 10 10 10zm-8-15c0-1.6543 1.3457-3 3-3h4v4h24v-4h4c1.6543 0 3 1.3457 3 3v5c0 4.20172-3.25824 7.64996-7.3797 7.96857.24377-.9505.3797-1.94348.3797-2.96857v-7h-24v7c0 1.02509.13593 2.01807.3797 2.96857-4.12146-.3186-7.3797-3.76685-7.3797-7.96857z"/></svg>