<svg xmlns="http://www.w3.org/2000/svg" version="1.1" xmlns:xlink="http://www.w3.org/1999/xlink" width="512" height="512" x="0" y="0" viewBox="0 0 16.933 16.933" style="enable-background:new 0 0 512 512" xml:space="preserve" class=""><g><path d="M3.44.529a.797.797 0 0 0-.794.793v8.467c0 .353.53.353.53 0V3.176h10.581v6.613c-.008.36.538.36.53 0V1.322a.797.797 0 0 0-.793-.793zm0 .53h10.054c.15 0 .263.112.263.263v1.324H3.176V1.322c0-.151.112-.264.263-.264zm.529.528a.265.265 0 1 0 0 .53.265.265 0 0 0 0-.53zm1.058 0a.265.265 0 1 0 0 .53.265.265 0 0 0 0-.53zm1.058 0a.265.265 0 1 0 0 .53.265.265 0 0 0 0-.53zm3.691 0c-.357.025-.333.539.013.53h3.176c.345-.008.345-.522 0-.53zm-8.452.53a.798.798 0 0 0-.795.793v9.525c0 .435.36.793.795.793H15.61a.797.797 0 0 0 .793-.793V2.91a.797.797 0 0 0-.793-.793h-.53c-.36-.008-.36.537 0 .529h.53c.151 0 .263.112.263.264v7.673H1.058V2.91c0-.152.115-.264.266-.264h.527c.36.008.36-.537 0-.53zm7.94 2.112a.265.265 0 0 0-.255.185L7.421 9.176c-.112.335.39.503.503.168l1.588-4.763a.265.265 0 0 0-.248-.352zm1.15 1.53 1.343 1.12L10.414 8c-.287.224.067.648.34.406l1.585-1.323a.265.265 0 0 0 0-.406l-1.586-1.324a.271.271 0 0 0-.183-.063c-.25.022-.34.32-.156.47zm-4.07-.47a.265.265 0 0 0-.163.063L4.594 6.676a.265.265 0 0 0 0 .406L6.18 8.405c.273.254.638-.184.338-.406l-1.344-1.12L6.52 5.76a.265.265 0 0 0-.176-.47zm-5.286 5.824h14.816v1.322a.257.257 0 0 1-.263.264H1.324a.258.258 0 0 1-.266-.264zm7.952.529H7.925c-.338.04-.315.518.012.527h1.059c.363.033.393-.52.014-.527zm-2.027 2.095a.265.265 0 0 0-.247.156c-.128.273-.356.592-.75.923h-.43a.798.798 0 0 0-.792.795v.527c-.001.146.117.265.263.266h6.879a.265.265 0 0 0 .265-.266v-.527a.8.8 0 0 0-.794-.795h-.43c-.393-.33-.622-.65-.75-.923a.265.265 0 1 0-.479.224c.103.22.26.458.473.699H6.742c.212-.24.37-.478.473-.7a.265.265 0 0 0-.232-.38zm-1.427 1.608h5.82a.26.26 0 0 1 .266.266v.264h-6.35v-.264c0-.151.113-.266.264-.266z" fill="#004c92" opacity="1" data-original="#000000"></path></g></svg>