<svg clip-rule="evenodd" fill-rule="evenodd" stroke-linejoin="round" stroke-miterlimit="2" viewBox="0 0 64 64" xmlns="http://www.w3.org/2000/svg" xmlns:serif="http://www.serif.com/"><g transform="translate(-456 -399)"><g id="web-design" transform="translate(-2280 399)"><path d="m2736 0h64v64h-64z" fill="none"/><g transform="matrix(1 0 0 1.147 2735 -116.471)"><path d="m13 112h-3c-2.209 0-4 1.561-4 3.487v27.026c0 .925.421 1.812 1.172 2.466.75.654 1.767 1.021 2.828 1.021h46c1.061 0 2.078-.367 2.828-1.021.751-.654 1.172-1.541 1.172-2.466 0-6.524 0-20.502 0-27.026 0-1.926-1.791-3.487-4-3.487-1.568 0-3 0-3 0" fill="#e6ecfd"/></g><g transform="matrix(1 0 0 .917 2735 -81.083)"><path d="m27 143h12v12h-12z" fill="#1076cf"/></g><g transform="matrix(4.5 0 0 .833 2619.5 -78.167)"><path d="m39 143h-12v7.2c0 1.273.094 2.494.26 3.394.167.9.393 1.406.629 1.406h10.222c.236 0 .462-.506.629-1.406.166-.9.26-2.121.26-3.394 0-3.341 0-7.2 0-7.2z" fill="#1076cf"/></g><g transform="translate(2735 -97)"><path d="m22 159h21c.552 0 1-.448 1-1s-.448-1-1-1h-21c-.552 0-1 .448-1 1s.448 1 1 1z" fill="#1076cf"/></g><g transform="translate(2735 -95)"><circle cx="33" cy="141" fill="#64b6e6" r="2"/></g><g transform="matrix(.741 0 0 1 2743.56 -109)"><path d="m60 114c0-1.105-1.209-2-2.7-2-9.218 0-39.382 0-48.6 0-1.491 0-2.7.895-2.7 2v30c0 1.105 1.209 2 2.7 2h48.6c1.491 0 2.7-.895 2.7-2 0-6.028 0-23.972 0-30z" fill="#becefa"/></g><g transform="matrix(1 0 0 1.25 2280 -500.75)"><path d="m508 404.6c0-.884-.895-1.6-2-1.6-6.828 0-29.172 0-36 0-1.105 0-2 .716-2 1.6v6.4h40z" fill="#64b6e6"/></g><g transform="translate(2394 -400)"><circle cx="389" cy="408" fill="#e6ecfd" r="2"/></g><g transform="translate(2388 -400)"><circle cx="389" cy="408" fill="#e6ecfd" r="2"/></g><g transform="translate(2382 -400)"><circle cx="389" cy="408" fill="#e6ecfd" r="2"/></g><g transform="translate(2394 -402)"><path d="m370 409h-12c-.552 0-1 .448-1 1s.448 1 1 1h12c.552 0 1-.448 1-1s-.448-1-1-1z" fill="#e6ecfd"/></g><g transform="matrix(.923 0 0 1 2317.54 -403)"><path d="m478.25 426h-2.167c-.598 0-1.083-.448-1.083-1 0-1.11 0-2.89 0-4 0-.265.114-.52.317-.707.203-.188.479-.293.766-.293h23.834c.287 0 .563.105.766.293.203.187.317.442.317.707v4c0 .552-.485 1-1.083 1-.946 0-2.167 0-2.167 0v-2c0-.552-.485-1-1.083-1s-1.084.448-1.084 1v2h-2.166v-2c0-.552-.486-1-1.084-1s-1.083.448-1.083 1v2h-2.167v-2c0-.552-.485-1-1.083-1s-1.083.448-1.083 1v2h-2.167v-2c0-.552-.485-1-1.083-1s-1.084.448-1.084 1v2h-2.166v-2c0-.552-.486-1-1.084-1s-1.083.448-1.083 1z" fill="#1076cf"/></g><g transform="matrix(.692 0 0 1 2433.15 -393)"><path d="m501 423c0-1.657-1.94-3-4.333-3-7.397 0-21.667 0-21.667 0v6h21.667c2.393 0 4.333-1.343 4.333-3z" fill="#1076cf"/></g><g transform="translate(2281 -401)"><path d="m480 424h-2v-2c0-.552.448-1 1-1s1 .448 1 1z" fill="#64b6e6"/></g><g transform="translate(2285 -401)"><path d="m478 424v-2c0-.552.448-1 1-1s1 .448 1 1v2z" fill="#64b6e6"/></g><g transform="translate(2289 -401)"><path d="m480 424h-2v-2c0-.552.448-1 1-1s1 .448 1 1z" fill="#64b6e6"/></g><g transform="translate(2293 -401)"><path d="m478 424v-2c0-.552.448-1 1-1s1 .448 1 1v2z" fill="#64b6e6"/></g><g transform="translate(2297 -401)"><path d="m478 424v-2c0-.552.448-1 1-1s1 .448 1 1v2z" fill="#64b6e6"/></g><g transform="matrix(0 -1 1.5 0 2115.5 510)"><path d="m480 427 3 4h-6z" fill="#146fbf"/></g></g></g></svg>