<svg width="48" height="48" viewBox="0 0 48 48" fill="none" xmlns="http://www.w3.org/2000/svg">
<path d="M1.6001 16C1.6001 18.2704 7.8401 20.8 16.8001 20.8C17.2441 20.8 17.6801 20.7824 18.1153 20.768C18.1787 20.6281 18.2614 20.4978 18.3609 20.3808C18.9757 19.6501 19.6521 18.9735 20.3825 18.3584C20.6272 18.1503 20.9258 18.0157 21.2437 17.9701C21.5616 17.9245 21.886 17.9698 22.1793 18.1008L24.3585 19.0312C25.3303 18.483 26.3644 18.0533 27.4385 17.7512L28.3185 15.5512C28.4366 15.256 28.6332 14.9987 28.8871 14.8072C29.1409 14.6157 29.4422 14.4973 29.7585 14.4648C30.5034 14.3999 31.2521 14.3903 31.9985 14.436V9.24878C29.1273 11.5712 22.8257 12.8 16.8001 12.8C10.7745 12.8 4.4729 11.5712 1.6001 9.24878V16ZM7.2209 15.696C7.26905 15.4895 7.39721 15.3106 7.57722 15.1985C7.75723 15.0864 7.97436 15.0504 8.1809 15.0984C8.4345 15.1568 8.6929 15.2136 8.9569 15.2664C9.15132 15.3059 9.32414 15.4162 9.44181 15.5759C9.55947 15.7356 9.61359 15.9334 9.59365 16.1308C9.57371 16.3282 9.48114 16.5111 9.33391 16.6441C9.18668 16.7771 8.99529 16.8506 8.7969 16.8504C8.74318 16.851 8.68955 16.8459 8.6369 16.8352C8.3569 16.7792 8.08223 16.7194 7.8129 16.656C7.60744 16.6066 7.42986 16.4779 7.31895 16.298C7.20803 16.1182 7.17278 15.9017 7.2209 15.696ZM3.2753 14.2208C3.31982 14.1256 3.38266 14.0401 3.46023 13.9692C3.53781 13.8983 3.62859 13.8433 3.7274 13.8075C3.82621 13.7717 3.93111 13.7557 4.0361 13.7605C4.14109 13.7652 4.24412 13.7906 4.3393 13.8352C4.5793 13.9477 4.83076 14.056 5.0937 14.16C5.19346 14.197 5.28483 14.2536 5.36246 14.3264C5.44008 14.3992 5.5024 14.4868 5.54576 14.584C5.58913 14.6812 5.61266 14.786 5.61499 14.8924C5.61732 14.9988 5.5984 15.1046 5.55934 15.2036C5.52027 15.3026 5.46185 15.3928 5.38749 15.4689C5.31313 15.5451 5.22432 15.6056 5.12628 15.647C5.02823 15.6884 4.92291 15.7098 4.81649 15.7099C4.71007 15.7101 4.60468 15.689 4.5065 15.648C4.2121 15.5312 3.9289 15.408 3.6609 15.2848C3.56569 15.2403 3.4802 15.1774 3.40929 15.0998C3.33838 15.0223 3.28345 14.9315 3.24764 14.8327C3.21183 14.7339 3.19584 14.629 3.20059 14.524C3.20533 14.419 3.23072 14.316 3.2753 14.2208Z" fill="#004C92"/>
<path d="M1.6001 25.6C1.6001 27.6072 6.7313 29.92 14.4433 30.328C14.4545 30.1352 14.4529 29.9416 14.4721 29.7496C14.5053 29.4352 14.6234 29.1359 14.8138 28.8836C15.0042 28.6313 15.2597 28.4356 15.5529 28.3176L17.7601 27.44C18.0614 26.3653 18.4912 25.3309 19.0401 24.3592L18.1905 22.3688C17.7265 22.3816 17.2673 22.4 16.8001 22.4C10.7745 22.4 4.4729 21.1712 1.6001 18.8488V25.6Z" fill="#004C92"/>
<path d="M16.8001 11.2C25.1948 11.2 32.0001 9.05094 32.0001 6.39998C32.0001 3.74901 25.1948 1.59998 16.8001 1.59998C8.40537 1.59998 1.6001 3.74901 1.6001 6.39998C1.6001 9.05094 8.40537 11.2 16.8001 11.2Z" fill="#004C92"/>
<path d="M31.1999 36C33.8509 36 35.9999 33.851 35.9999 31.2C35.9999 28.5491 33.8509 26.4 31.1999 26.4C28.5489 26.4 26.3999 28.5491 26.3999 31.2C26.3999 33.851 28.5489 36 31.1999 36Z" fill="#004C92"/>
<path d="M31.1999 40C32.9404 40 34.6418 39.4839 36.0889 38.517C37.5361 37.55 38.664 36.1756 39.33 34.5676C39.9961 32.9597 40.1704 31.1903 39.8308 29.4832C39.4913 27.7762 38.6531 26.2082 37.4224 24.9775C36.1917 23.7468 34.6237 22.9087 32.9167 22.5691C31.2097 22.2296 29.4403 22.4038 27.8323 23.0699C26.2243 23.7359 24.8499 24.8639 23.883 26.311C22.916 27.7582 22.3999 29.4596 22.3999 31.2C22.4027 33.5331 23.3307 35.7698 24.9804 37.4195C26.6301 39.0693 28.8668 39.9973 31.1999 40ZM31.1999 24.8C32.4657 24.8 33.7031 25.1754 34.7556 25.8786C35.808 26.5819 36.6283 27.5814 37.1127 28.7509C37.5971 29.9203 37.7239 31.2071 37.4769 32.4486C37.23 33.6901 36.6204 34.8305 35.7254 35.7255C34.8303 36.6206 33.69 37.2301 32.4485 37.4771C31.207 37.724 29.9202 37.5973 28.7507 37.1129C27.5813 36.6285 26.5817 35.8082 25.8785 34.7557C25.1753 33.7032 24.7999 32.4658 24.7999 31.2C24.8018 29.5032 25.4767 27.8765 26.6765 26.6766C27.8763 25.4768 29.5031 24.8019 31.1999 24.8Z" fill="#004C92"/>
<path d="M16.0646 32.5C16.0706 32.5225 16.0818 32.5432 16.0974 32.5605C16.113 32.5777 16.1325 32.591 16.1542 32.5992L18.7246 33.6256C18.8427 33.6727 18.9478 33.7473 19.0313 33.8432C19.1147 33.939 19.1742 34.0534 19.2046 34.1768C19.5015 35.3736 19.9767 36.5189 20.6142 37.5744C20.6796 37.6829 20.7183 37.8055 20.7271 37.9319C20.7358 38.0583 20.7144 38.185 20.6646 38.3016L19.5758 40.8536C19.5648 40.8727 19.559 40.8943 19.559 40.9164C19.559 40.9384 19.5648 40.9601 19.5758 40.9792C20.1338 41.6441 20.7481 42.2597 21.4118 42.8192C21.4307 42.8343 21.4536 42.8435 21.4776 42.8456C21.5017 42.8478 21.5258 42.8428 21.547 42.8312L24.099 41.7416C24.2155 41.6919 24.342 41.6706 24.4683 41.6794C24.5946 41.6881 24.717 41.7267 24.8254 41.792C25.8812 42.4291 27.0268 42.9038 28.2238 43.2C28.3472 43.2305 28.4616 43.2899 28.5575 43.3734C28.6533 43.4568 28.7279 43.5619 28.775 43.68L29.803 46.2536C29.8107 46.275 29.8236 46.2942 29.8405 46.3094C29.8574 46.3246 29.8777 46.3354 29.8998 46.3408C30.7617 46.42 31.6291 46.42 32.491 46.3408C32.5151 46.3366 32.5376 46.3261 32.5563 46.3103C32.575 46.2946 32.5892 46.2742 32.5974 46.2512L33.6246 43.68C33.6718 43.5619 33.7464 43.4568 33.8422 43.3734C33.9381 43.2899 34.0524 43.2305 34.1758 43.2C35.3727 42.9032 36.518 42.428 37.5734 41.7904C37.6819 41.7251 37.8043 41.6865 37.9306 41.6778C38.0568 41.669 38.1834 41.6903 38.2998 41.74L40.8502 42.8288C40.8694 42.8399 40.8912 42.8457 40.9134 42.8457C40.9356 42.8457 40.9574 42.8399 40.9766 42.8288C41.6417 42.2695 42.2573 41.6539 42.8166 40.9888C42.8308 40.9697 42.8392 40.947 42.8409 40.9234C42.8426 40.8997 42.8375 40.8761 42.8262 40.8552L41.7366 38.3008C41.6868 38.1842 41.6654 38.0575 41.6742 37.9311C41.683 37.8047 41.7216 37.6821 41.787 37.5736C42.4245 36.5181 42.8997 35.3728 43.1966 34.176C43.2271 34.0526 43.2865 33.9382 43.37 33.8424C43.4535 33.7465 43.5586 33.6719 43.6766 33.6248L46.251 32.5968C46.272 32.5884 46.2906 32.5752 46.3055 32.5582C46.3204 32.5413 46.3311 32.521 46.3366 32.4992C46.4226 31.6376 46.4226 30.7696 46.3366 29.908C46.332 29.8838 46.3213 29.8612 46.3054 29.8423C46.2896 29.8234 46.2692 29.8088 46.2462 29.8L43.6758 28.7736C43.5578 28.7265 43.4527 28.6519 43.3692 28.556C43.2857 28.4602 43.2263 28.3458 43.1958 28.2224C42.8989 27.0256 42.4237 25.8803 41.7862 24.8248C41.7208 24.7162 41.6822 24.5937 41.6734 24.4673C41.6646 24.3408 41.686 24.2141 41.7358 24.0976L42.8246 21.5456C42.8357 21.5265 42.8415 21.5048 42.8415 21.4828C42.8415 21.4607 42.8357 21.4391 42.8246 21.42C42.2656 20.7547 41.6499 20.139 40.9846 19.58C40.9657 19.565 40.9429 19.5558 40.9188 19.5537C40.8948 19.5516 40.8707 19.5565 40.8494 19.568L38.2974 20.6576C38.1811 20.7078 38.0545 20.7294 37.9281 20.7206C37.8017 20.7118 37.6793 20.673 37.571 20.6072C36.5162 19.9706 35.3717 19.4963 34.1758 19.2C34.0524 19.1695 33.9381 19.1101 33.8422 19.0266C33.7464 18.9431 33.6718 18.838 33.6246 18.72L32.5966 16.1464C32.589 16.125 32.5761 16.1058 32.5592 16.0906C32.5423 16.0754 32.5219 16.0646 32.4998 16.0592C31.638 15.9791 30.7705 15.9791 29.9086 16.0592C29.8846 16.0634 29.862 16.0739 29.8434 16.0897C29.8247 16.1054 29.8105 16.1258 29.8022 16.1488L28.775 18.72C28.7279 18.838 28.6533 18.9431 28.5575 19.0266C28.4616 19.1101 28.3472 19.1695 28.2238 19.2C27.027 19.4968 25.8817 19.972 24.8262 20.6096C24.718 20.6754 24.5955 20.7142 24.4692 20.723C24.3428 20.7318 24.2161 20.7102 24.0998 20.66L21.5494 19.5712C21.5302 19.5603 21.5084 19.5545 21.4862 19.5545C21.4641 19.5545 21.4423 19.5603 21.423 19.5712C20.7583 20.1309 20.1428 20.7465 19.583 21.4112C19.5689 21.4302 19.5605 21.4529 19.5588 21.4766C19.5571 21.5003 19.5622 21.5239 19.5734 21.5448L20.663 24.0992C20.7128 24.2157 20.7342 24.3424 20.7255 24.4689C20.7167 24.5953 20.678 24.7178 20.6126 24.8264C19.9751 25.8819 19.4999 27.0272 19.203 28.224C19.1726 28.3474 19.1131 28.4618 19.0297 28.5576C18.9462 28.6535 18.8411 28.7281 18.723 28.7752L16.1486 29.8032C16.1277 29.8116 16.109 29.8248 16.0941 29.8417C16.0793 29.8587 16.0686 29.8789 16.063 29.9008C15.977 30.7624 15.977 31.6304 16.063 32.492L16.0646 32.5ZM31.1998 20.8C33.2568 20.8 35.2675 21.4099 36.9778 22.5527C38.688 23.6955 40.021 25.3197 40.8082 27.2201C41.5953 29.1204 41.8013 31.2115 41.4 33.2289C40.9987 35.2463 40.0082 37.0994 38.5537 38.5539C37.0993 40.0084 35.2462 40.9989 33.2288 41.4002C31.2114 41.8014 29.1203 41.5955 27.2199 40.8083C25.3196 40.0212 23.6953 38.6882 22.5525 36.9779C21.4098 35.2676 20.7998 33.2569 20.7998 31.2C20.803 28.4427 21.8997 25.7993 23.8494 23.8496C25.7991 21.8999 28.4426 20.8032 31.1998 20.8Z" fill="#004C92"/>
<path d="M16.8001 39.9999C17.2801 39.9999 17.7457 39.9847 18.2121 39.9719L19.0353 38.0431C18.4878 37.0704 18.0597 36.0352 17.7601 34.9599L15.5601 34.0799C15.2651 33.9618 15.008 33.7652 14.8168 33.5113C14.6255 33.2575 14.5074 32.9561 14.4753 32.6399C14.4513 32.3999 14.4513 32.1599 14.4393 31.9199C7.8873 31.6079 3.6897 30.1463 1.6001 28.3951V35.1999C1.6001 37.4703 7.8401 39.9999 16.8001 39.9999Z" fill="#004C92"/>
</svg>
