<svg width="24" height="24" viewBox="0 0 24 24" fill="none" xmlns="http://www.w3.org/2000/svg">
<g clip-path="url(#clip0_278_153)">
<path d="M23.9034 9.48796L19.6378 2.21943C19.4422 1.8862 19.0144 1.77318 18.6798 1.9664L16.1234 3.44236L13.8207 2.59537C13.7359 2.5642 13.6501 2.53804 13.5636 2.51606C12.9153 2.35125 12.228 2.44373 11.6416 2.78231L7.83525 4.97995C6.9945 5.46534 6.70645 6.54042 7.19184 7.38117C7.67723 8.22192 8.75231 8.50996 9.59306 8.02457L13.77 5.613C14.205 5.36179 14.7411 5.36179 15.1762 5.613C15.1762 5.613 23.5915 10.4732 23.6185 10.4899L23.7439 10.3867C24.0107 10.167 24.0784 9.78604 23.9034 9.48796Z" fill="#119CE2"/>
<path d="M22.8339 11.658L14.4729 6.83085L10.296 9.24238C9.80849 9.52386 9.26736 9.66763 8.71911 9.66763C8.44424 9.66763 8.16763 9.63149 7.89505 9.5585C7.07868 9.33974 6.39632 8.81619 5.97379 8.08424C5.55121 7.35238 5.43899 6.49968 5.65775 5.6833C5.83832 5.00933 6.2271 4.42719 6.76893 4.00668L5.04496 3.01133C4.70122 2.81286 4.2614 2.93811 4.07375 3.28789L0.0836144 10.7271C-0.09587 11.0617 0.0227706 11.4785 0.351693 11.6683L0.717177 11.8793L1.35866 10.7682C1.89083 9.84636 2.88304 9.27374 3.94804 9.27374C4.4706 9.27374 4.98679 9.41225 5.44072 9.67438C5.70186 9.82513 5.93479 10.0109 6.1348 10.2253C6.4581 10.1073 6.80343 10.0438 7.15696 10.0438C7.67952 10.0438 8.19566 10.1824 8.64965 10.4445C9.34086 10.8435 9.83535 11.488 10.0419 12.259C10.0647 12.3438 10.0829 12.429 10.0981 12.5144C10.3856 12.5808 10.6633 12.6897 10.921 12.8384C11.6123 13.2375 12.1068 13.8819 12.3133 14.6529C12.3361 14.7377 12.3543 14.8229 12.3695 14.9083C12.657 14.9748 12.9347 15.0836 13.1924 15.2323C14.6194 16.0563 15.1101 17.8875 14.2863 19.3144L13.4103 20.8316L15.2879 21.9156C16.0446 22.3525 17.0121 22.0932 17.449 21.3365C17.8858 20.5798 17.6266 19.6123 16.8699 19.1754L18.0878 19.8785C18.8444 20.3154 19.812 20.0562 20.2489 19.2995C20.6857 18.5428 20.4265 17.5753 19.6698 17.1384L20.4817 17.6071C21.2384 18.044 22.206 17.7847 22.6428 17.028C23.0797 16.2714 22.8204 15.3038 22.0637 14.867L21.2518 14.3982C22.0085 14.8351 22.9761 14.5758 23.4129 13.8191C23.8498 13.0625 23.5905 12.0949 22.8339 11.658Z" fill="#119CE2"/>
<path d="M12.4892 16.4504C11.7326 16.0135 10.765 16.2728 10.3282 17.0295L10.7969 16.2176C11.2338 15.4609 10.9745 14.4934 10.2179 14.0565C9.4612 13.6196 8.49365 13.8789 8.05678 14.6356L8.52553 13.8236C8.9624 13.067 8.70313 12.0994 7.94648 11.6626C7.18982 11.2257 6.22228 11.4849 5.7854 12.2416L5.31665 13.0535C5.75348 12.2968 5.49426 11.3293 4.73756 10.8924C3.9809 10.4555 3.01335 10.7148 2.57648 11.4714L0.87726 14.4146C0.440385 15.1712 0.69965 16.1388 1.45631 16.5757C2.21296 17.0125 3.18056 16.7533 3.61738 15.9966C3.18051 16.7532 3.43978 17.7208 4.19643 18.1576C4.95309 18.5945 5.92068 18.3353 6.35751 17.5786C5.92063 18.3352 6.1799 19.3028 6.9366 19.7396C7.69326 20.1765 8.66081 19.9172 9.09768 19.1605C8.66081 19.9172 8.92007 20.8848 9.67673 21.3216C10.4334 21.7585 11.401 21.4992 11.8378 20.7425L13.0683 18.6113C13.5052 17.8548 13.2459 16.8872 12.4892 16.4504Z" fill="#119CE2"/>
</g>
<defs>
<clipPath id="clip0_278_153">
<rect width="24" height="24" fill="white"/>
</clipPath>
</defs>
</svg>
