<svg width="24" height="24" viewBox="0 0 24 24" fill="none" xmlns="http://www.w3.org/2000/svg">
<path fill-rule="evenodd" clip-rule="evenodd" d="M8.8012 18.4665C4.28205 18.1898 0.705811 14.4402 0.705811 9.85105C0.705811 5.08178 4.56835 1.21924 9.33762 1.21924C14.1069 1.21924 17.9694 5.08178 17.9694 9.85105C17.9694 10.6427 17.863 11.4094 17.6637 12.1376H15.0167C15.299 11.4348 15.4543 10.6672 15.4543 9.86338C15.4543 6.49166 12.7216 3.75896 9.3499 3.75896C5.97823 3.75896 3.24553 6.49166 3.24553 9.86338C3.24553 11.6211 3.98816 13.2051 5.17682 14.3189C5.57753 12.3807 7.29405 10.9232 9.3499 10.9232C10.5088 10.9232 11.5599 11.3863 12.3282 12.1376H10.5492C10.0856 12.1376 9.64096 12.3218 9.31315 12.6496C8.98534 12.9774 8.8012 13.422 8.8012 13.8856V18.4665ZM9.3499 10.4526C8.16388 10.4526 7.19414 9.48291 7.19414 8.29684C7.19414 7.11077 8.16388 6.14107 9.3499 6.14107C10.536 6.14107 11.5057 7.11077 11.5057 8.29684C11.5057 9.48291 10.536 10.4526 9.3499 10.4526ZM23.294 13.8856V21.7853C23.294 22.0492 23.1892 22.3023 23.0026 22.4888C22.816 22.6754 22.5629 22.7803 22.299 22.7803H10.5492C10.2852 22.7803 10.0322 22.6754 9.84558 22.4888C9.65899 22.3023 9.55414 22.0492 9.55414 21.7853V13.8856C9.55414 13.6217 9.65899 13.3686 9.84558 13.182C10.0322 12.9954 10.2852 12.8906 10.5492 12.8906H22.299C22.5629 12.8906 22.816 12.9954 23.0026 13.182C23.1892 13.3686 23.294 13.6217 23.294 13.8856ZM13.2211 14.8574H11.3992C11.1915 14.8574 11.0228 15.026 11.0228 15.2338C11.0228 15.4416 11.1915 15.6103 11.3992 15.6103H13.2211C13.3596 15.888 13.6466 16.0791 13.9779 16.0791C14.3091 16.0791 14.5961 15.888 14.7347 15.6103H21.449C21.6568 15.6103 21.8254 15.4416 21.8254 15.2338C21.8254 15.026 21.6568 14.8574 21.449 14.8574H14.7347C14.5961 14.5796 14.3091 14.3886 13.9779 14.3886C13.6466 14.3886 13.3596 14.5796 13.2211 14.8574ZM14.822 20.0606H11.3992C11.1915 20.0606 11.0228 20.2292 11.0228 20.437C11.0228 20.6448 11.1915 20.8135 11.3992 20.8135H14.822C14.9606 21.0912 15.2476 21.2822 15.5789 21.2822C15.9101 21.2822 16.1972 21.0912 16.3357 20.8135H21.449C21.6568 20.8135 21.8254 20.6448 21.8254 20.437C21.8254 20.2292 21.6568 20.0606 21.449 20.0606H16.3357C16.1972 19.7828 15.9101 19.5918 15.5789 19.5918C15.2476 19.5918 14.9606 19.7828 14.822 20.0606ZM17.9576 17.459H11.3992C11.1915 17.459 11.0228 17.6276 11.0228 17.8354C11.0228 18.0432 11.1915 18.2119 11.3992 18.2119H17.9576C18.0962 18.4896 18.3831 18.6806 18.7144 18.6806C19.0457 18.6806 19.3327 18.4896 19.4712 18.2119H21.449C21.6568 18.2119 21.8254 18.0432 21.8254 17.8354C21.8254 17.6276 21.6568 17.459 21.449 17.459H19.4712C19.3327 17.1812 19.0457 16.9902 18.7144 16.9902C18.3831 16.9902 18.0962 17.1812 17.9576 17.459Z" fill="#119CE2"/>
</svg>
