<svg width="24" height="24" viewBox="0 0 24 24" fill="none" xmlns="http://www.w3.org/2000/svg">
<path fill-rule="evenodd" clip-rule="evenodd" d="M12.2733 3.23495C10.5677 3.17922 8.84423 3.64322 7.35649 4.63762C5.68583 5.75442 4.51783 7.40295 3.98023 9.24455C3.83143 9.22775 3.65356 9.23628 3.44263 9.29602C2.65356 9.51948 2.06049 10.1654 1.79383 10.7347C1.44796 11.4752 1.30209 12.4568 1.45623 13.468C1.60903 14.4792 2.03543 15.3112 2.56876 15.8278C3.10343 16.343 3.70769 16.5123 4.30769 16.3846C5.20103 16.1958 5.64396 16.0528 5.51889 15.2208L4.91329 11.1862C5.03543 9.00135 6.16583 6.94562 8.05623 5.68322C10.5866 3.99335 13.905 4.10135 16.3186 5.95282C17.9978 7.24162 18.9741 9.17095 19.0853 11.1958L18.6616 14.0168C17.7173 16.6027 15.3757 18.3934 12.6658 18.6472H10.8616C10.3965 18.6472 10.0216 19.0211 10.0216 19.4861V19.9294C10.0216 20.3944 10.3965 20.7696 10.8616 20.7696H13.1365C13.6018 20.7696 13.9754 20.3944 13.9754 19.9294V19.6987C16.0192 19.1987 17.8037 17.9432 18.9637 16.1931L19.6928 16.3848C20.2858 16.539 20.897 16.3432 21.4317 15.828C21.965 15.3115 22.3914 14.4795 22.5442 13.4683C22.6984 12.4571 22.5485 11.4779 22.2066 10.735C21.8637 9.99068 21.3525 9.51868 20.7621 9.35042C20.5149 9.27948 20.2469 9.25202 20.0162 9.24615C19.5304 7.57922 18.5288 6.06402 17.0858 4.95602C15.6664 3.86828 13.9786 3.29202 12.2733 3.23495Z" fill="#119CE2"/>
<path fill-rule="evenodd" clip-rule="evenodd" d="M13.7357 9.46944H15.0162V11.8761H15.6023V12.783H15.0162V13.6985H13.869V12.783H12.1661V11.8761L13.7357 9.46944ZM10.0565 9.46944C10.5093 9.46944 10.8773 9.59024 11.1621 9.83184C11.4482 10.075 11.5911 10.3972 11.5911 10.8001C11.5911 11.2721 11.369 11.6516 11.037 11.8988L9.99272 12.6764H11.6162V13.6985H8.39699V12.7404L9.68445 11.7862C9.98152 11.5652 10.1607 11.3721 10.2399 11.243C10.4733 10.8612 10.3954 10.4054 9.96205 10.4054C9.65645 10.4054 9.48579 10.6454 9.44952 11.1262L8.39699 10.9206C8.47459 10.4302 8.66498 10.0676 8.97032 9.82917C9.27752 9.5889 9.63992 9.46944 10.0565 9.46944ZM11.9997 5.81104C8.80258 5.81104 6.22632 8.30117 6.22632 11.5846C6.22632 13.1612 6.82205 14.5526 7.79299 15.575L7.44845 17.1206C7.33459 17.6292 7.68739 17.9708 8.14419 17.715L9.65245 16.8734C10.3693 17.1846 11.1621 17.3566 11.9997 17.3566C15.1983 17.3566 17.7733 14.8668 17.7733 11.5844C17.7733 8.30144 15.1983 5.81104 11.9997 5.81104Z" fill="#119CE2"/>
<path fill-rule="evenodd" clip-rule="evenodd" d="M13.869 10.6318L13.0786 11.8764H13.869V10.6318Z" fill="#119CE2"/>
</svg>
